ISO-10303-21;
HEADER;
/* Generated by software containing ST-Developer
 * from STEP Tools, Inc. (www.steptools.com) 
 */
/* OPTION: using custom renumber hook */

FILE_DESCRIPTION(
/* description */ ('STEP AP242 Edition 2',
'CAx-IF Rec.Pracs.---Representation and Presentation of Product Manufa
cturing Information (PMI)---4.0---2014-10-13',
'CAx-IF Rec.Pracs.---3D Tessellated Geometry---0.4---2014-09-14','2;1',
'CAx-IF Rec.Pracs.---User Defined Attributes---1.5---2016-08-15'),
/* implementation_level */ '2;1');

FILE_NAME(
/* name */ 'BodyFinalPart2 Copy 1',
/* time_stamp */ '2026-05-18T00:10:41Z',
/* author */ (''),
/* organization */ (''),
/* preprocessor_version */ 'ST-DEVELOPER v20',
/* originating_system */ 'ONSHAPE BY PTC INC, 1.215',
/* authorisation */ '  ');

FILE_SCHEMA (('AP242_MANAGED_MODEL_BASED_3D_ENGINEERING_MIM_LF { 1 0 10303 442 3 1 4 }'));
ENDSEC;

DATA;
#10=SHAPE_REPRESENTATION_RELATIONSHIP('','',#1155,#12);
#11=SHAPE_REPRESENTATION_RELATIONSHIP('','',#1156,#13);
#12=ADVANCED_BREP_SHAPE_REPRESENTATION('',(#1151),#1904);
#13=ADVANCED_BREP_SHAPE_REPRESENTATION('',(#1152),#1905);
#14=SPHERICAL_SURFACE('',#1205,0.00075);
#15=SPHERICAL_SURFACE('',#1213,0.00075);
#16=B_SPLINE_CURVE_WITH_KNOTS('',3,(#1752,#1753,#1754,#1755),
 .UNSPECIFIED.,.F.,.F.,(4,4),(3.87895961444886E-18,0.000782413059094322),
 .UNSPECIFIED.);
#17=B_SPLINE_CURVE_WITH_KNOTS('',3,(#1757,#1758,#1759,#1760),
 .UNSPECIFIED.,.F.,.F.,(4,4),(0.,0.000782413059094328),.UNSPECIFIED.);
#18=ELLIPSE('',#1188,0.00187781745930521,0.0013278174593052);
#19=ELLIPSE('',#1189,0.00106066017177982,0.00075);
#20=ELLIPSE('',#1191,0.00187781745930521,0.0013278174593052);
#21=ELLIPSE('',#1192,0.00187781745930521,0.0013278174593052);
#22=ELLIPSE('',#1194,0.00106066017177982,0.00075);
#23=ELLIPSE('',#1195,0.00187781745930521,0.0013278174593052);
#24=ELLIPSE('',#1203,0.00106066017177982,0.00075);
#25=ELLIPSE('',#1208,0.00106066017177982,0.00075);
#26=ELLIPSE('',#1235,0.000233227780858215,0.0001524);
#27=ELLIPSE('',#1237,0.000269677477238577,0.0001524);
#28=ELLIPSE('',#1238,0.000265701291652655,0.0001524);
#29=ELLIPSE('',#1240,0.000218751467917031,0.0001524);
#30=ELLIPSE('',#1242,0.000215526146905659,0.0001524);
#31=ELLIPSE('',#1243,0.000199161424348111,0.0001524);
#32=ELLIPSE('',#1245,0.000236725867795098,0.0001524);
#33=ELLIPSE('',#1247,0.000215526146905659,0.0001524);
#34=TOROIDAL_SURFACE('',#1168,0.004454652,0.001165098);
#35=TOROIDAL_SURFACE('',#1229,0.00445783188479874,0.00116509946520126);
#36=TOROIDAL_SURFACE('',#1249,0.00577533135,0.0001524);
#37=CYLINDRICAL_SURFACE('',#1164,0.00561975);
#38=CYLINDRICAL_SURFACE('',#1196,0.0013278174593052);
#39=CYLINDRICAL_SURFACE('',#1197,0.0013278174593052);
#40=CYLINDRICAL_SURFACE('',#1200,0.00075);
#41=CYLINDRICAL_SURFACE('',#1202,0.00075);
#42=CYLINDRICAL_SURFACE('',#1207,0.00075);
#43=CYLINDRICAL_SURFACE('',#1209,0.00075);
#44=CYLINDRICAL_SURFACE('',#1211,0.00075);
#45=CYLINDRICAL_SURFACE('',#1215,0.00075);
#46=CYLINDRICAL_SURFACE('',#1224,0.00562293135);
#47=CYLINDRICAL_SURFACE('',#1241,0.0001524);
#48=CYLINDRICAL_SURFACE('',#1244,0.0001524);
#49=CYLINDRICAL_SURFACE('',#1246,0.0001524);
#50=CYLINDRICAL_SURFACE('',#1248,0.0001524);
#51=CIRCLE('',#1161,0.00561975);
#52=CIRCLE('',#1165,0.00561975);
#53=CIRCLE('',#1167,0.004454652);
#54=CIRCLE('',#1182,0.0013278174593052);
#55=CIRCLE('',#1183,0.0013278174593052);
#56=CIRCLE('',#1201,0.00075);
#57=CIRCLE('',#1204,0.00075);
#58=CIRCLE('',#1206,0.00075);
#59=CIRCLE('',#1210,0.00075);
#60=CIRCLE('',#1212,0.00075);
#61=CIRCLE('',#1214,0.00075);
#62=CIRCLE('',#1220,0.00577533135);
#63=CIRCLE('',#1225,0.00562293135);
#64=CIRCLE('',#1226,0.00562293135);
#65=CIRCLE('',#1228,0.00445783188479874);
#66=ORIENTED_EDGE('',*,*,#378,.T.);
#67=ORIENTED_EDGE('',*,*,#379,.T.);
#68=ORIENTED_EDGE('',*,*,#380,.T.);
#69=ORIENTED_EDGE('',*,*,#381,.F.);
#70=ORIENTED_EDGE('',*,*,#382,.F.);
#71=ORIENTED_EDGE('',*,*,#383,.F.);
#72=ORIENTED_EDGE('',*,*,#384,.F.);
#73=ORIENTED_EDGE('',*,*,#385,.F.);
#74=ORIENTED_EDGE('',*,*,#386,.T.);
#75=ORIENTED_EDGE('',*,*,#387,.T.);
#76=ORIENTED_EDGE('',*,*,#388,.T.);
#77=ORIENTED_EDGE('',*,*,#385,.T.);
#78=ORIENTED_EDGE('',*,*,#389,.F.);
#79=ORIENTED_EDGE('',*,*,#390,.T.);
#80=ORIENTED_EDGE('',*,*,#391,.T.);
#81=ORIENTED_EDGE('',*,*,#381,.T.);
#82=ORIENTED_EDGE('',*,*,#392,.T.);
#83=ORIENTED_EDGE('',*,*,#393,.F.);
#84=ORIENTED_EDGE('',*,*,#394,.T.);
#85=ORIENTED_EDGE('',*,*,#395,.F.);
#86=ORIENTED_EDGE('',*,*,#396,.F.);
#87=ORIENTED_EDGE('',*,*,#393,.T.);
#88=ORIENTED_EDGE('',*,*,#397,.T.);
#89=ORIENTED_EDGE('',*,*,#398,.T.);
#90=ORIENTED_EDGE('',*,*,#399,.T.);
#91=ORIENTED_EDGE('',*,*,#400,.T.);
#92=ORIENTED_EDGE('',*,*,#401,.T.);
#93=ORIENTED_EDGE('',*,*,#387,.F.);
#94=ORIENTED_EDGE('',*,*,#402,.T.);
#95=ORIENTED_EDGE('',*,*,#403,.T.);
#96=ORIENTED_EDGE('',*,*,#404,.T.);
#97=ORIENTED_EDGE('',*,*,#405,.T.);
#98=ORIENTED_EDGE('',*,*,#402,.F.);
#99=ORIENTED_EDGE('',*,*,#395,.T.);
#100=ORIENTED_EDGE('',*,*,#406,.T.);
#101=ORIENTED_EDGE('',*,*,#396,.T.);
#102=ORIENTED_EDGE('',*,*,#407,.T.);
#103=ORIENTED_EDGE('',*,*,#406,.F.);
#104=ORIENTED_EDGE('',*,*,#407,.F.);
#105=ORIENTED_EDGE('',*,*,#394,.F.);
#106=ORIENTED_EDGE('',*,*,#399,.F.);
#107=ORIENTED_EDGE('',*,*,#408,.F.);
#108=ORIENTED_EDGE('',*,*,#409,.F.);
#109=ORIENTED_EDGE('',*,*,#410,.T.);
#110=ORIENTED_EDGE('',*,*,#404,.F.);
#111=ORIENTED_EDGE('',*,*,#408,.T.);
#112=ORIENTED_EDGE('',*,*,#398,.F.);
#113=ORIENTED_EDGE('',*,*,#411,.F.);
#114=ORIENTED_EDGE('',*,*,#412,.F.);
#115=ORIENTED_EDGE('',*,*,#380,.F.);
#116=ORIENTED_EDGE('',*,*,#413,.T.);
#117=ORIENTED_EDGE('',*,*,#414,.T.);
#118=ORIENTED_EDGE('',*,*,#415,.F.);
#119=ORIENTED_EDGE('',*,*,#411,.T.);
#120=ORIENTED_EDGE('',*,*,#397,.F.);
#121=ORIENTED_EDGE('',*,*,#392,.F.);
#122=ORIENTED_EDGE('',*,*,#384,.T.);
#123=ORIENTED_EDGE('',*,*,#416,.F.);
#124=ORIENTED_EDGE('',*,*,#417,.F.);
#125=ORIENTED_EDGE('',*,*,#389,.T.);
#126=ORIENTED_EDGE('',*,*,#383,.T.);
#127=ORIENTED_EDGE('',*,*,#418,.F.);
#128=ORIENTED_EDGE('',*,*,#419,.F.);
#129=ORIENTED_EDGE('',*,*,#416,.T.);
#130=ORIENTED_EDGE('',*,*,#382,.T.);
#131=ORIENTED_EDGE('',*,*,#391,.F.);
#132=ORIENTED_EDGE('',*,*,#420,.F.);
#133=ORIENTED_EDGE('',*,*,#418,.T.);
#134=ORIENTED_EDGE('',*,*,#390,.F.);
#135=ORIENTED_EDGE('',*,*,#417,.T.);
#136=ORIENTED_EDGE('',*,*,#419,.T.);
#137=ORIENTED_EDGE('',*,*,#420,.T.);
#138=ORIENTED_EDGE('',*,*,#421,.T.);
#139=ORIENTED_EDGE('',*,*,#422,.T.);
#140=ORIENTED_EDGE('',*,*,#423,.F.);
#141=ORIENTED_EDGE('',*,*,#412,.T.);
#142=ORIENTED_EDGE('',*,*,#415,.T.);
#143=ORIENTED_EDGE('',*,*,#424,.T.);
#144=ORIENTED_EDGE('',*,*,#425,.T.);
#145=ORIENTED_EDGE('',*,*,#426,.T.);
#146=ORIENTED_EDGE('',*,*,#427,.T.);
#147=ORIENTED_EDGE('',*,*,#428,.T.);
#148=ORIENTED_EDGE('',*,*,#429,.T.);
#149=ORIENTED_EDGE('',*,*,#430,.T.);
#150=ORIENTED_EDGE('',*,*,#431,.T.);
#151=ORIENTED_EDGE('',*,*,#432,.T.);
#152=ORIENTED_EDGE('',*,*,#433,.T.);
#153=ORIENTED_EDGE('',*,*,#434,.F.);
#154=ORIENTED_EDGE('',*,*,#435,.T.);
#155=ORIENTED_EDGE('',*,*,#436,.T.);
#156=ORIENTED_EDGE('',*,*,#437,.T.);
#157=ORIENTED_EDGE('',*,*,#438,.T.);
#158=ORIENTED_EDGE('',*,*,#439,.T.);
#159=ORIENTED_EDGE('',*,*,#440,.T.);
#160=ORIENTED_EDGE('',*,*,#441,.T.);
#161=ORIENTED_EDGE('',*,*,#431,.F.);
#162=ORIENTED_EDGE('',*,*,#442,.T.);
#163=ORIENTED_EDGE('',*,*,#443,.T.);
#164=ORIENTED_EDGE('',*,*,#444,.T.);
#165=ORIENTED_EDGE('',*,*,#409,.T.);
#166=ORIENTED_EDGE('',*,*,#423,.T.);
#167=ORIENTED_EDGE('',*,*,#445,.T.);
#168=ORIENTED_EDGE('',*,*,#434,.T.);
#169=ORIENTED_EDGE('',*,*,#446,.T.);
#170=ORIENTED_EDGE('',*,*,#443,.F.);
#171=ORIENTED_EDGE('',*,*,#447,.T.);
#172=ORIENTED_EDGE('',*,*,#378,.F.);
#173=ORIENTED_EDGE('',*,*,#448,.T.);
#174=ORIENTED_EDGE('',*,*,#400,.F.);
#175=ORIENTED_EDGE('',*,*,#449,.T.);
#176=ORIENTED_EDGE('',*,*,#414,.F.);
#177=ORIENTED_EDGE('',*,*,#450,.T.);
#178=ORIENTED_EDGE('',*,*,#429,.F.);
#179=ORIENTED_EDGE('',*,*,#451,.T.);
#180=ORIENTED_EDGE('',*,*,#428,.F.);
#181=ORIENTED_EDGE('',*,*,#452,.T.);
#182=ORIENTED_EDGE('',*,*,#424,.F.);
#183=ORIENTED_EDGE('',*,*,#403,.F.);
#184=ORIENTED_EDGE('',*,*,#405,.F.);
#185=ORIENTED_EDGE('',*,*,#410,.F.);
#186=ORIENTED_EDGE('',*,*,#444,.F.);
#187=ORIENTED_EDGE('',*,*,#449,.F.);
#188=ORIENTED_EDGE('',*,*,#453,.T.);
#189=ORIENTED_EDGE('',*,*,#454,.T.);
#190=ORIENTED_EDGE('',*,*,#455,.T.);
#191=ORIENTED_EDGE('',*,*,#421,.F.);
#192=ORIENTED_EDGE('',*,*,#452,.F.);
#193=ORIENTED_EDGE('',*,*,#427,.F.);
#194=ORIENTED_EDGE('',*,*,#456,.T.);
#195=ORIENTED_EDGE('',*,*,#457,.T.);
#196=ORIENTED_EDGE('',*,*,#458,.T.);
#197=ORIENTED_EDGE('',*,*,#459,.T.);
#198=ORIENTED_EDGE('',*,*,#460,.T.);
#199=ORIENTED_EDGE('',*,*,#461,.T.);
#200=ORIENTED_EDGE('',*,*,#436,.F.);
#201=ORIENTED_EDGE('',*,*,#462,.T.);
#202=ORIENTED_EDGE('',*,*,#463,.T.);
#203=ORIENTED_EDGE('',*,*,#425,.F.);
#204=ORIENTED_EDGE('',*,*,#451,.F.);
#205=ORIENTED_EDGE('',*,*,#433,.F.);
#206=ORIENTED_EDGE('',*,*,#464,.T.);
#207=ORIENTED_EDGE('',*,*,#465,.T.);
#208=ORIENTED_EDGE('',*,*,#455,.F.);
#209=ORIENTED_EDGE('',*,*,#466,.T.);
#210=ORIENTED_EDGE('',*,*,#457,.F.);
#211=ORIENTED_EDGE('',*,*,#435,.F.);
#212=ORIENTED_EDGE('',*,*,#445,.F.);
#213=ORIENTED_EDGE('',*,*,#422,.F.);
#214=ORIENTED_EDGE('',*,*,#461,.F.);
#215=ORIENTED_EDGE('',*,*,#467,.T.);
#216=ORIENTED_EDGE('',*,*,#464,.F.);
#217=ORIENTED_EDGE('',*,*,#432,.F.);
#218=ORIENTED_EDGE('',*,*,#446,.F.);
#219=ORIENTED_EDGE('',*,*,#437,.F.);
#220=ORIENTED_EDGE('',*,*,#448,.F.);
#221=ORIENTED_EDGE('',*,*,#386,.F.);
#222=ORIENTED_EDGE('',*,*,#388,.F.);
#223=ORIENTED_EDGE('',*,*,#401,.F.);
#224=ORIENTED_EDGE('',*,*,#379,.F.);
#225=ORIENTED_EDGE('',*,*,#447,.F.);
#226=ORIENTED_EDGE('',*,*,#442,.F.);
#227=ORIENTED_EDGE('',*,*,#430,.F.);
#228=ORIENTED_EDGE('',*,*,#450,.F.);
#229=ORIENTED_EDGE('',*,*,#413,.F.);
#230=ORIENTED_EDGE('',*,*,#467,.F.);
#231=ORIENTED_EDGE('',*,*,#460,.F.);
#232=ORIENTED_EDGE('',*,*,#468,.F.);
#233=ORIENTED_EDGE('',*,*,#465,.F.);
#234=ORIENTED_EDGE('',*,*,#469,.F.);
#235=ORIENTED_EDGE('',*,*,#462,.F.);
#236=ORIENTED_EDGE('',*,*,#470,.F.);
#237=ORIENTED_EDGE('',*,*,#441,.F.);
#238=ORIENTED_EDGE('',*,*,#470,.T.);
#239=ORIENTED_EDGE('',*,*,#468,.T.);
#240=ORIENTED_EDGE('',*,*,#471,.F.);
#241=ORIENTED_EDGE('',*,*,#469,.T.);
#242=ORIENTED_EDGE('',*,*,#440,.F.);
#243=ORIENTED_EDGE('',*,*,#472,.F.);
#244=ORIENTED_EDGE('',*,*,#456,.F.);
#245=ORIENTED_EDGE('',*,*,#426,.F.);
#246=ORIENTED_EDGE('',*,*,#463,.F.);
#247=ORIENTED_EDGE('',*,*,#471,.T.);
#248=ORIENTED_EDGE('',*,*,#459,.F.);
#249=ORIENTED_EDGE('',*,*,#473,.F.);
#250=ORIENTED_EDGE('',*,*,#438,.F.);
#251=ORIENTED_EDGE('',*,*,#472,.T.);
#252=ORIENTED_EDGE('',*,*,#439,.F.);
#253=ORIENTED_EDGE('',*,*,#474,.F.);
#254=ORIENTED_EDGE('',*,*,#453,.F.);
#255=ORIENTED_EDGE('',*,*,#474,.T.);
#256=ORIENTED_EDGE('',*,*,#473,.T.);
#257=ORIENTED_EDGE('',*,*,#475,.F.);
#258=ORIENTED_EDGE('',*,*,#466,.F.);
#259=ORIENTED_EDGE('',*,*,#454,.F.);
#260=ORIENTED_EDGE('',*,*,#475,.T.);
#261=ORIENTED_EDGE('',*,*,#458,.F.);
#262=ORIENTED_EDGE('',*,*,#476,.F.);
#263=ORIENTED_EDGE('',*,*,#477,.F.);
#264=ORIENTED_EDGE('',*,*,#478,.F.);
#265=ORIENTED_EDGE('',*,*,#479,.T.);
#266=ORIENTED_EDGE('',*,*,#480,.T.);
#267=ORIENTED_EDGE('',*,*,#481,.T.);
#268=ORIENTED_EDGE('',*,*,#482,.T.);
#269=ORIENTED_EDGE('',*,*,#483,.T.);
#270=ORIENTED_EDGE('',*,*,#484,.T.);
#271=ORIENTED_EDGE('',*,*,#485,.T.);
#272=ORIENTED_EDGE('',*,*,#486,.F.);
#273=ORIENTED_EDGE('',*,*,#487,.F.);
#274=ORIENTED_EDGE('',*,*,#488,.T.);
#275=ORIENTED_EDGE('',*,*,#489,.T.);
#276=ORIENTED_EDGE('',*,*,#490,.T.);
#277=ORIENTED_EDGE('',*,*,#491,.T.);
#278=ORIENTED_EDGE('',*,*,#492,.T.);
#279=ORIENTED_EDGE('',*,*,#493,.T.);
#280=ORIENTED_EDGE('',*,*,#494,.T.);
#281=ORIENTED_EDGE('',*,*,#495,.T.);
#282=ORIENTED_EDGE('',*,*,#496,.F.);
#283=ORIENTED_EDGE('',*,*,#497,.T.);
#284=ORIENTED_EDGE('',*,*,#498,.F.);
#285=ORIENTED_EDGE('',*,*,#499,.T.);
#286=ORIENTED_EDGE('',*,*,#483,.F.);
#287=ORIENTED_EDGE('',*,*,#500,.T.);
#288=ORIENTED_EDGE('',*,*,#487,.T.);
#289=ORIENTED_EDGE('',*,*,#501,.T.);
#290=ORIENTED_EDGE('',*,*,#502,.T.);
#291=ORIENTED_EDGE('',*,*,#503,.T.);
#292=ORIENTED_EDGE('',*,*,#504,.T.);
#293=ORIENTED_EDGE('',*,*,#479,.F.);
#294=ORIENTED_EDGE('',*,*,#505,.F.);
#295=ORIENTED_EDGE('',*,*,#496,.T.);
#296=ORIENTED_EDGE('',*,*,#506,.T.);
#297=ORIENTED_EDGE('',*,*,#501,.F.);
#298=ORIENTED_EDGE('',*,*,#486,.T.);
#299=ORIENTED_EDGE('',*,*,#507,.T.);
#300=ORIENTED_EDGE('',*,*,#508,.T.);
#301=ORIENTED_EDGE('',*,*,#509,.T.);
#302=ORIENTED_EDGE('',*,*,#510,.T.);
#303=ORIENTED_EDGE('',*,*,#509,.F.);
#304=ORIENTED_EDGE('',*,*,#510,.F.);
#305=ORIENTED_EDGE('',*,*,#481,.F.);
#306=ORIENTED_EDGE('',*,*,#511,.T.);
#307=ORIENTED_EDGE('',*,*,#512,.T.);
#308=ORIENTED_EDGE('',*,*,#493,.F.);
#309=ORIENTED_EDGE('',*,*,#513,.F.);
#310=ORIENTED_EDGE('',*,*,#500,.F.);
#311=ORIENTED_EDGE('',*,*,#482,.F.);
#312=ORIENTED_EDGE('',*,*,#514,.F.);
#313=ORIENTED_EDGE('',*,*,#484,.F.);
#314=ORIENTED_EDGE('',*,*,#514,.T.);
#315=ORIENTED_EDGE('',*,*,#513,.T.);
#316=ORIENTED_EDGE('',*,*,#515,.F.);
#317=ORIENTED_EDGE('',*,*,#515,.T.);
#318=ORIENTED_EDGE('',*,*,#497,.F.);
#319=ORIENTED_EDGE('',*,*,#507,.F.);
#320=ORIENTED_EDGE('',*,*,#485,.F.);
#321=ORIENTED_EDGE('',*,*,#516,.T.);
#322=ORIENTED_EDGE('',*,*,#517,.T.);
#323=ORIENTED_EDGE('',*,*,#502,.F.);
#324=ORIENTED_EDGE('',*,*,#506,.F.);
#325=ORIENTED_EDGE('',*,*,#495,.F.);
#326=ORIENTED_EDGE('',*,*,#518,.F.);
#327=ORIENTED_EDGE('',*,*,#519,.F.);
#328=ORIENTED_EDGE('',*,*,#520,.T.);
#329=ORIENTED_EDGE('',*,*,#521,.T.);
#330=ORIENTED_EDGE('',*,*,#522,.T.);
#331=ORIENTED_EDGE('',*,*,#518,.T.);
#332=ORIENTED_EDGE('',*,*,#494,.F.);
#333=ORIENTED_EDGE('',*,*,#512,.F.);
#334=ORIENTED_EDGE('',*,*,#504,.F.);
#335=ORIENTED_EDGE('',*,*,#523,.T.);
#336=ORIENTED_EDGE('',*,*,#524,.T.);
#337=ORIENTED_EDGE('',*,*,#519,.T.);
#338=ORIENTED_EDGE('',*,*,#511,.F.);
#339=ORIENTED_EDGE('',*,*,#480,.F.);
#340=ORIENTED_EDGE('',*,*,#525,.F.);
#341=ORIENTED_EDGE('',*,*,#521,.F.);
#342=ORIENTED_EDGE('',*,*,#526,.F.);
#343=ORIENTED_EDGE('',*,*,#488,.F.);
#344=ORIENTED_EDGE('',*,*,#520,.F.);
#345=ORIENTED_EDGE('',*,*,#524,.F.);
#346=ORIENTED_EDGE('',*,*,#527,.F.);
#347=ORIENTED_EDGE('',*,*,#489,.F.);
#348=ORIENTED_EDGE('',*,*,#526,.T.);
#349=ORIENTED_EDGE('',*,*,#525,.T.);
#350=ORIENTED_EDGE('',*,*,#491,.F.);
#351=ORIENTED_EDGE('',*,*,#528,.F.);
#352=ORIENTED_EDGE('',*,*,#516,.F.);
#353=ORIENTED_EDGE('',*,*,#522,.F.);
#354=ORIENTED_EDGE('',*,*,#523,.F.);
#355=ORIENTED_EDGE('',*,*,#503,.F.);
#356=ORIENTED_EDGE('',*,*,#517,.F.);
#357=ORIENTED_EDGE('',*,*,#528,.T.);
#358=ORIENTED_EDGE('',*,*,#490,.F.);
#359=ORIENTED_EDGE('',*,*,#527,.T.);
#360=ORIENTED_EDGE('',*,*,#492,.F.);
#361=ORIENTED_EDGE('',*,*,#508,.F.);
#362=ORIENTED_EDGE('',*,*,#476,.T.);
#363=ORIENTED_EDGE('',*,*,#499,.F.);
#364=ORIENTED_EDGE('',*,*,#529,.T.);
#365=ORIENTED_EDGE('',*,*,#530,.T.);
#366=ORIENTED_EDGE('',*,*,#477,.T.);
#367=ORIENTED_EDGE('',*,*,#530,.F.);
#368=ORIENTED_EDGE('',*,*,#531,.T.);
#369=ORIENTED_EDGE('',*,*,#532,.T.);
#370=ORIENTED_EDGE('',*,*,#478,.T.);
#371=ORIENTED_EDGE('',*,*,#532,.F.);
#372=ORIENTED_EDGE('',*,*,#533,.T.);
#373=ORIENTED_EDGE('',*,*,#505,.T.);
#374=ORIENTED_EDGE('',*,*,#498,.T.);
#375=ORIENTED_EDGE('',*,*,#533,.F.);
#376=ORIENTED_EDGE('',*,*,#531,.F.);
#377=ORIENTED_EDGE('',*,*,#529,.F.);
#378=EDGE_CURVE('',#534,#535,#637,.T.);
#379=EDGE_CURVE('',#535,#536,#638,.T.);
#380=EDGE_CURVE('',#536,#537,#639,.T.);
#381=EDGE_CURVE('',#538,#537,#640,.T.);
#382=EDGE_CURVE('',#539,#538,#641,.T.);
#383=EDGE_CURVE('',#540,#539,#642,.T.);
#384=EDGE_CURVE('',#541,#540,#643,.T.);
#385=EDGE_CURVE('',#542,#541,#644,.T.);
#386=EDGE_CURVE('',#542,#534,#645,.T.);
#387=EDGE_CURVE('',#543,#544,#646,.T.);
#388=EDGE_CURVE('',#544,#542,#647,.F.);
#389=EDGE_CURVE('',#545,#541,#648,.T.);
#390=EDGE_CURVE('',#545,#546,#649,.T.);
#391=EDGE_CURVE('',#546,#538,#650,.T.);
#392=EDGE_CURVE('',#537,#547,#651,.F.);
#393=EDGE_CURVE('',#548,#547,#652,.F.);
#394=EDGE_CURVE('',#548,#549,#653,.F.);
#395=EDGE_CURVE('',#543,#549,#654,.T.);
#396=EDGE_CURVE('',#550,#550,#51,.T.);
#397=EDGE_CURVE('',#547,#551,#655,.F.);
#398=EDGE_CURVE('',#551,#552,#656,.F.);
#399=EDGE_CURVE('',#552,#548,#657,.F.);
#400=EDGE_CURVE('',#553,#554,#658,.T.);
#401=EDGE_CURVE('',#554,#544,#659,.T.);
#402=EDGE_CURVE('',#543,#555,#660,.T.);
#403=EDGE_CURVE('',#555,#553,#661,.T.);
#404=EDGE_CURVE('',#549,#556,#662,.T.);
#405=EDGE_CURVE('',#556,#555,#663,.T.);
#406=EDGE_CURVE('',#557,#557,#52,.F.);
#407=EDGE_CURVE('',#558,#558,#53,.T.);
#408=EDGE_CURVE('',#559,#552,#664,.F.);
#409=EDGE_CURVE('',#560,#559,#665,.F.);
#410=EDGE_CURVE('',#560,#556,#666,.F.);
#411=EDGE_CURVE('',#561,#551,#667,.F.);
#412=EDGE_CURVE('',#559,#561,#668,.T.);
#413=EDGE_CURVE('',#536,#562,#669,.T.);
#414=EDGE_CURVE('',#562,#563,#670,.F.);
#415=EDGE_CURVE('',#561,#563,#671,.F.);
#416=EDGE_CURVE('',#564,#540,#672,.T.);
#417=EDGE_CURVE('',#545,#564,#673,.T.);
#418=EDGE_CURVE('',#565,#539,#674,.T.);
#419=EDGE_CURVE('',#564,#565,#675,.T.);
#420=EDGE_CURVE('',#565,#546,#676,.T.);
#421=EDGE_CURVE('',#566,#567,#677,.T.);
#422=EDGE_CURVE('',#567,#568,#678,.T.);
#423=EDGE_CURVE('',#559,#568,#679,.T.);
#424=EDGE_CURVE('',#563,#566,#680,.T.);
#425=EDGE_CURVE('',#569,#570,#681,.T.);
#426=EDGE_CURVE('',#570,#571,#682,.F.);
#427=EDGE_CURVE('',#571,#572,#683,.F.);
#428=EDGE_CURVE('',#572,#569,#684,.T.);
#429=EDGE_CURVE('',#573,#574,#685,.T.);
#430=EDGE_CURVE('',#574,#575,#686,.F.);
#431=EDGE_CURVE('',#575,#576,#687,.T.);
#432=EDGE_CURVE('',#576,#577,#688,.F.);
#433=EDGE_CURVE('',#577,#573,#689,.T.);
#434=EDGE_CURVE('',#578,#579,#690,.T.);
#435=EDGE_CURVE('',#578,#580,#691,.F.);
#436=EDGE_CURVE('',#580,#581,#692,.T.);
#437=EDGE_CURVE('',#581,#579,#693,.T.);
#438=EDGE_CURVE('',#582,#583,#694,.F.);
#439=EDGE_CURVE('',#583,#584,#695,.F.);
#440=EDGE_CURVE('',#584,#585,#696,.T.);
#441=EDGE_CURVE('',#585,#582,#697,.T.);
#442=EDGE_CURVE('',#575,#586,#698,.F.);
#443=EDGE_CURVE('',#586,#587,#699,.T.);
#444=EDGE_CURVE('',#587,#560,#700,.T.);
#445=EDGE_CURVE('',#568,#578,#54,.F.);
#446=EDGE_CURVE('',#579,#576,#55,.F.);
#447=EDGE_CURVE('',#586,#535,#701,.F.);
#448=EDGE_CURVE('',#534,#554,#702,.F.);
#449=EDGE_CURVE('',#553,#587,#703,.T.);
#450=EDGE_CURVE('',#562,#574,#704,.F.);
#451=EDGE_CURVE('',#573,#569,#705,.T.);
#452=EDGE_CURVE('',#572,#566,#706,.F.);
#453=EDGE_CURVE('',#588,#589,#707,.F.);
#454=EDGE_CURVE('',#589,#590,#708,.T.);
#455=EDGE_CURVE('',#590,#567,#18,.F.);
#456=EDGE_CURVE('',#571,#588,#19,.F.);
#457=EDGE_CURVE('',#580,#591,#20,.F.);
#458=EDGE_CURVE('',#591,#592,#709,.F.);
#459=EDGE_CURVE('',#592,#593,#710,.F.);
#460=EDGE_CURVE('',#593,#594,#711,.F.);
#461=EDGE_CURVE('',#594,#581,#21,.F.);
#462=EDGE_CURVE('',#595,#596,#712,.F.);
#463=EDGE_CURVE('',#596,#570,#22,.T.);
#464=EDGE_CURVE('',#577,#597,#23,.T.);
#465=EDGE_CURVE('',#597,#595,#713,.F.);
#466=EDGE_CURVE('',#590,#591,#16,.T.);
#467=EDGE_CURVE('',#594,#597,#17,.T.);
#468=EDGE_CURVE('',#595,#593,#56,.T.);
#469=EDGE_CURVE('',#596,#585,#24,.F.);
#470=EDGE_CURVE('',#582,#595,#57,.T.);
#471=EDGE_CURVE('',#582,#593,#58,.F.);
#472=EDGE_CURVE('',#588,#584,#25,.T.);
#473=EDGE_CURVE('',#583,#592,#59,.T.);
#474=EDGE_CURVE('',#589,#583,#60,.T.);
#475=EDGE_CURVE('',#589,#592,#61,.F.);
#476=EDGE_CURVE('',#598,#599,#714,.F.);
#477=EDGE_CURVE('',#600,#598,#715,.F.);
#478=EDGE_CURVE('',#601,#600,#716,.F.);
#479=EDGE_CURVE('',#601,#602,#717,.F.);
#480=EDGE_CURVE('',#602,#603,#718,.F.);
#481=EDGE_CURVE('',#603,#604,#719,.F.);
#482=EDGE_CURVE('',#604,#605,#720,.F.);
#483=EDGE_CURVE('',#605,#599,#721,.F.);
#484=EDGE_CURVE('',#606,#607,#722,.T.);
#485=EDGE_CURVE('',#607,#608,#723,.T.);
#486=EDGE_CURVE('',#609,#608,#724,.T.);
#487=EDGE_CURVE('',#606,#609,#725,.T.);
#488=EDGE_CURVE('',#610,#611,#726,.F.);
#489=EDGE_CURVE('',#611,#612,#727,.F.);
#490=EDGE_CURVE('',#612,#613,#728,.T.);
#491=EDGE_CURVE('',#613,#610,#729,.T.);
#492=EDGE_CURVE('',#614,#614,#62,.F.);
#493=EDGE_CURVE('',#615,#616,#730,.T.);
#494=EDGE_CURVE('',#616,#617,#731,.T.);
#495=EDGE_CURVE('',#617,#618,#732,.T.);
#496=EDGE_CURVE('',#619,#618,#733,.T.);
#497=EDGE_CURVE('',#619,#615,#734,.T.);
#498=EDGE_CURVE('',#620,#621,#735,.T.);
#499=EDGE_CURVE('',#620,#599,#736,.T.);
#500=EDGE_CURVE('',#605,#606,#737,.F.);
#501=EDGE_CURVE('',#609,#622,#738,.T.);
#502=EDGE_CURVE('',#622,#623,#739,.T.);
#503=EDGE_CURVE('',#623,#624,#740,.T.);
#504=EDGE_CURVE('',#624,#602,#741,.F.);
#505=EDGE_CURVE('',#621,#601,#742,.T.);
#506=EDGE_CURVE('',#618,#622,#743,.T.);
#507=EDGE_CURVE('',#608,#619,#744,.F.);
#508=EDGE_CURVE('',#625,#625,#63,.T.);
#509=EDGE_CURVE('',#626,#626,#64,.F.);
#510=EDGE_CURVE('',#627,#627,#65,.T.);
#511=EDGE_CURVE('',#603,#628,#745,.T.);
#512=EDGE_CURVE('',#628,#616,#746,.T.);
#513=EDGE_CURVE('',#604,#615,#747,.F.);
#514=EDGE_CURVE('',#607,#604,#748,.F.);
#515=EDGE_CURVE('',#607,#615,#749,.T.);
#516=EDGE_CURVE('',#629,#630,#750,.T.);
#517=EDGE_CURVE('',#630,#623,#26,.T.);
#518=EDGE_CURVE('',#629,#617,#751,.T.);
#519=EDGE_CURVE('',#631,#628,#752,.T.);
#520=EDGE_CURVE('',#631,#632,#27,.F.);
#521=EDGE_CURVE('',#632,#633,#753,.T.);
#522=EDGE_CURVE('',#633,#629,#28,.F.);
#523=EDGE_CURVE('',#624,#634,#29,.F.);
#524=EDGE_CURVE('',#634,#631,#754,.T.);
#525=EDGE_CURVE('',#633,#610,#30,.F.);
#526=EDGE_CURVE('',#611,#632,#31,.F.);
#527=EDGE_CURVE('',#612,#634,#32,.F.);
#528=EDGE_CURVE('',#630,#613,#33,.F.);
#529=EDGE_CURVE('',#620,#635,#755,.T.);
#530=EDGE_CURVE('',#635,#598,#756,.T.);
#531=EDGE_CURVE('',#635,#636,#757,.T.);
#532=EDGE_CURVE('',#636,#600,#758,.T.);
#533=EDGE_CURVE('',#636,#621,#759,.T.);
#534=VERTEX_POINT('',#1574);
#535=VERTEX_POINT('',#1575);
#536=VERTEX_POINT('',#1577);
#537=VERTEX_POINT('',#1579);
#538=VERTEX_POINT('',#1581);
#539=VERTEX_POINT('',#1583);
#540=VERTEX_POINT('',#1585);
#541=VERTEX_POINT('',#1587);
#542=VERTEX_POINT('',#1589);
#543=VERTEX_POINT('',#1593);
#544=VERTEX_POINT('',#1594);
#545=VERTEX_POINT('',#1597);
#546=VERTEX_POINT('',#1599);
#547=VERTEX_POINT('',#1602);
#548=VERTEX_POINT('',#1604);
#549=VERTEX_POINT('',#1606);
#550=VERTEX_POINT('',#1610);
#551=VERTEX_POINT('',#1612);
#552=VERTEX_POINT('',#1614);
#553=VERTEX_POINT('',#1618);
#554=VERTEX_POINT('',#1619);
#555=VERTEX_POINT('',#1622);
#556=VERTEX_POINT('',#1626);
#557=VERTEX_POINT('',#1630);
#558=VERTEX_POINT('',#1633);
#559=VERTEX_POINT('',#1637);
#560=VERTEX_POINT('',#1639);
#561=VERTEX_POINT('',#1643);
#562=VERTEX_POINT('',#1647);
#563=VERTEX_POINT('',#1649);
#564=VERTEX_POINT('',#1653);
#565=VERTEX_POINT('',#1657);
#566=VERTEX_POINT('',#1664);
#567=VERTEX_POINT('',#1665);
#568=VERTEX_POINT('',#1667);
#569=VERTEX_POINT('',#1672);
#570=VERTEX_POINT('',#1673);
#571=VERTEX_POINT('',#1675);
#572=VERTEX_POINT('',#1677);
#573=VERTEX_POINT('',#1681);
#574=VERTEX_POINT('',#1682);
#575=VERTEX_POINT('',#1684);
#576=VERTEX_POINT('',#1686);
#577=VERTEX_POINT('',#1688);
#578=VERTEX_POINT('',#1692);
#579=VERTEX_POINT('',#1693);
#580=VERTEX_POINT('',#1695);
#581=VERTEX_POINT('',#1697);
#582=VERTEX_POINT('',#1701);
#583=VERTEX_POINT('',#1702);
#584=VERTEX_POINT('',#1704);
#585=VERTEX_POINT('',#1706);
#586=VERTEX_POINT('',#1710);
#587=VERTEX_POINT('',#1712);
#588=VERTEX_POINT('',#1727);
#589=VERTEX_POINT('',#1728);
#590=VERTEX_POINT('',#1730);
#591=VERTEX_POINT('',#1735);
#592=VERTEX_POINT('',#1737);
#593=VERTEX_POINT('',#1739);
#594=VERTEX_POINT('',#1741);
#595=VERTEX_POINT('',#1745);
#596=VERTEX_POINT('',#1746);
#597=VERTEX_POINT('',#1749);
#598=VERTEX_POINT('',#1782);
#599=VERTEX_POINT('',#1783);
#600=VERTEX_POINT('',#1785);
#601=VERTEX_POINT('',#1787);
#602=VERTEX_POINT('',#1789);
#603=VERTEX_POINT('',#1791);
#604=VERTEX_POINT('',#1793);
#605=VERTEX_POINT('',#1795);
#606=VERTEX_POINT('',#1799);
#607=VERTEX_POINT('',#1800);
#608=VERTEX_POINT('',#1802);
#609=VERTEX_POINT('',#1804);
#610=VERTEX_POINT('',#1808);
#611=VERTEX_POINT('',#1809);
#612=VERTEX_POINT('',#1811);
#613=VERTEX_POINT('',#1813);
#614=VERTEX_POINT('',#1816);
#615=VERTEX_POINT('',#1819);
#616=VERTEX_POINT('',#1820);
#617=VERTEX_POINT('',#1822);
#618=VERTEX_POINT('',#1824);
#619=VERTEX_POINT('',#1826);
#620=VERTEX_POINT('',#1830);
#621=VERTEX_POINT('',#1831);
#622=VERTEX_POINT('',#1835);
#623=VERTEX_POINT('',#1837);
#624=VERTEX_POINT('',#1839);
#625=VERTEX_POINT('',#1847);
#626=VERTEX_POINT('',#1849);
#627=VERTEX_POINT('',#1852);
#628=VERTEX_POINT('',#1856);
#629=VERTEX_POINT('',#1866);
#630=VERTEX_POINT('',#1867);
#631=VERTEX_POINT('',#1872);
#632=VERTEX_POINT('',#1874);
#633=VERTEX_POINT('',#1876);
#634=VERTEX_POINT('',#1880);
#635=VERTEX_POINT('',#1893);
#636=VERTEX_POINT('',#1897);
#637=LINE('',#1573,#760);
#638=LINE('',#1576,#761);
#639=LINE('',#1578,#762);
#640=LINE('',#1580,#763);
#641=LINE('',#1582,#764);
#642=LINE('',#1584,#765);
#643=LINE('',#1586,#766);
#644=LINE('',#1588,#767);
#645=LINE('',#1590,#768);
#646=LINE('',#1592,#769);
#647=LINE('',#1595,#770);
#648=LINE('',#1596,#771);
#649=LINE('',#1598,#772);
#650=LINE('',#1600,#773);
#651=LINE('',#1601,#774);
#652=LINE('',#1603,#775);
#653=LINE('',#1605,#776);
#654=LINE('',#1607,#777);
#655=LINE('',#1611,#778);
#656=LINE('',#1613,#779);
#657=LINE('',#1615,#780);
#658=LINE('',#1617,#781);
#659=LINE('',#1620,#782);
#660=LINE('',#1621,#783);
#661=LINE('',#1623,#784);
#662=LINE('',#1625,#785);
#663=LINE('',#1627,#786);
#664=LINE('',#1636,#787);
#665=LINE('',#1638,#788);
#666=LINE('',#1640,#789);
#667=LINE('',#1642,#790);
#668=LINE('',#1644,#791);
#669=LINE('',#1646,#792);
#670=LINE('',#1648,#793);
#671=LINE('',#1650,#794);
#672=LINE('',#1652,#795);
#673=LINE('',#1654,#796);
#674=LINE('',#1656,#797);
#675=LINE('',#1658,#798);
#676=LINE('',#1660,#799);
#677=LINE('',#1663,#800);
#678=LINE('',#1666,#801);
#679=LINE('',#1668,#802);
#680=LINE('',#1669,#803);
#681=LINE('',#1671,#804);
#682=LINE('',#1674,#805);
#683=LINE('',#1676,#806);
#684=LINE('',#1678,#807);
#685=LINE('',#1680,#808);
#686=LINE('',#1683,#809);
#687=LINE('',#1685,#810);
#688=LINE('',#1687,#811);
#689=LINE('',#1689,#812);
#690=LINE('',#1691,#813);
#691=LINE('',#1694,#814);
#692=LINE('',#1696,#815);
#693=LINE('',#1698,#816);
#694=LINE('',#1700,#817);
#695=LINE('',#1703,#818);
#696=LINE('',#1705,#819);
#697=LINE('',#1707,#820);
#698=LINE('',#1709,#821);
#699=LINE('',#1711,#822);
#700=LINE('',#1713,#823);
#701=LINE('',#1717,#824);
#702=LINE('',#1718,#825);
#703=LINE('',#1719,#826);
#704=LINE('',#1721,#827);
#705=LINE('',#1722,#828);
#706=LINE('',#1723,#829);
#707=LINE('',#1726,#830);
#708=LINE('',#1729,#831);
#709=LINE('',#1736,#832);
#710=LINE('',#1738,#833);
#711=LINE('',#1740,#834);
#712=LINE('',#1744,#835);
#713=LINE('',#1750,#836);
#714=LINE('',#1781,#837);
#715=LINE('',#1784,#838);
#716=LINE('',#1786,#839);
#717=LINE('',#1788,#840);
#718=LINE('',#1790,#841);
#719=LINE('',#1792,#842);
#720=LINE('',#1794,#843);
#721=LINE('',#1796,#844);
#722=LINE('',#1798,#845);
#723=LINE('',#1801,#846);
#724=LINE('',#1803,#847);
#725=LINE('',#1805,#848);
#726=LINE('',#1807,#849);
#727=LINE('',#1810,#850);
#728=LINE('',#1812,#851);
#729=LINE('',#1814,#852);
#730=LINE('',#1818,#853);
#731=LINE('',#1821,#854);
#732=LINE('',#1823,#855);
#733=LINE('',#1825,#856);
#734=LINE('',#1827,#857);
#735=LINE('',#1829,#858);
#736=LINE('',#1832,#859);
#737=LINE('',#1833,#860);
#738=LINE('',#1834,#861);
#739=LINE('',#1836,#862);
#740=LINE('',#1838,#863);
#741=LINE('',#1840,#864);
#742=LINE('',#1841,#865);
#743=LINE('',#1843,#866);
#744=LINE('',#1844,#867);
#745=LINE('',#1855,#868);
#746=LINE('',#1857,#869);
#747=LINE('',#1858,#870);
#748=LINE('',#1860,#871);
#749=LINE('',#1862,#872);
#750=LINE('',#1865,#873);
#751=LINE('',#1869,#874);
#752=LINE('',#1871,#875);
#753=LINE('',#1875,#876);
#754=LINE('',#1881,#877);
#755=LINE('',#1892,#878);
#756=LINE('',#1894,#879);
#757=LINE('',#1896,#880);
#758=LINE('',#1898,#881);
#759=LINE('',#1900,#882);
#760=VECTOR('',#1258,1.);
#761=VECTOR('',#1259,1.);
#762=VECTOR('',#1260,1.);
#763=VECTOR('',#1261,1.);
#764=VECTOR('',#1262,1.);
#765=VECTOR('',#1263,1.);
#766=VECTOR('',#1264,1.);
#767=VECTOR('',#1265,1.);
#768=VECTOR('',#1266,1.);
#769=VECTOR('',#1269,1.);
#770=VECTOR('',#1270,1.);
#771=VECTOR('',#1271,1.);
#772=VECTOR('',#1272,1.);
#773=VECTOR('',#1273,1.);
#774=VECTOR('',#1274,1.);
#775=VECTOR('',#1275,1.);
#776=VECTOR('',#1276,1.);
#777=VECTOR('',#1277,1.);
#778=VECTOR('',#1282,1.);
#779=VECTOR('',#1283,1.);
#780=VECTOR('',#1284,1.);
#781=VECTOR('',#1287,1.);
#782=VECTOR('',#1288,1.);
#783=VECTOR('',#1289,1.);
#784=VECTOR('',#1290,1.);
#785=VECTOR('',#1293,1.);
#786=VECTOR('',#1294,1.);
#787=VECTOR('',#1307,1.);
#788=VECTOR('',#1308,1.);
#789=VECTOR('',#1309,1.);
#790=VECTOR('',#1312,1.);
#791=VECTOR('',#1313,1.);
#792=VECTOR('',#1316,1.);
#793=VECTOR('',#1317,1.);
#794=VECTOR('',#1318,1.);
#795=VECTOR('',#1321,1.);
#796=VECTOR('',#1322,1.);
#797=VECTOR('',#1325,1.);
#798=VECTOR('',#1326,1.);
#799=VECTOR('',#1329,1.);
#800=VECTOR('',#1334,1.);
#801=VECTOR('',#1335,1.);
#802=VECTOR('',#1336,1.);
#803=VECTOR('',#1337,1.);
#804=VECTOR('',#1340,1.);
#805=VECTOR('',#1341,1.);
#806=VECTOR('',#1342,1.);
#807=VECTOR('',#1343,1.);
#808=VECTOR('',#1346,1.);
#809=VECTOR('',#1347,1.);
#810=VECTOR('',#1348,1.);
#811=VECTOR('',#1349,1.);
#812=VECTOR('',#1350,1.);
#813=VECTOR('',#1353,1.);
#814=VECTOR('',#1354,1.);
#815=VECTOR('',#1355,1.);
#816=VECTOR('',#1356,1.);
#817=VECTOR('',#1359,1.);
#818=VECTOR('',#1360,1.);
#819=VECTOR('',#1361,1.);
#820=VECTOR('',#1362,1.);
#821=VECTOR('',#1365,1.);
#822=VECTOR('',#1366,1.);
#823=VECTOR('',#1367,1.);
#824=VECTOR('',#1374,1.);
#825=VECTOR('',#1375,1.);
#826=VECTOR('',#1376,1.);
#827=VECTOR('',#1379,1.);
#828=VECTOR('',#1380,1.);
#829=VECTOR('',#1381,1.);
#830=VECTOR('',#1386,1.);
#831=VECTOR('',#1387,1.);
#832=VECTOR('',#1396,1.);
#833=VECTOR('',#1397,1.);
#834=VECTOR('',#1398,1.);
#835=VECTOR('',#1403,1.);
#836=VECTOR('',#1408,1.);
#837=VECTOR('',#1453,1.);
#838=VECTOR('',#1454,1.);
#839=VECTOR('',#1455,1.);
#840=VECTOR('',#1456,1.);
#841=VECTOR('',#1457,1.);
#842=VECTOR('',#1458,1.);
#843=VECTOR('',#1459,1.);
#844=VECTOR('',#1460,1.);
#845=VECTOR('',#1463,1.);
#846=VECTOR('',#1464,1.);
#847=VECTOR('',#1465,1.);
#848=VECTOR('',#1466,1.);
#849=VECTOR('',#1469,1.);
#850=VECTOR('',#1470,1.);
#851=VECTOR('',#1471,1.);
#852=VECTOR('',#1472,1.);
#853=VECTOR('',#1477,1.);
#854=VECTOR('',#1478,1.);
#855=VECTOR('',#1479,1.);
#856=VECTOR('',#1480,1.);
#857=VECTOR('',#1481,1.);
#858=VECTOR('',#1484,1.);
#859=VECTOR('',#1485,1.);
#860=VECTOR('',#1486,1.);
#861=VECTOR('',#1487,1.);
#862=VECTOR('',#1488,1.);
#863=VECTOR('',#1489,1.);
#864=VECTOR('',#1490,1.);
#865=VECTOR('',#1491,1.);
#866=VECTOR('',#1494,1.);
#867=VECTOR('',#1495,1.);
#868=VECTOR('',#1510,1.);
#869=VECTOR('',#1511,1.);
#870=VECTOR('',#1512,1.);
#871=VECTOR('',#1515,1.);
#872=VECTOR('',#1518,1.);
#873=VECTOR('',#1523,1.);
#874=VECTOR('',#1526,1.);
#875=VECTOR('',#1529,1.);
#876=VECTOR('',#1532,1.);
#877=VECTOR('',#1539,1.);
#878=VECTOR('',#1560,1.);
#879=VECTOR('',#1561,1.);
#880=VECTOR('',#1564,1.);
#881=VECTOR('',#1565,1.);
#882=VECTOR('',#1568,1.);
#883=EDGE_LOOP('',(#66,#67,#68,#69,#70,#71,#72,#73,#74));
#884=EDGE_LOOP('',(#75,#76,#77,#78,#79,#80,#81,#82,#83,#84,#85));
#885=EDGE_LOOP('',(#86));
#886=EDGE_LOOP('',(#87,#88,#89,#90));
#887=EDGE_LOOP('',(#91,#92,#93,#94,#95));
#888=EDGE_LOOP('',(#96,#97,#98,#99));
#889=EDGE_LOOP('',(#100));
#890=EDGE_LOOP('',(#101));
#891=EDGE_LOOP('',(#102));
#892=EDGE_LOOP('',(#103));
#893=EDGE_LOOP('',(#104));
#894=EDGE_LOOP('',(#105,#106,#107,#108,#109,#110));
#895=EDGE_LOOP('',(#111,#112,#113,#114));
#896=EDGE_LOOP('',(#115,#116,#117,#118,#119,#120,#121));
#897=EDGE_LOOP('',(#122,#123,#124,#125));
#898=EDGE_LOOP('',(#126,#127,#128,#129));
#899=EDGE_LOOP('',(#130,#131,#132,#133));
#900=EDGE_LOOP('',(#134,#135,#136,#137));
#901=EDGE_LOOP('',(#138,#139,#140,#141,#142,#143));
#902=EDGE_LOOP('',(#144,#145,#146,#147));
#903=EDGE_LOOP('',(#148,#149,#150,#151,#152));
#904=EDGE_LOOP('',(#153,#154,#155,#156));
#905=EDGE_LOOP('',(#157,#158,#159,#160));
#906=EDGE_LOOP('',(#161,#162,#163,#164,#165,#166,#167,#168,#169));
#907=EDGE_LOOP('',(#170,#171,#172,#173,#174,#175));
#908=EDGE_LOOP('',(#176,#177,#178,#179,#180,#181,#182));
#909=EDGE_LOOP('',(#183,#184,#185,#186,#187));
#910=EDGE_LOOP('',(#188,#189,#190,#191,#192,#193,#194));
#911=EDGE_LOOP('',(#195,#196,#197,#198,#199,#200));
#912=EDGE_LOOP('',(#201,#202,#203,#204,#205,#206,#207));
#913=EDGE_LOOP('',(#208,#209,#210,#211,#212,#213));
#914=EDGE_LOOP('',(#214,#215,#216,#217,#218,#219));
#915=EDGE_LOOP('',(#220,#221,#222,#223));
#916=EDGE_LOOP('',(#224,#225,#226,#227,#228,#229));
#917=EDGE_LOOP('',(#230,#231,#232,#233));
#918=EDGE_LOOP('',(#234,#235,#236,#237));
#919=EDGE_LOOP('',(#238,#239,#240));
#920=EDGE_LOOP('',(#241,#242,#243,#244,#245,#246));
#921=EDGE_LOOP('',(#247,#248,#249,#250));
#922=EDGE_LOOP('',(#251,#252,#253,#254));
#923=EDGE_LOOP('',(#255,#256,#257));
#924=EDGE_LOOP('',(#258,#259,#260,#261));
#925=EDGE_LOOP('',(#262,#263,#264,#265,#266,#267,#268,#269));
#926=EDGE_LOOP('',(#270,#271,#272,#273));
#927=EDGE_LOOP('',(#274,#275,#276,#277));
#928=EDGE_LOOP('',(#278));
#929=EDGE_LOOP('',(#279,#280,#281,#282,#283));
#930=EDGE_LOOP('',(#284,#285,#286,#287,#288,#289,#290,#291,#292,#293,#294));
#931=EDGE_LOOP('',(#295,#296,#297,#298,#299));
#932=EDGE_LOOP('',(#300));
#933=EDGE_LOOP('',(#301));
#934=EDGE_LOOP('',(#302));
#935=EDGE_LOOP('',(#303));
#936=EDGE_LOOP('',(#304));
#937=EDGE_LOOP('',(#305,#306,#307,#308,#309));
#938=EDGE_LOOP('',(#310,#311,#312,#313));
#939=EDGE_LOOP('',(#314,#315,#316));
#940=EDGE_LOOP('',(#317,#318,#319,#320));
#941=EDGE_LOOP('',(#321,#322,#323,#324,#325,#326));
#942=EDGE_LOOP('',(#327,#328,#329,#330,#331,#332,#333));
#943=EDGE_LOOP('',(#334,#335,#336,#337,#338,#339));
#944=EDGE_LOOP('',(#340,#341,#342,#343));
#945=EDGE_LOOP('',(#344,#345,#346,#347,#348));
#946=EDGE_LOOP('',(#349,#350,#351,#352,#353));
#947=EDGE_LOOP('',(#354,#355,#356,#357,#358,#359));
#948=EDGE_LOOP('',(#360));
#949=EDGE_LOOP('',(#361));
#950=EDGE_LOOP('',(#362,#363,#364,#365));
#951=EDGE_LOOP('',(#366,#367,#368,#369));
#952=EDGE_LOOP('',(#370,#371,#372,#373));
#953=EDGE_LOOP('',(#374,#375,#376,#377));
#954=FACE_BOUND('',#883,.T.);
#955=FACE_BOUND('',#884,.T.);
#956=FACE_BOUND('',#885,.T.);
#957=FACE_BOUND('',#886,.T.);
#958=FACE_BOUND('',#887,.T.);
#959=FACE_BOUND('',#888,.T.);
#960=FACE_BOUND('',#889,.T.);
#961=FACE_BOUND('',#890,.T.);
#962=FACE_BOUND('',#891,.T.);
#963=FACE_BOUND('',#892,.T.);
#964=FACE_BOUND('',#893,.T.);
#965=FACE_BOUND('',#894,.T.);
#966=FACE_BOUND('',#895,.T.);
#967=FACE_BOUND('',#896,.T.);
#968=FACE_BOUND('',#897,.T.);
#969=FACE_BOUND('',#898,.T.);
#970=FACE_BOUND('',#899,.T.);
#971=FACE_BOUND('',#900,.T.);
#972=FACE_BOUND('',#901,.T.);
#973=FACE_BOUND('',#902,.T.);
#974=FACE_BOUND('',#903,.T.);
#975=FACE_BOUND('',#904,.T.);
#976=FACE_BOUND('',#905,.T.);
#977=FACE_BOUND('',#906,.T.);
#978=FACE_BOUND('',#907,.T.);
#979=FACE_BOUND('',#908,.T.);
#980=FACE_BOUND('',#909,.T.);
#981=FACE_BOUND('',#910,.T.);
#982=FACE_BOUND('',#911,.T.);
#983=FACE_BOUND('',#912,.T.);
#984=FACE_BOUND('',#913,.T.);
#985=FACE_BOUND('',#914,.T.);
#986=FACE_BOUND('',#915,.T.);
#987=FACE_BOUND('',#916,.T.);
#988=FACE_BOUND('',#917,.T.);
#989=FACE_BOUND('',#918,.T.);
#990=FACE_BOUND('',#919,.T.);
#991=FACE_BOUND('',#920,.T.);
#992=FACE_BOUND('',#921,.T.);
#993=FACE_BOUND('',#922,.T.);
#994=FACE_BOUND('',#923,.T.);
#995=FACE_BOUND('',#924,.T.);
#996=FACE_BOUND('',#925,.T.);
#997=FACE_BOUND('',#926,.T.);
#998=FACE_BOUND('',#927,.T.);
#999=FACE_BOUND('',#928,.T.);
#1000=FACE_BOUND('',#929,.T.);
#1001=FACE_BOUND('',#930,.T.);
#1002=FACE_BOUND('',#931,.T.);
#1003=FACE_BOUND('',#932,.T.);
#1004=FACE_BOUND('',#933,.T.);
#1005=FACE_BOUND('',#934,.T.);
#1006=FACE_BOUND('',#935,.T.);
#1007=FACE_BOUND('',#936,.T.);
#1008=FACE_BOUND('',#937,.T.);
#1009=FACE_BOUND('',#938,.T.);
#1010=FACE_BOUND('',#939,.T.);
#1011=FACE_BOUND('',#940,.T.);
#1012=FACE_BOUND('',#941,.T.);
#1013=FACE_BOUND('',#942,.T.);
#1014=FACE_BOUND('',#943,.T.);
#1015=FACE_BOUND('',#944,.T.);
#1016=FACE_BOUND('',#945,.T.);
#1017=FACE_BOUND('',#946,.T.);
#1018=FACE_BOUND('',#947,.T.);
#1019=FACE_BOUND('',#948,.T.);
#1020=FACE_BOUND('',#949,.T.);
#1021=FACE_BOUND('',#950,.T.);
#1022=FACE_BOUND('',#951,.T.);
#1023=FACE_BOUND('',#952,.T.);
#1024=FACE_BOUND('',#953,.T.);
#1025=PLANE('',#1158);
#1026=PLANE('',#1159);
#1027=PLANE('',#1160);
#1028=PLANE('',#1162);
#1029=PLANE('',#1163);
#1030=PLANE('',#1166);
#1031=PLANE('',#1169);
#1032=PLANE('',#1170);
#1033=PLANE('',#1171);
#1034=PLANE('',#1172);
#1035=PLANE('',#1173);
#1036=PLANE('',#1174);
#1037=PLANE('',#1175);
#1038=PLANE('',#1176);
#1039=PLANE('',#1177);
#1040=PLANE('',#1178);
#1041=PLANE('',#1179);
#1042=PLANE('',#1180);
#1043=PLANE('',#1181);
#1044=PLANE('',#1184);
#1045=PLANE('',#1185);
#1046=PLANE('',#1186);
#1047=PLANE('',#1187);
#1048=PLANE('',#1190);
#1049=PLANE('',#1193);
#1050=PLANE('',#1198);
#1051=PLANE('',#1199);
#1052=PLANE('',#1217);
#1053=PLANE('',#1218);
#1054=PLANE('',#1219);
#1055=PLANE('',#1221);
#1056=PLANE('',#1222);
#1057=PLANE('',#1223);
#1058=PLANE('',#1227);
#1059=PLANE('',#1230);
#1060=PLANE('',#1231);
#1061=PLANE('',#1232);
#1062=PLANE('',#1233);
#1063=PLANE('',#1234);
#1064=PLANE('',#1236);
#1065=PLANE('',#1239);
#1066=PLANE('',#1250);
#1067=PLANE('',#1251);
#1068=PLANE('',#1252);
#1069=PLANE('',#1253);
#1070=ADVANCED_FACE('',(#954),#1025,.T.);
#1071=ADVANCED_FACE('',(#955),#1026,.F.);
#1072=ADVANCED_FACE('',(#956,#957),#1027,.T.);
#1073=ADVANCED_FACE('',(#958),#1028,.T.);
#1074=ADVANCED_FACE('',(#959),#1029,.T.);
#1075=ADVANCED_FACE('',(#960,#961),#37,.T.);
#1076=ADVANCED_FACE('',(#962),#1030,.T.);
#1077=ADVANCED_FACE('',(#963,#964),#34,.T.);
#1078=ADVANCED_FACE('',(#965),#1031,.F.);
#1079=ADVANCED_FACE('',(#966),#1032,.F.);
#1080=ADVANCED_FACE('',(#967),#1033,.F.);
#1081=ADVANCED_FACE('',(#968),#1034,.F.);
#1082=ADVANCED_FACE('',(#969),#1035,.F.);
#1083=ADVANCED_FACE('',(#970),#1036,.F.);
#1084=ADVANCED_FACE('',(#971),#1037,.T.);
#1085=ADVANCED_FACE('',(#972),#1038,.T.);
#1086=ADVANCED_FACE('',(#973),#1039,.F.);
#1087=ADVANCED_FACE('',(#974),#1040,.F.);
#1088=ADVANCED_FACE('',(#975),#1041,.T.);
#1089=ADVANCED_FACE('',(#976),#1042,.T.);
#1090=ADVANCED_FACE('',(#977),#1043,.F.);
#1091=ADVANCED_FACE('',(#978),#1044,.F.);
#1092=ADVANCED_FACE('',(#979),#1045,.F.);
#1093=ADVANCED_FACE('',(#980),#1046,.F.);
#1094=ADVANCED_FACE('',(#981),#1047,.F.);
#1095=ADVANCED_FACE('',(#982),#1048,.F.);
#1096=ADVANCED_FACE('',(#983),#1049,.T.);
#1097=ADVANCED_FACE('',(#984),#38,.T.);
#1098=ADVANCED_FACE('',(#985),#39,.T.);
#1099=ADVANCED_FACE('',(#986),#1050,.F.);
#1100=ADVANCED_FACE('',(#987),#1051,.F.);
#1101=ADVANCED_FACE('',(#988),#40,.T.);
#1102=ADVANCED_FACE('',(#989),#41,.T.);
#1103=ADVANCED_FACE('',(#990),#14,.T.);
#1104=ADVANCED_FACE('',(#991),#42,.T.);
#1105=ADVANCED_FACE('',(#992),#43,.T.);
#1106=ADVANCED_FACE('',(#993),#44,.T.);
#1107=ADVANCED_FACE('',(#994),#15,.T.);
#1108=ADVANCED_FACE('',(#995),#45,.T.);
#1109=ADVANCED_FACE('',(#996),#1052,.T.);
#1110=ADVANCED_FACE('',(#997),#1053,.T.);
#1111=ADVANCED_FACE('',(#998,#999),#1054,.T.);
#1112=ADVANCED_FACE('',(#1000),#1055,.T.);
#1113=ADVANCED_FACE('',(#1001),#1056,.F.);
#1114=ADVANCED_FACE('',(#1002),#1057,.F.);
#1115=ADVANCED_FACE('',(#1003,#1004),#46,.T.);
#1116=ADVANCED_FACE('',(#1005),#1058,.T.);
#1117=ADVANCED_FACE('',(#1006,#1007),#35,.T.);
#1118=ADVANCED_FACE('',(#1008),#1059,.F.);
#1119=ADVANCED_FACE('',(#1009),#1060,.F.);
#1120=ADVANCED_FACE('',(#1010),#1061,.T.);
#1121=ADVANCED_FACE('',(#1011),#1062,.F.);
#1122=ADVANCED_FACE('',(#1012),#1063,.T.);
#1123=ADVANCED_FACE('',(#1013),#1064,.F.);
#1124=ADVANCED_FACE('',(#1014),#1065,.F.);
#1125=ADVANCED_FACE('',(#1015),#47,.T.);
#1126=ADVANCED_FACE('',(#1016),#48,.T.);
#1127=ADVANCED_FACE('',(#1017),#49,.T.);
#1128=ADVANCED_FACE('',(#1018),#50,.T.);
#1129=ADVANCED_FACE('',(#1019,#1020),#36,.F.);
#1130=ADVANCED_FACE('',(#1021),#1066,.T.);
#1131=ADVANCED_FACE('',(#1022),#1067,.T.);
#1132=ADVANCED_FACE('',(#1023),#1068,.T.);
#1133=ADVANCED_FACE('',(#1024),#1069,.F.);
#1134=CLOSED_SHELL('',(#1070,#1071,#1072,#1073,#1074,#1075,#1076,#1077,
#1078,#1079,#1080,#1081,#1082,#1083,#1084,#1085,#1086,#1087,#1088,#1089,
#1090,#1091,#1092,#1093,#1094,#1095,#1096,#1097,#1098,#1099,#1100,#1101,
#1102,#1103,#1104,#1105,#1106,#1107,#1108));
#1135=CLOSED_SHELL('',(#1109,#1110,#1111,#1112,#1113,#1114,#1115,#1116,
#1117,#1118,#1119,#1120,#1121,#1122,#1123,#1124,#1125,#1126,#1127,#1128,
#1129,#1130,#1131,#1132,#1133));
#1136=STYLED_ITEM('',(#1138),#1151);
#1137=STYLED_ITEM('',(#1139),#1152);
#1138=PRESENTATION_STYLE_ASSIGNMENT((#1140));
#1139=PRESENTATION_STYLE_ASSIGNMENT((#1141));
#1140=SURFACE_STYLE_USAGE(.BOTH.,#1142);
#1141=SURFACE_STYLE_USAGE(.BOTH.,#1143);
#1142=SURFACE_SIDE_STYLE('',(#1144));
#1143=SURFACE_SIDE_STYLE('',(#1145));
#1144=SURFACE_STYLE_FILL_AREA(#1146);
#1145=SURFACE_STYLE_FILL_AREA(#1147);
#1146=FILL_AREA_STYLE('',(#1148));
#1147=FILL_AREA_STYLE('',(#1149));
#1148=FILL_AREA_STYLE_COLOUR('',#1150);
#1149=FILL_AREA_STYLE_COLOUR('',#1150);
#1150=COLOUR_RGB('',0.729411764705882,0.250980392156863,0.105882352941176);
#1151=MANIFOLD_SOLID_BREP('WeaponSystem',#1134);
#1152=MANIFOLD_SOLID_BREP('WeaponSystem',#1135);
#1153=SHAPE_DEFINITION_REPRESENTATION(#1914,#1155);
#1154=SHAPE_DEFINITION_REPRESENTATION(#1915,#1156);
#1155=SHAPE_REPRESENTATION('WeaponSystem',(#1157),#1904);
#1156=SHAPE_REPRESENTATION('WeaponSystem',(#1216),#1905);
#1157=AXIS2_PLACEMENT_3D('',#1571,#1254,#1255);
#1158=AXIS2_PLACEMENT_3D('',#1572,#1256,#1257);
#1159=AXIS2_PLACEMENT_3D('',#1591,#1267,#1268);
#1160=AXIS2_PLACEMENT_3D('',#1608,#1278,#1279);
#1161=AXIS2_PLACEMENT_3D('',#1609,#1280,#1281);
#1162=AXIS2_PLACEMENT_3D('',#1616,#1285,#1286);
#1163=AXIS2_PLACEMENT_3D('',#1624,#1291,#1292);
#1164=AXIS2_PLACEMENT_3D('',#1628,#1295,#1296);
#1165=AXIS2_PLACEMENT_3D('',#1629,#1297,#1298);
#1166=AXIS2_PLACEMENT_3D('',#1631,#1299,#1300);
#1167=AXIS2_PLACEMENT_3D('',#1632,#1301,#1302);
#1168=AXIS2_PLACEMENT_3D('',#1634,#1303,#1304);
#1169=AXIS2_PLACEMENT_3D('',#1635,#1305,#1306);
#1170=AXIS2_PLACEMENT_3D('',#1641,#1310,#1311);
#1171=AXIS2_PLACEMENT_3D('',#1645,#1314,#1315);
#1172=AXIS2_PLACEMENT_3D('',#1651,#1319,#1320);
#1173=AXIS2_PLACEMENT_3D('',#1655,#1323,#1324);
#1174=AXIS2_PLACEMENT_3D('',#1659,#1327,#1328);
#1175=AXIS2_PLACEMENT_3D('',#1661,#1330,#1331);
#1176=AXIS2_PLACEMENT_3D('',#1662,#1332,#1333);
#1177=AXIS2_PLACEMENT_3D('',#1670,#1338,#1339);
#1178=AXIS2_PLACEMENT_3D('',#1679,#1344,#1345);
#1179=AXIS2_PLACEMENT_3D('',#1690,#1351,#1352);
#1180=AXIS2_PLACEMENT_3D('',#1699,#1357,#1358);
#1181=AXIS2_PLACEMENT_3D('',#1708,#1363,#1364);
#1182=AXIS2_PLACEMENT_3D('',#1714,#1368,#1369);
#1183=AXIS2_PLACEMENT_3D('',#1715,#1370,#1371);
#1184=AXIS2_PLACEMENT_3D('',#1716,#1372,#1373);
#1185=AXIS2_PLACEMENT_3D('',#1720,#1377,#1378);
#1186=AXIS2_PLACEMENT_3D('',#1724,#1382,#1383);
#1187=AXIS2_PLACEMENT_3D('',#1725,#1384,#1385);
#1188=AXIS2_PLACEMENT_3D('',#1731,#1388,#1389);
#1189=AXIS2_PLACEMENT_3D('',#1732,#1390,#1391);
#1190=AXIS2_PLACEMENT_3D('',#1733,#1392,#1393);
#1191=AXIS2_PLACEMENT_3D('',#1734,#1394,#1395);
#1192=AXIS2_PLACEMENT_3D('',#1742,#1399,#1400);
#1193=AXIS2_PLACEMENT_3D('',#1743,#1401,#1402);
#1194=AXIS2_PLACEMENT_3D('',#1747,#1404,#1405);
#1195=AXIS2_PLACEMENT_3D('',#1748,#1406,#1407);
#1196=AXIS2_PLACEMENT_3D('',#1751,#1409,#1410);
#1197=AXIS2_PLACEMENT_3D('',#1756,#1411,#1412);
#1198=AXIS2_PLACEMENT_3D('',#1761,#1413,#1414);
#1199=AXIS2_PLACEMENT_3D('',#1762,#1415,#1416);
#1200=AXIS2_PLACEMENT_3D('',#1763,#1417,#1418);
#1201=AXIS2_PLACEMENT_3D('',#1764,#1419,#1420);
#1202=AXIS2_PLACEMENT_3D('',#1765,#1421,#1422);
#1203=AXIS2_PLACEMENT_3D('',#1766,#1423,#1424);
#1204=AXIS2_PLACEMENT_3D('',#1767,#1425,#1426);
#1205=AXIS2_PLACEMENT_3D('',#1768,#1427,#1428);
#1206=AXIS2_PLACEMENT_3D('',#1769,#1429,#1430);
#1207=AXIS2_PLACEMENT_3D('',#1770,#1431,#1432);
#1208=AXIS2_PLACEMENT_3D('',#1771,#1433,#1434);
#1209=AXIS2_PLACEMENT_3D('',#1772,#1435,#1436);
#1210=AXIS2_PLACEMENT_3D('',#1773,#1437,#1438);
#1211=AXIS2_PLACEMENT_3D('',#1774,#1439,#1440);
#1212=AXIS2_PLACEMENT_3D('',#1775,#1441,#1442);
#1213=AXIS2_PLACEMENT_3D('',#1776,#1443,#1444);
#1214=AXIS2_PLACEMENT_3D('',#1777,#1445,#1446);
#1215=AXIS2_PLACEMENT_3D('',#1778,#1447,#1448);
#1216=AXIS2_PLACEMENT_3D('',#1779,#1449,#1450);
#1217=AXIS2_PLACEMENT_3D('',#1780,#1451,#1452);
#1218=AXIS2_PLACEMENT_3D('',#1797,#1461,#1462);
#1219=AXIS2_PLACEMENT_3D('',#1806,#1467,#1468);
#1220=AXIS2_PLACEMENT_3D('',#1815,#1473,#1474);
#1221=AXIS2_PLACEMENT_3D('',#1817,#1475,#1476);
#1222=AXIS2_PLACEMENT_3D('',#1828,#1482,#1483);
#1223=AXIS2_PLACEMENT_3D('',#1842,#1492,#1493);
#1224=AXIS2_PLACEMENT_3D('',#1845,#1496,#1497);
#1225=AXIS2_PLACEMENT_3D('',#1846,#1498,#1499);
#1226=AXIS2_PLACEMENT_3D('',#1848,#1500,#1501);
#1227=AXIS2_PLACEMENT_3D('',#1850,#1502,#1503);
#1228=AXIS2_PLACEMENT_3D('',#1851,#1504,#1505);
#1229=AXIS2_PLACEMENT_3D('',#1853,#1506,#1507);
#1230=AXIS2_PLACEMENT_3D('',#1854,#1508,#1509);
#1231=AXIS2_PLACEMENT_3D('',#1859,#1513,#1514);
#1232=AXIS2_PLACEMENT_3D('',#1861,#1516,#1517);
#1233=AXIS2_PLACEMENT_3D('',#1863,#1519,#1520);
#1234=AXIS2_PLACEMENT_3D('',#1864,#1521,#1522);
#1235=AXIS2_PLACEMENT_3D('',#1868,#1524,#1525);
#1236=AXIS2_PLACEMENT_3D('',#1870,#1527,#1528);
#1237=AXIS2_PLACEMENT_3D('',#1873,#1530,#1531);
#1238=AXIS2_PLACEMENT_3D('',#1877,#1533,#1534);
#1239=AXIS2_PLACEMENT_3D('',#1878,#1535,#1536);
#1240=AXIS2_PLACEMENT_3D('',#1879,#1537,#1538);
#1241=AXIS2_PLACEMENT_3D('',#1882,#1540,#1541);
#1242=AXIS2_PLACEMENT_3D('',#1883,#1542,#1543);
#1243=AXIS2_PLACEMENT_3D('',#1884,#1544,#1545);
#1244=AXIS2_PLACEMENT_3D('',#1885,#1546,#1547);
#1245=AXIS2_PLACEMENT_3D('',#1886,#1548,#1549);
#1246=AXIS2_PLACEMENT_3D('',#1887,#1550,#1551);
#1247=AXIS2_PLACEMENT_3D('',#1888,#1552,#1553);
#1248=AXIS2_PLACEMENT_3D('',#1889,#1554,#1555);
#1249=AXIS2_PLACEMENT_3D('',#1890,#1556,#1557);
#1250=AXIS2_PLACEMENT_3D('',#1891,#1558,#1559);
#1251=AXIS2_PLACEMENT_3D('',#1895,#1562,#1563);
#1252=AXIS2_PLACEMENT_3D('',#1899,#1566,#1567);
#1253=AXIS2_PLACEMENT_3D('',#1901,#1569,#1570);
#1254=DIRECTION('',(0.,0.,1.));
#1255=DIRECTION('',(1.,0.,0.));
#1256=DIRECTION('',(0.984807753012208,0.,0.17364817766693));
#1257=DIRECTION('',(-0.17364817766693,0.,0.984807753012208));
#1258=DIRECTION('',(-0.142955102962348,0.567685332769813,0.810738676451944));
#1259=DIRECTION('',(0.,-1.,0.));
#1260=DIRECTION('',(0.171087869746036,-0.171087869746036,-0.970287525247814));
#1261=DIRECTION('',(0.,-1.,0.));
#1262=DIRECTION('',(0.156895268777382,0.428537822750721,-0.8897972854012));
#1263=DIRECTION('',(2.97838586243997E-17,-1.,-1.68912655934622E-16));
#1264=DIRECTION('',(-0.15689530945076,0.428537328905585,0.889797516071391));
#1265=DIRECTION('',(0.,-1.,0.));
#1266=DIRECTION('',(-0.171087869746036,-0.171087869746036,0.970287525247814));
#1267=DIRECTION('',(0.,0.,1.));
#1268=DIRECTION('',(1.,0.,0.));
#1269=DIRECTION('',(1.,0.,0.));
#1270=DIRECTION('',(-0.696032820063167,0.71800996747602,0.));
#1271=DIRECTION('',(1.,0.,0.));
#1272=DIRECTION('',(0.,-1.,7.21713793997265E-16));
#1273=DIRECTION('',(1.,0.,0.));
#1274=DIRECTION('',(0.759937735556129,0.649995875431393,0.));
#1275=DIRECTION('',(-1.,0.,0.));
#1276=DIRECTION('',(0.752004534358258,-0.659157932748003,0.));
#1277=DIRECTION('',(-1.83095068199621E-16,-1.,0.));
#1278=DIRECTION('',(0.,-0.984807753012208,0.17364817766693));
#1279=DIRECTION('',(0.,0.17364817766693,0.984807753012208));
#1280=DIRECTION('',(0.,-0.984807753012208,0.17364817766693));
#1281=DIRECTION('',(0.,-0.17364817766693,-0.984807753012208));
#1282=DIRECTION('',(0.171087869746036,-0.171087869746036,-0.970287525247814));
#1283=DIRECTION('',(1.,0.,0.));
#1284=DIRECTION('',(3.17941249326665E-17,0.17364817766693,0.984807753012208));
#1285=DIRECTION('',(0.,0.984807753012208,0.17364817766693));
#1286=DIRECTION('',(0.,-0.17364817766693,0.984807753012208));
#1287=DIRECTION('',(1.,0.,0.));
#1288=DIRECTION('',(0.171087869746036,0.171087869746036,-0.970287525247814));
#1289=DIRECTION('',(-3.17941249326665E-17,-0.17364817766693,0.984807753012208));
#1290=DIRECTION('',(-0.701673843159863,-0.123724030206484,0.701673843159864));
#1291=DIRECTION('',(-1.,1.83095068199621E-16,0.));
#1292=DIRECTION('',(-1.83095068199621E-16,-1.,0.));
#1293=DIRECTION('',(3.17941249326665E-17,0.17364817766693,0.984807753012208));
#1294=DIRECTION('',(1.83095068199621E-16,1.,0.));
#1295=DIRECTION('',(0.,0.984807753012208,-0.17364817766693));
#1296=DIRECTION('',(0.,0.17364817766693,0.984807753012208));
#1297=DIRECTION('',(0.,-0.984807753012208,0.17364817766693));
#1298=DIRECTION('',(0.,-0.17364817766693,-0.984807753012208));
#1299=DIRECTION('',(0.,-0.984807753012208,0.17364817766693));
#1300=DIRECTION('',(1.,0.,0.));
#1301=DIRECTION('',(0.,-0.984807753012208,0.17364817766693));
#1302=DIRECTION('',(0.,-0.17364817766693,-0.984807753012208));
#1303=DIRECTION('',(0.,-0.984807753012208,0.17364817766693));
#1304=DIRECTION('',(0.,-0.17364817766693,-0.984807753012208));
#1305=DIRECTION('',(0.653438451625314,0.745479427817391,-0.131448136687315));
#1306=DIRECTION('',(3.17941249326665E-17,0.17364817766693,0.984807753012208));
#1307=DIRECTION('',(-0.553428883841396,0.588946716830168,0.588946716830167));
#1308=DIRECTION('',(-0.752004534358258,0.659157932748003,0.));
#1309=DIRECTION('',(-0.567183192808812,0.597165346943712,0.567183192808813));
#1310=DIRECTION('',(0.,0.707106781186547,-0.707106781186548));
#1311=DIRECTION('',(1.,0.,0.));
#1312=DIRECTION('',(0.486110274908501,0.617938832178551,0.61793883217855));
#1313=DIRECTION('',(1.,0.,0.));
#1314=DIRECTION('',(-0.63079448855018,0.737488580080548,-0.24126522224617));
#1315=DIRECTION('',(0.171087869746036,-0.171087869746036,-0.970287525247814));
#1316=DIRECTION('',(-0.662414691963492,-0.349876480692558,0.662414691963503));
#1317=DIRECTION('',(0.706042435949743,0.416537877926781,-0.57271308252074));
#1318=DIRECTION('',(0.357239640837265,0.,-0.934012761697859));
#1319=DIRECTION('',(0.,0.900955635574688,-0.433911215257465));
#1320=DIRECTION('',(0.,0.433911215257465,0.900955635574688));
#1321=DIRECTION('',(1.,0.,0.));
#1322=DIRECTION('',(0.,0.433911215257465,0.900955635574688));
#1323=DIRECTION('',(0.,-1.68912655934622E-16,1.));
#1324=DIRECTION('',(0.,-1.,-1.68912655934622E-16));
#1325=DIRECTION('',(1.,0.,0.));
#1326=DIRECTION('',(0.,-1.,-1.68912655934622E-16));
#1327=DIRECTION('',(0.,-0.900955396117366,-0.433911712456579));
#1328=DIRECTION('',(0.,0.433911712456579,-0.900955396117366));
#1329=DIRECTION('',(0.,0.433911712456579,-0.900955396117366));
#1330=DIRECTION('',(1.,0.,0.));
#1331=DIRECTION('',(0.,1.,0.));
#1332=DIRECTION('',(0.,-1.,0.));
#1333=DIRECTION('',(0.,0.,-1.));
#1334=DIRECTION('',(-1.,0.,0.));
#1335=DIRECTION('',(0.,0.,-1.));
#1336=DIRECTION('',(-1.,0.,0.));
#1337=DIRECTION('',(-0.776623226861663,0.,0.629965366904386));
#1338=DIRECTION('',(-1.,0.,0.));
#1339=DIRECTION('',(0.,0.,1.));
#1340=DIRECTION('',(0.,-0.707106781186548,0.707106781186548));
#1341=DIRECTION('',(0.,1.,0.));
#1342=DIRECTION('',(0.,0.707106781186548,0.707106781186548));
#1343=DIRECTION('',(0.,1.,0.));
#1344=DIRECTION('',(0.,-1.,0.));
#1345=DIRECTION('',(0.,0.,-1.));
#1346=DIRECTION('',(0.776623226861663,0.,-0.629965366904386));
#1347=DIRECTION('',(-0.707106781186542,0.,0.707106781186553));
#1348=DIRECTION('',(-1.,0.,0.));
#1349=DIRECTION('',(0.,0.,-1.));
#1350=DIRECTION('',(1.,0.,0.));
#1351=DIRECTION('',(-1.,0.,0.));
#1352=DIRECTION('',(0.,0.,1.));
#1353=DIRECTION('',(0.,1.,0.));
#1354=DIRECTION('',(0.,0.,-1.));
#1355=DIRECTION('',(0.,1.,0.));
#1356=DIRECTION('',(0.,0.,-1.));
#1357=DIRECTION('',(0.,0.,1.));
#1358=DIRECTION('',(1.,0.,0.));
#1359=DIRECTION('',(0.,1.,0.));
#1360=DIRECTION('',(-1.,0.,0.));
#1361=DIRECTION('',(0.,1.,0.));
#1362=DIRECTION('',(-1.,0.,0.));
#1363=DIRECTION('',(0.,0.,1.));
#1364=DIRECTION('',(1.,0.,0.));
#1365=DIRECTION('',(0.,1.,0.));
#1366=DIRECTION('',(-1.,0.,0.));
#1367=DIRECTION('',(-1.83095068199621E-16,-1.,0.));
#1368=DIRECTION('',(0.,0.,1.));
#1369=DIRECTION('',(1.,0.,0.));
#1370=DIRECTION('',(0.,0.,1.));
#1371=DIRECTION('',(1.,0.,0.));
#1372=DIRECTION('',(0.,-0.819152044288992,0.573576436351046));
#1373=DIRECTION('',(1.,0.,0.));
#1374=DIRECTION('',(-0.633687274224636,0.443712606279661,0.633687274224646));
#1375=DIRECTION('',(0.643405860398645,-0.439087241241714,-0.627081568365249));
#1376=DIRECTION('',(-0.633687274224641,0.443712606279658,0.633687274224643));
#1377=DIRECTION('',(-0.629965366904386,0.,-0.776623226861663));
#1378=DIRECTION('',(0.,1.,0.));
#1379=DIRECTION('',(0.,-1.,0.));
#1380=DIRECTION('',(-0.657104588389045,-0.533016678875091,0.533016678875091));
#1381=DIRECTION('',(-0.657104588389045,0.533016678875091,0.533016678875091));
#1382=DIRECTION('',(0.707106781186548,-1.29467764325766E-16,0.707106781186547));
#1383=DIRECTION('',(-1.83095068199621E-16,-1.,0.));
#1384=DIRECTION('',(0.,0.707106781186548,-0.707106781186548));
#1385=DIRECTION('',(-1.,0.,0.));
#1386=DIRECTION('',(1.,0.,0.));
#1387=DIRECTION('',(-0.577350269189626,-0.577350269189626,-0.577350269189626));
#1388=DIRECTION('',(0.,0.707106781186548,-0.707106781186548));
#1389=DIRECTION('',(0.,-0.707106781186548,-0.707106781186548));
#1390=DIRECTION('',(0.,0.707106781186548,-0.707106781186548));
#1391=DIRECTION('',(0.,-0.707106781186548,-0.707106781186548));
#1392=DIRECTION('',(0.707106781186548,0.,-0.707106781186548));
#1393=DIRECTION('',(0.,1.,0.));
#1394=DIRECTION('',(0.707106781186548,0.,-0.707106781186548));
#1395=DIRECTION('',(-0.707106781186548,0.,-0.707106781186548));
#1396=DIRECTION('',(-0.577350269189626,-0.577350269189626,-0.577350269189626));
#1397=DIRECTION('',(0.,-1.,0.));
#1398=DIRECTION('',(0.577350269189626,-0.577350269189626,0.577350269189626));
#1399=DIRECTION('',(0.707106781186548,0.,-0.707106781186548));
#1400=DIRECTION('',(0.707106781186548,0.,0.707106781186548));
#1401=DIRECTION('',(0.,0.707106781186548,0.707106781186548));
#1402=DIRECTION('',(1.,0.,0.));
#1403=DIRECTION('',(-1.,0.,0.));
#1404=DIRECTION('',(0.,0.707106781186548,0.707106781186548));
#1405=DIRECTION('',(0.,-0.707106781186548,0.707106781186548));
#1406=DIRECTION('',(0.,0.707106781186548,0.707106781186548));
#1407=DIRECTION('',(0.,-0.707106781186548,0.707106781186548));
#1408=DIRECTION('',(-0.577350269189626,0.577350269189626,-0.577350269189626));
#1409=DIRECTION('',(0.,0.,-1.));
#1410=DIRECTION('',(-1.,0.,0.));
#1411=DIRECTION('',(0.,0.,1.));
#1412=DIRECTION('',(1.,0.,0.));
#1413=DIRECTION('',(-0.696681039223031,-0.675356736508173,-0.241927278412641));
#1414=DIRECTION('',(0.171087869746036,0.171087869746036,-0.970287525247814));
#1415=DIRECTION('',(-0.707106781186553,0.,-0.707106781186542));
#1416=DIRECTION('',(0.,-1.,0.));
#1417=DIRECTION('',(-0.577350269189626,0.577350269189626,-0.577350269189626));
#1418=DIRECTION('',(-0.707106781186548,0.,0.707106781186548));
#1419=DIRECTION('',(0.577350269189629,-0.577350269189625,0.577350269189623));
#1420=DIRECTION('',(0.707106781186545,0.70710678118655,0.));
#1421=DIRECTION('',(-1.,0.,0.));
#1422=DIRECTION('',(0.,0.,1.));
#1423=DIRECTION('',(-0.707106781186548,0.707106781186548,0.));
#1424=DIRECTION('',(-0.707106781186548,-0.707106781186548,0.));
#1425=DIRECTION('',(-1.,-6.54205191118238E-15,0.));
#1426=DIRECTION('',(6.54205191118238E-15,-1.,0.));
#1427=DIRECTION('',(0.,0.,1.));
#1428=DIRECTION('',(1.,0.,0.));
#1429=DIRECTION('',(0.,1.,0.));
#1430=DIRECTION('',(0.,0.,1.));
#1431=DIRECTION('',(0.,-1.,0.));
#1432=DIRECTION('',(0.,0.,-1.));
#1433=DIRECTION('',(-0.707106781186548,-0.707106781186548,0.));
#1434=DIRECTION('',(0.707106781186548,-0.707106781186548,0.));
#1435=DIRECTION('',(0.,1.,0.));
#1436=DIRECTION('',(0.,0.,1.));
#1437=DIRECTION('',(-4.90653893338678E-15,-1.,0.));
#1438=DIRECTION('',(1.,-4.90653893338678E-15,0.));
#1439=DIRECTION('',(-1.,0.,0.));
#1440=DIRECTION('',(0.,0.,1.));
#1441=DIRECTION('',(-1.,4.62592926927147E-15,4.62592926927146E-15));
#1442=DIRECTION('',(-4.62592926927147E-15,-1.,0.));
#1443=DIRECTION('',(0.,-2.31296463463574E-15,1.));
#1444=DIRECTION('',(0.,-1.,-2.31296463463574E-15));
#1445=DIRECTION('',(0.577350269189629,0.577350269189619,0.577350269189629));
#1446=DIRECTION('',(0.707106781186548,0.,-0.707106781186548));
#1447=DIRECTION('',(0.577350269189626,0.577350269189626,0.577350269189626));
#1448=DIRECTION('',(0.707106781186548,0.,-0.707106781186548));
#1449=DIRECTION('',(0.,0.,1.));
#1450=DIRECTION('',(1.,0.,0.));
#1451=DIRECTION('',(-0.984807753012208,0.,0.17364817766693));
#1452=DIRECTION('',(0.17364817766693,0.,0.984807753012208));
#1453=DIRECTION('',(0.15689530945076,0.428537328905585,0.889797516071391));
#1454=DIRECTION('',(-2.97838586243997E-17,-1.,-1.68912655934622E-16));
#1455=DIRECTION('',(-0.156895268777382,0.428537822750721,-0.8897972854012));
#1456=DIRECTION('',(0.,1.,0.));
#1457=DIRECTION('',(-0.171087869746036,-0.171087869746036,-0.970287525247814));
#1458=DIRECTION('',(0.,-1.,0.));
#1459=DIRECTION('',(0.171087869746036,-0.171087869746036,0.970287525247814));
#1460=DIRECTION('',(0.,1.,0.));
#1461=DIRECTION('',(0.,0.984807753012208,0.17364817766693));
#1462=DIRECTION('',(0.,-0.17364817766693,0.984807753012208));
#1463=DIRECTION('',(0.171087869746036,-0.171087869746036,0.970287525247814));
#1464=DIRECTION('',(1.,0.,0.));
#1465=DIRECTION('',(-3.17941249326665E-17,-0.17364817766693,0.984807753012208));
#1466=DIRECTION('',(1.,0.,0.));
#1467=DIRECTION('',(0.,-0.984807753012208,0.17364817766693));
#1468=DIRECTION('',(0.,0.17364817766693,0.984807753012208));
#1469=DIRECTION('',(1.,0.,0.));
#1470=DIRECTION('',(0.171087869746036,0.171087869746036,0.970287525247814));
#1471=DIRECTION('',(1.,0.,0.));
#1472=DIRECTION('',(4.24761896802855E-17,0.17364817766693,0.984807753012208));
#1473=DIRECTION('',(0.,-0.984807753012208,0.17364817766693));
#1474=DIRECTION('',(0.,-0.17364817766693,-0.984807753012208));
#1475=DIRECTION('',(0.,0.,1.));
#1476=DIRECTION('',(1.,0.,0.));
#1477=DIRECTION('',(0.,-1.,0.));
#1478=DIRECTION('',(1.,0.,0.));
#1479=DIRECTION('',(0.752004534358258,0.659157932748002,0.));
#1480=DIRECTION('',(-1.83095068199621E-16,-1.,0.));
#1481=DIRECTION('',(-1.,0.,0.));
#1482=DIRECTION('',(0.,0.,1.));
#1483=DIRECTION('',(1.,0.,0.));
#1484=DIRECTION('',(0.,-1.,7.21713793997265E-16));
#1485=DIRECTION('',(-1.,0.,0.));
#1486=DIRECTION('',(-0.696032820063168,-0.718009967476019,0.));
#1487=DIRECTION('',(-1.83095068199621E-16,-1.,0.));
#1488=DIRECTION('',(-0.752004534358258,-0.659157932748002,0.));
#1489=DIRECTION('',(-1.,0.,0.));
#1490=DIRECTION('',(0.696032820063169,-0.718009967476018,0.));
#1491=DIRECTION('',(-1.,0.,0.));
#1492=DIRECTION('',(-1.,1.83095068199621E-16,0.));
#1493=DIRECTION('',(-1.83095068199621E-16,-1.,0.));
#1494=DIRECTION('',(-3.17941249326665E-17,-0.17364817766693,-0.984807753012208));
#1495=DIRECTION('',(1.49982699414952E-16,0.819152044288992,-0.573576436351046));
#1496=DIRECTION('',(0.,0.984807753012208,-0.17364817766693));
#1497=DIRECTION('',(0.,0.17364817766693,0.984807753012208));
#1498=DIRECTION('',(0.,-0.984807753012208,0.17364817766693));
#1499=DIRECTION('',(0.,-0.17364817766693,-0.984807753012208));
#1500=DIRECTION('',(0.,-0.984807753012208,0.17364817766693));
#1501=DIRECTION('',(0.,-0.17364817766693,-0.984807753012208));
#1502=DIRECTION('',(0.,-0.984807753012208,0.17364817766693));
#1503=DIRECTION('',(1.,0.,0.));
#1504=DIRECTION('',(0.,-0.984807753012208,0.17364817766693));
#1505=DIRECTION('',(0.,-0.17364817766693,-0.984807753012208));
#1506=DIRECTION('',(0.,-0.984807753012208,0.17364817766693));
#1507=DIRECTION('',(0.,-0.17364817766693,-0.984807753012208));
#1508=DIRECTION('',(0.707106781186548,0.,-0.707106781186548));
#1509=DIRECTION('',(0.,-1.,0.));
#1510=DIRECTION('',(0.638433097477061,-0.429891102596567,0.638433097477061));
#1511=DIRECTION('',(0.577350269189626,0.577350269189626,0.577350269189625));
#1512=DIRECTION('',(-0.688677046443035,0.226821188174729,-0.688677046443035));
#1513=DIRECTION('',(0.69668103922303,-0.675356736508174,-0.241927278412641));
#1514=DIRECTION('',(-0.171087869746036,0.171087869746036,-0.970287525247814));
#1515=DIRECTION('',(0.714861642491995,0.681804408527942,0.155291920606029));
#1516=DIRECTION('',(-0.563528036694023,0.43022414564546,0.705225734331507));
#1517=DIRECTION('',(0.781221304580395,0.,0.624254173610161));
#1518=DIRECTION('',(0.0920288856097132,-0.815675839699789,0.571142371693327));
#1519=DIRECTION('',(0.,-0.573576436351046,-0.819152044288992));
#1520=DIRECTION('',(1.,0.,0.));
#1521=DIRECTION('',(0.653438451625314,-0.745479427817391,0.131448136687315));
#1522=DIRECTION('',(-3.17941249326665E-17,-0.17364817766693,-0.984807753012208));
#1523=DIRECTION('',(-4.78797938292601E-17,-0.17364817766693,-0.984807753012208));
#1524=DIRECTION('',(0.653438451625314,-0.745479427817391,0.131448136687315));
#1525=DIRECTION('',(-0.756979649619138,-0.643511253276902,0.113468396342236));
#1526=DIRECTION('',(0.553428883841396,0.588946716830168,0.588946716830167));
#1527=DIRECTION('',(0.,0.707106781186547,-0.707106781186548));
#1528=DIRECTION('',(1.,0.,0.));
#1529=DIRECTION('',(-0.402673945712636,0.647245584552038,0.647245584552037));
#1530=DIRECTION('',(0.,0.707106781186547,-0.707106781186548));
#1531=DIRECTION('',(0.207376957729019,0.691735063952616,0.691735063952614));
#1532=DIRECTION('',(1.,0.,0.));
#1533=DIRECTION('',(0.,0.707106781186547,-0.707106781186548));
#1534=DIRECTION('',(5.18538529891042E-17,0.707106781186548,0.707106781186547));
#1535=DIRECTION('',(0.696681039223029,0.675356736508175,-0.241927278412641));
#1536=DIRECTION('',(-0.171087869746036,-0.171087869746036,-0.970287525247814));
#1537=DIRECTION('',(0.696681039223029,0.675356736508175,-0.241927278412641));
#1538=DIRECTION('',(-0.717381021206388,0.655869362484048,-0.234946482773522));
#1539=DIRECTION('',(0.171087869746036,0.171087869746036,0.970287525247814));
#1540=DIRECTION('',(1.,0.,0.));
#1541=DIRECTION('',(0.,0.,-1.));
#1542=DIRECTION('',(-0.707106781186548,0.122787803968973,0.696364240320019));
#1543=DIRECTION('',(0.707106781186548,0.122787803968973,0.696364240320019));
#1544=DIRECTION('',(0.765208425772363,0.11179167922344,0.634002117964432));
#1545=DIRECTION('',(-0.64378262257301,0.132877048670751,0.75358319037089));
#1546=DIRECTION('',(0.171087869746036,0.171087869746036,0.970287525247814));
#1547=DIRECTION('',(0.984807753012208,0.,-0.17364817766693));
#1548=DIRECTION('',(-0.64378262257301,0.132877048670751,0.75358319037089));
#1549=DIRECTION('',(0.765208425772363,0.11179167922344,0.634002117964432));
#1550=DIRECTION('',(4.24761896802855E-17,0.17364817766693,0.984807753012208));
#1551=DIRECTION('',(0.,-0.984807753012208,0.17364817766693));
#1552=DIRECTION('',(0.707106781186548,0.122787803968973,0.696364240320019));
#1553=DIRECTION('',(-0.707106781186548,0.122787803968973,0.696364240320019));
#1554=DIRECTION('',(-1.,0.,0.));
#1555=DIRECTION('',(0.,0.,1.));
#1556=DIRECTION('',(0.,-0.984807753012208,0.17364817766693));
#1557=DIRECTION('',(0.,-0.17364817766693,-0.984807753012208));
#1558=DIRECTION('',(0.,-0.900955635574688,0.433911215257465));
#1559=DIRECTION('',(0.,-0.433911215257465,-0.900955635574688));
#1560=DIRECTION('',(0.,0.433911215257465,0.900955635574688));
#1561=DIRECTION('',(-1.,0.,0.));
#1562=DIRECTION('',(0.,1.68912655934622E-16,-1.));
#1563=DIRECTION('',(0.,1.,1.68912655934622E-16));
#1564=DIRECTION('',(0.,-1.,-1.68912655934622E-16));
#1565=DIRECTION('',(-1.,0.,0.));
#1566=DIRECTION('',(0.,0.900955396117366,0.433911712456579));
#1567=DIRECTION('',(0.,-0.433911712456579,0.900955396117366));
#1568=DIRECTION('',(0.,0.433911712456579,-0.900955396117366));
#1569=DIRECTION('',(1.,0.,0.));
#1570=DIRECTION('',(0.,1.,0.));
#1571=CARTESIAN_POINT('',(0.,0.,0.));
#1572=CARTESIAN_POINT('',(0.064135,0.,0.));
#1573=CARTESIAN_POINT('',(0.0597152035547469,0.018283213118913,0.0250659112263747));
#1574=CARTESIAN_POINT('',(0.0615928754235884,0.0108268386516334,0.0144171048934067));
#1575=CARTESIAN_POINT('',(0.0605942014016813,0.014792647375539,0.0200808667175728));
#1576=CARTESIAN_POINT('',(0.0605942014016813,0.,0.0200808667175728));
#1577=CARTESIAN_POINT('',(0.0605942014016813,-0.00898007909573028,0.0200808667175728));
#1578=CARTESIAN_POINT('',(0.0642517658350708,-0.0126376435291198,-0.00066221195758927));
#1579=CARTESIAN_POINT('',(0.064135,-0.012520877694049,0.));
#1580=CARTESIAN_POINT('',(0.064135,0.,0.));
#1581=CARTESIAN_POINT('',(0.064135,-0.00130989526094951,1.89735380184964E-18));
#1582=CARTESIAN_POINT('',(0.0642230715373267,-0.00106933998387582,-0.000499478508466716));
#1583=CARTESIAN_POINT('',(0.0636350009891413,-0.00267557371104306,0.00283563530010985));
#1584=CARTESIAN_POINT('',(0.0636350009891413,-4.9386658965528E-19,0.00283563530010985));
#1585=CARTESIAN_POINT('',(0.0636350009891413,0.00245939816651783,0.00283563530010985));
#1586=CARTESIAN_POINT('',(0.0642085369181456,0.000892865961652818,-0.000417048586949682));
#1587=CARTESIAN_POINT('',(0.064135,0.00109372164426289,4.33680868994202E-19));
#1588=CARTESIAN_POINT('',(0.064135,0.,0.));
#1589=CARTESIAN_POINT('',(0.064135,0.0133689632280451,0.));
#1590=CARTESIAN_POINT('',(0.0637436762862537,0.0129776395142988,0.00221930706335467));
#1591=CARTESIAN_POINT('',(0.,0.,0.));
#1592=CARTESIAN_POINT('',(0.,0.01651,0.));
#1593=CARTESIAN_POINT('',(0.0413100012,0.01651,0.));
#1594=CARTESIAN_POINT('',(0.0610901053866409,0.01651,0.));
#1595=CARTESIAN_POINT('',(0.0611174587258784,0.016481782982569,0.));
#1596=CARTESIAN_POINT('',(0.0577342,0.00109372164426289,0.));
#1597=CARTESIAN_POINT('',(0.0577342,0.00109372164426289,0.));
#1598=CARTESIAN_POINT('',(0.0577342,-0.000108086808343309,8.67361737988404E-19));
#1599=CARTESIAN_POINT('',(0.0577342,-0.00130989526094951,0.));
#1600=CARTESIAN_POINT('',(0.0577342,-0.00130989526094951,1.7347234759768E-18));
#1601=CARTESIAN_POINT('',(0.0641043793572936,-0.0125470683811685,0.));
#1602=CARTESIAN_POINT('',(0.0594711479870485,-0.01651,0.));
#1603=CARTESIAN_POINT('',(0.,-0.01651,0.));
#1604=CARTESIAN_POINT('',(0.0460257459182625,-0.01651,0.));
#1605=CARTESIAN_POINT('',(0.0431166341561506,-0.013960063121118,0.));
#1606=CARTESIAN_POINT('',(0.0413100012,-0.0123764869720369,0.));
#1607=CARTESIAN_POINT('',(0.0413100012,-7.56365748704043E-18,0.));
#1608=CARTESIAN_POINT('',(0.,-0.01651,0.));
#1609=CARTESIAN_POINT('',(0.0518573512,-0.0146289535711185,0.0106679444139727));
#1610=CARTESIAN_POINT('',(0.0518573512,-0.0156048129175622,0.00513357104398236));
#1611=CARTESIAN_POINT('',(0.0559127319945536,-0.0129515840075051,0.0201807799248733));
#1612=CARTESIAN_POINT('',(0.0564830884654339,-0.0135219404783853,0.0169461276408688));
#1613=CARTESIAN_POINT('',(0.0413100012,-0.0135219404783853,0.0169461276408688));
#1614=CARTESIAN_POINT('',(0.0460257459182625,-0.0135219404783853,0.0169461276408688));
#1615=CARTESIAN_POINT('',(0.0460257459182625,-0.01651,-4.5485808216518E-20));
#1616=CARTESIAN_POINT('',(0.,0.01651,0.));
#1617=CARTESIAN_POINT('',(0.,0.0133360126522549,0.0180005767409634));
#1618=CARTESIAN_POINT('',(0.0412644244590366,0.0133360126522549,0.0180005767409634));
#1619=CARTESIAN_POINT('',(0.0579161180388958,0.0133360126522549,0.0180005767409634));
#1620=CARTESIAN_POINT('',(0.0593019332969082,0.0147218279102673,0.0101412278628489));
#1621=CARTESIAN_POINT('',(0.0413100012,0.01651,1.29346160889192E-18));
#1622=CARTESIAN_POINT('',(0.0413100012,0.0133440490613795,0.017955));
#1623=CARTESIAN_POINT('',(0.037469982289631,0.0126669501210507,0.021795018910369));
#1624=CARTESIAN_POINT('',(0.0413100012,-3.46944695195361E-18,-0.023495));
#1625=CARTESIAN_POINT('',(0.0413100012,-0.00880619576012288,0.0202481276408688));
#1626=CARTESIAN_POINT('',(0.0413100012,-0.0092105360334164,0.017955));
#1627=CARTESIAN_POINT('',(0.0413100012,-3.46944695195361E-18,0.017955));
#1628=CARTESIAN_POINT('',(0.0518573512,-0.028386717880699,0.0130938094559797));
#1629=CARTESIAN_POINT('',(0.0518573512,-0.02723932033728,0.0128914923114764));
#1630=CARTESIAN_POINT('',(0.0518573512,-0.0282151796837237,0.00735711894148601));
#1631=CARTESIAN_POINT('',(-6.73735000000786E-6,-0.028386717880699,0.0130938094559797));
#1632=CARTESIAN_POINT('',(0.0518573512,-0.028386717880699,0.0130938094559797));
#1633=CARTESIAN_POINT('',(0.0518573512,-0.0291602600826393,0.0087068336294084));
#1634=CARTESIAN_POINT('',(0.0518573512,-0.02723932033728,0.0128914923114764));
#1635=CARTESIAN_POINT('',(0.0413100012,-0.0160211718591748,-0.0206700351386603));
#1636=CARTESIAN_POINT('',(0.0576566075343077,-0.025899244884924,0.00456882323433014));
#1637=CARTESIAN_POINT('',(0.0422586381447143,-0.00951306811925411,0.020955));
#1638=CARTESIAN_POINT('',(0.0136453906497596,0.0155674310084226,0.020955));
#1639=CARTESIAN_POINT('',(0.0383100012,-0.00605195153453648,0.020955));
#1640=CARTESIAN_POINT('',(0.03519701221041,-0.00277440527863552,0.02406798898959));
#1641=CARTESIAN_POINT('',(0.,-0.00951306811925411,0.020955));
#1642=CARTESIAN_POINT('',(0.0455443755476718,-0.0274271299690017,0.00304093815025239));
#1643=CARTESIAN_POINT('',(0.0596367242997446,-0.00951306811925411,0.020955));
#1644=CARTESIAN_POINT('',(0.0604400681192541,-0.00951306811925411,0.020955));
#1645=CARTESIAN_POINT('',(0.0637685006481041,-0.0121543783421531,0.0020785211113088));
#1646=CARTESIAN_POINT('',(0.0691506835370482,-0.00446068679819969,0.0115243845822058));
#1647=CARTESIAN_POINT('',(0.0596871906720711,-0.00945914715668429,0.020987877447183));
#1648=CARTESIAN_POINT('',(0.0612853774930336,-0.00851627840965385,0.0196914929041687));
#1649=CARTESIAN_POINT('',(0.0595957932511426,-0.00951306811925411,0.0210620153403311));
#1650=CARTESIAN_POINT('',(0.0554369212240302,-0.00951306811925411,0.0319354994208974));
#1651=CARTESIAN_POINT('',(0.0577342,0.00177655990539037,0.00141781765005493));
#1652=CARTESIAN_POINT('',(0.0577342,0.00245939816651783,0.00283563530010985));
#1653=CARTESIAN_POINT('',(0.0577342,0.00245939816651783,0.00283563530010985));
#1654=CARTESIAN_POINT('',(0.0577342,0.00177655990539037,0.00141781765005493));
#1655=CARTESIAN_POINT('',(0.0577342,-0.000108087772262616,0.00283563530010985));
#1656=CARTESIAN_POINT('',(0.0577342,-0.00267557371104306,0.00283563530010985));
#1657=CARTESIAN_POINT('',(0.0577342,-0.00267557371104306,0.00283563530010985));
#1658=CARTESIAN_POINT('',(0.0577342,-0.000108087772262616,0.00283563530010985));
#1659=CARTESIAN_POINT('',(0.0577342,-0.00199273448599629,0.00141781765005493));
#1660=CARTESIAN_POINT('',(0.0577342,-0.00199273448599629,0.00141781765005493));
#1661=CARTESIAN_POINT('',(0.0577342,-0.000108087772262616,0.00141781765005493));
#1662=CARTESIAN_POINT('',(0.0364018573808503,-0.00951306811925411,0.024655));
#1663=CARTESIAN_POINT('',(0.0364018573808503,-0.00951306811925411,0.021655));
#1664=CARTESIAN_POINT('',(0.0588647599530193,-0.00951306811925411,0.021655));
#1665=CARTESIAN_POINT('',(0.0169934641017517,-0.00951306811925411,0.021655));
#1666=CARTESIAN_POINT('',(0.0169934641017517,-0.00951306811925411,0.024655));
#1667=CARTESIAN_POINT('',(0.0169934641017517,-0.00951306811925411,0.020955));
#1668=CARTESIAN_POINT('',(0.0364018573808503,-0.00951306811925411,0.020955));
#1669=CARTESIAN_POINT('',(0.0571380681192541,-0.00951306811925411,0.0230556226146291));
#1670=CARTESIAN_POINT('',(0.0571380681192541,0.00313898217202902,0.024655));
#1671=CARTESIAN_POINT('',(0.0571380681192541,0.0127910324633121,0.024655));
#1672=CARTESIAN_POINT('',(0.0571380681192541,0.014390409848683,0.0230556226146291));
#1673=CARTESIAN_POINT('',(0.0571380681192541,0.0135410324633121,0.023905));
#1674=CARTESIAN_POINT('',(0.0571380681192541,-0.00651306811925412,0.023905));
#1675=CARTESIAN_POINT('',(0.0571380681192541,-0.00726306811925412,0.023905));
#1676=CARTESIAN_POINT('',(0.0571380681192541,-0.00951306811925411,0.021655));
#1677=CARTESIAN_POINT('',(0.0571380681192541,-0.00811244550462499,0.0230556226146291));
#1678=CARTESIAN_POINT('',(0.0571380681192541,0.00313898217202902,0.0230556226146291));
#1679=CARTESIAN_POINT('',(0.0364018573808503,0.0157910324633121,0.024655));
#1680=CARTESIAN_POINT('',(0.043848666001104,0.0157910324633121,0.0338354483933804));
#1681=CARTESIAN_POINT('',(0.0588647599530193,0.0157910324633121,0.021655));
#1682=CARTESIAN_POINT('',(0.0596871906720711,0.0157910324633121,0.020987877447183));
#1683=CARTESIAN_POINT('',(0.0605942014016813,0.0157910324633121,0.0200808667175728));
#1684=CARTESIAN_POINT('',(0.0597200681192541,0.0157910324633121,0.020955));
#1685=CARTESIAN_POINT('',(0.0364018573808503,0.0157910324633121,0.020955));
#1686=CARTESIAN_POINT('',(0.0169934641017517,0.0157910324633121,0.020955));
#1687=CARTESIAN_POINT('',(0.0169934641017517,0.0157910324633121,0.021655));
#1688=CARTESIAN_POINT('',(0.0169934641017518,0.0157910324633121,0.021655));
#1689=CARTESIAN_POINT('',(0.0571380681192541,0.0157910324633121,0.021655));
#1690=CARTESIAN_POINT('',(0.0156656466424465,0.00313898217202902,0.024655));
#1691=CARTESIAN_POINT('',(0.0156656466424465,0.00313898217202902,0.020955));
#1692=CARTESIAN_POINT('',(0.0156656466424465,-0.00818525065994891,0.020955));
#1693=CARTESIAN_POINT('',(0.0156656466424465,0.0144632150040069,0.020955));
#1694=CARTESIAN_POINT('',(0.0156656466424465,-0.00818525065994891,0.024655));
#1695=CARTESIAN_POINT('',(0.0156656466424465,-0.00818525065994891,0.021655));
#1696=CARTESIAN_POINT('',(0.0156656466424465,0.00313898217202902,0.021655));
#1697=CARTESIAN_POINT('',(0.0156656466424465,0.0144632150040069,0.021655));
#1698=CARTESIAN_POINT('',(0.0156656466424465,0.0144632150040069,0.020955));
#1699=CARTESIAN_POINT('',(0.0364018573808503,0.00313898217202901,0.024655));
#1700=CARTESIAN_POINT('',(0.0189763068142263,0.00313898217202901,0.024655));
#1701=CARTESIAN_POINT('',(0.0189763068142263,0.0124803722915323,0.024655));
#1702=CARTESIAN_POINT('',(0.0189763068142263,-0.0062024079474743,0.024655));
#1703=CARTESIAN_POINT('',(0.0364018573808503,-0.0062024079474743,0.024655));
#1704=CARTESIAN_POINT('',(0.0563880681192541,-0.0062024079474743,0.024655));
#1705=CARTESIAN_POINT('',(0.0563880681192541,0.0127910324633121,0.024655));
#1706=CARTESIAN_POINT('',(0.0563880681192541,0.0124803722915323,0.024655));
#1707=CARTESIAN_POINT('',(0.0364018573808503,0.0124803722915323,0.024655));
#1708=CARTESIAN_POINT('',(0.0364018573808503,0.00313898217202901,0.020955));
#1709=CARTESIAN_POINT('',(0.0597200681192541,0.,0.020955));
#1710=CARTESIAN_POINT('',(0.0597200681192541,0.0154047220892945,0.020955));
#1711=CARTESIAN_POINT('',(0.0364018573808503,0.0154047220892945,0.020955));
#1712=CARTESIAN_POINT('',(0.0383100012,0.0154047220892945,0.020955));
#1713=CARTESIAN_POINT('',(0.0383100012,0.00313898217202901,0.020955));
#1714=CARTESIAN_POINT('',(0.0169934641017517,-0.00818525065994891,0.020955));
#1715=CARTESIAN_POINT('',(0.0169934641017517,0.0144632150040069,0.020955));
#1716=CARTESIAN_POINT('',(0.,0.0133360126522549,0.0180005767409634));
#1717=CARTESIAN_POINT('',(0.0647535245010476,0.0118802579875128,0.0159215436182065));
#1718=CARTESIAN_POINT('',(0.033940518877376,0.0296979706960102,0.0413678745075506));
#1719=CARTESIAN_POINT('',(0.0246943002671278,0.0249385385205006,0.0345707009328723));
#1720=CARTESIAN_POINT('',(0.0571380681192541,0.00313898217202902,0.0230556226146291));
#1721=CARTESIAN_POINT('',(0.0596871906720711,0.,0.020987877447183));
#1722=CARTESIAN_POINT('',(0.0470640969852148,0.00621881170155512,0.031227220761757));
#1723=CARTESIAN_POINT('',(0.0491655832174751,-0.00164548803725128,0.0295225800820028));
#1724=CARTESIAN_POINT('',(0.0383100012,0.00313898217202901,0.020955));
#1725=CARTESIAN_POINT('',(0.0364018573808503,-0.00951306811925411,0.021655));
#1726=CARTESIAN_POINT('',(0.0364018573808503,-0.00673273803336421,0.0244353300858899));
#1727=CARTESIAN_POINT('',(0.056918398205144,-0.00673273803336421,0.0244353300858899));
#1728=CARTESIAN_POINT('',(0.0189763068142263,-0.00673273803336421,0.0244353300858899));
#1729=CARTESIAN_POINT('',(0.0229312702791744,-0.00277777456841615,0.0283902935508379));
#1730=CARTESIAN_POINT('',(0.0163579421276825,-0.00935110271990803,0.0218169653993461));
#1731=CARTESIAN_POINT('',(0.0169934641017517,-0.00818525065994891,0.0229828174593052));
#1732=CARTESIAN_POINT('',(0.0563880681192541,-0.00726306811925412,0.023905));
#1733=CARTESIAN_POINT('',(0.0156656466424465,0.00313898217202902,0.021655));
#1734=CARTESIAN_POINT('',(0.0169934641017517,-0.00818525065994891,0.0229828174593052));
#1735=CARTESIAN_POINT('',(0.0158276120417926,-0.00882077263401812,0.0218169653993461));
#1736=CARTESIAN_POINT('',(0.0197062200442443,-0.00494216463156646,0.0256955734017978));
#1737=CARTESIAN_POINT('',(0.0184459767283364,-0.00620240794747429,0.0244353300858899));
#1738=CARTESIAN_POINT('',(0.0184459767283364,0.00313898217202902,0.0244353300858899));
#1739=CARTESIAN_POINT('',(0.0184459767283364,0.0124803722915323,0.0244353300858899));
#1740=CARTESIAN_POINT('',(0.0197062200442443,0.0112201289756245,0.0256955734017978));
#1741=CARTESIAN_POINT('',(0.0158276120417926,0.0150987369780762,0.0218169653993461));
#1742=CARTESIAN_POINT('',(0.0169934641017517,0.0144632150040069,0.0229828174593052));
#1743=CARTESIAN_POINT('',(0.0364018573808503,0.0127910324633121,0.024655));
#1744=CARTESIAN_POINT('',(0.0364018573808503,0.0130107023774222,0.0244353300858899));
#1745=CARTESIAN_POINT('',(0.0189763068142263,0.0130107023774222,0.0244353300858899));
#1746=CARTESIAN_POINT('',(0.056918398205144,0.0130107023774222,0.0244353300858899));
#1747=CARTESIAN_POINT('',(0.0563880681192541,0.0135410324633121,0.023905));
#1748=CARTESIAN_POINT('',(0.0169934641017517,0.0144632150040069,0.0229828174593052));
#1749=CARTESIAN_POINT('',(0.0163579421276825,0.0156290670639661,0.0218169653993461));
#1750=CARTESIAN_POINT('',(0.0249312702791744,0.00705573891247419,0.0303902935508379));
#1751=CARTESIAN_POINT('',(0.0169934641017517,-0.00818525065994891,0.024655));
#1752=CARTESIAN_POINT('',(0.0163579421276825,-0.00935110271990802,0.0218169653993461));
#1753=CARTESIAN_POINT('',(0.0161483833270651,-0.00923686933882484,0.0219311987804293));
#1754=CARTESIAN_POINT('',(0.0159418492183654,-0.00903033839738346,0.0219312025759189));
#1755=CARTESIAN_POINT('',(0.0158276120417926,-0.00882077263401811,0.0218169653993461));
#1756=CARTESIAN_POINT('',(0.0169934641017517,0.0144632150040069,0.024655));
#1757=CARTESIAN_POINT('',(0.0158276120417926,0.0150987369780762,0.0218169653993461));
#1758=CARTESIAN_POINT('',(0.0159418454228758,0.0153082957786935,0.0219311987804293));
#1759=CARTESIAN_POINT('',(0.0161483763643171,0.0155148298873933,0.0219312025759188));
#1760=CARTESIAN_POINT('',(0.0163579421276825,0.0156290670639661,0.0218169653993461));
#1761=CARTESIAN_POINT('',(0.0593019332969082,0.0147218279102673,0.0101412278628489));
#1762=CARTESIAN_POINT('',(0.0605942014016813,0.,0.0200808667175728));
#1763=CARTESIAN_POINT('',(0.0249312702791744,0.00652540882658428,0.0298599634649481));
#1764=CARTESIAN_POINT('',(0.0189763068142263,0.0124803722915323,0.023905));
#1765=CARTESIAN_POINT('',(0.0364018573808503,0.0124803722915323,0.023905));
#1766=CARTESIAN_POINT('',(0.0563880681192541,0.0124803722915323,0.023905));
#1767=CARTESIAN_POINT('',(0.0189763068142263,0.0124803722915323,0.023905));
#1768=CARTESIAN_POINT('',(0.0189763068142263,0.0124803722915323,0.023905));
#1769=CARTESIAN_POINT('',(0.0189763068142263,0.0124803722915323,0.023905));
#1770=CARTESIAN_POINT('',(0.0563880681192541,0.00313898217202901,0.023905));
#1771=CARTESIAN_POINT('',(0.0563880681192541,-0.0062024079474743,0.023905));
#1772=CARTESIAN_POINT('',(0.0189763068142263,0.00313898217202901,0.023905));
#1773=CARTESIAN_POINT('',(0.0189763068142263,-0.0062024079474743,0.023905));
#1774=CARTESIAN_POINT('',(0.0364018573808503,-0.0062024079474743,0.023905));
#1775=CARTESIAN_POINT('',(0.0189763068142263,-0.0062024079474743,0.023905));
#1776=CARTESIAN_POINT('',(0.0189763068142263,-0.00620240794747429,0.023905));
#1777=CARTESIAN_POINT('',(0.0189763068142263,-0.00620240794747429,0.023905));
#1778=CARTESIAN_POINT('',(0.0202365501301341,-0.00494216463156646,0.0251652433159079));
#1779=CARTESIAN_POINT('',(0.,0.,0.));
#1780=CARTESIAN_POINT('',(-0.064135,0.,0.));
#1781=CARTESIAN_POINT('',(-0.0642085369181456,0.000892865961652818,-0.000417048586949682));
#1782=CARTESIAN_POINT('',(-0.0636350009891413,0.00245939816651783,0.00283563530010985));
#1783=CARTESIAN_POINT('',(-0.064135,0.00109372164426289,5.42101086242752E-19));
#1784=CARTESIAN_POINT('',(-0.0636350009891413,-4.9386658965528E-19,0.00283563530010985));
#1785=CARTESIAN_POINT('',(-0.0636350009891413,-0.00267557371104306,0.00283563530010985));
#1786=CARTESIAN_POINT('',(-0.0642230715373267,-0.00106933998387582,-0.000499478508466716));
#1787=CARTESIAN_POINT('',(-0.064135,-0.00130989526094951,1.89735380184964E-18));
#1788=CARTESIAN_POINT('',(-0.064135,0.,0.));
#1789=CARTESIAN_POINT('',(-0.064135,-0.013052765526335,0.));
#1790=CARTESIAN_POINT('',(-0.0637529317278912,-0.0126706972542262,0.0021668168454633));
#1791=CARTESIAN_POINT('',(-0.0611469404783853,-0.0100647060047203,0.0169461276408687));
#1792=CARTESIAN_POINT('',(-0.0611469404783853,0.0128150681192541,0.0169461276408687));
#1793=CARTESIAN_POINT('',(-0.0611469404783853,0.0100647060047203,0.0169461276408687));
#1794=CARTESIAN_POINT('',(-0.0642361969148579,0.0131539624411928,-0.000573916223434779));
#1795=CARTESIAN_POINT('',(-0.064135,0.013052765526335,0.));
#1796=CARTESIAN_POINT('',(-0.064135,0.,0.));
#1797=CARTESIAN_POINT('',(0.,0.01651,0.));
#1798=CARTESIAN_POINT('',(-0.0571867535524581,0.0129131675568954,0.0203986504427904));
#1799=CARTESIAN_POINT('',(-0.0607835859955627,0.01651,0.));
#1800=CARTESIAN_POINT('',(-0.057662040397473,0.0133884544019103,0.0177031647995537));
#1801=CARTESIAN_POINT('',(0.,0.0133884544019103,0.0177031647995537));
#1802=CARTESIAN_POINT('',(-0.0413100012,0.0133884544019103,0.0177031647995537));
#1803=CARTESIAN_POINT('',(-0.0413100012,0.01651,-1.29346160889192E-18));
#1804=CARTESIAN_POINT('',(-0.0413100012,0.01651,0.));
#1805=CARTESIAN_POINT('',(0.,0.01651,0.));
#1806=CARTESIAN_POINT('',(0.,-0.01651,0.));
#1807=CARTESIAN_POINT('',(-0.057795526473948,-0.013530284539946,0.016898806116238));
#1808=CARTESIAN_POINT('',(-0.0460824250152852,-0.013530284539946,0.016898806116238));
#1809=CARTESIAN_POINT('',(-0.0577397997139503,-0.013530284539946,0.016898806116238));
#1810=CARTESIAN_POINT('',(-0.0607213905948135,-0.0165118754208092,-1.06360399392216E-5));
#1811=CARTESIAN_POINT('',(-0.060687976628052,-0.0164784614540477,0.00017886398227644));
#1812=CARTESIAN_POINT('',(0.,-0.0164784614540477,0.00017886398227644));
#1813=CARTESIAN_POINT('',(-0.0460824250152852,-0.0164784614540477,0.00017886398227644));
#1814=CARTESIAN_POINT('',(-0.0460824250152852,-0.0135219404783853,0.0169461276408687));
#1815=CARTESIAN_POINT('',(-0.05186764455,-0.0146289535711185,0.0106679444139727));
#1816=CARTESIAN_POINT('',(-0.05186764455,-0.0156318293354687,0.00498035332427826));
#1817=CARTESIAN_POINT('',(0.,0.,0.020955));
#1818=CARTESIAN_POINT('',(-0.0571380681192541,-0.0128150681192541,0.020955));
#1819=CARTESIAN_POINT('',(-0.0571380681192541,0.00874435244213908,0.020955));
#1820=CARTESIAN_POINT('',(-0.0571380681192541,-0.00951306811925411,0.020955));
#1821=CARTESIAN_POINT('',(-0.0413100012,-0.00951306811925411,0.020955));
#1822=CARTESIAN_POINT('',(-0.0422586381447143,-0.00951306811925411,0.020955));
#1823=CARTESIAN_POINT('',(-0.0136453906497596,0.0155674310084226,0.020955));
#1824=CARTESIAN_POINT('',(-0.0413100012,-0.00868155509129101,0.020955));
#1825=CARTESIAN_POINT('',(-0.0413100012,3.46944695195361E-18,0.020955));
#1826=CARTESIAN_POINT('',(-0.0413100012,0.00874435244213908,0.020955));
#1827=CARTESIAN_POINT('',(0.,0.00874435244213908,0.020955));
#1828=CARTESIAN_POINT('',(0.,0.,0.));
#1829=CARTESIAN_POINT('',(-0.05715,-0.000108086808343309,8.67361737988404E-19));
#1830=CARTESIAN_POINT('',(-0.05715,0.00109372164426289,0.));
#1831=CARTESIAN_POINT('',(-0.05715,-0.00130989526094951,1.7347234759768E-18));
#1832=CARTESIAN_POINT('',(-0.05715,0.00109372164426289,0.));
#1833=CARTESIAN_POINT('',(-0.0641408444280161,0.0130467365612505,0.));
#1834=CARTESIAN_POINT('',(-0.0413100012,7.56365748704043E-18,0.));
#1835=CARTESIAN_POINT('',(-0.0413100012,-0.0123764869720369,0.));
#1836=CARTESIAN_POINT('',(-0.0460257459182625,-0.01651,0.));
#1837=CARTESIAN_POINT('',(-0.0458185398772094,-0.0163283767524887,0.));
#1838=CARTESIAN_POINT('',(0.,-0.0163283767524887,0.));
#1839=CARTESIAN_POINT('',(-0.060959650043251,-0.0163283767524887,0.));
#1840=CARTESIAN_POINT('',(-0.0608108020895159,-0.0164819245613557,0.));
#1841=CARTESIAN_POINT('',(-0.05715,-0.00130989526094951,1.7347234759768E-18));
#1842=CARTESIAN_POINT('',(-0.0413100012,3.46944695195361E-18,-0.023495));
#1843=CARTESIAN_POINT('',(-0.0413100012,-0.0160211718591748,-0.0206700351386603));
#1844=CARTESIAN_POINT('',(-0.0413100012,0.0133884544019103,0.0177031647995537));
#1845=CARTESIAN_POINT('',(-0.05186764455,-0.028386717880699,0.0130938094559797));
#1846=CARTESIAN_POINT('',(-0.05186764455,-0.0147790382726775,0.0106944083962492));
#1847=CARTESIAN_POINT('',(-0.05186764455,-0.0157554500547513,0.00515690200811376));
#1848=CARTESIAN_POINT('',(-0.05186764455,-0.0272393188943384,0.0128914920570468));
#1849=CARTESIAN_POINT('',(-0.05186764455,-0.0282157306764122,0.00735398566891142));
#1850=CARTESIAN_POINT('',(-6.73735000000786E-6,-0.028386717880699,0.0130938094559797));
#1851=CARTESIAN_POINT('',(-0.05186764455,-0.028386717880699,0.0130938094559797));
#1852=CARTESIAN_POINT('',(-0.05186764455,-0.0291608122638398,0.00870370205420491));
#1853=CARTESIAN_POINT('',(-0.05186764455,-0.0272393188943384,0.0128914920570468));
#1854=CARTESIAN_POINT('',(-0.0571380681192541,0.,0.020955));
#1855=CARTESIAN_POINT('',(-0.0606412593071598,-0.0104052081452258,0.0174518088120943));
#1856=CARTESIAN_POINT('',(-0.0590808888869543,-0.0114558888869543,0.0190121792322999));
#1857=CARTESIAN_POINT('',(-0.0539670454128361,-0.00634204541283607,0.024126022706418));
#1858=CARTESIAN_POINT('',(-0.0571380681192541,0.00874435244213908,0.020955));
#1859=CARTESIAN_POINT('',(-0.0637529317278912,0.0126706972542262,0.0021668168454633));
#1860=CARTESIAN_POINT('',(-0.0592967987064922,0.011829291963034,0.0173480404755666));
#1861=CARTESIAN_POINT('',(-0.0571380681192541,0.00874435244213908,0.020955));
#1862=CARTESIAN_POINT('',(-0.0571380681192541,0.00874435244213908,0.020955));
#1863=CARTESIAN_POINT('',(0.,0.0133884544019103,0.0177031647995537));
#1864=CARTESIAN_POINT('',(-0.0460257459182625,-0.01651,1.44111676680093E-18));
#1865=CARTESIAN_POINT('',(-0.0459828409952575,-0.0164735263632403,-6.43128624529327E-6));
#1866=CARTESIAN_POINT('',(-0.0459828409952575,-0.0134762820129937,0.0169917861062605));
#1867=CARTESIAN_POINT('',(-0.0459828409952575,-0.0164592804008906,7.4361581031743E-5));
#1868=CARTESIAN_POINT('',(-0.045849197234427,-0.0163283767524887,0.0001524));
#1869=CARTESIAN_POINT('',(-0.05252309735658,-0.0204362774590072,0.0100317906602469));
#1870=CARTESIAN_POINT('',(0.,-0.00951306811925411,0.020955));
#1871=CARTESIAN_POINT('',(-0.0558896593042517,-0.0165853721293841,0.01388269598987));
#1872=CARTESIAN_POINT('',(-0.0578297616384112,-0.0134669119391141,0.0170011561801401));
#1873=CARTESIAN_POINT('',(-0.0576936611688511,-0.0133340612932877,0.0171340068259664));
#1874=CARTESIAN_POINT('',(-0.0578133417712154,-0.0134879629118398,0.0169801052074144));
#1875=CARTESIAN_POINT('',(-0.0460257459182625,-0.0134879629118398,0.0169801052074144));
#1876=CARTESIAN_POINT('',(-0.0459950119663853,-0.0134879629118398,0.0169801052074144));
#1877=CARTESIAN_POINT('',(-0.0460824250152852,-0.0133340612932877,0.0171340068259664));
#1878=CARTESIAN_POINT('',(-0.0590043860530643,-0.0147308000575016,0.0100903442873561));
#1879=CARTESIAN_POINT('',(-0.0609067280959691,-0.0163283767524887,0.0001524));
#1880=CARTESIAN_POINT('',(-0.0608160652233354,-0.0164532155240383,6.49869511000975E-5));
#1881=CARTESIAN_POINT('',(-0.0578395052635764,-0.0134766555642793,0.0169458973358832));
#1882=CARTESIAN_POINT('',(0.,-0.013380199838387,0.0168723421339615));
#1883=CARTESIAN_POINT('',(-0.0460824250152852,-0.013380199838387,0.0168723421339615));
#1884=CARTESIAN_POINT('',(-0.0577397997139503,-0.013380199838387,0.0168723421339615));
#1885=CARTESIAN_POINT('',(-0.0589421906523151,-0.0145825907767517,0.0100532442651404));
#1886=CARTESIAN_POINT('',(-0.060687976628052,-0.0163283767524887,0.0001524));
#1887=CARTESIAN_POINT('',(-0.0460824250152852,-0.0163599152984409,-2.64639822764382E-5));
#1888=CARTESIAN_POINT('',(-0.0460824250152852,-0.0163283767524887,0.0001524));
#1889=CARTESIAN_POINT('',(0.,-0.0163283767524887,0.0001524));
#1890=CARTESIAN_POINT('',(-0.05186764455,-0.0147790382726775,0.0106944083962492));
#1891=CARTESIAN_POINT('',(-0.05715,0.00177655990539037,0.00141781765005493));
#1892=CARTESIAN_POINT('',(-0.05715,0.00177655990539037,0.00141781765005493));
#1893=CARTESIAN_POINT('',(-0.05715,0.00245939816651783,0.00283563530010985));
#1894=CARTESIAN_POINT('',(-0.05715,0.00245939816651783,0.00283563530010985));
#1895=CARTESIAN_POINT('',(-0.05715,-0.000108087772262616,0.00283563530010985));
#1896=CARTESIAN_POINT('',(-0.05715,-0.000108087772262616,0.00283563530010985));
#1897=CARTESIAN_POINT('',(-0.05715,-0.00267557371104306,0.00283563530010985));
#1898=CARTESIAN_POINT('',(-0.05715,-0.00267557371104306,0.00283563530010985));
#1899=CARTESIAN_POINT('',(-0.05715,-0.00199273448599629,0.00141781765005493));
#1900=CARTESIAN_POINT('',(-0.05715,-0.00199273448599629,0.00141781765005493));
#1901=CARTESIAN_POINT('',(-0.05715,-0.000108087772262616,0.00141781765005493));
#1902=MECHANICAL_DESIGN_GEOMETRIC_PRESENTATION_REPRESENTATION('',(#1136),
#1904);
#1903=MECHANICAL_DESIGN_GEOMETRIC_PRESENTATION_REPRESENTATION('',(#1137),
#1905);
#1904=(
GEOMETRIC_REPRESENTATION_CONTEXT(3)
GLOBAL_UNCERTAINTY_ASSIGNED_CONTEXT((#1906))
GLOBAL_UNIT_ASSIGNED_CONTEXT((#1912,#1910,#1908))
REPRESENTATION_CONTEXT('WeaponSystem','TOP_LEVEL_ASSEMBLY_PART')
);
#1905=(
GEOMETRIC_REPRESENTATION_CONTEXT(3)
GLOBAL_UNCERTAINTY_ASSIGNED_CONTEXT((#1907))
GLOBAL_UNIT_ASSIGNED_CONTEXT((#1913,#1911,#1909))
REPRESENTATION_CONTEXT('WeaponSystem','TOP_LEVEL_ASSEMBLY_PART')
);
#1906=UNCERTAINTY_MEASURE_WITH_UNIT(LENGTH_MEASURE(2.E-5),#1912,
'DISTANCE_ACCURACY_VALUE','Maximum Tolerance applied to model');
#1907=UNCERTAINTY_MEASURE_WITH_UNIT(LENGTH_MEASURE(1.E-8),#1913,
'DISTANCE_ACCURACY_VALUE','Maximum Tolerance applied to model');
#1908=(
NAMED_UNIT(*)
SI_UNIT($,.STERADIAN.)
SOLID_ANGLE_UNIT()
);
#1909=(
NAMED_UNIT(*)
SI_UNIT($,.STERADIAN.)
SOLID_ANGLE_UNIT()
);
#1910=(
NAMED_UNIT(*)
PLANE_ANGLE_UNIT()
SI_UNIT($,.RADIAN.)
);
#1911=(
NAMED_UNIT(*)
PLANE_ANGLE_UNIT()
SI_UNIT($,.RADIAN.)
);
#1912=(
LENGTH_UNIT()
NAMED_UNIT(*)
SI_UNIT($,.METRE.)
);
#1913=(
LENGTH_UNIT()
NAMED_UNIT(*)
SI_UNIT($,.METRE.)
);
#1914=PRODUCT_DEFINITION_SHAPE('','',#1916);
#1915=PRODUCT_DEFINITION_SHAPE('','',#1917);
#1916=PRODUCT_DEFINITION('','',#1920,#1918);
#1917=PRODUCT_DEFINITION('','',#1921,#1919);
#1918=PRODUCT_DEFINITION_CONTEXT('',#1932,'design');
#1919=PRODUCT_DEFINITION_CONTEXT('',#1933,'design');
#1920=PRODUCT_DEFINITION_FORMATION_WITH_SPECIFIED_SOURCE('','',#1924,
 .NOT_KNOWN.);
#1921=PRODUCT_DEFINITION_FORMATION_WITH_SPECIFIED_SOURCE('','',#1925,
 .NOT_KNOWN.);
#1922=PRODUCT_RELATED_PRODUCT_CATEGORY('','',(#1924));
#1923=PRODUCT_RELATED_PRODUCT_CATEGORY('','',(#1925));
#1924=PRODUCT('WeaponSystem','WeaponSystem','WeaponSystem',(#1928));
#1925=PRODUCT('WeaponSystem','WeaponSystem','WeaponSystem',(#1929));
#1926=PRODUCT_CATEGORY('','');
#1927=PRODUCT_CATEGORY('','');
#1928=PRODUCT_CONTEXT('',#1932,'mechanical');
#1929=PRODUCT_CONTEXT('',#1933,'mechanical');
#1930=APPLICATION_PROTOCOL_DEFINITION('international standard',
'ap242_managed_model_based_3d_engineering',2020,#1932);
#1931=APPLICATION_PROTOCOL_DEFINITION('international standard',
'ap242_managed_model_based_3d_engineering',2020,#1933);
#1932=APPLICATION_CONTEXT('managed model based 3d engineering');
#1933=APPLICATION_CONTEXT('managed model based 3d engineering');
ENDSEC;
END-ISO-10303-21;
