ISO-10303-21;
HEADER;
/* Generated by software containing ST-Developer
 * from STEP Tools, Inc. (www.steptools.com) 
 */
/* OPTION: using custom renumber hook */

FILE_DESCRIPTION(
/* description */ ('STEP AP242 Edition 2',
'CAx-IF Rec.Pracs.---Representation and Presentation of Product Manufa
cturing Information (PMI)---4.0---2014-10-13',
'CAx-IF Rec.Pracs.---3D Tessellated Geometry---0.4---2014-09-14','2;1',
'CAx-IF Rec.Pracs.---User Defined Attributes---1.5---2016-08-15'),
/* implementation_level */ '2;1');

FILE_NAME(
/* name */ 'ElectronicsGuard',
/* time_stamp */ '2026-05-18T00:11:55Z',
/* author */ (''),
/* organization */ (''),
/* preprocessor_version */ 'ST-DEVELOPER v20',
/* originating_system */ 'ONSHAPE BY PTC INC, 1.215',
/* authorisation */ '  ');

FILE_SCHEMA (('AP242_MANAGED_MODEL_BASED_3D_ENGINEERING_MIM_LF { 1 0 10303 442 3 1 4 }'));
ENDSEC;

DATA;
#10=SHAPE_REPRESENTATION_RELATIONSHIP('','',#591,#11);
#11=ADVANCED_BREP_SHAPE_REPRESENTATION('',(#589),#1005);
#12=CONICAL_SURFACE('',#640,0.00168137084989848,0.785398163397449);
#13=CONICAL_SURFACE('',#641,0.00168137084989848,0.785398163397442);
#14=CONICAL_SURFACE('',#644,0.00168137084989848,0.785398163397442);
#15=CONICAL_SURFACE('',#645,0.00168137084989848,0.785398163397449);
#16=CONICAL_SURFACE('',#648,0.00168137084989848,0.785398163397449);
#17=CONICAL_SURFACE('',#649,0.00168137084989848,0.785398163397442);
#18=CONICAL_SURFACE('',#652,0.00168137084989848,0.785398163397442);
#19=CONICAL_SURFACE('',#653,0.00168137084989848,0.785398163397449);
#20=CONICAL_SURFACE('',#655,0.00156123120760469,0.785398163397448);
#21=CONICAL_SURFACE('',#656,0.00171123120760469,0.785398163397448);
#22=CONICAL_SURFACE('',#657,0.00171123120760469,0.785398163397448);
#23=CONICAL_SURFACE('',#658,0.00156123120760469,0.785398163397448);
#24=CONICAL_SURFACE('',#659,0.00171123120760469,0.785398163397448);
#25=CONICAL_SURFACE('',#660,0.00156123120760469,0.785398163397448);
#26=CONICAL_SURFACE('',#661,0.00156123120760469,0.785398163397448);
#27=CONICAL_SURFACE('',#662,0.00171123120760469,0.785398163397448);
#28=CYLINDRICAL_SURFACE('',#615,0.00156123120760469);
#29=CYLINDRICAL_SURFACE('',#618,0.00156123120760469);
#30=CYLINDRICAL_SURFACE('',#621,0.00156123120760469);
#31=CYLINDRICAL_SURFACE('',#624,0.00156123120760469);
#32=CYLINDRICAL_SURFACE('',#627,0.00193137084989848);
#33=CYLINDRICAL_SURFACE('',#630,0.00193137084989848);
#34=CYLINDRICAL_SURFACE('',#633,0.00193137084989848);
#35=CYLINDRICAL_SURFACE('',#636,0.00193137084989848);
#36=LINE('',#858,#76);
#37=LINE('',#862,#77);
#38=LINE('',#866,#78);
#39=LINE('',#870,#79);
#40=LINE('',#883,#80);
#41=LINE('',#887,#81);
#42=LINE('',#891,#82);
#43=LINE('',#895,#83);
#44=LINE('',#897,#84);
#45=LINE('',#900,#85);
#46=LINE('',#902,#86);
#47=LINE('',#904,#87);
#48=LINE('',#906,#88);
#49=LINE('',#909,#89);
#50=LINE('',#911,#90);
#51=LINE('',#913,#91);
#52=LINE('',#915,#92);
#53=LINE('',#918,#93);
#54=LINE('',#920,#94);
#55=LINE('',#922,#95);
#56=LINE('',#924,#96);
#57=LINE('',#927,#97);
#58=LINE('',#929,#98);
#59=LINE('',#931,#99);
#60=LINE('',#965,#100);
#61=LINE('',#966,#101);
#62=LINE('',#968,#102);
#63=LINE('',#970,#103);
#64=LINE('',#972,#104);
#65=LINE('',#974,#105);
#66=LINE('',#976,#106);
#67=LINE('',#978,#107);
#68=LINE('',#981,#108);
#69=LINE('',#982,#109);
#70=LINE('',#984,#110);
#71=LINE('',#986,#111);
#72=LINE('',#988,#112);
#73=LINE('',#990,#113);
#74=LINE('',#992,#114);
#75=LINE('',#994,#115);
#76=VECTOR('',#677,1.);
#77=VECTOR('',#680,1.);
#78=VECTOR('',#683,1.);
#79=VECTOR('',#686,1.);
#80=VECTOR('',#699,1.);
#81=VECTOR('',#702,1.);
#82=VECTOR('',#705,1.);
#83=VECTOR('',#708,1.);
#84=VECTOR('',#711,1.);
#85=VECTOR('',#712,1.);
#86=VECTOR('',#713,1.);
#87=VECTOR('',#714,1.);
#88=VECTOR('',#717,1.);
#89=VECTOR('',#718,1.);
#90=VECTOR('',#719,1.);
#91=VECTOR('',#720,1.);
#92=VECTOR('',#723,1.);
#93=VECTOR('',#724,1.);
#94=VECTOR('',#725,1.);
#95=VECTOR('',#726,1.);
#96=VECTOR('',#729,1.);
#97=VECTOR('',#730,1.);
#98=VECTOR('',#731,1.);
#99=VECTOR('',#732,1.);
#100=VECTOR('',#783,1.);
#101=VECTOR('',#784,1.);
#102=VECTOR('',#787,1.);
#103=VECTOR('',#790,1.);
#104=VECTOR('',#793,1.);
#105=VECTOR('',#796,1.);
#106=VECTOR('',#799,1.);
#107=VECTOR('',#802,1.);
#108=VECTOR('',#807,1.);
#109=VECTOR('',#808,1.);
#110=VECTOR('',#811,1.);
#111=VECTOR('',#814,1.);
#112=VECTOR('',#817,1.);
#113=VECTOR('',#820,1.);
#114=VECTOR('',#823,1.);
#115=VECTOR('',#826,1.);
#116=ORIENTED_EDGE('',*,*,#260,.T.);
#117=ORIENTED_EDGE('',*,*,#261,.T.);
#118=ORIENTED_EDGE('',*,*,#262,.T.);
#119=ORIENTED_EDGE('',*,*,#263,.T.);
#120=ORIENTED_EDGE('',*,*,#264,.T.);
#121=ORIENTED_EDGE('',*,*,#265,.T.);
#122=ORIENTED_EDGE('',*,*,#266,.T.);
#123=ORIENTED_EDGE('',*,*,#267,.T.);
#124=ORIENTED_EDGE('',*,*,#268,.T.);
#125=ORIENTED_EDGE('',*,*,#269,.T.);
#126=ORIENTED_EDGE('',*,*,#270,.T.);
#127=ORIENTED_EDGE('',*,*,#271,.T.);
#128=ORIENTED_EDGE('',*,*,#272,.T.);
#129=ORIENTED_EDGE('',*,*,#273,.T.);
#130=ORIENTED_EDGE('',*,*,#274,.T.);
#131=ORIENTED_EDGE('',*,*,#275,.T.);
#132=ORIENTED_EDGE('',*,*,#276,.T.);
#133=ORIENTED_EDGE('',*,*,#277,.T.);
#134=ORIENTED_EDGE('',*,*,#278,.T.);
#135=ORIENTED_EDGE('',*,*,#279,.T.);
#136=ORIENTED_EDGE('',*,*,#280,.T.);
#137=ORIENTED_EDGE('',*,*,#281,.T.);
#138=ORIENTED_EDGE('',*,*,#282,.T.);
#139=ORIENTED_EDGE('',*,*,#283,.T.);
#140=ORIENTED_EDGE('',*,*,#284,.T.);
#141=ORIENTED_EDGE('',*,*,#285,.T.);
#142=ORIENTED_EDGE('',*,*,#286,.T.);
#143=ORIENTED_EDGE('',*,*,#287,.T.);
#144=ORIENTED_EDGE('',*,*,#288,.T.);
#145=ORIENTED_EDGE('',*,*,#289,.T.);
#146=ORIENTED_EDGE('',*,*,#290,.T.);
#147=ORIENTED_EDGE('',*,*,#291,.T.);
#148=ORIENTED_EDGE('',*,*,#292,.T.);
#149=ORIENTED_EDGE('',*,*,#293,.T.);
#150=ORIENTED_EDGE('',*,*,#294,.T.);
#151=ORIENTED_EDGE('',*,*,#295,.T.);
#152=ORIENTED_EDGE('',*,*,#296,.T.);
#153=ORIENTED_EDGE('',*,*,#297,.T.);
#154=ORIENTED_EDGE('',*,*,#298,.T.);
#155=ORIENTED_EDGE('',*,*,#299,.T.);
#156=ORIENTED_EDGE('',*,*,#300,.T.);
#157=ORIENTED_EDGE('',*,*,#301,.T.);
#158=ORIENTED_EDGE('',*,*,#302,.T.);
#159=ORIENTED_EDGE('',*,*,#303,.T.);
#160=ORIENTED_EDGE('',*,*,#304,.T.);
#161=ORIENTED_EDGE('',*,*,#305,.T.);
#162=ORIENTED_EDGE('',*,*,#306,.T.);
#163=ORIENTED_EDGE('',*,*,#307,.T.);
#164=ORIENTED_EDGE('',*,*,#298,.F.);
#165=ORIENTED_EDGE('',*,*,#308,.T.);
#166=ORIENTED_EDGE('',*,*,#292,.F.);
#167=ORIENTED_EDGE('',*,*,#309,.T.);
#168=ORIENTED_EDGE('',*,*,#286,.F.);
#169=ORIENTED_EDGE('',*,*,#310,.T.);
#170=ORIENTED_EDGE('',*,*,#296,.F.);
#171=ORIENTED_EDGE('',*,*,#311,.T.);
#172=ORIENTED_EDGE('',*,*,#294,.F.);
#173=ORIENTED_EDGE('',*,*,#312,.T.);
#174=ORIENTED_EDGE('',*,*,#288,.F.);
#175=ORIENTED_EDGE('',*,*,#313,.T.);
#176=ORIENTED_EDGE('',*,*,#290,.F.);
#177=ORIENTED_EDGE('',*,*,#314,.T.);
#178=ORIENTED_EDGE('',*,*,#284,.F.);
#179=ORIENTED_EDGE('',*,*,#315,.T.);
#180=ORIENTED_EDGE('',*,*,#316,.F.);
#181=ORIENTED_EDGE('',*,*,#269,.F.);
#182=ORIENTED_EDGE('',*,*,#317,.F.);
#183=ORIENTED_EDGE('',*,*,#289,.F.);
#184=ORIENTED_EDGE('',*,*,#317,.T.);
#185=ORIENTED_EDGE('',*,*,#268,.F.);
#186=ORIENTED_EDGE('',*,*,#318,.F.);
#187=ORIENTED_EDGE('',*,*,#314,.F.);
#188=ORIENTED_EDGE('',*,*,#316,.T.);
#189=ORIENTED_EDGE('',*,*,#312,.F.);
#190=ORIENTED_EDGE('',*,*,#319,.F.);
#191=ORIENTED_EDGE('',*,*,#270,.F.);
#192=ORIENTED_EDGE('',*,*,#318,.T.);
#193=ORIENTED_EDGE('',*,*,#267,.F.);
#194=ORIENTED_EDGE('',*,*,#320,.F.);
#195=ORIENTED_EDGE('',*,*,#285,.F.);
#196=ORIENTED_EDGE('',*,*,#319,.T.);
#197=ORIENTED_EDGE('',*,*,#293,.F.);
#198=ORIENTED_EDGE('',*,*,#321,.F.);
#199=ORIENTED_EDGE('',*,*,#271,.F.);
#200=ORIENTED_EDGE('',*,*,#320,.T.);
#201=ORIENTED_EDGE('',*,*,#266,.F.);
#202=ORIENTED_EDGE('',*,*,#322,.F.);
#203=ORIENTED_EDGE('',*,*,#310,.F.);
#204=ORIENTED_EDGE('',*,*,#321,.T.);
#205=ORIENTED_EDGE('',*,*,#308,.F.);
#206=ORIENTED_EDGE('',*,*,#323,.F.);
#207=ORIENTED_EDGE('',*,*,#264,.F.);
#208=ORIENTED_EDGE('',*,*,#322,.T.);
#209=ORIENTED_EDGE('',*,*,#265,.F.);
#210=ORIENTED_EDGE('',*,*,#323,.T.);
#211=ORIENTED_EDGE('',*,*,#297,.F.);
#212=ORIENTED_EDGE('',*,*,#324,.F.);
#213=ORIENTED_EDGE('',*,*,#291,.F.);
#214=ORIENTED_EDGE('',*,*,#325,.F.);
#215=ORIENTED_EDGE('',*,*,#281,.F.);
#216=ORIENTED_EDGE('',*,*,#325,.T.);
#217=ORIENTED_EDGE('',*,*,#315,.F.);
#218=ORIENTED_EDGE('',*,*,#326,.F.);
#219=ORIENTED_EDGE('',*,*,#282,.F.);
#220=ORIENTED_EDGE('',*,*,#324,.T.);
#221=ORIENTED_EDGE('',*,*,#280,.F.);
#222=ORIENTED_EDGE('',*,*,#327,.F.);
#223=ORIENTED_EDGE('',*,*,#313,.F.);
#224=ORIENTED_EDGE('',*,*,#326,.T.);
#225=ORIENTED_EDGE('',*,*,#287,.F.);
#226=ORIENTED_EDGE('',*,*,#328,.F.);
#227=ORIENTED_EDGE('',*,*,#283,.F.);
#228=ORIENTED_EDGE('',*,*,#327,.T.);
#229=ORIENTED_EDGE('',*,*,#279,.F.);
#230=ORIENTED_EDGE('',*,*,#329,.F.);
#231=ORIENTED_EDGE('',*,*,#295,.F.);
#232=ORIENTED_EDGE('',*,*,#328,.T.);
#233=ORIENTED_EDGE('',*,*,#311,.F.);
#234=ORIENTED_EDGE('',*,*,#330,.F.);
#235=ORIENTED_EDGE('',*,*,#276,.F.);
#236=ORIENTED_EDGE('',*,*,#329,.T.);
#237=ORIENTED_EDGE('',*,*,#278,.F.);
#238=ORIENTED_EDGE('',*,*,#331,.F.);
#239=ORIENTED_EDGE('',*,*,#309,.F.);
#240=ORIENTED_EDGE('',*,*,#330,.T.);
#241=ORIENTED_EDGE('',*,*,#299,.F.);
#242=ORIENTED_EDGE('',*,*,#331,.T.);
#243=ORIENTED_EDGE('',*,*,#277,.F.);
#244=ORIENTED_EDGE('',*,*,#260,.F.);
#245=ORIENTED_EDGE('',*,*,#302,.F.);
#246=ORIENTED_EDGE('',*,*,#304,.F.);
#247=ORIENTED_EDGE('',*,*,#261,.F.);
#248=ORIENTED_EDGE('',*,*,#306,.F.);
#249=ORIENTED_EDGE('',*,*,#262,.F.);
#250=ORIENTED_EDGE('',*,*,#263,.F.);
#251=ORIENTED_EDGE('',*,*,#300,.F.);
#252=ORIENTED_EDGE('',*,*,#303,.F.);
#253=ORIENTED_EDGE('',*,*,#272,.F.);
#254=ORIENTED_EDGE('',*,*,#273,.F.);
#255=ORIENTED_EDGE('',*,*,#305,.F.);
#256=ORIENTED_EDGE('',*,*,#274,.F.);
#257=ORIENTED_EDGE('',*,*,#307,.F.);
#258=ORIENTED_EDGE('',*,*,#301,.F.);
#259=ORIENTED_EDGE('',*,*,#275,.F.);
#260=EDGE_CURVE('',#332,#332,#380,.F.);
#261=EDGE_CURVE('',#333,#333,#381,.F.);
#262=EDGE_CURVE('',#334,#334,#382,.F.);
#263=EDGE_CURVE('',#335,#335,#383,.F.);
#264=EDGE_CURVE('',#336,#337,#384,.T.);
#265=EDGE_CURVE('',#337,#338,#36,.T.);
#266=EDGE_CURVE('',#338,#339,#385,.T.);
#267=EDGE_CURVE('',#339,#340,#37,.T.);
#268=EDGE_CURVE('',#340,#341,#386,.T.);
#269=EDGE_CURVE('',#341,#342,#38,.T.);
#270=EDGE_CURVE('',#342,#343,#387,.T.);
#271=EDGE_CURVE('',#343,#336,#39,.T.);
#272=EDGE_CURVE('',#344,#344,#388,.T.);
#273=EDGE_CURVE('',#345,#345,#389,.T.);
#274=EDGE_CURVE('',#346,#346,#390,.T.);
#275=EDGE_CURVE('',#347,#347,#391,.T.);
#276=EDGE_CURVE('',#348,#349,#392,.F.);
#277=EDGE_CURVE('',#349,#350,#40,.T.);
#278=EDGE_CURVE('',#350,#351,#393,.F.);
#279=EDGE_CURVE('',#351,#352,#41,.T.);
#280=EDGE_CURVE('',#352,#353,#394,.F.);
#281=EDGE_CURVE('',#353,#354,#42,.T.);
#282=EDGE_CURVE('',#354,#355,#395,.F.);
#283=EDGE_CURVE('',#355,#348,#43,.T.);
#284=EDGE_CURVE('',#356,#357,#44,.F.);
#285=EDGE_CURVE('',#357,#358,#45,.T.);
#286=EDGE_CURVE('',#358,#359,#46,.T.);
#287=EDGE_CURVE('',#359,#356,#47,.T.);
#288=EDGE_CURVE('',#360,#361,#48,.F.);
#289=EDGE_CURVE('',#361,#362,#49,.T.);
#290=EDGE_CURVE('',#362,#363,#50,.T.);
#291=EDGE_CURVE('',#363,#360,#51,.T.);
#292=EDGE_CURVE('',#364,#365,#52,.F.);
#293=EDGE_CURVE('',#365,#366,#53,.T.);
#294=EDGE_CURVE('',#366,#367,#54,.T.);
#295=EDGE_CURVE('',#367,#364,#55,.T.);
#296=EDGE_CURVE('',#368,#369,#56,.F.);
#297=EDGE_CURVE('',#369,#370,#57,.T.);
#298=EDGE_CURVE('',#370,#371,#58,.T.);
#299=EDGE_CURVE('',#371,#368,#59,.T.);
#300=EDGE_CURVE('',#372,#372,#396,.T.);
#301=EDGE_CURVE('',#373,#373,#397,.F.);
#302=EDGE_CURVE('',#374,#374,#398,.T.);
#303=EDGE_CURVE('',#375,#375,#399,.F.);
#304=EDGE_CURVE('',#376,#376,#400,.T.);
#305=EDGE_CURVE('',#377,#377,#401,.F.);
#306=EDGE_CURVE('',#378,#378,#402,.T.);
#307=EDGE_CURVE('',#379,#379,#403,.F.);
#308=EDGE_CURVE('',#370,#365,#404,.F.);
#309=EDGE_CURVE('',#364,#371,#405,.T.);
#310=EDGE_CURVE('',#358,#369,#406,.F.);
#311=EDGE_CURVE('',#368,#359,#407,.T.);
#312=EDGE_CURVE('',#366,#361,#408,.F.);
#313=EDGE_CURVE('',#360,#367,#409,.T.);
#314=EDGE_CURVE('',#362,#357,#410,.F.);
#315=EDGE_CURVE('',#356,#363,#411,.T.);
#316=EDGE_CURVE('',#342,#361,#60,.T.);
#317=EDGE_CURVE('',#362,#341,#61,.T.);
#318=EDGE_CURVE('',#357,#340,#62,.T.);
#319=EDGE_CURVE('',#343,#366,#63,.T.);
#320=EDGE_CURVE('',#358,#339,#64,.T.);
#321=EDGE_CURVE('',#336,#365,#65,.T.);
#322=EDGE_CURVE('',#369,#338,#66,.T.);
#323=EDGE_CURVE('',#337,#370,#67,.T.);
#324=EDGE_CURVE('',#360,#353,#68,.T.);
#325=EDGE_CURVE('',#354,#363,#69,.T.);
#326=EDGE_CURVE('',#355,#356,#70,.T.);
#327=EDGE_CURVE('',#367,#352,#71,.T.);
#328=EDGE_CURVE('',#348,#359,#72,.T.);
#329=EDGE_CURVE('',#364,#351,#73,.T.);
#330=EDGE_CURVE('',#349,#368,#74,.T.);
#331=EDGE_CURVE('',#371,#350,#75,.T.);
#332=VERTEX_POINT('',#848);
#333=VERTEX_POINT('',#850);
#334=VERTEX_POINT('',#852);
#335=VERTEX_POINT('',#854);
#336=VERTEX_POINT('',#856);
#337=VERTEX_POINT('',#857);
#338=VERTEX_POINT('',#859);
#339=VERTEX_POINT('',#861);
#340=VERTEX_POINT('',#863);
#341=VERTEX_POINT('',#865);
#342=VERTEX_POINT('',#867);
#343=VERTEX_POINT('',#869);
#344=VERTEX_POINT('',#873);
#345=VERTEX_POINT('',#875);
#346=VERTEX_POINT('',#877);
#347=VERTEX_POINT('',#879);
#348=VERTEX_POINT('',#881);
#349=VERTEX_POINT('',#882);
#350=VERTEX_POINT('',#884);
#351=VERTEX_POINT('',#886);
#352=VERTEX_POINT('',#888);
#353=VERTEX_POINT('',#890);
#354=VERTEX_POINT('',#892);
#355=VERTEX_POINT('',#894);
#356=VERTEX_POINT('',#898);
#357=VERTEX_POINT('',#899);
#358=VERTEX_POINT('',#901);
#359=VERTEX_POINT('',#903);
#360=VERTEX_POINT('',#907);
#361=VERTEX_POINT('',#908);
#362=VERTEX_POINT('',#910);
#363=VERTEX_POINT('',#912);
#364=VERTEX_POINT('',#916);
#365=VERTEX_POINT('',#917);
#366=VERTEX_POINT('',#919);
#367=VERTEX_POINT('',#921);
#368=VERTEX_POINT('',#925);
#369=VERTEX_POINT('',#926);
#370=VERTEX_POINT('',#928);
#371=VERTEX_POINT('',#930);
#372=VERTEX_POINT('',#934);
#373=VERTEX_POINT('',#936);
#374=VERTEX_POINT('',#939);
#375=VERTEX_POINT('',#941);
#376=VERTEX_POINT('',#944);
#377=VERTEX_POINT('',#946);
#378=VERTEX_POINT('',#949);
#379=VERTEX_POINT('',#951);
#380=CIRCLE('',#594,0.00171123120760469);
#381=CIRCLE('',#595,0.00171123120760469);
#382=CIRCLE('',#596,0.00171123120760469);
#383=CIRCLE('',#597,0.00171123120760469);
#384=CIRCLE('',#598,0.00168137084989848);
#385=CIRCLE('',#599,0.00168137084989848);
#386=CIRCLE('',#600,0.00168137084989848);
#387=CIRCLE('',#601,0.00168137084989848);
#388=CIRCLE('',#603,0.00171123120760469);
#389=CIRCLE('',#604,0.00171123120760469);
#390=CIRCLE('',#605,0.00171123120760469);
#391=CIRCLE('',#606,0.00171123120760469);
#392=CIRCLE('',#607,0.00168137084989848);
#393=CIRCLE('',#608,0.00168137084989848);
#394=CIRCLE('',#609,0.00168137084989848);
#395=CIRCLE('',#610,0.00168137084989848);
#396=CIRCLE('',#616,0.00156123120760469);
#397=CIRCLE('',#617,0.00156123120760469);
#398=CIRCLE('',#619,0.00156123120760469);
#399=CIRCLE('',#620,0.00156123120760469);
#400=CIRCLE('',#622,0.00156123120760469);
#401=CIRCLE('',#623,0.00156123120760469);
#402=CIRCLE('',#625,0.00156123120760469);
#403=CIRCLE('',#626,0.00156123120760469);
#404=CIRCLE('',#628,0.00193137084989848);
#405=CIRCLE('',#629,0.00193137084989848);
#406=CIRCLE('',#631,0.00193137084989848);
#407=CIRCLE('',#632,0.00193137084989848);
#408=CIRCLE('',#634,0.00193137084989848);
#409=CIRCLE('',#635,0.00193137084989848);
#410=CIRCLE('',#637,0.00193137084989848);
#411=CIRCLE('',#638,0.00193137084989848);
#412=EDGE_LOOP('',(#116));
#413=EDGE_LOOP('',(#117));
#414=EDGE_LOOP('',(#118));
#415=EDGE_LOOP('',(#119));
#416=EDGE_LOOP('',(#120,#121,#122,#123,#124,#125,#126,#127));
#417=EDGE_LOOP('',(#128));
#418=EDGE_LOOP('',(#129));
#419=EDGE_LOOP('',(#130));
#420=EDGE_LOOP('',(#131));
#421=EDGE_LOOP('',(#132,#133,#134,#135,#136,#137,#138,#139));
#422=EDGE_LOOP('',(#140,#141,#142,#143));
#423=EDGE_LOOP('',(#144,#145,#146,#147));
#424=EDGE_LOOP('',(#148,#149,#150,#151));
#425=EDGE_LOOP('',(#152,#153,#154,#155));
#426=EDGE_LOOP('',(#156));
#427=EDGE_LOOP('',(#157));
#428=EDGE_LOOP('',(#158));
#429=EDGE_LOOP('',(#159));
#430=EDGE_LOOP('',(#160));
#431=EDGE_LOOP('',(#161));
#432=EDGE_LOOP('',(#162));
#433=EDGE_LOOP('',(#163));
#434=EDGE_LOOP('',(#164,#165,#166,#167));
#435=EDGE_LOOP('',(#168,#169,#170,#171));
#436=EDGE_LOOP('',(#172,#173,#174,#175));
#437=EDGE_LOOP('',(#176,#177,#178,#179));
#438=EDGE_LOOP('',(#180,#181,#182,#183));
#439=EDGE_LOOP('',(#184,#185,#186,#187));
#440=EDGE_LOOP('',(#188,#189,#190,#191));
#441=EDGE_LOOP('',(#192,#193,#194,#195));
#442=EDGE_LOOP('',(#196,#197,#198,#199));
#443=EDGE_LOOP('',(#200,#201,#202,#203));
#444=EDGE_LOOP('',(#204,#205,#206,#207));
#445=EDGE_LOOP('',(#208,#209,#210,#211));
#446=EDGE_LOOP('',(#212,#213,#214,#215));
#447=EDGE_LOOP('',(#216,#217,#218,#219));
#448=EDGE_LOOP('',(#220,#221,#222,#223));
#449=EDGE_LOOP('',(#224,#225,#226,#227));
#450=EDGE_LOOP('',(#228,#229,#230,#231));
#451=EDGE_LOOP('',(#232,#233,#234,#235));
#452=EDGE_LOOP('',(#236,#237,#238,#239));
#453=EDGE_LOOP('',(#240,#241,#242,#243));
#454=EDGE_LOOP('',(#244));
#455=EDGE_LOOP('',(#245));
#456=EDGE_LOOP('',(#246));
#457=EDGE_LOOP('',(#247));
#458=EDGE_LOOP('',(#248));
#459=EDGE_LOOP('',(#249));
#460=EDGE_LOOP('',(#250));
#461=EDGE_LOOP('',(#251));
#462=EDGE_LOOP('',(#252));
#463=EDGE_LOOP('',(#253));
#464=EDGE_LOOP('',(#254));
#465=EDGE_LOOP('',(#255));
#466=EDGE_LOOP('',(#256));
#467=EDGE_LOOP('',(#257));
#468=EDGE_LOOP('',(#258));
#469=EDGE_LOOP('',(#259));
#470=FACE_BOUND('',#412,.T.);
#471=FACE_BOUND('',#413,.T.);
#472=FACE_BOUND('',#414,.T.);
#473=FACE_BOUND('',#415,.T.);
#474=FACE_BOUND('',#416,.T.);
#475=FACE_BOUND('',#417,.T.);
#476=FACE_BOUND('',#418,.T.);
#477=FACE_BOUND('',#419,.T.);
#478=FACE_BOUND('',#420,.T.);
#479=FACE_BOUND('',#421,.T.);
#480=FACE_BOUND('',#422,.T.);
#481=FACE_BOUND('',#423,.T.);
#482=FACE_BOUND('',#424,.T.);
#483=FACE_BOUND('',#425,.T.);
#484=FACE_BOUND('',#426,.T.);
#485=FACE_BOUND('',#427,.T.);
#486=FACE_BOUND('',#428,.T.);
#487=FACE_BOUND('',#429,.T.);
#488=FACE_BOUND('',#430,.T.);
#489=FACE_BOUND('',#431,.T.);
#490=FACE_BOUND('',#432,.T.);
#491=FACE_BOUND('',#433,.T.);
#492=FACE_BOUND('',#434,.T.);
#493=FACE_BOUND('',#435,.T.);
#494=FACE_BOUND('',#436,.T.);
#495=FACE_BOUND('',#437,.T.);
#496=FACE_BOUND('',#438,.T.);
#497=FACE_BOUND('',#439,.T.);
#498=FACE_BOUND('',#440,.T.);
#499=FACE_BOUND('',#441,.T.);
#500=FACE_BOUND('',#442,.T.);
#501=FACE_BOUND('',#443,.T.);
#502=FACE_BOUND('',#444,.T.);
#503=FACE_BOUND('',#445,.T.);
#504=FACE_BOUND('',#446,.T.);
#505=FACE_BOUND('',#447,.T.);
#506=FACE_BOUND('',#448,.T.);
#507=FACE_BOUND('',#449,.T.);
#508=FACE_BOUND('',#450,.T.);
#509=FACE_BOUND('',#451,.T.);
#510=FACE_BOUND('',#452,.T.);
#511=FACE_BOUND('',#453,.T.);
#512=FACE_BOUND('',#454,.T.);
#513=FACE_BOUND('',#455,.T.);
#514=FACE_BOUND('',#456,.T.);
#515=FACE_BOUND('',#457,.T.);
#516=FACE_BOUND('',#458,.T.);
#517=FACE_BOUND('',#459,.T.);
#518=FACE_BOUND('',#460,.T.);
#519=FACE_BOUND('',#461,.T.);
#520=FACE_BOUND('',#462,.T.);
#521=FACE_BOUND('',#463,.T.);
#522=FACE_BOUND('',#464,.T.);
#523=FACE_BOUND('',#465,.T.);
#524=FACE_BOUND('',#466,.T.);
#525=FACE_BOUND('',#467,.T.);
#526=FACE_BOUND('',#468,.T.);
#527=FACE_BOUND('',#469,.T.);
#528=PLANE('',#593);
#529=PLANE('',#602);
#530=PLANE('',#611);
#531=PLANE('',#612);
#532=PLANE('',#613);
#533=PLANE('',#614);
#534=PLANE('',#639);
#535=PLANE('',#642);
#536=PLANE('',#643);
#537=PLANE('',#646);
#538=PLANE('',#647);
#539=PLANE('',#650);
#540=PLANE('',#651);
#541=PLANE('',#654);
#542=ADVANCED_FACE('',(#470,#471,#472,#473,#474),#528,.T.);
#543=ADVANCED_FACE('',(#475,#476,#477,#478,#479),#529,.F.);
#544=ADVANCED_FACE('',(#480),#530,.T.);
#545=ADVANCED_FACE('',(#481),#531,.F.);
#546=ADVANCED_FACE('',(#482),#532,.F.);
#547=ADVANCED_FACE('',(#483),#533,.T.);
#548=ADVANCED_FACE('',(#484,#485),#28,.F.);
#549=ADVANCED_FACE('',(#486,#487),#29,.F.);
#550=ADVANCED_FACE('',(#488,#489),#30,.F.);
#551=ADVANCED_FACE('',(#490,#491),#31,.F.);
#552=ADVANCED_FACE('',(#492),#32,.T.);
#553=ADVANCED_FACE('',(#493),#33,.T.);
#554=ADVANCED_FACE('',(#494),#34,.T.);
#555=ADVANCED_FACE('',(#495),#35,.T.);
#556=ADVANCED_FACE('',(#496),#534,.T.);
#557=ADVANCED_FACE('',(#497),#12,.T.);
#558=ADVANCED_FACE('',(#498),#13,.T.);
#559=ADVANCED_FACE('',(#499),#535,.F.);
#560=ADVANCED_FACE('',(#500),#536,.T.);
#561=ADVANCED_FACE('',(#501),#14,.T.);
#562=ADVANCED_FACE('',(#502),#15,.T.);
#563=ADVANCED_FACE('',(#503),#537,.F.);
#564=ADVANCED_FACE('',(#504),#538,.F.);
#565=ADVANCED_FACE('',(#505),#16,.T.);
#566=ADVANCED_FACE('',(#506),#17,.T.);
#567=ADVANCED_FACE('',(#507),#539,.T.);
#568=ADVANCED_FACE('',(#508),#540,.F.);
#569=ADVANCED_FACE('',(#509),#18,.T.);
#570=ADVANCED_FACE('',(#510),#19,.T.);
#571=ADVANCED_FACE('',(#511),#541,.T.);
#572=ADVANCED_FACE('',(#512,#513),#20,.F.);
#573=ADVANCED_FACE('',(#514,#515),#21,.F.);
#574=ADVANCED_FACE('',(#516,#517),#22,.F.);
#575=ADVANCED_FACE('',(#518,#519),#23,.F.);
#576=ADVANCED_FACE('',(#520,#521),#24,.F.);
#577=ADVANCED_FACE('',(#522,#523),#25,.F.);
#578=ADVANCED_FACE('',(#524,#525),#26,.F.);
#579=ADVANCED_FACE('',(#526,#527),#27,.F.);
#580=CLOSED_SHELL('',(#542,#543,#544,#545,#546,#547,#548,#549,#550,#551,
#552,#553,#554,#555,#556,#557,#558,#559,#560,#561,#562,#563,#564,#565,#566,
#567,#568,#569,#570,#571,#572,#573,#574,#575,#576,#577,#578,#579));
#581=STYLED_ITEM('',(#582),#589);
#582=PRESENTATION_STYLE_ASSIGNMENT((#583));
#583=SURFACE_STYLE_USAGE(.BOTH.,#584);
#584=SURFACE_SIDE_STYLE('',(#585));
#585=SURFACE_STYLE_FILL_AREA(#586);
#586=FILL_AREA_STYLE('',(#587));
#587=FILL_AREA_STYLE_COLOUR('',#588);
#588=COLOUR_RGB('',0.498039215686275,0.498039215686275,0.498039215686275);
#589=MANIFOLD_SOLID_BREP('ElectronicsGuard',#580);
#590=SHAPE_DEFINITION_REPRESENTATION(#1010,#591);
#591=SHAPE_REPRESENTATION('ElectronicsGuard',(#592),#1005);
#592=AXIS2_PLACEMENT_3D('',#845,#663,#664);
#593=AXIS2_PLACEMENT_3D('',#846,#665,#666);
#594=AXIS2_PLACEMENT_3D('',#847,#667,#668);
#595=AXIS2_PLACEMENT_3D('',#849,#669,#670);
#596=AXIS2_PLACEMENT_3D('',#851,#671,#672);
#597=AXIS2_PLACEMENT_3D('',#853,#673,#674);
#598=AXIS2_PLACEMENT_3D('',#855,#675,#676);
#599=AXIS2_PLACEMENT_3D('',#860,#678,#679);
#600=AXIS2_PLACEMENT_3D('',#864,#681,#682);
#601=AXIS2_PLACEMENT_3D('',#868,#684,#685);
#602=AXIS2_PLACEMENT_3D('',#871,#687,#688);
#603=AXIS2_PLACEMENT_3D('',#872,#689,#690);
#604=AXIS2_PLACEMENT_3D('',#874,#691,#692);
#605=AXIS2_PLACEMENT_3D('',#876,#693,#694);
#606=AXIS2_PLACEMENT_3D('',#878,#695,#696);
#607=AXIS2_PLACEMENT_3D('',#880,#697,#698);
#608=AXIS2_PLACEMENT_3D('',#885,#700,#701);
#609=AXIS2_PLACEMENT_3D('',#889,#703,#704);
#610=AXIS2_PLACEMENT_3D('',#893,#706,#707);
#611=AXIS2_PLACEMENT_3D('',#896,#709,#710);
#612=AXIS2_PLACEMENT_3D('',#905,#715,#716);
#613=AXIS2_PLACEMENT_3D('',#914,#721,#722);
#614=AXIS2_PLACEMENT_3D('',#923,#727,#728);
#615=AXIS2_PLACEMENT_3D('',#932,#733,#734);
#616=AXIS2_PLACEMENT_3D('',#933,#735,#736);
#617=AXIS2_PLACEMENT_3D('',#935,#737,#738);
#618=AXIS2_PLACEMENT_3D('',#937,#739,#740);
#619=AXIS2_PLACEMENT_3D('',#938,#741,#742);
#620=AXIS2_PLACEMENT_3D('',#940,#743,#744);
#621=AXIS2_PLACEMENT_3D('',#942,#745,#746);
#622=AXIS2_PLACEMENT_3D('',#943,#747,#748);
#623=AXIS2_PLACEMENT_3D('',#945,#749,#750);
#624=AXIS2_PLACEMENT_3D('',#947,#751,#752);
#625=AXIS2_PLACEMENT_3D('',#948,#753,#754);
#626=AXIS2_PLACEMENT_3D('',#950,#755,#756);
#627=AXIS2_PLACEMENT_3D('',#952,#757,#758);
#628=AXIS2_PLACEMENT_3D('',#953,#759,#760);
#629=AXIS2_PLACEMENT_3D('',#954,#761,#762);
#630=AXIS2_PLACEMENT_3D('',#955,#763,#764);
#631=AXIS2_PLACEMENT_3D('',#956,#765,#766);
#632=AXIS2_PLACEMENT_3D('',#957,#767,#768);
#633=AXIS2_PLACEMENT_3D('',#958,#769,#770);
#634=AXIS2_PLACEMENT_3D('',#959,#771,#772);
#635=AXIS2_PLACEMENT_3D('',#960,#773,#774);
#636=AXIS2_PLACEMENT_3D('',#961,#775,#776);
#637=AXIS2_PLACEMENT_3D('',#962,#777,#778);
#638=AXIS2_PLACEMENT_3D('',#963,#779,#780);
#639=AXIS2_PLACEMENT_3D('',#964,#781,#782);
#640=AXIS2_PLACEMENT_3D('',#967,#785,#786);
#641=AXIS2_PLACEMENT_3D('',#969,#788,#789);
#642=AXIS2_PLACEMENT_3D('',#971,#791,#792);
#643=AXIS2_PLACEMENT_3D('',#973,#794,#795);
#644=AXIS2_PLACEMENT_3D('',#975,#797,#798);
#645=AXIS2_PLACEMENT_3D('',#977,#800,#801);
#646=AXIS2_PLACEMENT_3D('',#979,#803,#804);
#647=AXIS2_PLACEMENT_3D('',#980,#805,#806);
#648=AXIS2_PLACEMENT_3D('',#983,#809,#810);
#649=AXIS2_PLACEMENT_3D('',#985,#812,#813);
#650=AXIS2_PLACEMENT_3D('',#987,#815,#816);
#651=AXIS2_PLACEMENT_3D('',#989,#818,#819);
#652=AXIS2_PLACEMENT_3D('',#991,#821,#822);
#653=AXIS2_PLACEMENT_3D('',#993,#824,#825);
#654=AXIS2_PLACEMENT_3D('',#995,#827,#828);
#655=AXIS2_PLACEMENT_3D('',#996,#829,#830);
#656=AXIS2_PLACEMENT_3D('',#997,#831,#832);
#657=AXIS2_PLACEMENT_3D('',#998,#833,#834);
#658=AXIS2_PLACEMENT_3D('',#999,#835,#836);
#659=AXIS2_PLACEMENT_3D('',#1000,#837,#838);
#660=AXIS2_PLACEMENT_3D('',#1001,#839,#840);
#661=AXIS2_PLACEMENT_3D('',#1002,#841,#842);
#662=AXIS2_PLACEMENT_3D('',#1003,#843,#844);
#663=DIRECTION('',(0.,0.,1.));
#664=DIRECTION('',(1.,0.,0.));
#665=DIRECTION('',(0.,0.,1.));
#666=DIRECTION('',(1.,0.,0.));
#667=DIRECTION('',(0.,0.,1.));
#668=DIRECTION('',(1.,0.,0.));
#669=DIRECTION('',(0.,0.,1.));
#670=DIRECTION('',(1.,0.,0.));
#671=DIRECTION('',(0.,0.,1.));
#672=DIRECTION('',(1.,0.,0.));
#673=DIRECTION('',(0.,0.,1.));
#674=DIRECTION('',(1.,0.,0.));
#675=DIRECTION('',(0.,0.,1.));
#676=DIRECTION('',(1.,0.,0.));
#677=DIRECTION('',(1.71972915745297E-16,1.,0.));
#678=DIRECTION('',(0.,0.,1.));
#679=DIRECTION('',(1.,0.,0.));
#680=DIRECTION('',(-1.,0.,0.));
#681=DIRECTION('',(0.,0.,1.));
#682=DIRECTION('',(1.,0.,0.));
#683=DIRECTION('',(-1.71972915745297E-16,-1.,0.));
#684=DIRECTION('',(0.,0.,1.));
#685=DIRECTION('',(1.,0.,0.));
#686=DIRECTION('',(1.,0.,0.));
#687=DIRECTION('',(0.,0.,1.));
#688=DIRECTION('',(1.,0.,0.));
#689=DIRECTION('',(0.,0.,1.));
#690=DIRECTION('',(1.,0.,0.));
#691=DIRECTION('',(0.,0.,1.));
#692=DIRECTION('',(1.,0.,0.));
#693=DIRECTION('',(0.,0.,1.));
#694=DIRECTION('',(1.,0.,0.));
#695=DIRECTION('',(0.,0.,1.));
#696=DIRECTION('',(1.,0.,0.));
#697=DIRECTION('',(0.,0.,1.));
#698=DIRECTION('',(1.,0.,0.));
#699=DIRECTION('',(-1.71972915745297E-16,-1.,0.));
#700=DIRECTION('',(0.,0.,1.));
#701=DIRECTION('',(1.,0.,0.));
#702=DIRECTION('',(-1.,0.,0.));
#703=DIRECTION('',(0.,0.,1.));
#704=DIRECTION('',(1.,0.,0.));
#705=DIRECTION('',(1.71972915745297E-16,1.,0.));
#706=DIRECTION('',(0.,0.,1.));
#707=DIRECTION('',(1.,0.,0.));
#708=DIRECTION('',(1.,0.,0.));
#709=DIRECTION('',(0.,1.,0.));
#710=DIRECTION('',(0.,0.,1.));
#711=DIRECTION('',(0.,0.,-1.));
#712=DIRECTION('',(1.,0.,0.));
#713=DIRECTION('',(0.,0.,-1.));
#714=DIRECTION('',(-1.,0.,0.));
#715=DIRECTION('',(1.,-1.71972915745297E-16,0.));
#716=DIRECTION('',(1.71972915745297E-16,1.,0.));
#717=DIRECTION('',(0.,0.,-1.));
#718=DIRECTION('',(1.71972915745297E-16,1.,0.));
#719=DIRECTION('',(0.,0.,-1.));
#720=DIRECTION('',(-1.71972915745297E-16,-1.,0.));
#721=DIRECTION('',(0.,1.,0.));
#722=DIRECTION('',(0.,0.,1.));
#723=DIRECTION('',(0.,0.,-1.));
#724=DIRECTION('',(-1.,0.,0.));
#725=DIRECTION('',(0.,0.,-1.));
#726=DIRECTION('',(1.,0.,0.));
#727=DIRECTION('',(1.,-1.71972915745297E-16,0.));
#728=DIRECTION('',(1.71972915745297E-16,1.,0.));
#729=DIRECTION('',(0.,0.,-1.));
#730=DIRECTION('',(-1.71972915745297E-16,-1.,0.));
#731=DIRECTION('',(0.,0.,-1.));
#732=DIRECTION('',(1.71972915745297E-16,1.,0.));
#733=DIRECTION('',(0.,0.,1.));
#734=DIRECTION('',(1.,0.,0.));
#735=DIRECTION('',(0.,0.,1.));
#736=DIRECTION('',(1.,0.,0.));
#737=DIRECTION('',(0.,0.,1.));
#738=DIRECTION('',(1.,0.,0.));
#739=DIRECTION('',(0.,0.,1.));
#740=DIRECTION('',(1.,0.,0.));
#741=DIRECTION('',(0.,0.,1.));
#742=DIRECTION('',(1.,0.,0.));
#743=DIRECTION('',(0.,0.,1.));
#744=DIRECTION('',(1.,0.,0.));
#745=DIRECTION('',(0.,0.,1.));
#746=DIRECTION('',(1.,0.,0.));
#747=DIRECTION('',(0.,0.,1.));
#748=DIRECTION('',(1.,0.,0.));
#749=DIRECTION('',(0.,0.,1.));
#750=DIRECTION('',(1.,0.,0.));
#751=DIRECTION('',(0.,0.,1.));
#752=DIRECTION('',(1.,0.,0.));
#753=DIRECTION('',(0.,0.,1.));
#754=DIRECTION('',(1.,0.,0.));
#755=DIRECTION('',(0.,0.,1.));
#756=DIRECTION('',(1.,0.,0.));
#757=DIRECTION('',(0.,0.,1.));
#758=DIRECTION('',(1.,0.,0.));
#759=DIRECTION('',(0.,0.,1.));
#760=DIRECTION('',(1.,0.,0.));
#761=DIRECTION('',(0.,0.,1.));
#762=DIRECTION('',(1.,0.,0.));
#763=DIRECTION('',(0.,0.,-1.));
#764=DIRECTION('',(-1.,0.,0.));
#765=DIRECTION('',(0.,0.,1.));
#766=DIRECTION('',(1.,0.,0.));
#767=DIRECTION('',(0.,0.,1.));
#768=DIRECTION('',(1.,0.,0.));
#769=DIRECTION('',(0.,0.,-1.));
#770=DIRECTION('',(-1.,0.,0.));
#771=DIRECTION('',(0.,0.,1.));
#772=DIRECTION('',(1.,0.,0.));
#773=DIRECTION('',(0.,0.,1.));
#774=DIRECTION('',(1.,0.,0.));
#775=DIRECTION('',(0.,0.,1.));
#776=DIRECTION('',(1.,0.,0.));
#777=DIRECTION('',(0.,0.,1.));
#778=DIRECTION('',(1.,0.,0.));
#779=DIRECTION('',(0.,0.,1.));
#780=DIRECTION('',(1.,0.,0.));
#781=DIRECTION('',(-0.707106781186548,1.21603214903923E-16,0.707106781186548));
#782=DIRECTION('',(1.71972915745297E-16,1.,0.));
#783=DIRECTION('',(-0.707106781186548,0.,-0.707106781186548));
#784=DIRECTION('',(0.707106781186557,0.,0.707106781186538));
#785=DIRECTION('',(0.,0.,-1.));
#786=DIRECTION('',(-1.,0.,0.));
#787=DIRECTION('',(0.,-0.707106781186552,0.707106781186543));
#788=DIRECTION('',(0.,0.,-1.));
#789=DIRECTION('',(-1.,0.,0.));
#790=DIRECTION('',(0.,-0.707106781186543,-0.707106781186552));
#791=DIRECTION('',(0.,-0.707106781186548,-0.707106781186548));
#792=DIRECTION('',(1.,0.,0.));
#793=DIRECTION('',(0.,-0.707106781186548,0.707106781186548));
#794=DIRECTION('',(0.,-0.707106781186548,0.707106781186548));
#795=DIRECTION('',(-1.,0.,0.));
#796=DIRECTION('',(0.,-0.707106781186548,-0.707106781186548));
#797=DIRECTION('',(0.,0.,-1.));
#798=DIRECTION('',(-1.,0.,0.));
#799=DIRECTION('',(-0.707106781186548,0.,0.707106781186548));
#800=DIRECTION('',(0.,0.,-1.));
#801=DIRECTION('',(-1.,0.,0.));
#802=DIRECTION('',(0.707106781186557,0.,-0.707106781186538));
#803=DIRECTION('',(-0.707106781186548,1.21603214903923E-16,-0.707106781186548));
#804=DIRECTION('',(-1.71972915745297E-16,-1.,0.));
#805=DIRECTION('',(0.707106781186548,-1.21603214903923E-16,0.707106781186548));
#806=DIRECTION('',(-1.71972915745297E-16,-1.,0.));
#807=DIRECTION('',(0.707106781186538,0.,-0.707106781186557));
#808=DIRECTION('',(-0.707106781186548,0.,0.707106781186548));
#809=DIRECTION('',(0.,0.,1.));
#810=DIRECTION('',(1.,0.,0.));
#811=DIRECTION('',(0.,0.707106781186547,0.707106781186548));
#812=DIRECTION('',(0.,0.,1.));
#813=DIRECTION('',(1.,0.,0.));
#814=DIRECTION('',(0.,0.707106781186543,-0.707106781186552));
#815=DIRECTION('',(0.,0.707106781186548,-0.707106781186548));
#816=DIRECTION('',(-1.,0.,0.));
#817=DIRECTION('',(0.,0.707106781186548,0.707106781186548));
#818=DIRECTION('',(0.,0.707106781186548,0.707106781186548));
#819=DIRECTION('',(1.,0.,0.));
#820=DIRECTION('',(0.,0.707106781186548,-0.707106781186548));
#821=DIRECTION('',(0.,0.,1.));
#822=DIRECTION('',(1.,0.,0.));
#823=DIRECTION('',(0.707106781186548,0.,0.707106781186548));
#824=DIRECTION('',(0.,0.,1.));
#825=DIRECTION('',(1.,0.,0.));
#826=DIRECTION('',(-0.707106781186547,0.,-0.707106781186548));
#827=DIRECTION('',(0.707106781186548,-1.21603214903923E-16,-0.707106781186548));
#828=DIRECTION('',(1.71972915745297E-16,1.,0.));
#829=DIRECTION('',(0.,0.,1.));
#830=DIRECTION('',(1.,0.,0.));
#831=DIRECTION('',(0.,0.,1.));
#832=DIRECTION('',(1.,0.,0.));
#833=DIRECTION('',(0.,0.,1.));
#834=DIRECTION('',(1.,0.,0.));
#835=DIRECTION('',(0.,0.,1.));
#836=DIRECTION('',(1.,0.,0.));
#837=DIRECTION('',(0.,0.,-1.));
#838=DIRECTION('',(-1.,0.,0.));
#839=DIRECTION('',(0.,0.,-1.));
#840=DIRECTION('',(-1.,0.,0.));
#841=DIRECTION('',(0.,0.,-1.));
#842=DIRECTION('',(-1.,0.,0.));
#843=DIRECTION('',(0.,0.,-1.));
#844=DIRECTION('',(-1.,0.,0.));
#845=CARTESIAN_POINT('',(0.,0.,0.));
#846=CARTESIAN_POINT('',(0.,0.,0.0025));
#847=CARTESIAN_POINT('',(0.0351654687923953,-0.0178398489952088,0.0025));
#848=CARTESIAN_POINT('',(0.0368767,-0.0178398489952088,0.0025));
#849=CARTESIAN_POINT('',(-0.0351654687923953,-0.0178398489952088,0.0025));
#850=CARTESIAN_POINT('',(-0.0334542375847906,-0.0178398489952088,0.0025));
#851=CARTESIAN_POINT('',(0.0351654687923953,0.0178398489952088,0.0025));
#852=CARTESIAN_POINT('',(0.0368767,0.0178398489952088,0.0025));
#853=CARTESIAN_POINT('',(-0.0351654687923953,0.0178398489952088,0.0025));
#854=CARTESIAN_POINT('',(-0.0334542375847906,0.0178398489952088,0.0025));
#855=CARTESIAN_POINT('',(0.0355686291501015,-0.0182430091501015,0.0025));
#856=CARTESIAN_POINT('',(0.0355686291501015,-0.01992438,0.0025));
#857=CARTESIAN_POINT('',(0.03725,-0.0182430091501015,0.0025));
#858=CARTESIAN_POINT('',(0.03725,-6.40599111151233E-18,0.0025));
#859=CARTESIAN_POINT('',(0.03725,0.0182430091501015,0.0025));
#860=CARTESIAN_POINT('',(0.0355686291501015,0.0182430091501015,0.0025));
#861=CARTESIAN_POINT('',(0.0355686291501015,0.01992438,0.0025));
#862=CARTESIAN_POINT('',(0.,0.01992438,0.0025));
#863=CARTESIAN_POINT('',(-0.0355686291501015,0.01992438,0.0025));
#864=CARTESIAN_POINT('',(-0.0355686291501015,0.0182430091501015,0.0025));
#865=CARTESIAN_POINT('',(-0.03725,0.0182430091501015,0.0025));
#866=CARTESIAN_POINT('',(-0.03725,-0.0182430091501015,0.0025));
#867=CARTESIAN_POINT('',(-0.03725,-0.0182430091501015,0.0025));
#868=CARTESIAN_POINT('',(-0.0355686291501015,-0.0182430091501015,0.0025));
#869=CARTESIAN_POINT('',(-0.0355686291501015,-0.01992438,0.0025));
#870=CARTESIAN_POINT('',(0.0355686291501015,-0.01992438,0.0025));
#871=CARTESIAN_POINT('',(0.,0.,0.));
#872=CARTESIAN_POINT('',(0.0351654687923953,-0.0178398489952088,0.));
#873=CARTESIAN_POINT('',(0.0368767,-0.0178398489952088,0.));
#874=CARTESIAN_POINT('',(-0.0351654687923953,-0.0178398489952088,0.));
#875=CARTESIAN_POINT('',(-0.0334542375847906,-0.0178398489952088,0.));
#876=CARTESIAN_POINT('',(0.0351654687923953,0.0178398489952088,0.));
#877=CARTESIAN_POINT('',(0.0368767,0.0178398489952088,0.));
#878=CARTESIAN_POINT('',(-0.0351654687923953,0.0178398489952088,0.));
#879=CARTESIAN_POINT('',(-0.0334542375847906,0.0178398489952088,0.));
#880=CARTESIAN_POINT('',(0.0355686291501015,0.0182430091501015,0.));
#881=CARTESIAN_POINT('',(0.0355686291501015,0.01992438,0.));
#882=CARTESIAN_POINT('',(0.03725,0.0182430091501015,0.));
#883=CARTESIAN_POINT('',(0.03725,-0.0182430091501015,0.));
#884=CARTESIAN_POINT('',(0.03725,-0.0182430091501015,0.));
#885=CARTESIAN_POINT('',(0.0355686291501015,-0.0182430091501015,0.));
#886=CARTESIAN_POINT('',(0.0355686291501015,-0.01992438,0.));
#887=CARTESIAN_POINT('',(0.,-0.01992438,0.));
#888=CARTESIAN_POINT('',(-0.0355686291501015,-0.01992438,0.));
#889=CARTESIAN_POINT('',(-0.0355686291501015,-0.0182430091501015,0.));
#890=CARTESIAN_POINT('',(-0.03725,-0.0182430091501015,0.));
#891=CARTESIAN_POINT('',(-0.03725,6.40599111151233E-18,0.));
#892=CARTESIAN_POINT('',(-0.03725,0.0182430091501015,0.));
#893=CARTESIAN_POINT('',(-0.0355686291501015,0.0182430091501015,0.));
#894=CARTESIAN_POINT('',(-0.0355686291501015,0.01992438,0.));
#895=CARTESIAN_POINT('',(0.0355686291501015,0.01992438,0.));
#896=CARTESIAN_POINT('',(0.,0.02017438,0.0025));
#897=CARTESIAN_POINT('',(-0.0355686291501015,0.02017438,0.0025));
#898=CARTESIAN_POINT('',(-0.0355686291501015,0.02017438,0.00025));
#899=CARTESIAN_POINT('',(-0.0355686291501015,0.02017438,0.00225));
#900=CARTESIAN_POINT('',(0.,0.02017438,0.00225));
#901=CARTESIAN_POINT('',(0.0355686291501015,0.02017438,0.00225));
#902=CARTESIAN_POINT('',(0.0355686291501015,0.02017438,0.0025));
#903=CARTESIAN_POINT('',(0.0355686291501015,0.02017438,0.00025));
#904=CARTESIAN_POINT('',(-0.0355686291501015,0.02017438,0.00025));
#905=CARTESIAN_POINT('',(-0.0375,0.,0.0025));
#906=CARTESIAN_POINT('',(-0.0375,-0.0182430091501015,0.0025));
#907=CARTESIAN_POINT('',(-0.0375,-0.0182430091501015,0.00025));
#908=CARTESIAN_POINT('',(-0.0375,-0.0182430091501015,0.00225));
#909=CARTESIAN_POINT('',(-0.0375,0.0182430091501015,0.00225));
#910=CARTESIAN_POINT('',(-0.0375,0.0182430091501015,0.00225));
#911=CARTESIAN_POINT('',(-0.0375,0.0182430091501015,0.));
#912=CARTESIAN_POINT('',(-0.0375,0.0182430091501015,0.00025));
#913=CARTESIAN_POINT('',(-0.0375,0.,0.00025));
#914=CARTESIAN_POINT('',(-6.93889390390723E-18,-0.02017438,0.0025));
#915=CARTESIAN_POINT('',(0.0355686291501015,-0.02017438,0.0025));
#916=CARTESIAN_POINT('',(0.0355686291501015,-0.02017438,0.00025));
#917=CARTESIAN_POINT('',(0.0355686291501015,-0.02017438,0.00225));
#918=CARTESIAN_POINT('',(-0.0355686291501015,-0.02017438,0.00225));
#919=CARTESIAN_POINT('',(-0.0355686291501015,-0.02017438,0.00225));
#920=CARTESIAN_POINT('',(-0.0355686291501015,-0.02017438,0.0025));
#921=CARTESIAN_POINT('',(-0.0355686291501015,-0.02017438,0.00025));
#922=CARTESIAN_POINT('',(-6.93889390390723E-18,-0.02017438,0.00025));
#923=CARTESIAN_POINT('',(0.0375,0.,0.0025));
#924=CARTESIAN_POINT('',(0.0375,0.0182430091501015,0.0025));
#925=CARTESIAN_POINT('',(0.0375,0.0182430091501015,0.00025));
#926=CARTESIAN_POINT('',(0.0375,0.0182430091501015,0.00225));
#927=CARTESIAN_POINT('',(0.0375,0.,0.00225));
#928=CARTESIAN_POINT('',(0.0375,-0.0182430091501015,0.00225));
#929=CARTESIAN_POINT('',(0.0375,-0.0182430091501015,0.));
#930=CARTESIAN_POINT('',(0.0375,-0.0182430091501015,0.00025));
#931=CARTESIAN_POINT('',(0.0375,0.0182430091501015,0.00025));
#932=CARTESIAN_POINT('',(-0.0351654687923953,0.0178398489952088,-0.0225));
#933=CARTESIAN_POINT('',(-0.0351654687923953,0.0178398489952088,0.00235));
#934=CARTESIAN_POINT('',(-0.0336042375847906,0.0178398489952088,0.00235));
#935=CARTESIAN_POINT('',(-0.0351654687923953,0.0178398489952088,0.000149999999999997));
#936=CARTESIAN_POINT('',(-0.0336042375847906,0.0178398489952088,0.000149999999999997));
#937=CARTESIAN_POINT('',(0.0351654687923953,-0.0178398489952088,-0.0225));
#938=CARTESIAN_POINT('',(0.0351654687923953,-0.0178398489952088,0.00235));
#939=CARTESIAN_POINT('',(0.0367267,-0.0178398489952088,0.00235));
#940=CARTESIAN_POINT('',(0.0351654687923953,-0.0178398489952088,0.000149999999999997));
#941=CARTESIAN_POINT('',(0.0367267,-0.0178398489952088,0.000149999999999997));
#942=CARTESIAN_POINT('',(-0.0351654687923953,-0.0178398489952088,-0.0225));
#943=CARTESIAN_POINT('',(-0.0351654687923953,-0.0178398489952088,0.00235));
#944=CARTESIAN_POINT('',(-0.0336042375847906,-0.0178398489952088,0.00235));
#945=CARTESIAN_POINT('',(-0.0351654687923953,-0.0178398489952088,0.000149999999999997));
#946=CARTESIAN_POINT('',(-0.0336042375847906,-0.0178398489952088,0.000149999999999997));
#947=CARTESIAN_POINT('',(0.0351654687923953,0.0178398489952088,-0.0225));
#948=CARTESIAN_POINT('',(0.0351654687923953,0.0178398489952088,0.00235));
#949=CARTESIAN_POINT('',(0.0367267,0.0178398489952088,0.00235));
#950=CARTESIAN_POINT('',(0.0351654687923953,0.0178398489952088,0.000149999999999997));
#951=CARTESIAN_POINT('',(0.0367267,0.0178398489952088,0.000149999999999997));
#952=CARTESIAN_POINT('',(0.0355686291501015,-0.0182430091501015,0.0025));
#953=CARTESIAN_POINT('',(0.0355686291501015,-0.0182430091501015,0.00225));
#954=CARTESIAN_POINT('',(0.0355686291501015,-0.0182430091501015,0.00025));
#955=CARTESIAN_POINT('',(0.0355686291501015,0.0182430091501015,0.0025));
#956=CARTESIAN_POINT('',(0.0355686291501015,0.0182430091501015,0.00225));
#957=CARTESIAN_POINT('',(0.0355686291501015,0.0182430091501015,0.00025));
#958=CARTESIAN_POINT('',(-0.0355686291501015,-0.0182430091501015,0.0025));
#959=CARTESIAN_POINT('',(-0.0355686291501015,-0.0182430091501015,0.00225));
#960=CARTESIAN_POINT('',(-0.0355686291501015,-0.0182430091501015,0.00025));
#961=CARTESIAN_POINT('',(-0.0355686291501015,0.0182430091501015,0.0025));
#962=CARTESIAN_POINT('',(-0.0355686291501015,0.0182430091501015,0.00225));
#963=CARTESIAN_POINT('',(-0.0355686291501015,0.0182430091501015,0.00025));
#964=CARTESIAN_POINT('',(-0.03725,6.40599111151233E-18,0.0025));
#965=CARTESIAN_POINT('',(-0.03725,-0.0182430091501015,0.0025));
#966=CARTESIAN_POINT('',(-0.0375,0.0182430091501015,0.00225));
#967=CARTESIAN_POINT('',(-0.0355686291501015,0.0182430091501015,0.0025));
#968=CARTESIAN_POINT('',(-0.0355686291501015,0.02017438,0.00225));
#969=CARTESIAN_POINT('',(-0.0355686291501015,-0.0182430091501015,0.0025));
#970=CARTESIAN_POINT('',(-0.0355686291501015,-0.01992438,0.0025));
#971=CARTESIAN_POINT('',(0.,0.02017438,0.00225));
#972=CARTESIAN_POINT('',(0.0355686291501015,0.02017438,0.00225));
#973=CARTESIAN_POINT('',(0.,-0.01992438,0.0025));
#974=CARTESIAN_POINT('',(0.0355686291501015,-0.01992438,0.0025));
#975=CARTESIAN_POINT('',(0.0355686291501015,0.0182430091501015,0.0025));
#976=CARTESIAN_POINT('',(0.0375,0.0182430091501015,0.00225));
#977=CARTESIAN_POINT('',(0.0355686291501015,-0.0182430091501015,0.0025));
#978=CARTESIAN_POINT('',(0.03725,-0.0182430091501015,0.0025));
#979=CARTESIAN_POINT('',(0.0375,0.,0.00225));
#980=CARTESIAN_POINT('',(-0.0375,0.,0.00025));
#981=CARTESIAN_POINT('',(-0.0375,-0.0182430091501015,0.00025));
#982=CARTESIAN_POINT('',(-0.03725,0.0182430091501015,0.));
#983=CARTESIAN_POINT('',(-0.0355686291501015,0.0182430091501015,0.));
#984=CARTESIAN_POINT('',(-0.0355686291501015,0.01992438,0.));
#985=CARTESIAN_POINT('',(-0.0355686291501015,-0.0182430091501015,0.));
#986=CARTESIAN_POINT('',(-0.0355686291501015,-0.02017438,0.00025));
#987=CARTESIAN_POINT('',(0.,0.01992438,0.));
#988=CARTESIAN_POINT('',(0.0355686291501015,0.01992438,0.));
#989=CARTESIAN_POINT('',(-6.93889390390723E-18,-0.02017438,0.00025));
#990=CARTESIAN_POINT('',(0.0355686291501015,-0.02017438,0.00025));
#991=CARTESIAN_POINT('',(0.0355686291501015,0.0182430091501015,0.));
#992=CARTESIAN_POINT('',(0.03725,0.0182430091501015,0.));
#993=CARTESIAN_POINT('',(0.0355686291501015,-0.0182430091501015,0.));
#994=CARTESIAN_POINT('',(0.0375,-0.0182430091501015,0.00025));
#995=CARTESIAN_POINT('',(0.03725,-6.40599111151233E-18,0.));
#996=CARTESIAN_POINT('',(0.0351654687923953,-0.0178398489952088,0.00235));
#997=CARTESIAN_POINT('',(-0.0351654687923953,-0.0178398489952088,0.0025));
#998=CARTESIAN_POINT('',(0.0351654687923953,0.0178398489952088,0.0025));
#999=CARTESIAN_POINT('',(-0.0351654687923953,0.0178398489952088,0.00235));
#1000=CARTESIAN_POINT('',(0.0351654687923953,-0.0178398489952088,0.));
#1001=CARTESIAN_POINT('',(-0.0351654687923953,-0.0178398489952088,0.000149999999999997));
#1002=CARTESIAN_POINT('',(0.0351654687923953,0.0178398489952088,0.000149999999999997));
#1003=CARTESIAN_POINT('',(-0.0351654687923953,0.0178398489952088,0.));
#1004=MECHANICAL_DESIGN_GEOMETRIC_PRESENTATION_REPRESENTATION('',(#581),
#1005);
#1005=(
GEOMETRIC_REPRESENTATION_CONTEXT(3)
GLOBAL_UNCERTAINTY_ASSIGNED_CONTEXT((#1006))
GLOBAL_UNIT_ASSIGNED_CONTEXT((#1009,#1008,#1007))
REPRESENTATION_CONTEXT('ElectronicsGuard','TOP_LEVEL_ASSEMBLY_PART')
);
#1006=UNCERTAINTY_MEASURE_WITH_UNIT(LENGTH_MEASURE(1.E-8),#1009,
'DISTANCE_ACCURACY_VALUE','Maximum Tolerance applied to model');
#1007=(
NAMED_UNIT(*)
SI_UNIT($,.STERADIAN.)
SOLID_ANGLE_UNIT()
);
#1008=(
NAMED_UNIT(*)
PLANE_ANGLE_UNIT()
SI_UNIT($,.RADIAN.)
);
#1009=(
LENGTH_UNIT()
NAMED_UNIT(*)
SI_UNIT($,.METRE.)
);
#1010=PRODUCT_DEFINITION_SHAPE('','',#1011);
#1011=PRODUCT_DEFINITION('','',#1013,#1012);
#1012=PRODUCT_DEFINITION_CONTEXT('',#1019,'design');
#1013=PRODUCT_DEFINITION_FORMATION_WITH_SPECIFIED_SOURCE('','',#1015,
 .NOT_KNOWN.);
#1014=PRODUCT_RELATED_PRODUCT_CATEGORY('','',(#1015));
#1015=PRODUCT('ElectronicsGuard','ElectronicsGuard','ElectronicsGuard',
(#1017));
#1016=PRODUCT_CATEGORY('','');
#1017=PRODUCT_CONTEXT('',#1019,'mechanical');
#1018=APPLICATION_PROTOCOL_DEFINITION('international standard',
'ap242_managed_model_based_3d_engineering',2020,#1019);
#1019=APPLICATION_CONTEXT('managed model based 3d engineering');
ENDSEC;
END-ISO-10303-21;
