ISO-10303-21;
HEADER;
/* Generated by software containing ST-Developer
 * from STEP Tools, Inc. (www.steptools.com) 
 */
/* OPTION: using custom renumber hook */

FILE_DESCRIPTION(
/* description */ ('STEP AP242 Edition 2',
'CAx-IF Rec.Pracs.---Representation and Presentation of Product Manufa
cturing Information (PMI)---4.0---2014-10-13',
'CAx-IF Rec.Pracs.---3D Tessellated Geometry---0.4---2014-09-14','2;1',
'CAx-IF Rec.Pracs.---User Defined Attributes---1.5---2016-08-15'),
/* implementation_level */ '2;1');

FILE_NAME(
/* name */ 'n20motorToWheel Copy 1',
/* time_stamp */ '2026-05-18T00:11:01Z',
/* author */ (''),
/* organization */ (''),
/* preprocessor_version */ 'ST-DEVELOPER v20',
/* originating_system */ 'ONSHAPE BY PTC INC, 1.215',
/* authorisation */ '  ');

FILE_SCHEMA (('AP242_MANAGED_MODEL_BASED_3D_ENGINEERING_MIM_LF { 1 0 10303 442 3 1 4 }'));
ENDSEC;

DATA;
#10=SHAPE_REPRESENTATION_RELATIONSHIP('','',#225,#11);
#11=ADVANCED_BREP_SHAPE_REPRESENTATION('',(#223),#361);
#12=CYLINDRICAL_SURFACE('',#236,0.0060041409);
#13=CYLINDRICAL_SURFACE('',#241,0.001499997);
#14=CIRCLE('',#234,0.0060041409);
#15=CIRCLE('',#237,0.0060041409);
#16=CIRCLE('',#239,0.001499997);
#17=CIRCLE('',#242,0.001499997);
#18=ORIENTED_EDGE('',*,*,#70,.T.);
#19=ORIENTED_EDGE('',*,*,#71,.F.);
#20=ORIENTED_EDGE('',*,*,#72,.F.);
#21=ORIENTED_EDGE('',*,*,#73,.T.);
#22=ORIENTED_EDGE('',*,*,#74,.T.);
#23=ORIENTED_EDGE('',*,*,#75,.F.);
#24=ORIENTED_EDGE('',*,*,#76,.F.);
#25=ORIENTED_EDGE('',*,*,#71,.T.);
#26=ORIENTED_EDGE('',*,*,#77,.T.);
#27=ORIENTED_EDGE('',*,*,#78,.F.);
#28=ORIENTED_EDGE('',*,*,#79,.F.);
#29=ORIENTED_EDGE('',*,*,#75,.T.);
#30=ORIENTED_EDGE('',*,*,#80,.T.);
#31=ORIENTED_EDGE('',*,*,#81,.F.);
#32=ORIENTED_EDGE('',*,*,#82,.F.);
#33=ORIENTED_EDGE('',*,*,#78,.T.);
#34=ORIENTED_EDGE('',*,*,#83,.T.);
#35=ORIENTED_EDGE('',*,*,#84,.F.);
#36=ORIENTED_EDGE('',*,*,#85,.F.);
#37=ORIENTED_EDGE('',*,*,#81,.T.);
#38=ORIENTED_EDGE('',*,*,#86,.T.);
#39=ORIENTED_EDGE('',*,*,#73,.F.);
#40=ORIENTED_EDGE('',*,*,#87,.F.);
#41=ORIENTED_EDGE('',*,*,#84,.T.);
#42=ORIENTED_EDGE('',*,*,#88,.F.);
#43=ORIENTED_EDGE('',*,*,#72,.T.);
#44=ORIENTED_EDGE('',*,*,#76,.T.);
#45=ORIENTED_EDGE('',*,*,#79,.T.);
#46=ORIENTED_EDGE('',*,*,#82,.T.);
#47=ORIENTED_EDGE('',*,*,#85,.T.);
#48=ORIENTED_EDGE('',*,*,#87,.T.);
#49=ORIENTED_EDGE('',*,*,#70,.F.);
#50=ORIENTED_EDGE('',*,*,#86,.F.);
#51=ORIENTED_EDGE('',*,*,#83,.F.);
#52=ORIENTED_EDGE('',*,*,#80,.F.);
#53=ORIENTED_EDGE('',*,*,#77,.F.);
#54=ORIENTED_EDGE('',*,*,#74,.F.);
#55=ORIENTED_EDGE('',*,*,#89,.F.);
#56=ORIENTED_EDGE('',*,*,#88,.T.);
#57=ORIENTED_EDGE('',*,*,#90,.F.);
#58=ORIENTED_EDGE('',*,*,#91,.F.);
#59=ORIENTED_EDGE('',*,*,#89,.T.);
#60=ORIENTED_EDGE('',*,*,#90,.T.);
#61=ORIENTED_EDGE('',*,*,#92,.F.);
#62=ORIENTED_EDGE('',*,*,#93,.F.);
#63=ORIENTED_EDGE('',*,*,#94,.T.);
#64=ORIENTED_EDGE('',*,*,#91,.T.);
#65=ORIENTED_EDGE('',*,*,#94,.F.);
#66=ORIENTED_EDGE('',*,*,#95,.F.);
#67=ORIENTED_EDGE('',*,*,#92,.T.);
#68=ORIENTED_EDGE('',*,*,#93,.T.);
#69=ORIENTED_EDGE('',*,*,#95,.T.);
#70=EDGE_CURVE('',#96,#97,#114,.T.);
#71=EDGE_CURVE('',#98,#97,#115,.T.);
#72=EDGE_CURVE('',#99,#98,#116,.T.);
#73=EDGE_CURVE('',#99,#96,#117,.T.);
#74=EDGE_CURVE('',#97,#100,#118,.T.);
#75=EDGE_CURVE('',#101,#100,#119,.T.);
#76=EDGE_CURVE('',#98,#101,#120,.T.);
#77=EDGE_CURVE('',#100,#102,#121,.T.);
#78=EDGE_CURVE('',#103,#102,#122,.T.);
#79=EDGE_CURVE('',#101,#103,#123,.T.);
#80=EDGE_CURVE('',#102,#104,#124,.T.);
#81=EDGE_CURVE('',#105,#104,#125,.T.);
#82=EDGE_CURVE('',#103,#105,#126,.T.);
#83=EDGE_CURVE('',#104,#106,#127,.T.);
#84=EDGE_CURVE('',#107,#106,#128,.T.);
#85=EDGE_CURVE('',#105,#107,#129,.T.);
#86=EDGE_CURVE('',#106,#96,#130,.T.);
#87=EDGE_CURVE('',#107,#99,#131,.T.);
#88=EDGE_CURVE('',#108,#108,#14,.T.);
#89=EDGE_CURVE('',#109,#109,#15,.T.);
#90=EDGE_CURVE('',#110,#111,#132,.T.);
#91=EDGE_CURVE('',#111,#110,#16,.T.);
#92=EDGE_CURVE('',#112,#111,#133,.T.);
#93=EDGE_CURVE('',#113,#112,#134,.T.);
#94=EDGE_CURVE('',#113,#110,#135,.T.);
#95=EDGE_CURVE('',#112,#113,#17,.T.);
#96=VERTEX_POINT('',#305);
#97=VERTEX_POINT('',#306);
#98=VERTEX_POINT('',#308);
#99=VERTEX_POINT('',#310);
#100=VERTEX_POINT('',#314);
#101=VERTEX_POINT('',#316);
#102=VERTEX_POINT('',#320);
#103=VERTEX_POINT('',#322);
#104=VERTEX_POINT('',#326);
#105=VERTEX_POINT('',#328);
#106=VERTEX_POINT('',#332);
#107=VERTEX_POINT('',#334);
#108=VERTEX_POINT('',#341);
#109=VERTEX_POINT('',#345);
#110=VERTEX_POINT('',#348);
#111=VERTEX_POINT('',#349);
#112=VERTEX_POINT('',#353);
#113=VERTEX_POINT('',#355);
#114=LINE('',#304,#136);
#115=LINE('',#307,#137);
#116=LINE('',#309,#138);
#117=LINE('',#311,#139);
#118=LINE('',#313,#140);
#119=LINE('',#315,#141);
#120=LINE('',#317,#142);
#121=LINE('',#319,#143);
#122=LINE('',#321,#144);
#123=LINE('',#323,#145);
#124=LINE('',#325,#146);
#125=LINE('',#327,#147);
#126=LINE('',#329,#148);
#127=LINE('',#331,#149);
#128=LINE('',#333,#150);
#129=LINE('',#335,#151);
#130=LINE('',#337,#152);
#131=LINE('',#338,#153);
#132=LINE('',#347,#154);
#133=LINE('',#352,#155);
#134=LINE('',#354,#156);
#135=LINE('',#356,#157);
#136=VECTOR('',#248,1.);
#137=VECTOR('',#249,1.);
#138=VECTOR('',#250,1.);
#139=VECTOR('',#251,1.);
#140=VECTOR('',#254,1.);
#141=VECTOR('',#255,1.);
#142=VECTOR('',#256,1.);
#143=VECTOR('',#259,1.);
#144=VECTOR('',#260,1.);
#145=VECTOR('',#261,1.);
#146=VECTOR('',#264,1.);
#147=VECTOR('',#265,1.);
#148=VECTOR('',#266,1.);
#149=VECTOR('',#269,1.);
#150=VECTOR('',#270,1.);
#151=VECTOR('',#271,1.);
#152=VECTOR('',#274,1.);
#153=VECTOR('',#275,1.);
#154=VECTOR('',#288,1.);
#155=VECTOR('',#293,1.);
#156=VECTOR('',#294,1.);
#157=VECTOR('',#295,1.);
#158=EDGE_LOOP('',(#18,#19,#20,#21));
#159=EDGE_LOOP('',(#22,#23,#24,#25));
#160=EDGE_LOOP('',(#26,#27,#28,#29));
#161=EDGE_LOOP('',(#30,#31,#32,#33));
#162=EDGE_LOOP('',(#34,#35,#36,#37));
#163=EDGE_LOOP('',(#38,#39,#40,#41));
#164=EDGE_LOOP('',(#42));
#165=EDGE_LOOP('',(#43,#44,#45,#46,#47,#48));
#166=EDGE_LOOP('',(#49,#50,#51,#52,#53,#54));
#167=EDGE_LOOP('',(#55));
#168=EDGE_LOOP('',(#56));
#169=EDGE_LOOP('',(#57,#58));
#170=EDGE_LOOP('',(#59));
#171=EDGE_LOOP('',(#60,#61,#62,#63));
#172=EDGE_LOOP('',(#64,#65,#66,#67));
#173=EDGE_LOOP('',(#68,#69));
#174=FACE_BOUND('',#158,.T.);
#175=FACE_BOUND('',#159,.T.);
#176=FACE_BOUND('',#160,.T.);
#177=FACE_BOUND('',#161,.T.);
#178=FACE_BOUND('',#162,.T.);
#179=FACE_BOUND('',#163,.T.);
#180=FACE_BOUND('',#164,.T.);
#181=FACE_BOUND('',#165,.T.);
#182=FACE_BOUND('',#166,.T.);
#183=FACE_BOUND('',#167,.T.);
#184=FACE_BOUND('',#168,.T.);
#185=FACE_BOUND('',#169,.T.);
#186=FACE_BOUND('',#170,.T.);
#187=FACE_BOUND('',#171,.T.);
#188=FACE_BOUND('',#172,.T.);
#189=FACE_BOUND('',#173,.T.);
#190=PLANE('',#227);
#191=PLANE('',#228);
#192=PLANE('',#229);
#193=PLANE('',#230);
#194=PLANE('',#231);
#195=PLANE('',#232);
#196=PLANE('',#233);
#197=PLANE('',#235);
#198=PLANE('',#238);
#199=PLANE('',#240);
#200=PLANE('',#243);
#201=ADVANCED_FACE('',(#174),#190,.F.);
#202=ADVANCED_FACE('',(#175),#191,.F.);
#203=ADVANCED_FACE('',(#176),#192,.F.);
#204=ADVANCED_FACE('',(#177),#193,.F.);
#205=ADVANCED_FACE('',(#178),#194,.F.);
#206=ADVANCED_FACE('',(#179),#195,.F.);
#207=ADVANCED_FACE('',(#180,#181),#196,.T.);
#208=ADVANCED_FACE('',(#182),#197,.F.);
#209=ADVANCED_FACE('',(#183,#184),#12,.T.);
#210=ADVANCED_FACE('',(#185,#186),#198,.T.);
#211=ADVANCED_FACE('',(#187),#199,.F.);
#212=ADVANCED_FACE('',(#188),#13,.F.);
#213=ADVANCED_FACE('',(#189),#200,.T.);
#214=CLOSED_SHELL('',(#201,#202,#203,#204,#205,#206,#207,#208,#209,#210,
#211,#212,#213));
#215=STYLED_ITEM('',(#216),#223);
#216=PRESENTATION_STYLE_ASSIGNMENT((#217));
#217=SURFACE_STYLE_USAGE(.BOTH.,#218);
#218=SURFACE_SIDE_STYLE('',(#219));
#219=SURFACE_STYLE_FILL_AREA(#220);
#220=FILL_AREA_STYLE('',(#221));
#221=FILL_AREA_STYLE_COLOUR('',#222);
#222=COLOUR_RGB('',0.458823529411765,0.105882352941176,0.);
#223=MANIFOLD_SOLID_BREP('Part 1',#214);
#224=SHAPE_DEFINITION_REPRESENTATION(#366,#225);
#225=SHAPE_REPRESENTATION('Part 1',(#226),#361);
#226=AXIS2_PLACEMENT_3D('',#302,#244,#245);
#227=AXIS2_PLACEMENT_3D('',#303,#246,#247);
#228=AXIS2_PLACEMENT_3D('',#312,#252,#253);
#229=AXIS2_PLACEMENT_3D('',#318,#257,#258);
#230=AXIS2_PLACEMENT_3D('',#324,#262,#263);
#231=AXIS2_PLACEMENT_3D('',#330,#267,#268);
#232=AXIS2_PLACEMENT_3D('',#336,#272,#273);
#233=AXIS2_PLACEMENT_3D('',#339,#276,#277);
#234=AXIS2_PLACEMENT_3D('',#340,#278,#279);
#235=AXIS2_PLACEMENT_3D('',#342,#280,#281);
#236=AXIS2_PLACEMENT_3D('',#343,#282,#283);
#237=AXIS2_PLACEMENT_3D('',#344,#284,#285);
#238=AXIS2_PLACEMENT_3D('',#346,#286,#287);
#239=AXIS2_PLACEMENT_3D('',#350,#289,#290);
#240=AXIS2_PLACEMENT_3D('',#351,#291,#292);
#241=AXIS2_PLACEMENT_3D('',#357,#296,#297);
#242=AXIS2_PLACEMENT_3D('',#358,#298,#299);
#243=AXIS2_PLACEMENT_3D('',#359,#300,#301);
#244=DIRECTION('',(0.,0.,1.));
#245=DIRECTION('',(1.,0.,0.));
#246=DIRECTION('',(-0.495578233075798,-0.868563305062717,0.));
#247=DIRECTION('',(0.868563305062717,-0.495578233075798,0.));
#248=DIRECTION('',(-0.868563305062717,0.495578233075798,0.));
#249=DIRECTION('',(0.,0.,-1.));
#250=DIRECTION('',(-0.868563305062717,0.495578233075798,0.));
#251=DIRECTION('',(0.,0.,-1.));
#252=DIRECTION('',(0.504408770441387,-0.863464991937605,0.));
#253=DIRECTION('',(0.863464991937605,0.504408770441387,0.));
#254=DIRECTION('',(-0.863464991937605,-0.504408770441387,0.));
#255=DIRECTION('',(0.,0.,-1.));
#256=DIRECTION('',(-0.863464991937605,-0.504408770441387,0.));
#257=DIRECTION('',(0.999987003517185,0.00509831312511188,0.));
#258=DIRECTION('',(-0.00509831312511189,0.999987003517185,0.));
#259=DIRECTION('',(0.00509831312511189,-0.999987003517185,0.));
#260=DIRECTION('',(0.,0.,-1.));
#261=DIRECTION('',(0.00509831312511189,-0.999987003517185,0.));
#262=DIRECTION('',(0.495578233075798,0.868563305062717,0.));
#263=DIRECTION('',(-0.868563305062717,0.495578233075798,0.));
#264=DIRECTION('',(0.868563305062717,-0.495578233075798,0.));
#265=DIRECTION('',(0.,0.,-1.));
#266=DIRECTION('',(0.868563305062717,-0.495578233075798,0.));
#267=DIRECTION('',(-0.504408770441387,0.863464991937605,0.));
#268=DIRECTION('',(-0.863464991937605,-0.504408770441387,0.));
#269=DIRECTION('',(0.863464991937605,0.504408770441387,0.));
#270=DIRECTION('',(0.,0.,-1.));
#271=DIRECTION('',(0.863464991937605,0.504408770441387,0.));
#272=DIRECTION('',(-0.999987003517185,-0.00509831312511141,0.));
#273=DIRECTION('',(0.00509831312511141,-0.999987003517185,0.));
#274=DIRECTION('',(-0.00509831312511141,0.999987003517185,0.));
#275=DIRECTION('',(-0.00509831312511141,0.999987003517185,0.));
#276=DIRECTION('',(0.,0.,1.));
#277=DIRECTION('',(1.,0.,0.));
#278=DIRECTION('',(0.,0.,1.));
#279=DIRECTION('',(1.,0.,0.));
#280=DIRECTION('',(0.,0.,1.));
#281=DIRECTION('',(1.,0.,0.));
#282=DIRECTION('',(0.,0.,-1.));
#283=DIRECTION('',(-1.,0.,0.));
#284=DIRECTION('',(0.,0.,1.));
#285=DIRECTION('',(1.,0.,0.));
#286=DIRECTION('',(0.,0.,1.));
#287=DIRECTION('',(1.,0.,0.));
#288=DIRECTION('',(0.999606643093109,0.0280456607004773,0.));
#289=DIRECTION('',(0.,0.,1.));
#290=DIRECTION('',(1.,0.,0.));
#291=DIRECTION('',(0.0280456607004773,-0.999606643093109,0.));
#292=DIRECTION('',(0.999606643093109,0.0280456607004773,0.));
#293=DIRECTION('',(0.,0.,1.));
#294=DIRECTION('',(0.999606643093109,0.0280456607004773,0.));
#295=DIRECTION('',(0.,0.,1.));
#296=DIRECTION('',(0.,0.,1.));
#297=DIRECTION('',(1.,0.,0.));
#298=DIRECTION('',(0.,0.,1.));
#299=DIRECTION('',(1.,0.,0.));
#300=DIRECTION('',(0.,0.,1.));
#301=DIRECTION('',(1.,0.,0.));
#302=CARTESIAN_POINT('',(0.,0.,0.));
#303=CARTESIAN_POINT('',(0.0031504632212455,0.00552158380916015,0.01143));
#304=CARTESIAN_POINT('',(0.0031504632212455,0.00552158380916015,0.));
#305=CARTESIAN_POINT('',(0.00633835111981719,0.00370266302030204,0.));
#306=CARTESIAN_POINT('',(-3.74246773261954E-5,0.00734050459801825,0.));
#307=CARTESIAN_POINT('',(-3.74246773261954E-5,0.00734050459801825,0.01143));
#308=CARTESIAN_POINT('',(-3.74246773261954E-5,0.00734050459801825,0.01143));
#309=CARTESIAN_POINT('',(0.0031504632212455,0.00552158380916015,0.01143));
#310=CARTESIAN_POINT('',(0.00633835111981719,0.00370266302030204,0.01143));
#311=CARTESIAN_POINT('',(0.00633835111981719,0.00370266302030204,0.01143));
#312=CARTESIAN_POINT('',(-0.00320660023723479,0.00548917308786723,0.01143));
#313=CARTESIAN_POINT('',(-0.00320660023723479,0.00548917308786723,0.));
#314=CARTESIAN_POINT('',(-0.00637577579714338,0.0036378415777162,0.));
#315=CARTESIAN_POINT('',(-0.00637577579714338,0.0036378415777162,0.01143));
#316=CARTESIAN_POINT('',(-0.00637577579714338,0.0036378415777162,0.01143));
#317=CARTESIAN_POINT('',(-0.00320660023723479,0.00548917308786723,0.01143));
#318=CARTESIAN_POINT('',(-0.00635706345848029,-3.24107212929195E-5,0.01143));
#319=CARTESIAN_POINT('',(-0.00635706345848029,-3.24107212929195E-5,0.));
#320=CARTESIAN_POINT('',(-0.00633835111981719,-0.00370266302030204,0.));
#321=CARTESIAN_POINT('',(-0.00633835111981719,-0.00370266302030204,0.01143));
#322=CARTESIAN_POINT('',(-0.00633835111981719,-0.00370266302030204,0.01143));
#323=CARTESIAN_POINT('',(-0.00635706345848029,-3.24107212929195E-5,0.01143));
#324=CARTESIAN_POINT('',(-0.0031504632212455,-0.00552158380916015,0.01143));
#325=CARTESIAN_POINT('',(-0.0031504632212455,-0.00552158380916015,0.));
#326=CARTESIAN_POINT('',(3.74246773261928E-5,-0.00734050459801825,0.));
#327=CARTESIAN_POINT('',(3.74246773261928E-5,-0.00734050459801825,0.01143));
#328=CARTESIAN_POINT('',(3.74246773261928E-5,-0.00734050459801825,0.01143));
#329=CARTESIAN_POINT('',(-0.0031504632212455,-0.00552158380916015,0.01143));
#330=CARTESIAN_POINT('',(0.00320660023723478,-0.00548917308786723,0.01143));
#331=CARTESIAN_POINT('',(0.00320660023723478,-0.00548917308786723,0.));
#332=CARTESIAN_POINT('',(0.00637577579714338,-0.00363784157771621,0.));
#333=CARTESIAN_POINT('',(0.00637577579714338,-0.00363784157771621,0.01143));
#334=CARTESIAN_POINT('',(0.00637577579714338,-0.00363784157771621,0.01143));
#335=CARTESIAN_POINT('',(0.00320660023723478,-0.00548917308786723,0.01143));
#336=CARTESIAN_POINT('',(0.00635706345848028,3.2410721292917E-5,0.01143));
#337=CARTESIAN_POINT('',(0.00635706345848028,3.2410721292917E-5,0.));
#338=CARTESIAN_POINT('',(0.00635706345848028,3.2410721292917E-5,0.01143));
#339=CARTESIAN_POINT('',(-3.46944695195361E-18,0.,0.01143));
#340=CARTESIAN_POINT('',(-3.74246773261954E-5,3.2410721292919E-5,0.01143));
#341=CARTESIAN_POINT('',(0.0059667162226738,3.2410721292919E-5,0.01143));
#342=CARTESIAN_POINT('',(-3.46944695195361E-18,0.,0.));
#343=CARTESIAN_POINT('',(-3.74246773261954E-5,3.2410721292919E-5,0.01295654));
#344=CARTESIAN_POINT('',(-3.74246773261954E-5,3.2410721292919E-5,0.01295654));
#345=CARTESIAN_POINT('',(0.0059667162226738,3.2410721292919E-5,0.01295654));
#346=CARTESIAN_POINT('',(-3.74246773261946E-5,3.24107212929195E-5,0.01295654));
#347=CARTESIAN_POINT('',(3.12614091306164E-5,-0.00111422271606116,0.01295654));
#348=CARTESIAN_POINT('',(-0.000972097444003208,-0.00114237365138182,0.01295654));
#349=CARTESIAN_POINT('',(0.00103462026226444,-0.00108607178074051,0.01295654));
#350=CARTESIAN_POINT('',(1.6940658945086E-19,0.,0.01295654));
#351=CARTESIAN_POINT('',(3.12614091306164E-5,-0.00111422271606116,0.01016254));
#352=CARTESIAN_POINT('',(0.00103462026226444,-0.00108607178074051,0.01016254));
#353=CARTESIAN_POINT('',(0.00103462026226444,-0.00108607178074051,0.01016254));
#354=CARTESIAN_POINT('',(3.12614091306164E-5,-0.00111422271606116,0.01016254));
#355=CARTESIAN_POINT('',(-0.000972097444003208,-0.00114237365138182,0.01016254));
#356=CARTESIAN_POINT('',(-0.000972097444003208,-0.00114237365138182,0.01016254));
#357=CARTESIAN_POINT('',(1.6940658945086E-19,0.,0.01016254));
#358=CARTESIAN_POINT('',(1.6940658945086E-19,0.,0.01016254));
#359=CARTESIAN_POINT('',(-3.74246773261825E-5,3.24107212929178E-5,0.01016254));
#360=MECHANICAL_DESIGN_GEOMETRIC_PRESENTATION_REPRESENTATION('',(#215),
#361);
#361=(
GEOMETRIC_REPRESENTATION_CONTEXT(3)
GLOBAL_UNCERTAINTY_ASSIGNED_CONTEXT((#362))
GLOBAL_UNIT_ASSIGNED_CONTEXT((#365,#364,#363))
REPRESENTATION_CONTEXT('Part 1','TOP_LEVEL_ASSEMBLY_PART')
);
#362=UNCERTAINTY_MEASURE_WITH_UNIT(LENGTH_MEASURE(1.E-8),#365,
'DISTANCE_ACCURACY_VALUE','Maximum Tolerance applied to model');
#363=(
NAMED_UNIT(*)
SI_UNIT($,.STERADIAN.)
SOLID_ANGLE_UNIT()
);
#364=(
NAMED_UNIT(*)
PLANE_ANGLE_UNIT()
SI_UNIT($,.RADIAN.)
);
#365=(
LENGTH_UNIT()
NAMED_UNIT(*)
SI_UNIT($,.METRE.)
);
#366=PRODUCT_DEFINITION_SHAPE('','',#367);
#367=PRODUCT_DEFINITION('','',#369,#368);
#368=PRODUCT_DEFINITION_CONTEXT('',#375,'design');
#369=PRODUCT_DEFINITION_FORMATION_WITH_SPECIFIED_SOURCE('','',#371,
 .NOT_KNOWN.);
#370=PRODUCT_RELATED_PRODUCT_CATEGORY('','',(#371));
#371=PRODUCT('Part 1','Part 1','Part 1',(#373));
#372=PRODUCT_CATEGORY('','');
#373=PRODUCT_CONTEXT('',#375,'mechanical');
#374=APPLICATION_PROTOCOL_DEFINITION('international standard',
'ap242_managed_model_based_3d_engineering',2020,#375);
#375=APPLICATION_CONTEXT('managed model based 3d engineering');
ENDSEC;
END-ISO-10303-21;
