ISO-10303-21;
HEADER;
/* Generated by software containing ST-Developer
 * from STEP Tools, Inc. (www.steptools.com) 
 */
/* OPTION: using custom renumber hook */

FILE_DESCRIPTION(
/* description */ ('STEP AP242 Edition 2',
'CAx-IF Rec.Pracs.---Representation and Presentation of Product Manufa
cturing Information (PMI)---4.0---2014-10-13',
'CAx-IF Rec.Pracs.---3D Tessellated Geometry---0.4---2014-09-14','2;1',
'CAx-IF Rec.Pracs.---User Defined Attributes---1.5---2016-08-15'),
/* implementation_level */ '2;1');

FILE_NAME(
/* name */ 'WeaponMotorCap',
/* time_stamp */ '2026-05-18T00:09:19Z',
/* author */ (''),
/* organization */ (''),
/* preprocessor_version */ 'ST-DEVELOPER v20',
/* originating_system */ 'ONSHAPE BY PTC INC, 1.215',
/* authorisation */ '  ');

FILE_SCHEMA (('AP242_MANAGED_MODEL_BASED_3D_ENGINEERING_MIM_LF { 1 0 10303 442 3 1 4 }'));
ENDSEC;

DATA;
#10=SHAPE_REPRESENTATION_RELATIONSHIP('','',#162,#11);
#11=ADVANCED_BREP_SHAPE_REPRESENTATION('',(#160),#285);
#12=CONICAL_SURFACE('',#185,0.00330224014133757,0.785398163397448);
#13=TOROIDAL_SURFACE('',#184,0.00390148989873224,0.000337989898732234);
#14=LINE('',#266,#18);
#15=LINE('',#267,#19);
#16=LINE('',#269,#20);
#17=LINE('',#270,#21);
#18=VECTOR('',#216,1.);
#19=VECTOR('',#217,1.);
#20=VECTOR('',#220,1.);
#21=VECTOR('',#221,1.);
#22=PLANE('',#176);
#23=PLANE('',#177);
#24=PLANE('',#178);
#25=PLANE('',#183);
#26=PLANE('',#186);
#27=PLANE('',#187);
#28=CIRCLE('',#166,0.0020635);
#29=CIRCLE('',#168,0.0020635);
#30=CIRCLE('',#169,0.0020635);
#31=CIRCLE('',#171,0.0035635);
#32=CIRCLE('',#172,0.0035635);
#33=CIRCLE('',#174,0.0035635);
#34=CIRCLE('',#179,0.00330224014133757);
#35=CIRCLE('',#181,0.00385224014133757);
#36=CIRCLE('',#182,0.00385224014133757);
#37=ORIENTED_EDGE('',*,*,#71,.F.);
#38=ORIENTED_EDGE('',*,*,#72,.F.);
#39=ORIENTED_EDGE('',*,*,#73,.T.);
#40=ORIENTED_EDGE('',*,*,#74,.F.);
#41=ORIENTED_EDGE('',*,*,#75,.T.);
#42=ORIENTED_EDGE('',*,*,#76,.T.);
#43=ORIENTED_EDGE('',*,*,#77,.T.);
#44=ORIENTED_EDGE('',*,*,#78,.T.);
#45=ORIENTED_EDGE('',*,*,#79,.T.);
#46=ORIENTED_EDGE('',*,*,#80,.F.);
#47=ORIENTED_EDGE('',*,*,#79,.F.);
#48=ORIENTED_EDGE('',*,*,#81,.T.);
#49=ORIENTED_EDGE('',*,*,#74,.T.);
#50=ORIENTED_EDGE('',*,*,#82,.F.);
#51=ORIENTED_EDGE('',*,*,#72,.T.);
#52=ORIENTED_EDGE('',*,*,#83,.T.);
#53=ORIENTED_EDGE('',*,*,#77,.F.);
#54=ORIENTED_EDGE('',*,*,#84,.F.);
#55=ORIENTED_EDGE('',*,*,#85,.T.);
#56=ORIENTED_EDGE('',*,*,#86,.T.);
#57=ORIENTED_EDGE('',*,*,#87,.T.);
#58=ORIENTED_EDGE('',*,*,#75,.F.);
#59=ORIENTED_EDGE('',*,*,#76,.F.);
#60=ORIENTED_EDGE('',*,*,#87,.F.);
#61=ORIENTED_EDGE('',*,*,#86,.F.);
#62=ORIENTED_EDGE('',*,*,#85,.F.);
#63=ORIENTED_EDGE('',*,*,#82,.T.);
#64=ORIENTED_EDGE('',*,*,#73,.F.);
#65=ORIENTED_EDGE('',*,*,#84,.T.);
#66=ORIENTED_EDGE('',*,*,#80,.T.);
#67=ORIENTED_EDGE('',*,*,#78,.F.);
#68=ORIENTED_EDGE('',*,*,#83,.F.);
#69=ORIENTED_EDGE('',*,*,#71,.T.);
#70=ORIENTED_EDGE('',*,*,#81,.F.);
#71=EDGE_CURVE('',#88,#89,#101,.T.);
#72=EDGE_CURVE('',#90,#88,#28,.T.);
#73=EDGE_CURVE('',#90,#91,#102,.T.);
#74=EDGE_CURVE('',#89,#91,#29,.T.);
#75=EDGE_CURVE('',#92,#92,#30,.T.);
#76=EDGE_CURVE('',#93,#93,#31,.F.);
#77=EDGE_CURVE('',#94,#95,#32,.T.);
#78=EDGE_CURVE('',#95,#96,#103,.T.);
#79=EDGE_CURVE('',#96,#97,#33,.T.);
#80=EDGE_CURVE('',#94,#97,#104,.T.);
#81=EDGE_CURVE('',#96,#89,#14,.T.);
#82=EDGE_CURVE('',#97,#91,#15,.T.);
#83=EDGE_CURVE('',#88,#95,#16,.T.);
#84=EDGE_CURVE('',#90,#94,#17,.T.);
#85=EDGE_CURVE('',#98,#98,#34,.T.);
#86=EDGE_CURVE('',#99,#99,#35,.F.);
#87=EDGE_CURVE('',#100,#100,#36,.T.);
#88=VERTEX_POINT('',#245);
#89=VERTEX_POINT('',#246);
#90=VERTEX_POINT('',#248);
#91=VERTEX_POINT('',#250);
#92=VERTEX_POINT('',#253);
#93=VERTEX_POINT('',#256);
#94=VERTEX_POINT('',#258);
#95=VERTEX_POINT('',#259);
#96=VERTEX_POINT('',#261);
#97=VERTEX_POINT('',#263);
#98=VERTEX_POINT('',#273);
#99=VERTEX_POINT('',#276);
#100=VERTEX_POINT('',#278);
#101=ELLIPSE('',#165,0.00311690636448427,0.0020635);
#102=ELLIPSE('',#167,0.00311690636448427,0.0020635);
#103=ELLIPSE('',#173,0.00538264881504227,0.0035635);
#104=ELLIPSE('',#175,0.00538264881504227,0.0035635);
#105=EDGE_LOOP('',(#37,#38,#39,#40));
#106=EDGE_LOOP('',(#41));
#107=EDGE_LOOP('',(#42));
#108=EDGE_LOOP('',(#43,#44,#45,#46));
#109=EDGE_LOOP('',(#47,#48,#49,#50));
#110=EDGE_LOOP('',(#51,#52,#53,#54));
#111=EDGE_LOOP('',(#55));
#112=EDGE_LOOP('',(#56));
#113=EDGE_LOOP('',(#57));
#114=EDGE_LOOP('',(#58));
#115=EDGE_LOOP('',(#59));
#116=EDGE_LOOP('',(#60));
#117=EDGE_LOOP('',(#61));
#118=EDGE_LOOP('',(#62));
#119=EDGE_LOOP('',(#63,#64,#65,#66));
#120=EDGE_LOOP('',(#67,#68,#69,#70));
#121=FACE_BOUND('',#105,.T.);
#122=FACE_BOUND('',#106,.T.);
#123=FACE_BOUND('',#107,.T.);
#124=FACE_BOUND('',#108,.T.);
#125=FACE_BOUND('',#109,.T.);
#126=FACE_BOUND('',#110,.T.);
#127=FACE_BOUND('',#111,.T.);
#128=FACE_BOUND('',#112,.T.);
#129=FACE_BOUND('',#113,.T.);
#130=FACE_BOUND('',#114,.T.);
#131=FACE_BOUND('',#115,.T.);
#132=FACE_BOUND('',#116,.T.);
#133=FACE_BOUND('',#117,.T.);
#134=FACE_BOUND('',#118,.T.);
#135=FACE_BOUND('',#119,.T.);
#136=FACE_BOUND('',#120,.T.);
#137=CYLINDRICAL_SURFACE('',#164,0.0020635);
#138=CYLINDRICAL_SURFACE('',#170,0.0035635);
#139=CYLINDRICAL_SURFACE('',#180,0.00385224014133757);
#140=ADVANCED_FACE('',(#121,#122),#137,.F.);
#141=ADVANCED_FACE('',(#123,#124),#138,.T.);
#142=ADVANCED_FACE('',(#125),#22,.F.);
#143=ADVANCED_FACE('',(#126),#23,.F.);
#144=ADVANCED_FACE('',(#127),#24,.T.);
#145=ADVANCED_FACE('',(#128,#129),#139,.T.);
#146=ADVANCED_FACE('',(#130),#25,.F.);
#147=ADVANCED_FACE('',(#131,#132),#13,.F.);
#148=ADVANCED_FACE('',(#133,#134),#12,.T.);
#149=ADVANCED_FACE('',(#135),#26,.T.);
#150=ADVANCED_FACE('',(#136),#27,.F.);
#151=CLOSED_SHELL('',(#140,#141,#142,#143,#144,#145,#146,#147,#148,#149,
#150));
#152=STYLED_ITEM('',(#153),#160);
#153=PRESENTATION_STYLE_ASSIGNMENT((#154));
#154=SURFACE_STYLE_USAGE(.BOTH.,#155);
#155=SURFACE_SIDE_STYLE('',(#156));
#156=SURFACE_STYLE_FILL_AREA(#157);
#157=FILL_AREA_STYLE('',(#158));
#158=FILL_AREA_STYLE_COLOUR('',#159);
#159=COLOUR_RGB('',0.866666666666667,0.32156862745098,0.156862745098039);
#160=MANIFOLD_SOLID_BREP('WeaponMotorCap',#151);
#161=SHAPE_DEFINITION_REPRESENTATION(#290,#162);
#162=SHAPE_REPRESENTATION('WeaponMotorCap',(#163),#285);
#163=AXIS2_PLACEMENT_3D('',#242,#188,#189);
#164=AXIS2_PLACEMENT_3D('',#243,#190,#191);
#165=AXIS2_PLACEMENT_3D('',#244,#192,#193);
#166=AXIS2_PLACEMENT_3D('',#247,#194,#195);
#167=AXIS2_PLACEMENT_3D('',#249,#196,#197);
#168=AXIS2_PLACEMENT_3D('',#251,#198,#199);
#169=AXIS2_PLACEMENT_3D('',#252,#200,#201);
#170=AXIS2_PLACEMENT_3D('',#254,#202,#203);
#171=AXIS2_PLACEMENT_3D('',#255,#204,#205);
#172=AXIS2_PLACEMENT_3D('',#257,#206,#207);
#173=AXIS2_PLACEMENT_3D('',#260,#208,#209);
#174=AXIS2_PLACEMENT_3D('',#262,#210,#211);
#175=AXIS2_PLACEMENT_3D('',#264,#212,#213);
#176=AXIS2_PLACEMENT_3D('',#265,#214,#215);
#177=AXIS2_PLACEMENT_3D('',#268,#218,#219);
#178=AXIS2_PLACEMENT_3D('',#271,#222,#223);
#179=AXIS2_PLACEMENT_3D('',#272,#224,#225);
#180=AXIS2_PLACEMENT_3D('',#274,#226,#227);
#181=AXIS2_PLACEMENT_3D('',#275,#228,#229);
#182=AXIS2_PLACEMENT_3D('',#277,#230,#231);
#183=AXIS2_PLACEMENT_3D('',#279,#232,#233);
#184=AXIS2_PLACEMENT_3D('',#280,#234,#235);
#185=AXIS2_PLACEMENT_3D('',#281,#236,#237);
#186=AXIS2_PLACEMENT_3D('',#282,#238,#239);
#187=AXIS2_PLACEMENT_3D('',#283,#240,#241);
#188=DIRECTION('',(0.,0.,1.));
#189=DIRECTION('',(1.,0.,0.));
#190=DIRECTION('',(0.,0.,-1.));
#191=DIRECTION('',(-1.,0.,0.));
#192=DIRECTION('',(0.,0.749473233802645,0.66203464547817));
#193=DIRECTION('',(0.,0.66203464547817,-0.749473233802645));
#194=DIRECTION('',(0.,0.,1.));
#195=DIRECTION('',(1.,0.,0.));
#196=DIRECTION('',(0.,0.749473233802645,-0.66203464547817));
#197=DIRECTION('',(0.,-0.66203464547817,-0.749473233802645));
#198=DIRECTION('',(0.,0.,1.));
#199=DIRECTION('',(1.,0.,0.));
#200=DIRECTION('',(0.,0.,1.));
#201=DIRECTION('',(1.,0.,0.));
#202=DIRECTION('',(0.,0.,-1.));
#203=DIRECTION('',(-1.,0.,0.));
#204=DIRECTION('',(0.,0.,1.));
#205=DIRECTION('',(1.,0.,0.));
#206=DIRECTION('',(0.,0.,1.));
#207=DIRECTION('',(1.,0.,0.));
#208=DIRECTION('',(0.,0.749473233802645,0.66203464547817));
#209=DIRECTION('',(0.,0.66203464547817,-0.749473233802645));
#210=DIRECTION('',(0.,0.,1.));
#211=DIRECTION('',(1.,0.,0.));
#212=DIRECTION('',(0.,0.749473233802645,-0.66203464547817));
#213=DIRECTION('',(0.,-0.66203464547817,-0.749473233802645));
#214=DIRECTION('',(0.,0.,1.));
#215=DIRECTION('',(1.,0.,0.));
#216=DIRECTION('',(-1.,0.,0.));
#217=DIRECTION('',(-1.,0.,0.));
#218=DIRECTION('',(0.,0.,1.));
#219=DIRECTION('',(1.,0.,0.));
#220=DIRECTION('',(-1.,0.,0.));
#221=DIRECTION('',(-1.,0.,0.));
#222=DIRECTION('',(0.,0.,1.));
#223=DIRECTION('',(1.,0.,0.));
#224=DIRECTION('',(0.,0.,1.));
#225=DIRECTION('',(1.,0.,0.));
#226=DIRECTION('',(0.,0.,-1.));
#227=DIRECTION('',(-1.,0.,0.));
#228=DIRECTION('',(0.,0.,1.));
#229=DIRECTION('',(1.,0.,0.));
#230=DIRECTION('',(0.,0.,1.));
#231=DIRECTION('',(1.,0.,0.));
#232=DIRECTION('',(0.,0.,1.));
#233=DIRECTION('',(1.,0.,0.));
#234=DIRECTION('',(0.,0.,1.));
#235=DIRECTION('',(1.,0.,0.));
#236=DIRECTION('',(0.,0.,-1.));
#237=DIRECTION('',(-1.,0.,0.));
#238=DIRECTION('',(0.,0.749473233802645,-0.66203464547817));
#239=DIRECTION('',(0.,0.66203464547817,0.749473233802645));
#240=DIRECTION('',(0.,0.749473233802645,0.66203464547817));
#241=DIRECTION('',(0.,-0.66203464547817,0.749473233802645));
#242=CARTESIAN_POINT('',(0.,0.,0.));
#243=CARTESIAN_POINT('',(0.,1.26352933502028E-19,0.0055));
#244=CARTESIAN_POINT('',(0.,1.26352933502028E-19,-0.00134846150749265));
#245=CARTESIAN_POINT('',(-0.001684997199532,-0.00119114091843463,0.));
#246=CARTESIAN_POINT('',(0.001684997199532,-0.00119114091843463,0.));
#247=CARTESIAN_POINT('',(0.,1.26352933502028E-19,0.));
#248=CARTESIAN_POINT('',(-0.001684997199532,0.00119114091843463,0.));
#249=CARTESIAN_POINT('',(0.,1.26352933502028E-19,-0.00134846150749265));
#250=CARTESIAN_POINT('',(0.001684997199532,0.00119114091843463,0.));
#251=CARTESIAN_POINT('',(0.,1.26352933502028E-19,0.));
#252=CARTESIAN_POINT('',(0.,1.26352933502028E-19,0.0055));
#253=CARTESIAN_POINT('',(0.0020635,1.26352933502028E-19,0.0055));
#254=CARTESIAN_POINT('',(0.,2.18201443438079E-19,0.0055));
#255=CARTESIAN_POINT('',(0.,2.18201443438079E-19,0.00516201010126777));
#256=CARTESIAN_POINT('',(0.0035635,2.18201443438079E-19,0.00516201010126777));
#257=CARTESIAN_POINT('',(0.,2.18201443438079E-19,0.));
#258=CARTESIAN_POINT('',(-0.00335852877945547,0.00119114091843463,0.));
#259=CARTESIAN_POINT('',(-0.00335852877945547,-0.00119114091843463,0.));
#260=CARTESIAN_POINT('',(0.,2.18201443438079E-19,-0.00134846150749265));
#261=CARTESIAN_POINT('',(0.00335852877945547,-0.00119114091843463,0.));
#262=CARTESIAN_POINT('',(0.,2.18201443438079E-19,0.));
#263=CARTESIAN_POINT('',(0.00335852877945547,0.00119114091843463,0.));
#264=CARTESIAN_POINT('',(0.,2.18201443438079E-19,-0.00134846150749265));
#265=CARTESIAN_POINT('',(0.,0.,0.));
#266=CARTESIAN_POINT('',(0.,-0.00119114091843463,0.));
#267=CARTESIAN_POINT('',(0.,0.00119114091843463,0.));
#268=CARTESIAN_POINT('',(0.,0.,0.));
#269=CARTESIAN_POINT('',(0.,-0.00119114091843463,0.));
#270=CARTESIAN_POINT('',(0.,0.00119114091843463,0.));
#271=CARTESIAN_POINT('',(0.,0.,0.0061));
#272=CARTESIAN_POINT('',(0.,3.62234611433828E-19,0.0061));
#273=CARTESIAN_POINT('',(0.00330224014133757,3.62234611433828E-19,0.0061));
#274=CARTESIAN_POINT('',(0.,3.62234611433828E-19,0.0061));
#275=CARTESIAN_POINT('',(0.,3.62234611433828E-19,0.00555));
#276=CARTESIAN_POINT('',(0.00385224014133757,3.62234611433828E-19,0.00555));
#277=CARTESIAN_POINT('',(0.,2.18201443438079E-19,0.00549639256648027));
#278=CARTESIAN_POINT('',(0.00385224014133757,2.18201443438079E-19,0.00549639256648027));
#279=CARTESIAN_POINT('',(0.,0.,0.0055));
#280=CARTESIAN_POINT('',(0.,2.18201443438079E-19,0.00516201010126777));
#281=CARTESIAN_POINT('',(0.,3.62234611433828E-19,0.0061));
#282=CARTESIAN_POINT('',(-0.0123,0.00250493931481443,0.00148731903900332));
#283=CARTESIAN_POINT('',(-0.0123,-0.00250493931481443,0.00148731903900332));
#284=MECHANICAL_DESIGN_GEOMETRIC_PRESENTATION_REPRESENTATION('',(#152),
#285);
#285=(
GEOMETRIC_REPRESENTATION_CONTEXT(3)
GLOBAL_UNCERTAINTY_ASSIGNED_CONTEXT((#286))
GLOBAL_UNIT_ASSIGNED_CONTEXT((#289,#288,#287))
REPRESENTATION_CONTEXT('WeaponMotorCap','TOP_LEVEL_ASSEMBLY_PART')
);
#286=UNCERTAINTY_MEASURE_WITH_UNIT(LENGTH_MEASURE(1.E-8),#289,
'DISTANCE_ACCURACY_VALUE','Maximum Tolerance applied to model');
#287=(
NAMED_UNIT(*)
SI_UNIT($,.STERADIAN.)
SOLID_ANGLE_UNIT()
);
#288=(
NAMED_UNIT(*)
PLANE_ANGLE_UNIT()
SI_UNIT($,.RADIAN.)
);
#289=(
LENGTH_UNIT()
NAMED_UNIT(*)
SI_UNIT($,.METRE.)
);
#290=PRODUCT_DEFINITION_SHAPE('','',#291);
#291=PRODUCT_DEFINITION('','',#293,#292);
#292=PRODUCT_DEFINITION_CONTEXT('',#299,'design');
#293=PRODUCT_DEFINITION_FORMATION_WITH_SPECIFIED_SOURCE('','',#295,
 .NOT_KNOWN.);
#294=PRODUCT_RELATED_PRODUCT_CATEGORY('','',(#295));
#295=PRODUCT('WeaponMotorCap','WeaponMotorCap','WeaponMotorCap',(#297));
#296=PRODUCT_CATEGORY('','');
#297=PRODUCT_CONTEXT('',#299,'mechanical');
#298=APPLICATION_PROTOCOL_DEFINITION('international standard',
'ap242_managed_model_based_3d_engineering',2020,#299);
#299=APPLICATION_CONTEXT('managed model based 3d engineering');
ENDSEC;
END-ISO-10303-21;
