%TF.GenerationSoftware,KiCad,Pcbnew,10.0.1*%
%TF.CreationDate,2026-04-24T22:39:50-05:00*%
%TF.ProjectId,barrel-roll,62617272-656c-42d7-926f-6c6c2e6b6963,rev?*%
%TF.SameCoordinates,Original*%
%TF.FileFunction,Legend,Top*%
%TF.FilePolarity,Positive*%
%FSLAX46Y46*%
G04 Gerber Fmt 4.6, Leading zero omitted, Abs format (unit mm)*
G04 Created by KiCad (PCBNEW 10.0.1) date 2026-04-24 22:39:50*
%MOMM*%
%LPD*%
G01*
G04 APERTURE LIST*
%ADD10C,0.150000*%
%ADD11C,0.101600*%
%ADD12C,0.120000*%
%ADD13C,0.127000*%
%ADD14C,0.100000*%
%ADD15C,0.504000*%
%ADD16C,0.000000*%
G04 APERTURE END LIST*
D10*
X141808095Y-29944819D02*
X142379523Y-29944819D01*
X142093809Y-30944819D02*
X142093809Y-29944819D01*
X142712857Y-30944819D02*
X142712857Y-29944819D01*
X142712857Y-29944819D02*
X143093809Y-29944819D01*
X143093809Y-29944819D02*
X143189047Y-29992438D01*
X143189047Y-29992438D02*
X143236666Y-30040057D01*
X143236666Y-30040057D02*
X143284285Y-30135295D01*
X143284285Y-30135295D02*
X143284285Y-30278152D01*
X143284285Y-30278152D02*
X143236666Y-30373390D01*
X143236666Y-30373390D02*
X143189047Y-30421009D01*
X143189047Y-30421009D02*
X143093809Y-30468628D01*
X143093809Y-30468628D02*
X142712857Y-30468628D01*
X143617619Y-29944819D02*
X144236666Y-29944819D01*
X144236666Y-29944819D02*
X143903333Y-30325771D01*
X143903333Y-30325771D02*
X144046190Y-30325771D01*
X144046190Y-30325771D02*
X144141428Y-30373390D01*
X144141428Y-30373390D02*
X144189047Y-30421009D01*
X144189047Y-30421009D02*
X144236666Y-30516247D01*
X144236666Y-30516247D02*
X144236666Y-30754342D01*
X144236666Y-30754342D02*
X144189047Y-30849580D01*
X144189047Y-30849580D02*
X144141428Y-30897200D01*
X144141428Y-30897200D02*
X144046190Y-30944819D01*
X144046190Y-30944819D02*
X143760476Y-30944819D01*
X143760476Y-30944819D02*
X143665238Y-30897200D01*
X143665238Y-30897200D02*
X143617619Y-30849580D01*
X134160952Y-30694819D02*
X134160952Y-29694819D01*
X134160952Y-29694819D02*
X134494285Y-30409104D01*
X134494285Y-30409104D02*
X134827618Y-29694819D01*
X134827618Y-29694819D02*
X134827618Y-30694819D01*
X135208571Y-29694819D02*
X135875237Y-30694819D01*
X135875237Y-29694819D02*
X135208571Y-30694819D01*
X136256190Y-30313866D02*
X137018095Y-30313866D01*
X137970475Y-29694819D02*
X137494285Y-29694819D01*
X137494285Y-29694819D02*
X137446666Y-30171009D01*
X137446666Y-30171009D02*
X137494285Y-30123390D01*
X137494285Y-30123390D02*
X137589523Y-30075771D01*
X137589523Y-30075771D02*
X137827618Y-30075771D01*
X137827618Y-30075771D02*
X137922856Y-30123390D01*
X137922856Y-30123390D02*
X137970475Y-30171009D01*
X137970475Y-30171009D02*
X138018094Y-30266247D01*
X138018094Y-30266247D02*
X138018094Y-30504342D01*
X138018094Y-30504342D02*
X137970475Y-30599580D01*
X137970475Y-30599580D02*
X137922856Y-30647200D01*
X137922856Y-30647200D02*
X137827618Y-30694819D01*
X137827618Y-30694819D02*
X137589523Y-30694819D01*
X137589523Y-30694819D02*
X137494285Y-30647200D01*
X137494285Y-30647200D02*
X137446666Y-30599580D01*
X138399047Y-30409104D02*
X138875237Y-30409104D01*
X138303809Y-30694819D02*
X138637142Y-29694819D01*
X138637142Y-29694819D02*
X138970475Y-30694819D01*
X139065714Y-30790057D02*
X139827618Y-30790057D01*
X140065714Y-30171009D02*
X140399047Y-30171009D01*
X140541904Y-30694819D02*
X140065714Y-30694819D01*
X140065714Y-30694819D02*
X140065714Y-29694819D01*
X140065714Y-29694819D02*
X140541904Y-29694819D01*
X140922857Y-30647200D02*
X141065714Y-30694819D01*
X141065714Y-30694819D02*
X141303809Y-30694819D01*
X141303809Y-30694819D02*
X141399047Y-30647200D01*
X141399047Y-30647200D02*
X141446666Y-30599580D01*
X141446666Y-30599580D02*
X141494285Y-30504342D01*
X141494285Y-30504342D02*
X141494285Y-30409104D01*
X141494285Y-30409104D02*
X141446666Y-30313866D01*
X141446666Y-30313866D02*
X141399047Y-30266247D01*
X141399047Y-30266247D02*
X141303809Y-30218628D01*
X141303809Y-30218628D02*
X141113333Y-30171009D01*
X141113333Y-30171009D02*
X141018095Y-30123390D01*
X141018095Y-30123390D02*
X140970476Y-30075771D01*
X140970476Y-30075771D02*
X140922857Y-29980533D01*
X140922857Y-29980533D02*
X140922857Y-29885295D01*
X140922857Y-29885295D02*
X140970476Y-29790057D01*
X140970476Y-29790057D02*
X141018095Y-29742438D01*
X141018095Y-29742438D02*
X141113333Y-29694819D01*
X141113333Y-29694819D02*
X141351428Y-29694819D01*
X141351428Y-29694819D02*
X141494285Y-29742438D01*
X142494285Y-30599580D02*
X142446666Y-30647200D01*
X142446666Y-30647200D02*
X142303809Y-30694819D01*
X142303809Y-30694819D02*
X142208571Y-30694819D01*
X142208571Y-30694819D02*
X142065714Y-30647200D01*
X142065714Y-30647200D02*
X141970476Y-30551961D01*
X141970476Y-30551961D02*
X141922857Y-30456723D01*
X141922857Y-30456723D02*
X141875238Y-30266247D01*
X141875238Y-30266247D02*
X141875238Y-30123390D01*
X141875238Y-30123390D02*
X141922857Y-29932914D01*
X141922857Y-29932914D02*
X141970476Y-29837676D01*
X141970476Y-29837676D02*
X142065714Y-29742438D01*
X142065714Y-29742438D02*
X142208571Y-29694819D01*
X142208571Y-29694819D02*
X142303809Y-29694819D01*
X142303809Y-29694819D02*
X142446666Y-29742438D01*
X142446666Y-29742438D02*
X142494285Y-29790057D01*
X143446666Y-30694819D02*
X142875238Y-30694819D01*
X143160952Y-30694819D02*
X143160952Y-29694819D01*
X143160952Y-29694819D02*
X143065714Y-29837676D01*
X143065714Y-29837676D02*
X142970476Y-29932914D01*
X142970476Y-29932914D02*
X142875238Y-29980533D01*
X133698095Y-29134819D02*
X133698095Y-29944342D01*
X133698095Y-29944342D02*
X133745714Y-30039580D01*
X133745714Y-30039580D02*
X133793333Y-30087200D01*
X133793333Y-30087200D02*
X133888571Y-30134819D01*
X133888571Y-30134819D02*
X134079047Y-30134819D01*
X134079047Y-30134819D02*
X134174285Y-30087200D01*
X134174285Y-30087200D02*
X134221904Y-30039580D01*
X134221904Y-30039580D02*
X134269523Y-29944342D01*
X134269523Y-29944342D02*
X134269523Y-29134819D01*
X134650476Y-29134819D02*
X135269523Y-29134819D01*
X135269523Y-29134819D02*
X134936190Y-29515771D01*
X134936190Y-29515771D02*
X135079047Y-29515771D01*
X135079047Y-29515771D02*
X135174285Y-29563390D01*
X135174285Y-29563390D02*
X135221904Y-29611009D01*
X135221904Y-29611009D02*
X135269523Y-29706247D01*
X135269523Y-29706247D02*
X135269523Y-29944342D01*
X135269523Y-29944342D02*
X135221904Y-30039580D01*
X135221904Y-30039580D02*
X135174285Y-30087200D01*
X135174285Y-30087200D02*
X135079047Y-30134819D01*
X135079047Y-30134819D02*
X134793333Y-30134819D01*
X134793333Y-30134819D02*
X134698095Y-30087200D01*
X134698095Y-30087200D02*
X134650476Y-30039580D01*
D11*
X101936190Y-28103479D02*
X101936190Y-28617526D01*
X101936190Y-28617526D02*
X101966428Y-28678002D01*
X101966428Y-28678002D02*
X101996666Y-28708241D01*
X101996666Y-28708241D02*
X102057142Y-28738479D01*
X102057142Y-28738479D02*
X102178095Y-28738479D01*
X102178095Y-28738479D02*
X102238571Y-28708241D01*
X102238571Y-28708241D02*
X102268809Y-28678002D01*
X102268809Y-28678002D02*
X102299047Y-28617526D01*
X102299047Y-28617526D02*
X102299047Y-28103479D01*
X102934047Y-28738479D02*
X102571190Y-28738479D01*
X102752618Y-28738479D02*
X102752618Y-28103479D01*
X102752618Y-28103479D02*
X102692142Y-28194193D01*
X102692142Y-28194193D02*
X102631666Y-28254669D01*
X102631666Y-28254669D02*
X102571190Y-28284907D01*
D10*
X141708095Y-40774819D02*
X142279523Y-40774819D01*
X141993809Y-41774819D02*
X141993809Y-40774819D01*
X142612857Y-41774819D02*
X142612857Y-40774819D01*
X142612857Y-40774819D02*
X142993809Y-40774819D01*
X142993809Y-40774819D02*
X143089047Y-40822438D01*
X143089047Y-40822438D02*
X143136666Y-40870057D01*
X143136666Y-40870057D02*
X143184285Y-40965295D01*
X143184285Y-40965295D02*
X143184285Y-41108152D01*
X143184285Y-41108152D02*
X143136666Y-41203390D01*
X143136666Y-41203390D02*
X143089047Y-41251009D01*
X143089047Y-41251009D02*
X142993809Y-41298628D01*
X142993809Y-41298628D02*
X142612857Y-41298628D01*
X144089047Y-40774819D02*
X143612857Y-40774819D01*
X143612857Y-40774819D02*
X143565238Y-41251009D01*
X143565238Y-41251009D02*
X143612857Y-41203390D01*
X143612857Y-41203390D02*
X143708095Y-41155771D01*
X143708095Y-41155771D02*
X143946190Y-41155771D01*
X143946190Y-41155771D02*
X144041428Y-41203390D01*
X144041428Y-41203390D02*
X144089047Y-41251009D01*
X144089047Y-41251009D02*
X144136666Y-41346247D01*
X144136666Y-41346247D02*
X144136666Y-41584342D01*
X144136666Y-41584342D02*
X144089047Y-41679580D01*
X144089047Y-41679580D02*
X144041428Y-41727200D01*
X144041428Y-41727200D02*
X143946190Y-41774819D01*
X143946190Y-41774819D02*
X143708095Y-41774819D01*
X143708095Y-41774819D02*
X143612857Y-41727200D01*
X143612857Y-41727200D02*
X143565238Y-41679580D01*
X141698095Y-35414819D02*
X142269523Y-35414819D01*
X141983809Y-36414819D02*
X141983809Y-35414819D01*
X142602857Y-36414819D02*
X142602857Y-35414819D01*
X142602857Y-35414819D02*
X142983809Y-35414819D01*
X142983809Y-35414819D02*
X143079047Y-35462438D01*
X143079047Y-35462438D02*
X143126666Y-35510057D01*
X143126666Y-35510057D02*
X143174285Y-35605295D01*
X143174285Y-35605295D02*
X143174285Y-35748152D01*
X143174285Y-35748152D02*
X143126666Y-35843390D01*
X143126666Y-35843390D02*
X143079047Y-35891009D01*
X143079047Y-35891009D02*
X142983809Y-35938628D01*
X142983809Y-35938628D02*
X142602857Y-35938628D01*
X144031428Y-35748152D02*
X144031428Y-36414819D01*
X143793333Y-35367200D02*
X143555238Y-36081485D01*
X143555238Y-36081485D02*
X144174285Y-36081485D01*
X125978095Y-28744819D02*
X125978095Y-29554342D01*
X125978095Y-29554342D02*
X126025714Y-29649580D01*
X126025714Y-29649580D02*
X126073333Y-29697200D01*
X126073333Y-29697200D02*
X126168571Y-29744819D01*
X126168571Y-29744819D02*
X126359047Y-29744819D01*
X126359047Y-29744819D02*
X126454285Y-29697200D01*
X126454285Y-29697200D02*
X126501904Y-29649580D01*
X126501904Y-29649580D02*
X126549523Y-29554342D01*
X126549523Y-29554342D02*
X126549523Y-28744819D01*
X126978095Y-28840057D02*
X127025714Y-28792438D01*
X127025714Y-28792438D02*
X127120952Y-28744819D01*
X127120952Y-28744819D02*
X127359047Y-28744819D01*
X127359047Y-28744819D02*
X127454285Y-28792438D01*
X127454285Y-28792438D02*
X127501904Y-28840057D01*
X127501904Y-28840057D02*
X127549523Y-28935295D01*
X127549523Y-28935295D02*
X127549523Y-29030533D01*
X127549523Y-29030533D02*
X127501904Y-29173390D01*
X127501904Y-29173390D02*
X126930476Y-29744819D01*
X126930476Y-29744819D02*
X127549523Y-29744819D01*
X133448095Y-52724819D02*
X133448095Y-53534342D01*
X133448095Y-53534342D02*
X133495714Y-53629580D01*
X133495714Y-53629580D02*
X133543333Y-53677200D01*
X133543333Y-53677200D02*
X133638571Y-53724819D01*
X133638571Y-53724819D02*
X133829047Y-53724819D01*
X133829047Y-53724819D02*
X133924285Y-53677200D01*
X133924285Y-53677200D02*
X133971904Y-53629580D01*
X133971904Y-53629580D02*
X134019523Y-53534342D01*
X134019523Y-53534342D02*
X134019523Y-52724819D01*
X134924285Y-53058152D02*
X134924285Y-53724819D01*
X134686190Y-52677200D02*
X134448095Y-53391485D01*
X134448095Y-53391485D02*
X135067142Y-53391485D01*
X148830476Y-42699819D02*
X148830476Y-41699819D01*
X148830476Y-41699819D02*
X149163809Y-42414104D01*
X149163809Y-42414104D02*
X149497142Y-41699819D01*
X149497142Y-41699819D02*
X149497142Y-42699819D01*
X149925714Y-41795057D02*
X149973333Y-41747438D01*
X149973333Y-41747438D02*
X150068571Y-41699819D01*
X150068571Y-41699819D02*
X150306666Y-41699819D01*
X150306666Y-41699819D02*
X150401904Y-41747438D01*
X150401904Y-41747438D02*
X150449523Y-41795057D01*
X150449523Y-41795057D02*
X150497142Y-41890295D01*
X150497142Y-41890295D02*
X150497142Y-41985533D01*
X150497142Y-41985533D02*
X150449523Y-42128390D01*
X150449523Y-42128390D02*
X149878095Y-42699819D01*
X149878095Y-42699819D02*
X150497142Y-42699819D01*
X151694819Y-37240475D02*
X152694819Y-36573809D01*
X151694819Y-36573809D02*
X152694819Y-37240475D01*
X151694819Y-36335713D02*
X151694819Y-35764285D01*
X152694819Y-36049999D02*
X151694819Y-36049999D01*
X152694819Y-34907142D02*
X152694819Y-35478570D01*
X152694819Y-35192856D02*
X151694819Y-35192856D01*
X151694819Y-35192856D02*
X151837676Y-35288094D01*
X151837676Y-35288094D02*
X151932914Y-35383332D01*
X151932914Y-35383332D02*
X151980533Y-35478570D01*
X148354700Y-30121428D02*
X148354700Y-28978571D01*
X148354700Y-43121428D02*
X148354700Y-41978571D01*
X148926128Y-42549999D02*
X147783271Y-42549999D01*
X142350476Y-47534819D02*
X142350476Y-46534819D01*
X142350476Y-46534819D02*
X142683809Y-47249104D01*
X142683809Y-47249104D02*
X143017142Y-46534819D01*
X143017142Y-46534819D02*
X143017142Y-47534819D01*
X144017142Y-47534819D02*
X143445714Y-47534819D01*
X143731428Y-47534819D02*
X143731428Y-46534819D01*
X143731428Y-46534819D02*
X143636190Y-46677676D01*
X143636190Y-46677676D02*
X143540952Y-46772914D01*
X143540952Y-46772914D02*
X143445714Y-46820533D01*
%TO.C,MX-5A_ESC1*%
D12*
X137400000Y-31240000D02*
X138780000Y-31240000D01*
X137400000Y-32620000D02*
X137400000Y-31240000D01*
X137400000Y-33890000D02*
X137400000Y-46700000D01*
X137400000Y-33890000D02*
X140160000Y-33890000D01*
X137400000Y-46700000D02*
X140160000Y-46700000D01*
X140160000Y-33890000D02*
X140160000Y-46700000D01*
%TO.C,U3*%
X133080000Y-30680000D02*
X134460000Y-30680000D01*
X133080000Y-32060000D02*
X133080000Y-30680000D01*
X133080000Y-33330000D02*
X133080000Y-38520000D01*
X133080000Y-33330000D02*
X135840000Y-33330000D01*
X133080000Y-38520000D02*
X135840000Y-38520000D01*
X135840000Y-33330000D02*
X135840000Y-38520000D01*
%TO.C,U1*%
D13*
X102030000Y-48959000D02*
X102030000Y-31814000D01*
X103935000Y-50864000D02*
X117905000Y-50864000D01*
X106425000Y-29909000D02*
X106428728Y-28998728D01*
X106928728Y-28499000D02*
X114924000Y-28499000D01*
X115424000Y-28999000D02*
X115424000Y-29909000D01*
D14*
X117905000Y-29909000D02*
X103935000Y-29909000D01*
D13*
X117905000Y-29909000D02*
X103935000Y-29909000D01*
X119810000Y-48959000D02*
X119810000Y-31814000D01*
X102030000Y-31814000D02*
G75*
G02*
X103935000Y-29909000I1905001J-1D01*
G01*
X103935000Y-50864000D02*
G75*
G02*
X102030000Y-48959000I1J1905001D01*
G01*
X106428728Y-28998728D02*
G75*
G02*
X106928728Y-28499001I500018J-291D01*
G01*
X114924000Y-28499000D02*
G75*
G02*
X115424000Y-28999000I0J-500000D01*
G01*
X117905000Y-29909000D02*
G75*
G02*
X119810000Y-31814000I0J-1905000D01*
G01*
X119810000Y-48959000D02*
G75*
G02*
X117905000Y-50864000I-1905000J0D01*
G01*
D15*
X102222000Y-30150000D02*
G75*
G02*
X101718000Y-30150000I-252000J0D01*
G01*
X101718000Y-30150000D02*
G75*
G02*
X102222000Y-30150000I252000J0D01*
G01*
X103365000Y-31030000D02*
G75*
G02*
X102861000Y-31030000I-252000J0D01*
G01*
X102861000Y-31030000D02*
G75*
G02*
X103365000Y-31030000I252000J0D01*
G01*
%TO.C,U2*%
D12*
X124090000Y-30290000D02*
X124090000Y-50730000D01*
X124090000Y-50730000D02*
X129390000Y-50730000D01*
X125740000Y-30290000D02*
X124090000Y-30290000D01*
X129390000Y-30290000D02*
X127740000Y-30290000D01*
X129390000Y-50730000D02*
X129390000Y-30290000D01*
X127740000Y-30290000D02*
G75*
G02*
X125740000Y-30290000I-1000000J0D01*
G01*
%TO.C,U4*%
X132830000Y-49620000D02*
X132830000Y-41890000D01*
X135590000Y-41890000D02*
X132830000Y-41890000D01*
X135590000Y-49620000D02*
X132830000Y-49620000D01*
X135590000Y-49620000D02*
X135590000Y-41890000D01*
X135590000Y-50890000D02*
X135590000Y-52270000D01*
X135590000Y-52270000D02*
X134210000Y-52270000D01*
D16*
%TO.C,G\u002A\u002A\u002A*%
G36*
X101838001Y-47336842D02*
G01*
X101833573Y-47341271D01*
X101829145Y-47336842D01*
X101833573Y-47332414D01*
X101838001Y-47336842D01*
G37*
G36*
X102085979Y-47071152D02*
G01*
X102081550Y-47075580D01*
X102077122Y-47071152D01*
X102081550Y-47066724D01*
X102085979Y-47071152D01*
G37*
G36*
X102994308Y-47847338D02*
G01*
X103070784Y-47848187D01*
X103146555Y-47849599D01*
X103224049Y-47851574D01*
X103292433Y-47853673D01*
X103396274Y-47857138D01*
X103483851Y-47860255D01*
X103556604Y-47863120D01*
X103615976Y-47865833D01*
X103663410Y-47868492D01*
X103700346Y-47871195D01*
X103728227Y-47874041D01*
X103748495Y-47877127D01*
X103762592Y-47880553D01*
X103771960Y-47884417D01*
X103775422Y-47886617D01*
X103784807Y-47895231D01*
X103785551Y-47905160D01*
X103777565Y-47922768D01*
X103774834Y-47927916D01*
X103759676Y-47952730D01*
X103741766Y-47977101D01*
X103724606Y-47996799D01*
X103711697Y-48007595D01*
X103708185Y-48008417D01*
X103696002Y-48010620D01*
X103675223Y-48018456D01*
X103651630Y-48029217D01*
X103631009Y-48040195D01*
X103619142Y-48048680D01*
X103618126Y-48050591D01*
X103611724Y-48054814D01*
X103606478Y-48053609D01*
X103589893Y-48053265D01*
X103573266Y-48057753D01*
X103574582Y-48060286D01*
X103592410Y-48062402D01*
X103626973Y-48064107D01*
X103678492Y-48065410D01*
X103747190Y-48066316D01*
X103833289Y-48066833D01*
X103870873Y-48066929D01*
X104190041Y-48067491D01*
X104336421Y-48215835D01*
X104382503Y-48263304D01*
X104428322Y-48311890D01*
X104471030Y-48358469D01*
X104507776Y-48399916D01*
X104535710Y-48433108D01*
X104542623Y-48441865D01*
X104602445Y-48519552D01*
X104592581Y-48596851D01*
X104591250Y-48615942D01*
X104589916Y-48651728D01*
X104588583Y-48703191D01*
X104587256Y-48769312D01*
X104585940Y-48849075D01*
X104584639Y-48941460D01*
X104583359Y-49045451D01*
X104582104Y-49160029D01*
X104580879Y-49284177D01*
X104579688Y-49416875D01*
X104578536Y-49557108D01*
X104577428Y-49703856D01*
X104576369Y-49856101D01*
X104575364Y-50012827D01*
X104574417Y-50173014D01*
X104573533Y-50335645D01*
X104572716Y-50499702D01*
X104571972Y-50664167D01*
X104571306Y-50828022D01*
X104570721Y-50990249D01*
X104570223Y-51149831D01*
X104569816Y-51305749D01*
X104569506Y-51456986D01*
X104569297Y-51602523D01*
X104569193Y-51741343D01*
X104569199Y-51872427D01*
X104569321Y-51994759D01*
X104569563Y-52107319D01*
X104569929Y-52209090D01*
X104570425Y-52299054D01*
X104571055Y-52376193D01*
X104571824Y-52439490D01*
X104572736Y-52487926D01*
X104573797Y-52520483D01*
X104574258Y-52528743D01*
X104584687Y-52681383D01*
X104516032Y-52803290D01*
X104492212Y-52845063D01*
X104471775Y-52878941D01*
X104452217Y-52908115D01*
X104431032Y-52935776D01*
X104405714Y-52965118D01*
X104373758Y-52999331D01*
X104332658Y-53041607D01*
X104314313Y-53060256D01*
X104181247Y-53195315D01*
X103975195Y-53195315D01*
X103769142Y-53195315D01*
X103766699Y-53823628D01*
X103764256Y-54451940D01*
X103733259Y-54484202D01*
X103707199Y-54507649D01*
X103678714Y-54528070D01*
X103669403Y-54533399D01*
X103663842Y-54536028D01*
X103657271Y-54538367D01*
X103648690Y-54540434D01*
X103637101Y-54542243D01*
X103621503Y-54543810D01*
X103600897Y-54545151D01*
X103574284Y-54546281D01*
X103540665Y-54547215D01*
X103499040Y-54547970D01*
X103448411Y-54548559D01*
X103387777Y-54549000D01*
X103316140Y-54549308D01*
X103232500Y-54549498D01*
X103135857Y-54549585D01*
X103025214Y-54549585D01*
X102899569Y-54549514D01*
X102757924Y-54549387D01*
X102646495Y-54549270D01*
X102491209Y-54549083D01*
X102352653Y-54548863D01*
X102229846Y-54548597D01*
X102121807Y-54548270D01*
X102027553Y-54547869D01*
X101946102Y-54547377D01*
X101876473Y-54546783D01*
X101817683Y-54546069D01*
X101768752Y-54545224D01*
X101728696Y-54544232D01*
X101696535Y-54543078D01*
X101671286Y-54541749D01*
X101651968Y-54540230D01*
X101637599Y-54538507D01*
X101627196Y-54536565D01*
X101619778Y-54534390D01*
X101619408Y-54534252D01*
X101582370Y-54520299D01*
X101578918Y-54444540D01*
X101578240Y-54421633D01*
X101577528Y-54382891D01*
X101576799Y-54330193D01*
X101576072Y-54265416D01*
X101575365Y-54190439D01*
X101574696Y-54107140D01*
X101574084Y-54017397D01*
X101573545Y-53923087D01*
X101573221Y-53855113D01*
X101572618Y-53727329D01*
X101571986Y-53616168D01*
X101571301Y-53520540D01*
X101570540Y-53439355D01*
X101569682Y-53371523D01*
X101568702Y-53315954D01*
X101567578Y-53271559D01*
X101566286Y-53237247D01*
X101564804Y-53211929D01*
X101563109Y-53194515D01*
X101561178Y-53183914D01*
X101558988Y-53179038D01*
X101558965Y-53179014D01*
X101548929Y-53177264D01*
X101523488Y-53175225D01*
X101484947Y-53173013D01*
X101435607Y-53170742D01*
X101377773Y-53168528D01*
X101313748Y-53166488D01*
X101303671Y-53166201D01*
X101054214Y-53159229D01*
X100927773Y-53033356D01*
X100883294Y-52988748D01*
X100848776Y-52952904D01*
X100821427Y-52922298D01*
X100798452Y-52893406D01*
X100777057Y-52862700D01*
X100754449Y-52826657D01*
X100727834Y-52781750D01*
X100726291Y-52779112D01*
X100651251Y-52650740D01*
X100650592Y-52199021D01*
X100650482Y-52141197D01*
X100650299Y-52066902D01*
X100650046Y-51977378D01*
X100649729Y-51873867D01*
X100649351Y-51757611D01*
X100648918Y-51629853D01*
X100648434Y-51491833D01*
X100647903Y-51344795D01*
X100647330Y-51189979D01*
X100646719Y-51028628D01*
X100646075Y-50861983D01*
X100645402Y-50691288D01*
X100644705Y-50517782D01*
X100643989Y-50342709D01*
X100643257Y-50167310D01*
X100643141Y-50139876D01*
X100639202Y-49207765D01*
X101977606Y-49207765D01*
X101981067Y-50510559D01*
X101984528Y-51813354D01*
X102113692Y-51944171D01*
X102169059Y-52001426D01*
X102212256Y-52048860D01*
X102244651Y-52088074D01*
X102267611Y-52120670D01*
X102274908Y-52133024D01*
X102293981Y-52164923D01*
X102313415Y-52193197D01*
X102329064Y-52211823D01*
X102329315Y-52212061D01*
X102345062Y-52230844D01*
X102351782Y-52247131D01*
X102347927Y-52256477D01*
X102345027Y-52257220D01*
X102331720Y-52259818D01*
X102320672Y-52262519D01*
X102296790Y-52266374D01*
X102282430Y-52267169D01*
X102268302Y-52268531D01*
X102269862Y-52275368D01*
X102275568Y-52281797D01*
X102312462Y-52322629D01*
X102344786Y-52361110D01*
X102370428Y-52394526D01*
X102387279Y-52420163D01*
X102392902Y-52432747D01*
X102398328Y-52452412D01*
X102402126Y-52462453D01*
X102411663Y-52464319D01*
X102436389Y-52465942D01*
X102473784Y-52467248D01*
X102521325Y-52468163D01*
X102576491Y-52468611D01*
X102611240Y-52468628D01*
X102816627Y-52468161D01*
X103035692Y-52253862D01*
X103254757Y-52039562D01*
X103255456Y-50631544D01*
X103256154Y-49223527D01*
X103035392Y-49004191D01*
X102814631Y-48784855D01*
X102607435Y-48784855D01*
X102400240Y-48784855D01*
X102188923Y-48996310D01*
X101977606Y-49207765D01*
X100639202Y-49207765D01*
X100636348Y-48532449D01*
X100706616Y-48443886D01*
X100735523Y-48409090D01*
X100773640Y-48365602D01*
X100817569Y-48317169D01*
X100863912Y-48267538D01*
X100909268Y-48220456D01*
X100909458Y-48220263D01*
X101042033Y-48085204D01*
X101159608Y-48085204D01*
X101203961Y-48084941D01*
X101261474Y-48084209D01*
X101327604Y-48083085D01*
X101397806Y-48081651D01*
X101467539Y-48079986D01*
X101491027Y-48079363D01*
X101704872Y-48073522D01*
X101656184Y-48053733D01*
X101615690Y-48036641D01*
X101589181Y-48022682D01*
X101574020Y-48008867D01*
X101567572Y-47992206D01*
X101567201Y-47969708D01*
X101568572Y-47954336D01*
X101571944Y-47924855D01*
X101575156Y-47902083D01*
X101576889Y-47893389D01*
X101584344Y-47888073D01*
X101604179Y-47883213D01*
X101637675Y-47878640D01*
X101686115Y-47874186D01*
X101750779Y-47869682D01*
X101762722Y-47868945D01*
X101780813Y-47868201D01*
X101814944Y-47867151D01*
X101863447Y-47865837D01*
X101924652Y-47864297D01*
X101996891Y-47862571D01*
X102078494Y-47860700D01*
X102167792Y-47858721D01*
X102263117Y-47856676D01*
X102362799Y-47854603D01*
X102384657Y-47854158D01*
X102516359Y-47851596D01*
X102632786Y-47849607D01*
X102736366Y-47848187D01*
X102829527Y-47847337D01*
X102914698Y-47847054D01*
X102994308Y-47847338D01*
G37*
G36*
X102899409Y-46590936D02*
G01*
X103028314Y-46592708D01*
X103151936Y-46595721D01*
X103268795Y-46599967D01*
X103377412Y-46605438D01*
X103476306Y-46612126D01*
X103563997Y-46620023D01*
X103639006Y-46629118D01*
X103699853Y-46639405D01*
X103745058Y-46650875D01*
X103757614Y-46655454D01*
X103786397Y-46667284D01*
X103786261Y-46771798D01*
X103785653Y-46813768D01*
X103784102Y-46849636D01*
X103781846Y-46875462D01*
X103779280Y-46887086D01*
X103764856Y-46896767D01*
X103734822Y-46906851D01*
X103691256Y-46916873D01*
X103636239Y-46926365D01*
X103571851Y-46934861D01*
X103560560Y-46936125D01*
X103454284Y-46947735D01*
X103451984Y-47370271D01*
X103449684Y-47792807D01*
X103429843Y-47789634D01*
X103408712Y-47792324D01*
X103386406Y-47803050D01*
X103369691Y-47812013D01*
X103360208Y-47811870D01*
X103359837Y-47811164D01*
X103350000Y-47805667D01*
X103328610Y-47801622D01*
X103317011Y-47800684D01*
X103283043Y-47796639D01*
X103255899Y-47789081D01*
X103239852Y-47779453D01*
X103237304Y-47773810D01*
X103233863Y-47765274D01*
X103226202Y-47769191D01*
X103218307Y-47782320D01*
X103215467Y-47791558D01*
X103211490Y-47806038D01*
X103204620Y-47812608D01*
X103189947Y-47812911D01*
X103163839Y-47808808D01*
X103123170Y-47801435D01*
X103098622Y-47796048D01*
X103088960Y-47792515D01*
X103079743Y-47789623D01*
X103068515Y-47785152D01*
X103047260Y-47774876D01*
X103030779Y-47766375D01*
X103001202Y-47753163D01*
X102984859Y-47751721D01*
X102982429Y-47753737D01*
X102966610Y-47766411D01*
X102944098Y-47775117D01*
X102929545Y-47776240D01*
X102919941Y-47781697D01*
X102918475Y-47788347D01*
X102911053Y-47801418D01*
X102895758Y-47810876D01*
X102872629Y-47818203D01*
X102858754Y-47816709D01*
X102847483Y-47805368D01*
X102845912Y-47803187D01*
X102830552Y-47788932D01*
X102807052Y-47774146D01*
X102801033Y-47771136D01*
X102773128Y-47751882D01*
X102761986Y-47732541D01*
X102760882Y-47718917D01*
X102760132Y-47689592D01*
X102759736Y-47646575D01*
X102759692Y-47591874D01*
X102760000Y-47527498D01*
X102760658Y-47455455D01*
X102761666Y-47377754D01*
X102762157Y-47346130D01*
X102763780Y-47234352D01*
X102764706Y-47139187D01*
X102764896Y-47059552D01*
X102764313Y-46994358D01*
X102762918Y-46942522D01*
X102760673Y-46902956D01*
X102757540Y-46874575D01*
X102753479Y-46856293D01*
X102748453Y-46847024D01*
X102744477Y-46845315D01*
X102741704Y-46847871D01*
X102739376Y-46856418D01*
X102737458Y-46872274D01*
X102735914Y-46896758D01*
X102734708Y-46931187D01*
X102733804Y-46976882D01*
X102733166Y-47035159D01*
X102732759Y-47107338D01*
X102732546Y-47194736D01*
X102732492Y-47286440D01*
X102732391Y-47391997D01*
X102732069Y-47481033D01*
X102731497Y-47554738D01*
X102730646Y-47614304D01*
X102729486Y-47660921D01*
X102727990Y-47695778D01*
X102726128Y-47720068D01*
X102723871Y-47734980D01*
X102721421Y-47741440D01*
X102694278Y-47763196D01*
X102660924Y-47768376D01*
X102648627Y-47766436D01*
X102625171Y-47764534D01*
X102607159Y-47774161D01*
X102600171Y-47780920D01*
X102585941Y-47793970D01*
X102571164Y-47801246D01*
X102549953Y-47804567D01*
X102519939Y-47805687D01*
X102496575Y-47803212D01*
X102484991Y-47793029D01*
X102483183Y-47788537D01*
X102482064Y-47776485D01*
X102480983Y-47748436D01*
X102479965Y-47706107D01*
X102479032Y-47651212D01*
X102478209Y-47585467D01*
X102477518Y-47510590D01*
X102476983Y-47428294D01*
X102476628Y-47340297D01*
X102476541Y-47303462D01*
X102475658Y-46836121D01*
X102451303Y-46841964D01*
X102432110Y-46847454D01*
X102422641Y-46851606D01*
X102421766Y-46860960D01*
X102420946Y-46886271D01*
X102420200Y-46925785D01*
X102419544Y-46977748D01*
X102418999Y-47040403D01*
X102418583Y-47111996D01*
X102418314Y-47190773D01*
X102418212Y-47269675D01*
X102418100Y-47369302D01*
X102417800Y-47452620D01*
X102417272Y-47521028D01*
X102416475Y-47575928D01*
X102415370Y-47618723D01*
X102413917Y-47650812D01*
X102412075Y-47673599D01*
X102409805Y-47688484D01*
X102407066Y-47696868D01*
X102405937Y-47698590D01*
X102398933Y-47710027D01*
X102400379Y-47713237D01*
X102401175Y-47718686D01*
X102395951Y-47726522D01*
X102379596Y-47737838D01*
X102370353Y-47739806D01*
X102354427Y-47744556D01*
X102331723Y-47756488D01*
X102322728Y-47762266D01*
X102303157Y-47774592D01*
X102291301Y-47780184D01*
X102289674Y-47779751D01*
X102282891Y-47779736D01*
X102266450Y-47786492D01*
X102265320Y-47787057D01*
X102241909Y-47795358D01*
X102223252Y-47797257D01*
X102180853Y-47790020D01*
X102154410Y-47780276D01*
X102146612Y-47773332D01*
X102145208Y-47762497D01*
X102143889Y-47735660D01*
X102142682Y-47694536D01*
X102141614Y-47640835D01*
X102140712Y-47576269D01*
X102140003Y-47502552D01*
X102139514Y-47421394D01*
X102139272Y-47334508D01*
X102139252Y-47308059D01*
X102139247Y-47205412D01*
X102139201Y-47119120D01*
X102138971Y-47047826D01*
X102138415Y-46990173D01*
X102137389Y-46944805D01*
X102135749Y-46910363D01*
X102133353Y-46885491D01*
X102130057Y-46868832D01*
X102125717Y-46859029D01*
X102120192Y-46854724D01*
X102113336Y-46854560D01*
X102105008Y-46857181D01*
X102095063Y-46861229D01*
X102092199Y-46862346D01*
X102070698Y-46870521D01*
X102072930Y-47047590D01*
X102073879Y-47102137D01*
X102075221Y-47150778D01*
X102076837Y-47190678D01*
X102078610Y-47219005D01*
X102080419Y-47232924D01*
X102080715Y-47233642D01*
X102080802Y-47245246D01*
X102078461Y-47247452D01*
X102073735Y-47258820D01*
X102073724Y-47276847D01*
X102074792Y-47293659D01*
X102075772Y-47323577D01*
X102076599Y-47361994D01*
X102077207Y-47404303D01*
X102077532Y-47445897D01*
X102077506Y-47482170D01*
X102077066Y-47508514D01*
X102077030Y-47509541D01*
X102076895Y-47523992D01*
X102076946Y-47551275D01*
X102076989Y-47558118D01*
X102072694Y-47553823D01*
X102068266Y-47558251D01*
X102072694Y-47562679D01*
X102076990Y-47558382D01*
X102077169Y-47586511D01*
X102077311Y-47602533D01*
X102077303Y-47650376D01*
X102075939Y-47683312D01*
X102072830Y-47704117D01*
X102067586Y-47715572D01*
X102060795Y-47720156D01*
X102054324Y-47728324D01*
X102055449Y-47731706D01*
X102053175Y-47738794D01*
X102047595Y-47739806D01*
X102033744Y-47747009D01*
X102029151Y-47754358D01*
X102022046Y-47764084D01*
X102018183Y-47763526D01*
X102007166Y-47762917D01*
X101995182Y-47767570D01*
X101982968Y-47772597D01*
X101983584Y-47767259D01*
X101983679Y-47758478D01*
X101980225Y-47757519D01*
X101971211Y-47764312D01*
X101970846Y-47766898D01*
X101965369Y-47772073D01*
X101961602Y-47770564D01*
X101947749Y-47770488D01*
X101940613Y-47774597D01*
X101932481Y-47777423D01*
X101926932Y-47767421D01*
X101923184Y-47748790D01*
X101915900Y-47723012D01*
X101905197Y-47713282D01*
X101904319Y-47713237D01*
X101893089Y-47705977D01*
X101890969Y-47697738D01*
X101890941Y-47685925D01*
X101890929Y-47658240D01*
X101890932Y-47616524D01*
X101890950Y-47562619D01*
X101890981Y-47498364D01*
X101891025Y-47425602D01*
X101891082Y-47346173D01*
X101891137Y-47276050D01*
X101891151Y-47239423D01*
X102068266Y-47239423D01*
X102072694Y-47243851D01*
X102077122Y-47239423D01*
X102072694Y-47234994D01*
X102068266Y-47239423D01*
X101891151Y-47239423D01*
X101891174Y-47180321D01*
X101891076Y-47100845D01*
X101890793Y-47036162D01*
X101890274Y-46984810D01*
X101889469Y-46945331D01*
X101888329Y-46916264D01*
X101886801Y-46896149D01*
X101884836Y-46883526D01*
X101882384Y-46876935D01*
X101879393Y-46874916D01*
X101877299Y-46875300D01*
X101855711Y-46880155D01*
X101846871Y-46880741D01*
X101836582Y-46883922D01*
X101831758Y-46896341D01*
X101830621Y-46920246D01*
X101829234Y-46946753D01*
X101825751Y-46966322D01*
X101824086Y-46970324D01*
X101822693Y-46976754D01*
X101827643Y-46974660D01*
X101834075Y-46975588D01*
X101833194Y-46991667D01*
X101832899Y-46993219D01*
X101830859Y-47011547D01*
X101829156Y-47041659D01*
X101827821Y-47080036D01*
X101826888Y-47123160D01*
X101826389Y-47167514D01*
X101826358Y-47209581D01*
X101826826Y-47245842D01*
X101827828Y-47272781D01*
X101829394Y-47286878D01*
X101830149Y-47288137D01*
X101833064Y-47295450D01*
X101833281Y-47311687D01*
X101830913Y-47328284D01*
X101829570Y-47332414D01*
X101828532Y-47344270D01*
X101828413Y-47372813D01*
X101829219Y-47418343D01*
X101830952Y-47481157D01*
X101831780Y-47507327D01*
X101832329Y-47542941D01*
X101831601Y-47570732D01*
X101829759Y-47586808D01*
X101828369Y-47589248D01*
X101822188Y-47596710D01*
X101818752Y-47613777D01*
X101818668Y-47632472D01*
X101822542Y-47644817D01*
X101824068Y-47645924D01*
X101828703Y-47652364D01*
X101824070Y-47657211D01*
X101813001Y-47671377D01*
X101808597Y-47680684D01*
X101801899Y-47691523D01*
X101792105Y-47686292D01*
X101790666Y-47684880D01*
X101787620Y-47678557D01*
X101784993Y-47665214D01*
X101782726Y-47643465D01*
X101780760Y-47611925D01*
X101779035Y-47569208D01*
X101777493Y-47513927D01*
X101776073Y-47444697D01*
X101774716Y-47360131D01*
X101773752Y-47289463D01*
X101772611Y-47208775D01*
X101771358Y-47133656D01*
X101770037Y-47065936D01*
X101768694Y-47007445D01*
X101767372Y-46960012D01*
X101766116Y-46925468D01*
X101764970Y-46905642D01*
X101764320Y-46901527D01*
X101754485Y-46901605D01*
X101730671Y-46904953D01*
X101696198Y-46911022D01*
X101654382Y-46919262D01*
X101643323Y-46921565D01*
X101594602Y-46931526D01*
X101559279Y-46937767D01*
X101533510Y-46940618D01*
X101513451Y-46940408D01*
X101495257Y-46937467D01*
X101485696Y-46935086D01*
X101450452Y-46923627D01*
X101430671Y-46912486D01*
X101427207Y-46902263D01*
X101432167Y-46897490D01*
X101446066Y-46891970D01*
X101471683Y-46884184D01*
X101503437Y-46875828D01*
X101563454Y-46861120D01*
X101563454Y-46757328D01*
X101563454Y-46653537D01*
X101645375Y-46643389D01*
X101745716Y-46632277D01*
X101855572Y-46622490D01*
X101973464Y-46614022D01*
X102097913Y-46606863D01*
X102227438Y-46601005D01*
X102360559Y-46596440D01*
X102495796Y-46593159D01*
X102631671Y-46591154D01*
X102766702Y-46590416D01*
X102899409Y-46590936D01*
G37*
%TO.C,M2*%
D12*
X148260000Y-43245000D02*
X149640000Y-43245000D01*
X148260000Y-44625000D02*
X148260000Y-43245000D01*
X148260000Y-45895000D02*
X148260000Y-48545000D01*
X148260000Y-45895000D02*
X151020000Y-45895000D01*
X148260000Y-48545000D02*
X151020000Y-48545000D01*
X151020000Y-45895000D02*
X151020000Y-48545000D01*
%TO.C,XT1*%
X145530000Y-32540000D02*
X145530000Y-41260000D01*
X146830000Y-30840000D02*
X145530000Y-32540000D01*
X149650000Y-30840000D02*
X146830000Y-30840000D01*
X149650000Y-30840000D02*
X150950000Y-32540000D01*
X150950000Y-32540000D02*
X150950000Y-41260000D01*
X150950000Y-41260000D02*
X145530000Y-41260000D01*
%TO.C,M1*%
X141780000Y-48080000D02*
X143160000Y-48080000D01*
X141780000Y-49460000D02*
X141780000Y-48080000D01*
X141780000Y-50730000D02*
X141780000Y-53380000D01*
X141780000Y-50730000D02*
X144540000Y-50730000D01*
X141780000Y-53380000D02*
X144540000Y-53380000D01*
X144540000Y-50730000D02*
X144540000Y-53380000D01*
%TD*%
M02*
