%TF.GenerationSoftware,KiCad,Pcbnew,10.0.1*%
%TF.CreationDate,2026-04-24T22:39:49-05:00*%
%TF.ProjectId,barrel-roll,62617272-656c-42d7-926f-6c6c2e6b6963,rev?*%
%TF.SameCoordinates,Original*%
%TF.FileFunction,Copper,L1,Top*%
%TF.FilePolarity,Positive*%
%FSLAX46Y46*%
G04 Gerber Fmt 4.6, Leading zero omitted, Abs format (unit mm)*
G04 Created by KiCad (PCBNEW 10.0.1) date 2026-04-24 22:39:49*
%MOMM*%
%LPD*%
G01*
G04 APERTURE LIST*
G04 Aperture macros list*
%AMRoundRect*
0 Rectangle with rounded corners*
0 $1 Rounding radius*
0 $2 $3 $4 $5 $6 $7 $8 $9 X,Y pos of 4 corners*
0 Add a 4 corners polygon primitive as box body*
4,1,4,$2,$3,$4,$5,$6,$7,$8,$9,$2,$3,0*
0 Add four circle primitives for the rounded corners*
1,1,$1+$1,$2,$3*
1,1,$1+$1,$4,$5*
1,1,$1+$1,$6,$7*
1,1,$1+$1,$8,$9*
0 Add four rect primitives between the rounded corners*
20,1,$1+$1,$2,$3,$4,$5,0*
20,1,$1+$1,$4,$5,$6,$7,0*
20,1,$1+$1,$6,$7,$8,$9,0*
20,1,$1+$1,$8,$9,$2,$3,0*%
G04 Aperture macros list end*
%TA.AperFunction,ComponentPad*%
%ADD10RoundRect,0.250000X-0.550000X-0.550000X0.550000X-0.550000X0.550000X0.550000X-0.550000X0.550000X0*%
%TD*%
%TA.AperFunction,ComponentPad*%
%ADD11R,1.700000X1.700000*%
%TD*%
%TA.AperFunction,ComponentPad*%
%ADD12C,1.700000*%
%TD*%
%TA.AperFunction,SMDPad,CuDef*%
%ADD13RoundRect,0.152400X1.063600X0.609600X-1.063600X0.609600X-1.063600X-0.609600X1.063600X-0.609600X0*%
%TD*%
%TA.AperFunction,ComponentPad*%
%ADD14C,1.524000*%
%TD*%
%TA.AperFunction,SMDPad,CuDef*%
%ADD15RoundRect,0.152400X-1.063600X-0.609600X1.063600X-0.609600X1.063600X0.609600X-1.063600X0.609600X0*%
%TD*%
%TA.AperFunction,ComponentPad*%
%ADD16C,1.600000*%
%TD*%
%TA.AperFunction,ComponentPad*%
%ADD17RoundRect,0.750000X-0.750000X0.750000X-0.750000X-0.750000X0.750000X-0.750000X0.750000X0.750000X0*%
%TD*%
%TA.AperFunction,ComponentPad*%
%ADD18C,3.000000*%
%TD*%
%TA.AperFunction,ViaPad*%
%ADD19C,0.600000*%
%TD*%
%TA.AperFunction,Conductor*%
%ADD20C,0.200000*%
%TD*%
G04 APERTURE END LIST*
D10*
%TO.P,TP3,1,1_1*%
%TO.N,BT1P*%
X143070000Y-32490000D03*
%TD*%
D11*
%TO.P,MX-5A_ESC1,1,VCC_1*%
%TO.N,BT1P*%
X138780000Y-32620000D03*
D12*
%TO.P,MX-5A_ESC1,2,GND_2*%
%TO.N,GND*%
X138780000Y-35160000D03*
%TO.P,MX-5A_ESC1,3,SIG_3*%
%TO.N,Net-(MX-5A_ESC1-SIG)*%
X138780000Y-37700000D03*
%TO.P,MX-5A_ESC1,4,M1_4*%
%TO.N,Net-(MX-5A_ESC1-M1)*%
X138780000Y-40240000D03*
%TO.P,MX-5A_ESC1,5,M2_5*%
%TO.N,Net-(MX-5A_ESC1-M2)*%
X138780000Y-42780000D03*
%TO.P,MX-5A_ESC1,6,M3_6*%
%TO.N,Net-(MX-5A_ESC1-M3)*%
X138780000Y-45320000D03*
%TD*%
D11*
%TO.P,U3,1,M1_1*%
%TO.N,Net-(MX-5A_ESC1-M1)*%
X134460000Y-32060000D03*
D12*
%TO.P,U3,2,M2_2*%
%TO.N,Net-(MX-5A_ESC1-M2)*%
X134460000Y-34600000D03*
%TO.P,U3,3,M3_3*%
%TO.N,Net-(MX-5A_ESC1-M3)*%
X134460000Y-37140000D03*
%TD*%
D13*
%TO.P,U1,1,GPIO26/ADC0/A0_1*%
%TO.N,AIN1*%
X102465000Y-32830000D03*
D14*
X103300000Y-32830000D03*
D13*
%TO.P,U1,2,GPIO27/ADC1/A1_2*%
%TO.N,AIN2*%
X102465000Y-35370000D03*
D14*
X103300000Y-35370000D03*
D13*
%TO.P,U1,3,GPIO28/ADC2/A2_3*%
%TO.N,BIN1*%
X102465000Y-37910000D03*
D14*
X103300000Y-37910000D03*
D13*
%TO.P,U1,4,GPIO29/ADC3/A3_4*%
%TO.N,BIN2*%
X102465000Y-40450000D03*
D14*
X103300000Y-40450000D03*
D13*
%TO.P,U1,5,GPIO6/SDA_5*%
%TO.N,Net-(MX-5A_ESC1-SIG)*%
X102465000Y-42990000D03*
D14*
X103300000Y-42990000D03*
D13*
%TO.P,U1,6,GPIO7/SCL_6*%
%TO.N,unconnected-(U1-GPIO7{slash}SCL-Pad6)*%
X102465000Y-45530000D03*
D14*
X103300000Y-45530000D03*
D13*
%TO.P,U1,7,GPIO0/TX_7*%
%TO.N,Net-(U1-GPIO0{slash}TX)*%
X102465000Y-48070000D03*
D14*
X103300000Y-48070000D03*
%TO.P,U1,8,GPIO1/RX_8*%
%TO.N,Net-(U1-GPIO1{slash}RX)*%
X118540000Y-48070000D03*
D15*
X119375000Y-48070000D03*
D14*
%TO.P,U1,9,GPIO2/SCK_9*%
%TO.N,unconnected-(U1-GPIO2{slash}SCK-Pad9)*%
X118540000Y-45530000D03*
D15*
X119375000Y-45530000D03*
D14*
%TO.P,U1,10,GPIO4/MISO_10*%
%TO.N,unconnected-(U1-GPIO4{slash}MISO-Pad10)*%
X118540000Y-42990000D03*
D15*
X119375000Y-42990000D03*
D14*
%TO.P,U1,11,GPIO3/MOSI_11*%
%TO.N,unconnected-(U1-GPIO3{slash}MOSI-Pad11)*%
X118540000Y-40450000D03*
D15*
X119375000Y-40450000D03*
D14*
%TO.P,U1,12,3V3_12*%
%TO.N,unconnected-(U1-3V3-Pad12)*%
X118540000Y-37910000D03*
D15*
X119375000Y-37910000D03*
D14*
%TO.P,U1,13,GND_13*%
%TO.N,GND*%
X118540000Y-35370000D03*
D15*
X119375000Y-35370000D03*
D14*
%TO.P,U1,14,VBUS_14*%
%TO.N,BT1P*%
X118540000Y-32830000D03*
D15*
X119375000Y-32830000D03*
%TD*%
D10*
%TO.P,TP5,1,1_1*%
%TO.N,GND*%
X142970000Y-43320000D03*
%TD*%
%TO.P,TP4,1,1_1*%
%TO.N,Net-(XT1-Power)*%
X142960000Y-37960000D03*
%TD*%
%TO.P,U2,1,~{SLEEP}_1*%
%TO.N,BT1P*%
X122930000Y-31620000D03*
D16*
%TO.P,U2,2,AOUT1_2*%
%TO.N,AOUT1*%
X122930000Y-34160000D03*
%TO.P,U2,3,AISEN_3*%
%TO.N,GND*%
X122930000Y-36700000D03*
%TO.P,U2,4,AOUT2_4*%
%TO.N,AOUT2*%
X122930000Y-39240000D03*
%TO.P,U2,5,BOUT2_5*%
%TO.N,BOUT2*%
X122930000Y-41780000D03*
%TO.P,U2,6,BISEN_6*%
%TO.N,GND*%
X122930000Y-44320000D03*
%TO.P,U2,7,BOUT1_7*%
%TO.N,BOUT1*%
X122930000Y-46860000D03*
%TO.P,U2,8,~{FAULT}_8*%
%TO.N,unconnected-(U2-~{FAULT}-Pad8)*%
X122930000Y-49400000D03*
%TO.P,U2,9,BIN1_9*%
%TO.N,BIN1*%
X130550000Y-49400000D03*
%TO.P,U2,10,BIN2_10*%
%TO.N,BIN2*%
X130550000Y-46860000D03*
%TO.P,U2,11,VCP_11*%
%TO.N,unconnected-(U2-VCP-Pad11)*%
X130550000Y-44320000D03*
%TO.P,U2,12,VM_12*%
%TO.N,unconnected-(U2-VM-Pad12)*%
X130550000Y-41780000D03*
%TO.P,U2,13,GND_13*%
%TO.N,GND*%
X130550000Y-39240000D03*
%TO.P,U2,14,VINT_14*%
%TO.N,BT1P*%
X130550000Y-36700000D03*
%TO.P,U2,15,AIN2_15*%
%TO.N,AIN2*%
X130550000Y-34160000D03*
%TO.P,U2,16,AIN1_16*%
%TO.N,AIN1*%
X130550000Y-31620000D03*
%TD*%
D11*
%TO.P,U4,1,VCC_1*%
%TO.N,BT1P*%
X134210000Y-50890000D03*
D12*
%TO.P,U4,2,GND_2*%
%TO.N,GND*%
X134210000Y-48350000D03*
%TO.P,U4,3,TX_3*%
%TO.N,Net-(U1-GPIO0{slash}TX)*%
X134210000Y-45810000D03*
%TO.P,U4,4,RX_4*%
%TO.N,Net-(U1-GPIO1{slash}RX)*%
X134210000Y-43270000D03*
%TD*%
D11*
%TO.P,M2,1,+_1*%
%TO.N,AOUT1*%
X149640000Y-44625000D03*
D12*
%TO.P,M2,2,-_2*%
%TO.N,AOUT2*%
X149640000Y-47165000D03*
%TD*%
D17*
%TO.P,XT1,1,Power_1*%
%TO.N,Net-(XT1-Power)*%
X148240000Y-33550000D03*
D18*
%TO.P,XT1,2,GND_2*%
%TO.N,GND*%
X148240000Y-38550000D03*
%TD*%
D11*
%TO.P,M1,1,+_1*%
%TO.N,BOUT1*%
X143160000Y-49460000D03*
D12*
%TO.P,M1,2,-_2*%
%TO.N,BOUT2*%
X143160000Y-52000000D03*
%TD*%
D19*
%TO.N,BOUT1*%
X122590000Y-52540000D03*
%TD*%
%TO.N,BT1P*%
D20*
X118540000Y-32830000D02*
X121720000Y-32830000D01*
X142370471Y-31870471D02*
X142370000Y-31870942D01*
X134490000Y-50610000D02*
X147821346Y-50610000D01*
X151190000Y-38954415D02*
X147585585Y-35350000D01*
X142450471Y-31870471D02*
X142370471Y-31870471D01*
X121720000Y-32830000D02*
X122930000Y-31620000D01*
X147821346Y-50610000D02*
X151190000Y-47241346D01*
X142370000Y-31870942D02*
X142370000Y-32620000D01*
X151190000Y-47241346D02*
X151190000Y-38954415D01*
X143070000Y-32490000D02*
X142450471Y-31870471D01*
X134210000Y-50890000D02*
X134490000Y-50610000D01*
X147585585Y-35350000D02*
X145930000Y-35350000D01*
X145930000Y-35350000D02*
X143070000Y-32490000D01*
%TO.N,GND*%
X121830000Y-37800000D02*
X121830000Y-43220000D01*
X150790000Y-45775000D02*
X150790000Y-41100000D01*
X143165256Y-40050000D02*
X146740000Y-40050000D01*
X145425000Y-45775000D02*
X150790000Y-45775000D01*
X122930000Y-36700000D02*
X121830000Y-37800000D01*
X138780000Y-35160000D02*
X138780000Y-35664744D01*
X121600000Y-35370000D02*
X122930000Y-36700000D01*
X150790000Y-41100000D02*
X148240000Y-38550000D01*
X121830000Y-43220000D02*
X122930000Y-44320000D01*
X118540000Y-35370000D02*
X121600000Y-35370000D01*
X142970000Y-43320000D02*
X145425000Y-45775000D01*
X138780000Y-35664744D02*
X143165256Y-40050000D01*
X146740000Y-40050000D02*
X148240000Y-38550000D01*
%TO.N,Net-(MX-5A_ESC1-SIG)*%
X137630000Y-32930000D02*
X135170000Y-30470000D01*
X100949000Y-41716630D02*
X102222370Y-42990000D01*
X135170000Y-30470000D02*
X102410000Y-30470000D01*
X100949000Y-31931000D02*
X100949000Y-41716630D01*
X137630000Y-36550000D02*
X137630000Y-32930000D01*
X102222370Y-42990000D02*
X103300000Y-42990000D01*
X138780000Y-37700000D02*
X137630000Y-36550000D01*
X102410000Y-30470000D02*
X100949000Y-31931000D01*
%TO.N,Net-(MX-5A_ESC1-M1)*%
X134936346Y-35750000D02*
X133983654Y-35750000D01*
X133310000Y-33210000D02*
X134460000Y-32060000D01*
X138780000Y-39593654D02*
X134936346Y-35750000D01*
X133983654Y-35750000D02*
X133310000Y-35076346D01*
X138780000Y-40240000D02*
X138780000Y-39593654D01*
X133310000Y-35076346D02*
X133310000Y-33210000D01*
%TO.N,AIN1*%
X121223686Y-33892000D02*
X122395686Y-32720000D01*
X122395686Y-32720000D02*
X129450000Y-32720000D01*
X129450000Y-32720000D02*
X130550000Y-31620000D01*
X103300000Y-32830000D02*
X104362000Y-33892000D01*
X104362000Y-33892000D02*
X121223686Y-33892000D01*
%TO.N,Net-(XT1-Power)*%
X141970000Y-31705256D02*
X141970000Y-36970000D01*
X141970000Y-36970000D02*
X142960000Y-37960000D01*
X148240000Y-33550000D02*
X146080000Y-31390000D01*
X142285256Y-31390000D02*
X141970000Y-31705256D01*
X146080000Y-31390000D02*
X142285256Y-31390000D01*
%TO.N,AOUT1*%
X137353654Y-40680000D02*
X138303654Y-41630000D01*
X122930000Y-34160000D02*
X129450000Y-40680000D01*
X138303654Y-41630000D02*
X146645000Y-41630000D01*
X146645000Y-41630000D02*
X149640000Y-44625000D01*
X129450000Y-40680000D02*
X137353654Y-40680000D01*
%TO.N,AOUT2*%
X131345635Y-47960000D02*
X129754365Y-47960000D01*
X124030000Y-40340000D02*
X122930000Y-39240000D01*
X132140635Y-47165000D02*
X131345635Y-47960000D01*
X124030000Y-42235635D02*
X124030000Y-40340000D01*
X129754365Y-47960000D02*
X124030000Y-42235635D01*
X149640000Y-47165000D02*
X132140635Y-47165000D01*
%TO.N,BOUT2*%
X140720000Y-54440000D02*
X143160000Y-52000000D01*
X122930000Y-41780000D02*
X129450000Y-48300000D01*
X129450000Y-49855635D02*
X134034365Y-54440000D01*
X134034365Y-54440000D02*
X140720000Y-54440000D01*
X129450000Y-48300000D02*
X129450000Y-49855635D01*
%TO.N,BOUT1*%
X122590000Y-52540000D02*
X121830000Y-51780000D01*
X121830000Y-47960000D02*
X122930000Y-46860000D01*
X121830000Y-51780000D02*
X121830000Y-47960000D01*
%TD*%
M02*
