M48
; DRILL file KiCad 10.0.1 date 2026-04-24T22:39:59
; FORMAT={-:-/ absolute / metric / decimal}
; #@! TF.CreationDate,2026-04-24T22:39:59-05:00
; #@! TF.GenerationSoftware,Kicad,Pcbnew,10.0.1
; #@! TF.FileFunction,Plated,1,2,PTH
FMAT,2
METRIC
; #@! TA.AperFunction,Plated,PTH,ViaDrill
T1C0.300
; #@! TA.AperFunction,Plated,PTH,ComponentDrill
T2C0.600
; #@! TA.AperFunction,Plated,PTH,ComponentDrill
T3C0.800
; #@! TA.AperFunction,Plated,PTH,ComponentDrill
T4C0.889
; #@! TA.AperFunction,Plated,PTH,ComponentDrill
T5C1.000
; #@! TA.AperFunction,Plated,PTH,ComponentDrill
T6C1.800
%
G90
G05
T1
X122.59Y-52.54
T2
X142.96Y-37.96
X142.97Y-43.32
X143.07Y-32.49
T3
X122.93Y-31.62
X122.93Y-34.16
X122.93Y-36.7
X122.93Y-39.24
X122.93Y-41.78
X122.93Y-44.32
X122.93Y-46.86
X122.93Y-49.4
X130.55Y-31.62
X130.55Y-34.16
X130.55Y-36.7
X130.55Y-39.24
X130.55Y-41.78
X130.55Y-44.32
X130.55Y-46.86
X130.55Y-49.4
T4
X103.3Y-32.83
X103.3Y-35.37
X103.3Y-37.91
X103.3Y-40.45
X103.3Y-42.99
X103.3Y-45.53
X103.3Y-48.07
X118.54Y-32.83
X118.54Y-35.37
X118.54Y-37.91
X118.54Y-40.45
X118.54Y-42.99
X118.54Y-45.53
X118.54Y-48.07
T5
X134.21Y-43.27
X134.21Y-45.81
X134.21Y-48.35
X134.21Y-50.89
X134.46Y-32.06
X134.46Y-34.6
X134.46Y-37.14
X138.78Y-32.62
X138.78Y-35.16
X138.78Y-37.7
X138.78Y-40.24
X138.78Y-42.78
X138.78Y-45.32
X143.16Y-49.46
X143.16Y-52.0
X149.64Y-44.625
X149.64Y-47.165
T6
X148.24Y-33.55
X148.24Y-38.55
M30
