%TF.GenerationSoftware,KiCad,Pcbnew,10.0.1*%
%TF.CreationDate,2026-05-01T20:27:44-05:00*%
%TF.ProjectId,barrel-roll-DIPPCB_pro,62617272-656c-42d7-926f-6c6c2d444950,rev?*%
%TF.SameCoordinates,Original*%
%TF.FileFunction,Copper,L2,Bot*%
%TF.FilePolarity,Positive*%
%FSLAX46Y46*%
G04 Gerber Fmt 4.6, Leading zero omitted, Abs format (unit mm)*
G04 Created by KiCad (PCBNEW 10.0.1) date 2026-05-01 20:27:44*
%MOMM*%
%LPD*%
G01*
G04 APERTURE LIST*
G04 Aperture macros list*
%AMRoundRect*
0 Rectangle with rounded corners*
0 $1 Rounding radius*
0 $2 $3 $4 $5 $6 $7 $8 $9 X,Y pos of 4 corners*
0 Add a 4 corners polygon primitive as box body*
4,1,4,$2,$3,$4,$5,$6,$7,$8,$9,$2,$3,0*
0 Add four circle primitives for the rounded corners*
1,1,$1+$1,$2,$3*
1,1,$1+$1,$4,$5*
1,1,$1+$1,$6,$7*
1,1,$1+$1,$8,$9*
0 Add four rect primitives between the rounded corners*
20,1,$1+$1,$2,$3,$4,$5,0*
20,1,$1+$1,$4,$5,$6,$7,0*
20,1,$1+$1,$6,$7,$8,$9,0*
20,1,$1+$1,$8,$9,$2,$3,0*%
G04 Aperture macros list end*
%TA.AperFunction,ComponentPad*%
%ADD10R,1.700000X1.700000*%
%TD*%
%TA.AperFunction,ComponentPad*%
%ADD11C,1.700000*%
%TD*%
%TA.AperFunction,ComponentPad*%
%ADD12RoundRect,0.250000X-0.550000X-0.550000X0.550000X-0.550000X0.550000X0.550000X-0.550000X0.550000X0*%
%TD*%
%TA.AperFunction,ComponentPad*%
%ADD13C,1.600000*%
%TD*%
%TA.AperFunction,ComponentPad*%
%ADD14C,1.524000*%
%TD*%
%TA.AperFunction,ComponentPad*%
%ADD15RoundRect,0.750000X-0.750000X-0.750000X0.750000X-0.750000X0.750000X0.750000X-0.750000X0.750000X0*%
%TD*%
%TA.AperFunction,ComponentPad*%
%ADD16C,3.000000*%
%TD*%
%TA.AperFunction,ViaPad*%
%ADD17C,0.600000*%
%TD*%
%TA.AperFunction,Conductor*%
%ADD18C,0.200000*%
%TD*%
G04 APERTURE END LIST*
D10*
%TO.P,U4,1,VCC_1*%
%TO.N,BT1P*%
X116560000Y-91210000D03*
D11*
%TO.P,U4,2,GND_2*%
%TO.N,GND*%
X116560000Y-93750000D03*
%TO.P,U4,3,TX_3*%
%TO.N,Net-(U1-GPIO0{slash}TX)*%
X116560000Y-96290000D03*
%TO.P,U4,4,RX_4*%
%TO.N,Net-(U1-GPIO1{slash}RX)*%
X116560000Y-98830000D03*
%TD*%
D10*
%TO.P,U3,1,M1_1*%
%TO.N,Net-(MX-5A_ESC1-M1)*%
X129860000Y-96380000D03*
D11*
%TO.P,U3,2,M2_2*%
%TO.N,Net-(MX-5A_ESC1-M2)*%
X129860000Y-98920000D03*
%TO.P,U3,3,M3_3*%
%TO.N,Net-(MX-5A_ESC1-M3)*%
X129860000Y-101460000D03*
%TD*%
D12*
%TO.P,U2,1,~{SLEEP}_1*%
%TO.N,BT1P*%
X133265000Y-88660000D03*
D13*
%TO.P,U2,2,AOUT1_2*%
%TO.N,AOUT1*%
X133265000Y-91200000D03*
%TO.P,U2,3,AISEN_3*%
%TO.N,GND*%
X133265000Y-93740000D03*
%TO.P,U2,4,AOUT2_4*%
%TO.N,AOUT2*%
X133265000Y-96280000D03*
%TO.P,U2,5,BOUT2_5*%
%TO.N,BOUT2*%
X133265000Y-98820000D03*
%TO.P,U2,6,BISEN_6*%
%TO.N,GND*%
X133265000Y-101360000D03*
%TO.P,U2,7,BOUT1_7*%
%TO.N,BOUT1*%
X133265000Y-103900000D03*
%TO.P,U2,8,~{FAULT}_8*%
%TO.N,unconnected-(U2-~{FAULT}-Pad8)*%
X133265000Y-106440000D03*
%TO.P,U2,9,BIN1_9*%
%TO.N,BIN1*%
X140885000Y-106440000D03*
%TO.P,U2,10,BIN2_10*%
%TO.N,BIN2*%
X140885000Y-103900000D03*
%TO.P,U2,11,VCP_11*%
%TO.N,unconnected-(U2-VCP-Pad11)*%
X140885000Y-101360000D03*
%TO.P,U2,12,VM_12*%
%TO.N,unconnected-(U2-VM-Pad12)*%
X140885000Y-98820000D03*
%TO.P,U2,13,GND_13*%
%TO.N,GND*%
X140885000Y-96280000D03*
%TO.P,U2,14,VINT_14*%
%TO.N,BT1P*%
X140885000Y-93740000D03*
%TO.P,U2,15,AIN2_15*%
%TO.N,AIN2*%
X140885000Y-91200000D03*
%TO.P,U2,16,AIN1_16*%
%TO.N,AIN1*%
X140885000Y-88660000D03*
%TD*%
D14*
%TO.P,U1,1,GPIO26/ADC0/A0_1*%
%TO.N,AIN1*%
X92860000Y-90680000D03*
%TO.P,U1,2,GPIO27/ADC1/A1_2*%
%TO.N,AIN2*%
X92860000Y-93220000D03*
%TO.P,U1,3,GPIO28/ADC2/A2_3*%
%TO.N,BIN1*%
X92860000Y-95760000D03*
%TO.P,U1,4,GPIO29/ADC3/A3_4*%
%TO.N,BIN2*%
X92860000Y-98300000D03*
%TO.P,U1,5,GPIO6/SDA_5*%
%TO.N,Net-(MX-5A_ESC1-SIG)*%
X92860000Y-100840000D03*
%TO.P,U1,6,GPIO7/SCL_6*%
%TO.N,unconnected-(U1-GPIO7{slash}SCL-Pad6)*%
X92860000Y-103380000D03*
%TO.P,U1,7,GPIO0/TX_7*%
%TO.N,Net-(U1-GPIO0{slash}TX)*%
X92860000Y-105920000D03*
%TO.P,U1,8,GPIO1/RX_8*%
%TO.N,Net-(U1-GPIO1{slash}RX)*%
X108100000Y-105920000D03*
%TO.P,U1,9,GPIO2/SCK_9*%
%TO.N,unconnected-(U1-GPIO2{slash}SCK-Pad9)*%
X108100000Y-103380000D03*
%TO.P,U1,10,GPIO4/MISO_10*%
%TO.N,unconnected-(U1-GPIO4{slash}MISO-Pad10)*%
X108100000Y-100840000D03*
%TO.P,U1,11,GPIO3/MOSI_11*%
%TO.N,unconnected-(U1-GPIO3{slash}MOSI-Pad11)*%
X108100000Y-98300000D03*
%TO.P,U1,12,3V3_12*%
%TO.N,unconnected-(U1-3V3-Pad12)*%
X108100000Y-95760000D03*
%TO.P,U1,13,GND_13*%
%TO.N,GND*%
X108100000Y-93220000D03*
%TO.P,U1,14,VBUS_14*%
%TO.N,BT1P*%
X108100000Y-90680000D03*
%TD*%
D12*
%TO.P,TP5,1,1_1*%
%TO.N,GND*%
X119920000Y-99210000D03*
%TD*%
%TO.P,TP4,1,1_1*%
%TO.N,Net-(XT1-Power)*%
X123210000Y-97680000D03*
%TD*%
%TO.P,TP3,1,1_1*%
%TO.N,BT1P*%
X126490000Y-97840000D03*
%TD*%
D10*
%TO.P,MX-5A_ESC1,1,VCC_1*%
%TO.N,BT1P*%
X112620000Y-91200000D03*
D11*
%TO.P,MX-5A_ESC1,2,GND_2*%
%TO.N,GND*%
X112620000Y-93740000D03*
%TO.P,MX-5A_ESC1,3,SIG_3*%
%TO.N,Net-(MX-5A_ESC1-SIG)*%
X112620000Y-96280000D03*
%TO.P,MX-5A_ESC1,4,M1_4*%
%TO.N,Net-(MX-5A_ESC1-M1)*%
X112620000Y-98820000D03*
%TO.P,MX-5A_ESC1,5,M2_5*%
%TO.N,Net-(MX-5A_ESC1-M2)*%
X112620000Y-101360000D03*
%TO.P,MX-5A_ESC1,6,M3_6*%
%TO.N,Net-(MX-5A_ESC1-M3)*%
X112620000Y-103900000D03*
%TD*%
D10*
%TO.P,M2,1,+_1*%
%TO.N,AOUT1*%
X116600000Y-103630000D03*
D11*
%TO.P,M2,2,-_2*%
%TO.N,AOUT2*%
X119140000Y-103630000D03*
%TD*%
D10*
%TO.P,M1,1,+_1*%
%TO.N,BOUT1*%
X123190000Y-101375000D03*
D11*
%TO.P,M1,2,-_2*%
%TO.N,BOUT2*%
X123190000Y-103915000D03*
%TD*%
D15*
%TO.P,XT1,1,Power_1*%
%TO.N,Net-(XT1-Power)*%
X122940000Y-91070000D03*
D16*
%TO.P,XT1,2,GND_2*%
%TO.N,GND*%
X127940000Y-91070000D03*
%TD*%
D17*
%TO.N,Net-(MX-5A_ESC1-M2)*%
X114460000Y-99130000D03*
X118480000Y-96710000D03*
X120070000Y-93970000D03*
X123360000Y-99580000D03*
%TO.N,Net-(MX-5A_ESC1-M1)*%
X124930000Y-93060000D03*
%TO.N,BOUT2*%
X127280000Y-102950000D03*
%TO.N,Net-(MX-5A_ESC1-M3)*%
X127010000Y-100500000D03*
X121200000Y-101540000D03*
X119860000Y-105570000D03*
%TO.N,BIN2*%
X120990000Y-105780000D03*
%TD*%
%TO.N,Net-(MX-5A_ESC1-M2)*%
D18*
X114460000Y-99130000D02*
X114460000Y-99520000D01*
X114460000Y-99520000D02*
X112620000Y-101360000D01*
X118480000Y-95560000D02*
X118480000Y-96710000D01*
X120070000Y-93970000D02*
X118480000Y-95560000D01*
X129200000Y-99580000D02*
X123360000Y-99580000D01*
X129860000Y-98920000D02*
X129200000Y-99580000D01*
%TO.N,Net-(MX-5A_ESC1-M1)*%
X112620000Y-98820000D02*
X114000000Y-97440000D01*
X114000000Y-97440000D02*
X120999570Y-97440000D01*
X120999570Y-97440000D02*
X120999570Y-97370430D01*
X120999570Y-97370430D02*
X124930000Y-93440000D01*
X124930000Y-93440000D02*
X124930000Y-93060000D01*
%TO.N,BOUT2*%
X126315000Y-103915000D02*
X127280000Y-102950000D01*
X123190000Y-103915000D02*
X126315000Y-103915000D01*
%TO.N,Net-(MX-5A_ESC1-M3)*%
X126735000Y-100225000D02*
X127010000Y-100500000D01*
X122040000Y-100225000D02*
X126735000Y-100225000D01*
X121200000Y-101065000D02*
X122040000Y-100225000D01*
X121200000Y-101540000D02*
X121200000Y-101065000D01*
X114290000Y-105570000D02*
X119860000Y-105570000D01*
X112620000Y-103900000D02*
X114290000Y-105570000D01*
%TO.N,Net-(U1-GPIO1{slash}RX)*%
X108100000Y-105920000D02*
X111510000Y-102510000D01*
X111510000Y-102510000D02*
X114082081Y-102510000D01*
X114082081Y-102510000D02*
X116560000Y-100032081D01*
X116560000Y-100032081D02*
X116560000Y-98830000D01*
%TO.N,Net-(U1-GPIO0{slash}TX)*%
X92860000Y-105920000D02*
X91398000Y-104458000D01*
X91398000Y-104458000D02*
X91398000Y-95154419D01*
X91398000Y-95154419D02*
X92254420Y-94298000D01*
X92254420Y-94298000D02*
X111311654Y-94298000D01*
X111311654Y-94298000D02*
X112143654Y-95130000D01*
X112143654Y-95130000D02*
X115400000Y-95130000D01*
X115400000Y-95130000D02*
X116560000Y-96290000D01*
%TO.N,Net-(MX-5A_ESC1-SIG)*%
X92860000Y-100840000D02*
X91798000Y-99778000D01*
X91798000Y-99778000D02*
X91798000Y-95320105D01*
X91798000Y-95320105D02*
X92420105Y-94698000D01*
X92420105Y-94698000D02*
X111038000Y-94698000D01*
X111038000Y-94698000D02*
X112620000Y-96280000D01*
%TO.N,BIN2*%
X120990000Y-105780000D02*
X125802405Y-105780000D01*
X125802405Y-105780000D02*
X128782405Y-102800000D01*
X128782405Y-102800000D02*
X133720635Y-102800000D01*
X133720635Y-102800000D02*
X134850000Y-103929365D01*
X134850000Y-103929365D02*
X134850000Y-104870000D01*
X134850000Y-104870000D02*
X139380000Y-104870000D01*
X139380000Y-104870000D02*
X139460000Y-104790000D01*
X139460000Y-104790000D02*
X139995000Y-104790000D01*
X139995000Y-104790000D02*
X140885000Y-103900000D01*
%TO.N,GND*%
X140885000Y-96280000D02*
X138345000Y-96280000D01*
X138345000Y-96280000D02*
X133265000Y-101360000D01*
%TO.N,AOUT2*%
X119140000Y-103630000D02*
X119140000Y-102385256D01*
X134365000Y-95180000D02*
X133265000Y-96280000D01*
X119140000Y-102385256D02*
X122585256Y-98940000D01*
X128710000Y-97530000D02*
X128710000Y-94199365D01*
X128710000Y-94199365D02*
X132809365Y-90100000D01*
X122585256Y-98940000D02*
X127300000Y-98940000D01*
X127300000Y-98940000D02*
X128710000Y-97530000D01*
X132809365Y-90100000D02*
X133720635Y-90100000D01*
X133720635Y-90100000D02*
X134365000Y-90744365D01*
X134365000Y-90744365D02*
X134365000Y-95180000D01*
%TO.N,AOUT1*%
X133265000Y-91200000D02*
X132165000Y-92300000D01*
X132165000Y-92300000D02*
X132165000Y-98481346D01*
X132165000Y-98481346D02*
X130336346Y-100310000D01*
X130336346Y-100310000D02*
X128462327Y-100310000D01*
X128462327Y-100310000D02*
X126007327Y-102765000D01*
X126007327Y-102765000D02*
X122713654Y-102765000D01*
X122713654Y-102765000D02*
X120658654Y-104820000D01*
X120658654Y-104820000D02*
X117790000Y-104820000D01*
X117790000Y-104820000D02*
X116600000Y-103630000D01*
%TO.N,BIN1*%
X140920000Y-107820000D02*
X140885000Y-107785000D01*
X140885000Y-107785000D02*
X140885000Y-106440000D01*
X92860000Y-95760000D02*
X104305345Y-107205345D01*
X132165000Y-104641936D02*
X132165000Y-106944642D01*
X104305345Y-107205345D02*
X111242685Y-107205345D01*
X111242685Y-107205345D02*
X112025703Y-106422327D01*
X131745509Y-104222445D02*
X132165000Y-104641936D01*
X112025703Y-106422327D02*
X125725764Y-106422327D01*
X125725764Y-106422327D02*
X127925646Y-104222445D01*
X127925646Y-104222445D02*
X131745509Y-104222445D01*
X132165000Y-106944642D02*
X133417961Y-108197603D01*
X133417961Y-108197603D02*
X140629455Y-108150545D01*
X140629455Y-108150545D02*
X140920000Y-107860000D01*
X140920000Y-107860000D02*
X140920000Y-107820000D01*
%TO.N,GND*%
X127940000Y-91070000D02*
X127935256Y-91070000D01*
X127935256Y-91070000D02*
X119920000Y-99085256D01*
X119920000Y-99085256D02*
X119920000Y-99210000D01*
%TO.N,BT1P*%
X140885000Y-93740000D02*
X138345000Y-93740000D01*
X138345000Y-93740000D02*
X133265000Y-88660000D01*
X133265000Y-88660000D02*
X126490000Y-95435000D01*
X126490000Y-95435000D02*
X126490000Y-97840000D01*
%TD*%
M02*
