%TF.GenerationSoftware,KiCad,Pcbnew,10.0.1*%
%TF.CreationDate,2026-04-30T18:50:43-05:00*%
%TF.ProjectId,barrel-roll,62617272-656c-42d7-926f-6c6c2e6b6963,rev?*%
%TF.SameCoordinates,Original*%
%TF.FileFunction,Legend,Top*%
%TF.FilePolarity,Positive*%
%FSLAX46Y46*%
G04 Gerber Fmt 4.6, Leading zero omitted, Abs format (unit mm)*
G04 Created by KiCad (PCBNEW 10.0.1) date 2026-04-30 18:50:43*
%MOMM*%
%LPD*%
G01*
G04 APERTURE LIST*
%ADD10C,0.150000*%
%ADD11C,0.300000*%
%ADD12C,0.106680*%
%ADD13C,0.120000*%
%ADD14C,0.100000*%
%ADD15C,0.127000*%
%ADD16C,0.504000*%
%ADD17C,0.000000*%
G04 APERTURE END LIST*
D10*
X109690112Y-54096009D02*
X109832969Y-54143628D01*
X109832969Y-54143628D02*
X109880588Y-54191247D01*
X109880588Y-54191247D02*
X109928207Y-54286485D01*
X109928207Y-54286485D02*
X109928207Y-54429342D01*
X109928207Y-54429342D02*
X109880588Y-54524580D01*
X109880588Y-54524580D02*
X109832969Y-54572200D01*
X109832969Y-54572200D02*
X109737731Y-54619819D01*
X109737731Y-54619819D02*
X109356779Y-54619819D01*
X109356779Y-54619819D02*
X109356779Y-53619819D01*
X109356779Y-53619819D02*
X109690112Y-53619819D01*
X109690112Y-53619819D02*
X109785350Y-53667438D01*
X109785350Y-53667438D02*
X109832969Y-53715057D01*
X109832969Y-53715057D02*
X109880588Y-53810295D01*
X109880588Y-53810295D02*
X109880588Y-53905533D01*
X109880588Y-53905533D02*
X109832969Y-54000771D01*
X109832969Y-54000771D02*
X109785350Y-54048390D01*
X109785350Y-54048390D02*
X109690112Y-54096009D01*
X109690112Y-54096009D02*
X109356779Y-54096009D01*
X110785350Y-54619819D02*
X110785350Y-54096009D01*
X110785350Y-54096009D02*
X110737731Y-54000771D01*
X110737731Y-54000771D02*
X110642493Y-53953152D01*
X110642493Y-53953152D02*
X110452017Y-53953152D01*
X110452017Y-53953152D02*
X110356779Y-54000771D01*
X110785350Y-54572200D02*
X110690112Y-54619819D01*
X110690112Y-54619819D02*
X110452017Y-54619819D01*
X110452017Y-54619819D02*
X110356779Y-54572200D01*
X110356779Y-54572200D02*
X110309160Y-54476961D01*
X110309160Y-54476961D02*
X110309160Y-54381723D01*
X110309160Y-54381723D02*
X110356779Y-54286485D01*
X110356779Y-54286485D02*
X110452017Y-54238866D01*
X110452017Y-54238866D02*
X110690112Y-54238866D01*
X110690112Y-54238866D02*
X110785350Y-54191247D01*
X111261541Y-54619819D02*
X111261541Y-53953152D01*
X111261541Y-54143628D02*
X111309160Y-54048390D01*
X111309160Y-54048390D02*
X111356779Y-54000771D01*
X111356779Y-54000771D02*
X111452017Y-53953152D01*
X111452017Y-53953152D02*
X111547255Y-53953152D01*
X111880589Y-54619819D02*
X111880589Y-53953152D01*
X111880589Y-54143628D02*
X111928208Y-54048390D01*
X111928208Y-54048390D02*
X111975827Y-54000771D01*
X111975827Y-54000771D02*
X112071065Y-53953152D01*
X112071065Y-53953152D02*
X112166303Y-53953152D01*
X112880589Y-54572200D02*
X112785351Y-54619819D01*
X112785351Y-54619819D02*
X112594875Y-54619819D01*
X112594875Y-54619819D02*
X112499637Y-54572200D01*
X112499637Y-54572200D02*
X112452018Y-54476961D01*
X112452018Y-54476961D02*
X112452018Y-54096009D01*
X112452018Y-54096009D02*
X112499637Y-54000771D01*
X112499637Y-54000771D02*
X112594875Y-53953152D01*
X112594875Y-53953152D02*
X112785351Y-53953152D01*
X112785351Y-53953152D02*
X112880589Y-54000771D01*
X112880589Y-54000771D02*
X112928208Y-54096009D01*
X112928208Y-54096009D02*
X112928208Y-54191247D01*
X112928208Y-54191247D02*
X112452018Y-54286485D01*
X113499637Y-54619819D02*
X113404399Y-54572200D01*
X113404399Y-54572200D02*
X113356780Y-54476961D01*
X113356780Y-54476961D02*
X113356780Y-53619819D01*
X115213923Y-54619819D02*
X114880590Y-54143628D01*
X114642495Y-54619819D02*
X114642495Y-53619819D01*
X114642495Y-53619819D02*
X115023447Y-53619819D01*
X115023447Y-53619819D02*
X115118685Y-53667438D01*
X115118685Y-53667438D02*
X115166304Y-53715057D01*
X115166304Y-53715057D02*
X115213923Y-53810295D01*
X115213923Y-53810295D02*
X115213923Y-53953152D01*
X115213923Y-53953152D02*
X115166304Y-54048390D01*
X115166304Y-54048390D02*
X115118685Y-54096009D01*
X115118685Y-54096009D02*
X115023447Y-54143628D01*
X115023447Y-54143628D02*
X114642495Y-54143628D01*
X115785352Y-54619819D02*
X115690114Y-54572200D01*
X115690114Y-54572200D02*
X115642495Y-54524580D01*
X115642495Y-54524580D02*
X115594876Y-54429342D01*
X115594876Y-54429342D02*
X115594876Y-54143628D01*
X115594876Y-54143628D02*
X115642495Y-54048390D01*
X115642495Y-54048390D02*
X115690114Y-54000771D01*
X115690114Y-54000771D02*
X115785352Y-53953152D01*
X115785352Y-53953152D02*
X115928209Y-53953152D01*
X115928209Y-53953152D02*
X116023447Y-54000771D01*
X116023447Y-54000771D02*
X116071066Y-54048390D01*
X116071066Y-54048390D02*
X116118685Y-54143628D01*
X116118685Y-54143628D02*
X116118685Y-54429342D01*
X116118685Y-54429342D02*
X116071066Y-54524580D01*
X116071066Y-54524580D02*
X116023447Y-54572200D01*
X116023447Y-54572200D02*
X115928209Y-54619819D01*
X115928209Y-54619819D02*
X115785352Y-54619819D01*
X116690114Y-54619819D02*
X116594876Y-54572200D01*
X116594876Y-54572200D02*
X116547257Y-54476961D01*
X116547257Y-54476961D02*
X116547257Y-53619819D01*
X117213924Y-54619819D02*
X117118686Y-54572200D01*
X117118686Y-54572200D02*
X117071067Y-54476961D01*
X117071067Y-54476961D02*
X117071067Y-53619819D01*
D11*
X124593082Y-50219400D02*
X124807368Y-50290828D01*
X124807368Y-50290828D02*
X125164510Y-50290828D01*
X125164510Y-50290828D02*
X125307368Y-50219400D01*
X125307368Y-50219400D02*
X125378796Y-50147971D01*
X125378796Y-50147971D02*
X125450225Y-50005114D01*
X125450225Y-50005114D02*
X125450225Y-49862257D01*
X125450225Y-49862257D02*
X125378796Y-49719400D01*
X125378796Y-49719400D02*
X125307368Y-49647971D01*
X125307368Y-49647971D02*
X125164510Y-49576542D01*
X125164510Y-49576542D02*
X124878796Y-49505114D01*
X124878796Y-49505114D02*
X124735939Y-49433685D01*
X124735939Y-49433685D02*
X124664510Y-49362257D01*
X124664510Y-49362257D02*
X124593082Y-49219400D01*
X124593082Y-49219400D02*
X124593082Y-49076542D01*
X124593082Y-49076542D02*
X124664510Y-48933685D01*
X124664510Y-48933685D02*
X124735939Y-48862257D01*
X124735939Y-48862257D02*
X124878796Y-48790828D01*
X124878796Y-48790828D02*
X125235939Y-48790828D01*
X125235939Y-48790828D02*
X125450225Y-48862257D01*
X125950224Y-49290828D02*
X126235939Y-50290828D01*
X126235939Y-50290828D02*
X126521653Y-49576542D01*
X126521653Y-49576542D02*
X126807367Y-50290828D01*
X126807367Y-50290828D02*
X127093081Y-49290828D01*
X127664510Y-50290828D02*
X127664510Y-49290828D01*
X127664510Y-48790828D02*
X127593082Y-48862257D01*
X127593082Y-48862257D02*
X127664510Y-48933685D01*
X127664510Y-48933685D02*
X127735939Y-48862257D01*
X127735939Y-48862257D02*
X127664510Y-48790828D01*
X127664510Y-48790828D02*
X127664510Y-48933685D01*
X128164511Y-49290828D02*
X128735939Y-49290828D01*
X128378796Y-48790828D02*
X128378796Y-50076542D01*
X128378796Y-50076542D02*
X128450225Y-50219400D01*
X128450225Y-50219400D02*
X128593082Y-50290828D01*
X128593082Y-50290828D02*
X128735939Y-50290828D01*
X129878797Y-50219400D02*
X129735939Y-50290828D01*
X129735939Y-50290828D02*
X129450225Y-50290828D01*
X129450225Y-50290828D02*
X129307368Y-50219400D01*
X129307368Y-50219400D02*
X129235939Y-50147971D01*
X129235939Y-50147971D02*
X129164511Y-50005114D01*
X129164511Y-50005114D02*
X129164511Y-49576542D01*
X129164511Y-49576542D02*
X129235939Y-49433685D01*
X129235939Y-49433685D02*
X129307368Y-49362257D01*
X129307368Y-49362257D02*
X129450225Y-49290828D01*
X129450225Y-49290828D02*
X129735939Y-49290828D01*
X129735939Y-49290828D02*
X129878797Y-49362257D01*
X130521653Y-50290828D02*
X130521653Y-48790828D01*
X131164511Y-50290828D02*
X131164511Y-49505114D01*
X131164511Y-49505114D02*
X131093082Y-49362257D01*
X131093082Y-49362257D02*
X130950225Y-49290828D01*
X130950225Y-49290828D02*
X130735939Y-49290828D01*
X130735939Y-49290828D02*
X130593082Y-49362257D01*
X130593082Y-49362257D02*
X130521653Y-49433685D01*
D10*
X130729524Y-28814819D02*
X131396190Y-29814819D01*
X131396190Y-28814819D02*
X130729524Y-29814819D01*
X131634286Y-28814819D02*
X132205714Y-28814819D01*
X131920000Y-29814819D02*
X131920000Y-28814819D01*
X133062857Y-29814819D02*
X132491429Y-29814819D01*
X132777143Y-29814819D02*
X132777143Y-28814819D01*
X132777143Y-28814819D02*
X132681905Y-28957676D01*
X132681905Y-28957676D02*
X132586667Y-29052914D01*
X132586667Y-29052914D02*
X132491429Y-29100533D01*
X124848571Y-33474700D02*
X125991429Y-33474700D01*
X137848571Y-33474700D02*
X138991429Y-33474700D01*
X138420000Y-34046128D02*
X138420000Y-32903271D01*
X138968095Y-29354819D02*
X138968095Y-30164342D01*
X138968095Y-30164342D02*
X139015714Y-30259580D01*
X139015714Y-30259580D02*
X139063333Y-30307200D01*
X139063333Y-30307200D02*
X139158571Y-30354819D01*
X139158571Y-30354819D02*
X139349047Y-30354819D01*
X139349047Y-30354819D02*
X139444285Y-30307200D01*
X139444285Y-30307200D02*
X139491904Y-30259580D01*
X139491904Y-30259580D02*
X139539523Y-30164342D01*
X139539523Y-30164342D02*
X139539523Y-29354819D01*
X140444285Y-29688152D02*
X140444285Y-30354819D01*
X140206190Y-29307200D02*
X139968095Y-30021485D01*
X139968095Y-30021485D02*
X140587142Y-30021485D01*
X132694819Y-42231904D02*
X133504342Y-42231904D01*
X133504342Y-42231904D02*
X133599580Y-42184285D01*
X133599580Y-42184285D02*
X133647200Y-42136666D01*
X133647200Y-42136666D02*
X133694819Y-42041428D01*
X133694819Y-42041428D02*
X133694819Y-41850952D01*
X133694819Y-41850952D02*
X133647200Y-41755714D01*
X133647200Y-41755714D02*
X133599580Y-41708095D01*
X133599580Y-41708095D02*
X133504342Y-41660476D01*
X133504342Y-41660476D02*
X132694819Y-41660476D01*
X132694819Y-41279523D02*
X132694819Y-40660476D01*
X132694819Y-40660476D02*
X133075771Y-40993809D01*
X133075771Y-40993809D02*
X133075771Y-40850952D01*
X133075771Y-40850952D02*
X133123390Y-40755714D01*
X133123390Y-40755714D02*
X133171009Y-40708095D01*
X133171009Y-40708095D02*
X133266247Y-40660476D01*
X133266247Y-40660476D02*
X133504342Y-40660476D01*
X133504342Y-40660476D02*
X133599580Y-40708095D01*
X133599580Y-40708095D02*
X133647200Y-40755714D01*
X133647200Y-40755714D02*
X133694819Y-40850952D01*
X133694819Y-40850952D02*
X133694819Y-41136666D01*
X133694819Y-41136666D02*
X133647200Y-41231904D01*
X133647200Y-41231904D02*
X133599580Y-41279523D01*
X146153095Y-29184819D02*
X146153095Y-29994342D01*
X146153095Y-29994342D02*
X146200714Y-30089580D01*
X146200714Y-30089580D02*
X146248333Y-30137200D01*
X146248333Y-30137200D02*
X146343571Y-30184819D01*
X146343571Y-30184819D02*
X146534047Y-30184819D01*
X146534047Y-30184819D02*
X146629285Y-30137200D01*
X146629285Y-30137200D02*
X146676904Y-30089580D01*
X146676904Y-30089580D02*
X146724523Y-29994342D01*
X146724523Y-29994342D02*
X146724523Y-29184819D01*
X147153095Y-29280057D02*
X147200714Y-29232438D01*
X147200714Y-29232438D02*
X147295952Y-29184819D01*
X147295952Y-29184819D02*
X147534047Y-29184819D01*
X147534047Y-29184819D02*
X147629285Y-29232438D01*
X147629285Y-29232438D02*
X147676904Y-29280057D01*
X147676904Y-29280057D02*
X147724523Y-29375295D01*
X147724523Y-29375295D02*
X147724523Y-29470533D01*
X147724523Y-29470533D02*
X147676904Y-29613390D01*
X147676904Y-29613390D02*
X147105476Y-30184819D01*
X147105476Y-30184819D02*
X147724523Y-30184819D01*
D12*
X100861450Y-28136391D02*
X100861450Y-28769698D01*
X100861450Y-28769698D02*
X100898704Y-28844204D01*
X100898704Y-28844204D02*
X100935957Y-28881458D01*
X100935957Y-28881458D02*
X101010464Y-28918711D01*
X101010464Y-28918711D02*
X101159477Y-28918711D01*
X101159477Y-28918711D02*
X101233984Y-28881458D01*
X101233984Y-28881458D02*
X101271237Y-28844204D01*
X101271237Y-28844204D02*
X101308490Y-28769698D01*
X101308490Y-28769698D02*
X101308490Y-28136391D01*
X102090810Y-28918711D02*
X101643770Y-28918711D01*
X101867290Y-28918711D02*
X101867290Y-28136391D01*
X101867290Y-28136391D02*
X101792783Y-28248151D01*
X101792783Y-28248151D02*
X101718277Y-28322658D01*
X101718277Y-28322658D02*
X101643770Y-28359911D01*
D10*
X117560952Y-32184819D02*
X117560952Y-31184819D01*
X117560952Y-31184819D02*
X117894285Y-31899104D01*
X117894285Y-31899104D02*
X118227618Y-31184819D01*
X118227618Y-31184819D02*
X118227618Y-32184819D01*
X118608571Y-31184819D02*
X119275237Y-32184819D01*
X119275237Y-31184819D02*
X118608571Y-32184819D01*
X119656190Y-31803866D02*
X120418095Y-31803866D01*
X121370475Y-31184819D02*
X120894285Y-31184819D01*
X120894285Y-31184819D02*
X120846666Y-31661009D01*
X120846666Y-31661009D02*
X120894285Y-31613390D01*
X120894285Y-31613390D02*
X120989523Y-31565771D01*
X120989523Y-31565771D02*
X121227618Y-31565771D01*
X121227618Y-31565771D02*
X121322856Y-31613390D01*
X121322856Y-31613390D02*
X121370475Y-31661009D01*
X121370475Y-31661009D02*
X121418094Y-31756247D01*
X121418094Y-31756247D02*
X121418094Y-31994342D01*
X121418094Y-31994342D02*
X121370475Y-32089580D01*
X121370475Y-32089580D02*
X121322856Y-32137200D01*
X121322856Y-32137200D02*
X121227618Y-32184819D01*
X121227618Y-32184819D02*
X120989523Y-32184819D01*
X120989523Y-32184819D02*
X120894285Y-32137200D01*
X120894285Y-32137200D02*
X120846666Y-32089580D01*
X121799047Y-31899104D02*
X122275237Y-31899104D01*
X121703809Y-32184819D02*
X122037142Y-31184819D01*
X122037142Y-31184819D02*
X122370475Y-32184819D01*
X122465714Y-32280057D02*
X123227618Y-32280057D01*
X123465714Y-31661009D02*
X123799047Y-31661009D01*
X123941904Y-32184819D02*
X123465714Y-32184819D01*
X123465714Y-32184819D02*
X123465714Y-31184819D01*
X123465714Y-31184819D02*
X123941904Y-31184819D01*
X124322857Y-32137200D02*
X124465714Y-32184819D01*
X124465714Y-32184819D02*
X124703809Y-32184819D01*
X124703809Y-32184819D02*
X124799047Y-32137200D01*
X124799047Y-32137200D02*
X124846666Y-32089580D01*
X124846666Y-32089580D02*
X124894285Y-31994342D01*
X124894285Y-31994342D02*
X124894285Y-31899104D01*
X124894285Y-31899104D02*
X124846666Y-31803866D01*
X124846666Y-31803866D02*
X124799047Y-31756247D01*
X124799047Y-31756247D02*
X124703809Y-31708628D01*
X124703809Y-31708628D02*
X124513333Y-31661009D01*
X124513333Y-31661009D02*
X124418095Y-31613390D01*
X124418095Y-31613390D02*
X124370476Y-31565771D01*
X124370476Y-31565771D02*
X124322857Y-31470533D01*
X124322857Y-31470533D02*
X124322857Y-31375295D01*
X124322857Y-31375295D02*
X124370476Y-31280057D01*
X124370476Y-31280057D02*
X124418095Y-31232438D01*
X124418095Y-31232438D02*
X124513333Y-31184819D01*
X124513333Y-31184819D02*
X124751428Y-31184819D01*
X124751428Y-31184819D02*
X124894285Y-31232438D01*
X125894285Y-32089580D02*
X125846666Y-32137200D01*
X125846666Y-32137200D02*
X125703809Y-32184819D01*
X125703809Y-32184819D02*
X125608571Y-32184819D01*
X125608571Y-32184819D02*
X125465714Y-32137200D01*
X125465714Y-32137200D02*
X125370476Y-32041961D01*
X125370476Y-32041961D02*
X125322857Y-31946723D01*
X125322857Y-31946723D02*
X125275238Y-31756247D01*
X125275238Y-31756247D02*
X125275238Y-31613390D01*
X125275238Y-31613390D02*
X125322857Y-31422914D01*
X125322857Y-31422914D02*
X125370476Y-31327676D01*
X125370476Y-31327676D02*
X125465714Y-31232438D01*
X125465714Y-31232438D02*
X125608571Y-31184819D01*
X125608571Y-31184819D02*
X125703809Y-31184819D01*
X125703809Y-31184819D02*
X125846666Y-31232438D01*
X125846666Y-31232438D02*
X125894285Y-31280057D01*
X126846666Y-32184819D02*
X126275238Y-32184819D01*
X126560952Y-32184819D02*
X126560952Y-31184819D01*
X126560952Y-31184819D02*
X126465714Y-31327676D01*
X126465714Y-31327676D02*
X126370476Y-31422914D01*
X126370476Y-31422914D02*
X126275238Y-31470533D01*
%TO.C,XT1*%
D13*
X126710000Y-31950000D02*
X126710000Y-34770000D01*
X126710000Y-31950000D02*
X128410000Y-30650000D01*
X126710000Y-34770000D02*
X128410000Y-36070000D01*
X128410000Y-30650000D02*
X137130000Y-30650000D01*
X128410000Y-36070000D02*
X137130000Y-36070000D01*
X137130000Y-30650000D02*
X137130000Y-36070000D01*
%TO.C,U4*%
X138350000Y-30900000D02*
X139730000Y-30900000D01*
X138350000Y-32280000D02*
X138350000Y-30900000D01*
X138350000Y-33550000D02*
X138350000Y-41280000D01*
X138350000Y-33550000D02*
X141110000Y-33550000D01*
X138350000Y-41280000D02*
X141110000Y-41280000D01*
X141110000Y-33550000D02*
X141110000Y-41280000D01*
%TO.C,U3*%
X134370000Y-37250000D02*
X135750000Y-37250000D01*
X134370000Y-38630000D02*
X134370000Y-37250000D01*
X134370000Y-39900000D02*
X134370000Y-45090000D01*
X134370000Y-39900000D02*
X137130000Y-39900000D01*
X134370000Y-45090000D02*
X137130000Y-45090000D01*
X137130000Y-39900000D02*
X137130000Y-45090000D01*
%TO.C,U2*%
X144265000Y-30730000D02*
X144265000Y-51170000D01*
X144265000Y-51170000D02*
X149565000Y-51170000D01*
X145915000Y-30730000D02*
X144265000Y-30730000D01*
X149565000Y-30730000D02*
X147915000Y-30730000D01*
X149565000Y-51170000D02*
X149565000Y-30730000D01*
X147915000Y-30730000D02*
G75*
G02*
X145915000Y-30730000I-1000000J0D01*
G01*
%TO.C,U1*%
D14*
X101105000Y-49033000D02*
X101105000Y-31888000D01*
X103010000Y-50938000D02*
X116980000Y-50938000D01*
D15*
X105500000Y-29983000D02*
X105503728Y-29072728D01*
X106003728Y-28573000D02*
X113999000Y-28573000D01*
X114499000Y-29073000D02*
X114499000Y-29983000D01*
D14*
X116980000Y-29983000D02*
X103010000Y-29983000D01*
X118885000Y-49033000D02*
X118885000Y-31888000D01*
X101105000Y-31884000D02*
G75*
G02*
X103010000Y-29979000I1905001J-1D01*
G01*
X103010000Y-50938000D02*
G75*
G02*
X101105000Y-49033000I1J1905001D01*
G01*
D15*
X105503728Y-29072728D02*
G75*
G02*
X106003728Y-28573001I500018J-291D01*
G01*
X113999000Y-28573000D02*
G75*
G02*
X114499000Y-29073000I0J-500000D01*
G01*
D14*
X116980000Y-29983000D02*
G75*
G02*
X118885000Y-31888000I0J-1905000D01*
G01*
X118885000Y-49033000D02*
G75*
G02*
X116980000Y-50938000I-1905000J0D01*
G01*
D16*
X101147000Y-30399000D02*
G75*
G02*
X100643000Y-30399000I-252000J0D01*
G01*
X100643000Y-30399000D02*
G75*
G02*
X101147000Y-30399000I252000J0D01*
G01*
X102421000Y-31116000D02*
G75*
G02*
X101917000Y-31116000I-252000J0D01*
G01*
X101917000Y-31116000D02*
G75*
G02*
X102421000Y-31116000I252000J0D01*
G01*
%TO.C,MX-5A_ESC1*%
D13*
X120800000Y-32730000D02*
X122180000Y-32730000D01*
X120800000Y-34110000D02*
X120800000Y-32730000D01*
X120800000Y-35380000D02*
X120800000Y-48190000D01*
X120800000Y-35380000D02*
X123560000Y-35380000D01*
X120800000Y-48190000D02*
X123560000Y-48190000D01*
X123560000Y-35380000D02*
X123560000Y-48190000D01*
%TO.C,M2*%
X125160000Y-39770000D02*
X126540000Y-39770000D01*
X125160000Y-41150000D02*
X125160000Y-39770000D01*
X125160000Y-42420000D02*
X125160000Y-45070000D01*
X125160000Y-42420000D02*
X127920000Y-42420000D01*
X125160000Y-45070000D02*
X127920000Y-45070000D01*
X127920000Y-42420000D02*
X127920000Y-45070000D01*
%TO.C,M1*%
X129390000Y-39710000D02*
X130770000Y-39710000D01*
X129390000Y-41090000D02*
X129390000Y-39710000D01*
X129390000Y-42360000D02*
X129390000Y-45010000D01*
X129390000Y-42360000D02*
X132150000Y-42360000D01*
X129390000Y-45010000D02*
X132150000Y-45010000D01*
X132150000Y-42360000D02*
X132150000Y-45010000D01*
D17*
%TO.C,G\u002A\u002A\u002A*%
G36*
X101071271Y-53646427D02*
G01*
X101066842Y-53650855D01*
X101062414Y-53646427D01*
X101066842Y-53641999D01*
X101071271Y-53646427D01*
G37*
G36*
X100805580Y-53398450D02*
G01*
X100801152Y-53402878D01*
X100796724Y-53398450D01*
X100801152Y-53394021D01*
X100805580Y-53398450D01*
G37*
G36*
X102326851Y-50887419D02*
G01*
X102345942Y-50888750D01*
X102381728Y-50890084D01*
X102433191Y-50891417D01*
X102499312Y-50892744D01*
X102579075Y-50894060D01*
X102671460Y-50895361D01*
X102775451Y-50896641D01*
X102890029Y-50897896D01*
X103014177Y-50899121D01*
X103146875Y-50900312D01*
X103287108Y-50901464D01*
X103433856Y-50902572D01*
X103586101Y-50903631D01*
X103742827Y-50904636D01*
X103903014Y-50905583D01*
X104065645Y-50906467D01*
X104229702Y-50907284D01*
X104394167Y-50908028D01*
X104558022Y-50908694D01*
X104720249Y-50909279D01*
X104879831Y-50909777D01*
X105035749Y-50910184D01*
X105186986Y-50910494D01*
X105332523Y-50910703D01*
X105471343Y-50910807D01*
X105602427Y-50910801D01*
X105724759Y-50910679D01*
X105837319Y-50910437D01*
X105939090Y-50910071D01*
X106029054Y-50909575D01*
X106106193Y-50908945D01*
X106169490Y-50908176D01*
X106217926Y-50907264D01*
X106250483Y-50906203D01*
X106258743Y-50905742D01*
X106411383Y-50895313D01*
X106533290Y-50963968D01*
X106575063Y-50987788D01*
X106608941Y-51008225D01*
X106638115Y-51027783D01*
X106665776Y-51048968D01*
X106695118Y-51074286D01*
X106729331Y-51106242D01*
X106771607Y-51147342D01*
X106790256Y-51165687D01*
X106925315Y-51298753D01*
X106925315Y-51504805D01*
X106925315Y-51710858D01*
X107553628Y-51713301D01*
X108181940Y-51715744D01*
X108214202Y-51746741D01*
X108237649Y-51772801D01*
X108258070Y-51801286D01*
X108263399Y-51810597D01*
X108266028Y-51816158D01*
X108268367Y-51822729D01*
X108270434Y-51831310D01*
X108272243Y-51842899D01*
X108273810Y-51858497D01*
X108275151Y-51879103D01*
X108276281Y-51905716D01*
X108277215Y-51939335D01*
X108277970Y-51980960D01*
X108278559Y-52031589D01*
X108279000Y-52092223D01*
X108279308Y-52163860D01*
X108279498Y-52247500D01*
X108279585Y-52344143D01*
X108279585Y-52454786D01*
X108279514Y-52580431D01*
X108279387Y-52722076D01*
X108279270Y-52833505D01*
X108279083Y-52988791D01*
X108278863Y-53127347D01*
X108278597Y-53250154D01*
X108278270Y-53358193D01*
X108277869Y-53452447D01*
X108277377Y-53533898D01*
X108276783Y-53603527D01*
X108276069Y-53662317D01*
X108275224Y-53711248D01*
X108274232Y-53751304D01*
X108273078Y-53783465D01*
X108271749Y-53808714D01*
X108270230Y-53828032D01*
X108268507Y-53842401D01*
X108266565Y-53852804D01*
X108264390Y-53860222D01*
X108264252Y-53860592D01*
X108250299Y-53897630D01*
X108174540Y-53901082D01*
X108151633Y-53901760D01*
X108112891Y-53902472D01*
X108060193Y-53903201D01*
X107995416Y-53903928D01*
X107920439Y-53904635D01*
X107837140Y-53905304D01*
X107747397Y-53905916D01*
X107653087Y-53906455D01*
X107585113Y-53906779D01*
X107457329Y-53907382D01*
X107346168Y-53908014D01*
X107250540Y-53908699D01*
X107169355Y-53909460D01*
X107101523Y-53910318D01*
X107045954Y-53911298D01*
X107001559Y-53912422D01*
X106967247Y-53913714D01*
X106941929Y-53915196D01*
X106924515Y-53916891D01*
X106913914Y-53918822D01*
X106909038Y-53921012D01*
X106909014Y-53921035D01*
X106907264Y-53931071D01*
X106905225Y-53956512D01*
X106903013Y-53995053D01*
X106900742Y-54044393D01*
X106898528Y-54102227D01*
X106896488Y-54166252D01*
X106896201Y-54176329D01*
X106889229Y-54425786D01*
X106763356Y-54552227D01*
X106718748Y-54596706D01*
X106682904Y-54631224D01*
X106652298Y-54658573D01*
X106623406Y-54681548D01*
X106592700Y-54702943D01*
X106556657Y-54725551D01*
X106511750Y-54752166D01*
X106509112Y-54753709D01*
X106380740Y-54828749D01*
X105929021Y-54829408D01*
X105871197Y-54829518D01*
X105796902Y-54829701D01*
X105707378Y-54829954D01*
X105603867Y-54830271D01*
X105487611Y-54830649D01*
X105359853Y-54831082D01*
X105221833Y-54831566D01*
X105074795Y-54832097D01*
X104919979Y-54832670D01*
X104758628Y-54833281D01*
X104591983Y-54833925D01*
X104421288Y-54834598D01*
X104247782Y-54835295D01*
X104072709Y-54836011D01*
X103897310Y-54836743D01*
X103869876Y-54836859D01*
X102937765Y-54840798D01*
X102262449Y-54843652D01*
X102173886Y-54773384D01*
X102139090Y-54744477D01*
X102095602Y-54706360D01*
X102047169Y-54662431D01*
X101997538Y-54616088D01*
X101950456Y-54570732D01*
X101950263Y-54570542D01*
X101815204Y-54437967D01*
X101815204Y-54320392D01*
X101814941Y-54276039D01*
X101814209Y-54218526D01*
X101813085Y-54152396D01*
X101811651Y-54082194D01*
X101809986Y-54012461D01*
X101809363Y-53988973D01*
X101803522Y-53775128D01*
X101783733Y-53823816D01*
X101766641Y-53864310D01*
X101752682Y-53890819D01*
X101738867Y-53905980D01*
X101722206Y-53912428D01*
X101699708Y-53912799D01*
X101684336Y-53911428D01*
X101654855Y-53908056D01*
X101632083Y-53904844D01*
X101623389Y-53903111D01*
X101618073Y-53895656D01*
X101613213Y-53875821D01*
X101608640Y-53842325D01*
X101604186Y-53793885D01*
X101599682Y-53729221D01*
X101598945Y-53717278D01*
X101598201Y-53699187D01*
X101597151Y-53665056D01*
X101595837Y-53616553D01*
X101594297Y-53555348D01*
X101592571Y-53483109D01*
X101590700Y-53401506D01*
X101588721Y-53312208D01*
X101586676Y-53216883D01*
X101584603Y-53117201D01*
X101584158Y-53095343D01*
X101581596Y-52963641D01*
X101579607Y-52847214D01*
X101578187Y-52743634D01*
X101577473Y-52665369D01*
X102514855Y-52665369D01*
X102514855Y-52872565D01*
X102514855Y-53079760D01*
X102726310Y-53291077D01*
X102937765Y-53502394D01*
X104240559Y-53498933D01*
X105543354Y-53495472D01*
X105674171Y-53366308D01*
X105731426Y-53310941D01*
X105778860Y-53267744D01*
X105818074Y-53235349D01*
X105850670Y-53212389D01*
X105863024Y-53205092D01*
X105894923Y-53186019D01*
X105923197Y-53166585D01*
X105941823Y-53150936D01*
X105942061Y-53150685D01*
X105960844Y-53134938D01*
X105977131Y-53128218D01*
X105986477Y-53132073D01*
X105987220Y-53134973D01*
X105989818Y-53148280D01*
X105992519Y-53159328D01*
X105996374Y-53183210D01*
X105997169Y-53197570D01*
X105998531Y-53211698D01*
X106005368Y-53210138D01*
X106011797Y-53204432D01*
X106052629Y-53167538D01*
X106091110Y-53135214D01*
X106124526Y-53109572D01*
X106150163Y-53092721D01*
X106162747Y-53087098D01*
X106182412Y-53081672D01*
X106192453Y-53077874D01*
X106194319Y-53068337D01*
X106195942Y-53043611D01*
X106197248Y-53006216D01*
X106198163Y-52958675D01*
X106198611Y-52903509D01*
X106198628Y-52868760D01*
X106198161Y-52663373D01*
X105983862Y-52444308D01*
X105769562Y-52225243D01*
X104361544Y-52224544D01*
X102953527Y-52223846D01*
X102734191Y-52444608D01*
X102514855Y-52665369D01*
X101577473Y-52665369D01*
X101577337Y-52650473D01*
X101577054Y-52565302D01*
X101577338Y-52485692D01*
X101578187Y-52409216D01*
X101579599Y-52333445D01*
X101581574Y-52255951D01*
X101583673Y-52187567D01*
X101587138Y-52083726D01*
X101590255Y-51996149D01*
X101593120Y-51923396D01*
X101595833Y-51864024D01*
X101598492Y-51816590D01*
X101601195Y-51779654D01*
X101604041Y-51751773D01*
X101607127Y-51731505D01*
X101610553Y-51717408D01*
X101614417Y-51708040D01*
X101616617Y-51704578D01*
X101625231Y-51695193D01*
X101635160Y-51694449D01*
X101652768Y-51702435D01*
X101657916Y-51705166D01*
X101682730Y-51720324D01*
X101707101Y-51738234D01*
X101726799Y-51755394D01*
X101737595Y-51768303D01*
X101738417Y-51771815D01*
X101740620Y-51783998D01*
X101748456Y-51804777D01*
X101759217Y-51828370D01*
X101770195Y-51848991D01*
X101778680Y-51860858D01*
X101780591Y-51861874D01*
X101784814Y-51868276D01*
X101783609Y-51873522D01*
X101783265Y-51890107D01*
X101787753Y-51906734D01*
X101790286Y-51905418D01*
X101792402Y-51887590D01*
X101794107Y-51853027D01*
X101795410Y-51801508D01*
X101796316Y-51732810D01*
X101796833Y-51646711D01*
X101796929Y-51609127D01*
X101797491Y-51289959D01*
X101945835Y-51143579D01*
X101993304Y-51097497D01*
X102041890Y-51051678D01*
X102088469Y-51008970D01*
X102129916Y-50972224D01*
X102163108Y-50944290D01*
X102171865Y-50937377D01*
X102249552Y-50877555D01*
X102326851Y-50887419D01*
G37*
G36*
X100501798Y-51693739D02*
G01*
X100543768Y-51694347D01*
X100579636Y-51695898D01*
X100605462Y-51698154D01*
X100617086Y-51700720D01*
X100626767Y-51715144D01*
X100636851Y-51745178D01*
X100646873Y-51788744D01*
X100656365Y-51843761D01*
X100664861Y-51908149D01*
X100666125Y-51919440D01*
X100677735Y-52025716D01*
X101100271Y-52028016D01*
X101522807Y-52030316D01*
X101519634Y-52050157D01*
X101522324Y-52071288D01*
X101533050Y-52093594D01*
X101542013Y-52110309D01*
X101541870Y-52119792D01*
X101541164Y-52120163D01*
X101535667Y-52130000D01*
X101531622Y-52151390D01*
X101530684Y-52162989D01*
X101526639Y-52196957D01*
X101519081Y-52224101D01*
X101509453Y-52240148D01*
X101503810Y-52242696D01*
X101495274Y-52246137D01*
X101499191Y-52253798D01*
X101512320Y-52261693D01*
X101521558Y-52264533D01*
X101536038Y-52268510D01*
X101542608Y-52275380D01*
X101542911Y-52290053D01*
X101538808Y-52316161D01*
X101531435Y-52356830D01*
X101526048Y-52381378D01*
X101522515Y-52391040D01*
X101519623Y-52400257D01*
X101515152Y-52411485D01*
X101504876Y-52432740D01*
X101496375Y-52449221D01*
X101483163Y-52478798D01*
X101481721Y-52495141D01*
X101483737Y-52497571D01*
X101496411Y-52513390D01*
X101505117Y-52535902D01*
X101506240Y-52550455D01*
X101511697Y-52560059D01*
X101518347Y-52561525D01*
X101531418Y-52568947D01*
X101540876Y-52584242D01*
X101548203Y-52607371D01*
X101546709Y-52621246D01*
X101535368Y-52632517D01*
X101533187Y-52634088D01*
X101518932Y-52649448D01*
X101504146Y-52672948D01*
X101501136Y-52678967D01*
X101481882Y-52706872D01*
X101462541Y-52718014D01*
X101448917Y-52719118D01*
X101419592Y-52719868D01*
X101376575Y-52720264D01*
X101321874Y-52720308D01*
X101257498Y-52720000D01*
X101185455Y-52719342D01*
X101107754Y-52718334D01*
X101076130Y-52717843D01*
X100964352Y-52716220D01*
X100869187Y-52715294D01*
X100789552Y-52715104D01*
X100724358Y-52715687D01*
X100672522Y-52717082D01*
X100632956Y-52719327D01*
X100604575Y-52722460D01*
X100586293Y-52726521D01*
X100577024Y-52731547D01*
X100575315Y-52735523D01*
X100577871Y-52738296D01*
X100586418Y-52740624D01*
X100602274Y-52742542D01*
X100626758Y-52744086D01*
X100661187Y-52745292D01*
X100706882Y-52746196D01*
X100765159Y-52746834D01*
X100837338Y-52747241D01*
X100924736Y-52747454D01*
X101016440Y-52747508D01*
X101121997Y-52747609D01*
X101211033Y-52747931D01*
X101284738Y-52748503D01*
X101344304Y-52749354D01*
X101390921Y-52750514D01*
X101425778Y-52752010D01*
X101450068Y-52753872D01*
X101464980Y-52756129D01*
X101471440Y-52758579D01*
X101493196Y-52785722D01*
X101498376Y-52819076D01*
X101496436Y-52831373D01*
X101494534Y-52854829D01*
X101504161Y-52872841D01*
X101510920Y-52879829D01*
X101523970Y-52894059D01*
X101531246Y-52908836D01*
X101534567Y-52930047D01*
X101535687Y-52960061D01*
X101533212Y-52983425D01*
X101523029Y-52995009D01*
X101518537Y-52996817D01*
X101506485Y-52997936D01*
X101478436Y-52999017D01*
X101436107Y-53000035D01*
X101381212Y-53000968D01*
X101315467Y-53001791D01*
X101240590Y-53002482D01*
X101158294Y-53003017D01*
X101070297Y-53003372D01*
X101033462Y-53003459D01*
X100566121Y-53004342D01*
X100571964Y-53028697D01*
X100577454Y-53047890D01*
X100581606Y-53057359D01*
X100590960Y-53058234D01*
X100616271Y-53059054D01*
X100655785Y-53059800D01*
X100707748Y-53060456D01*
X100770403Y-53061001D01*
X100841996Y-53061417D01*
X100920773Y-53061686D01*
X100999675Y-53061788D01*
X101099302Y-53061900D01*
X101182620Y-53062200D01*
X101251028Y-53062728D01*
X101305928Y-53063525D01*
X101348723Y-53064630D01*
X101380812Y-53066083D01*
X101403599Y-53067925D01*
X101418484Y-53070195D01*
X101426868Y-53072934D01*
X101428590Y-53074063D01*
X101440027Y-53081067D01*
X101443237Y-53079621D01*
X101448686Y-53078825D01*
X101456522Y-53084049D01*
X101467838Y-53100404D01*
X101469806Y-53109647D01*
X101474556Y-53125573D01*
X101486488Y-53148277D01*
X101492266Y-53157272D01*
X101504592Y-53176843D01*
X101510184Y-53188699D01*
X101509751Y-53190326D01*
X101509736Y-53197109D01*
X101516492Y-53213550D01*
X101517057Y-53214680D01*
X101525358Y-53238091D01*
X101527257Y-53256748D01*
X101520020Y-53299147D01*
X101510276Y-53325590D01*
X101503332Y-53333388D01*
X101492497Y-53334792D01*
X101465660Y-53336111D01*
X101424536Y-53337318D01*
X101370835Y-53338386D01*
X101306269Y-53339288D01*
X101232552Y-53339997D01*
X101151394Y-53340486D01*
X101064508Y-53340728D01*
X101038059Y-53340748D01*
X100935412Y-53340753D01*
X100849120Y-53340799D01*
X100777826Y-53341029D01*
X100720173Y-53341585D01*
X100674805Y-53342611D01*
X100640363Y-53344251D01*
X100615491Y-53346647D01*
X100598832Y-53349943D01*
X100589029Y-53354283D01*
X100584724Y-53359808D01*
X100584560Y-53366664D01*
X100587181Y-53374992D01*
X100591229Y-53384937D01*
X100592346Y-53387801D01*
X100600521Y-53409302D01*
X100758868Y-53407306D01*
X100964994Y-53407306D01*
X100969423Y-53411734D01*
X100973851Y-53407306D01*
X100969423Y-53402878D01*
X100964994Y-53407306D01*
X100758868Y-53407306D01*
X100777590Y-53407070D01*
X100832137Y-53406121D01*
X100880778Y-53404779D01*
X100920678Y-53403163D01*
X100949005Y-53401390D01*
X100962924Y-53399581D01*
X100963642Y-53399285D01*
X100975246Y-53399198D01*
X100977452Y-53401539D01*
X100988820Y-53406265D01*
X101006847Y-53406276D01*
X101023659Y-53405208D01*
X101053577Y-53404228D01*
X101091994Y-53403401D01*
X101134303Y-53402793D01*
X101175897Y-53402468D01*
X101212170Y-53402494D01*
X101238514Y-53402934D01*
X101239541Y-53402970D01*
X101253992Y-53403105D01*
X101281275Y-53403054D01*
X101288118Y-53403011D01*
X101283823Y-53407306D01*
X101288251Y-53411734D01*
X101292679Y-53407306D01*
X101288382Y-53403010D01*
X101316511Y-53402831D01*
X101332533Y-53402689D01*
X101380376Y-53402697D01*
X101413312Y-53404061D01*
X101434117Y-53407170D01*
X101445572Y-53412414D01*
X101450156Y-53419205D01*
X101458324Y-53425676D01*
X101461706Y-53424551D01*
X101468794Y-53426825D01*
X101469806Y-53432405D01*
X101477009Y-53446256D01*
X101484358Y-53450849D01*
X101494084Y-53457954D01*
X101493526Y-53461817D01*
X101492917Y-53472834D01*
X101497570Y-53484818D01*
X101502597Y-53497032D01*
X101497259Y-53496416D01*
X101488478Y-53496321D01*
X101487519Y-53499775D01*
X101494312Y-53508789D01*
X101496898Y-53509154D01*
X101502073Y-53514631D01*
X101500564Y-53518398D01*
X101500488Y-53532251D01*
X101504597Y-53539387D01*
X101507423Y-53547519D01*
X101497421Y-53553068D01*
X101478790Y-53556816D01*
X101453012Y-53564100D01*
X101443282Y-53574803D01*
X101443237Y-53575681D01*
X101435977Y-53586911D01*
X101427738Y-53589031D01*
X101415925Y-53589059D01*
X101388240Y-53589071D01*
X101346524Y-53589068D01*
X101292619Y-53589050D01*
X101228364Y-53589019D01*
X101155602Y-53588975D01*
X101076173Y-53588918D01*
X101006050Y-53588863D01*
X100969423Y-53588849D01*
X100910321Y-53588826D01*
X100830845Y-53588924D01*
X100766162Y-53589207D01*
X100714810Y-53589726D01*
X100675331Y-53590531D01*
X100646264Y-53591671D01*
X100626149Y-53593199D01*
X100613526Y-53595164D01*
X100606935Y-53597616D01*
X100604916Y-53600607D01*
X100605300Y-53602701D01*
X100610155Y-53624289D01*
X100610741Y-53633129D01*
X100613922Y-53643418D01*
X100626341Y-53648242D01*
X100650246Y-53649379D01*
X100676753Y-53650766D01*
X100696322Y-53654249D01*
X100700324Y-53655914D01*
X100706754Y-53657307D01*
X100704660Y-53652357D01*
X100705588Y-53645925D01*
X100721667Y-53646806D01*
X100723219Y-53647101D01*
X100741547Y-53649141D01*
X100771659Y-53650844D01*
X100810036Y-53652179D01*
X100853160Y-53653112D01*
X100897514Y-53653611D01*
X100939581Y-53653642D01*
X100975842Y-53653174D01*
X101002781Y-53652172D01*
X101016878Y-53650606D01*
X101018137Y-53649851D01*
X101025450Y-53646936D01*
X101041687Y-53646719D01*
X101058284Y-53649087D01*
X101062414Y-53650430D01*
X101074270Y-53651468D01*
X101102813Y-53651587D01*
X101148343Y-53650781D01*
X101211157Y-53649048D01*
X101237327Y-53648220D01*
X101272941Y-53647671D01*
X101300732Y-53648399D01*
X101316808Y-53650241D01*
X101319248Y-53651631D01*
X101326710Y-53657812D01*
X101343777Y-53661248D01*
X101362472Y-53661332D01*
X101374817Y-53657458D01*
X101375924Y-53655932D01*
X101382364Y-53651297D01*
X101387211Y-53655930D01*
X101401377Y-53666999D01*
X101410684Y-53671403D01*
X101421523Y-53678101D01*
X101416292Y-53687895D01*
X101414880Y-53689334D01*
X101408557Y-53692380D01*
X101395214Y-53695007D01*
X101373465Y-53697274D01*
X101341925Y-53699240D01*
X101299208Y-53700965D01*
X101243927Y-53702507D01*
X101174697Y-53703927D01*
X101090131Y-53705284D01*
X101019463Y-53706248D01*
X100938775Y-53707389D01*
X100863656Y-53708642D01*
X100795936Y-53709963D01*
X100737445Y-53711306D01*
X100690012Y-53712628D01*
X100655468Y-53713884D01*
X100635642Y-53715030D01*
X100631527Y-53715680D01*
X100631605Y-53725515D01*
X100634953Y-53749329D01*
X100641022Y-53783802D01*
X100649262Y-53825618D01*
X100651565Y-53836677D01*
X100661526Y-53885398D01*
X100667767Y-53920721D01*
X100670618Y-53946490D01*
X100670408Y-53966549D01*
X100667467Y-53984743D01*
X100665086Y-53994304D01*
X100653627Y-54029548D01*
X100642486Y-54049329D01*
X100632263Y-54052793D01*
X100627490Y-54047833D01*
X100621970Y-54033934D01*
X100614184Y-54008317D01*
X100605828Y-53976563D01*
X100591120Y-53916546D01*
X100487328Y-53916546D01*
X100383537Y-53916546D01*
X100373389Y-53834625D01*
X100362277Y-53734284D01*
X100352490Y-53624428D01*
X100344022Y-53506536D01*
X100336863Y-53382087D01*
X100331005Y-53252562D01*
X100326440Y-53119441D01*
X100323159Y-52984204D01*
X100321154Y-52848329D01*
X100320416Y-52713298D01*
X100320936Y-52580591D01*
X100322708Y-52451686D01*
X100325721Y-52328064D01*
X100329967Y-52211205D01*
X100335438Y-52102588D01*
X100342126Y-52003694D01*
X100350023Y-51916003D01*
X100359118Y-51840994D01*
X100369405Y-51780147D01*
X100380875Y-51734942D01*
X100385454Y-51722386D01*
X100397284Y-51693603D01*
X100501798Y-51693739D01*
G37*
%TD*%
M02*
