%TF.GenerationSoftware,KiCad,Pcbnew,10.0.1*%
%TF.CreationDate,2026-06-06T17:41:07-05:00*%
%TF.ProjectId,barrel-roll,62617272-656c-42d7-926f-6c6c2e6b6963,rev?*%
%TF.SameCoordinates,Original*%
%TF.FileFunction,AssemblyDrawing,Top*%
%FSLAX46Y46*%
G04 Gerber Fmt 4.6, Leading zero omitted, Abs format (unit mm)*
G04 Created by KiCad (PCBNEW 10.0.1) date 2026-06-06 17:41:07*
%MOMM*%
%LPD*%
G01*
G04 APERTURE LIST*
%ADD10C,0.150000*%
%ADD11C,0.040000*%
%ADD12C,0.101600*%
%ADD13C,0.100000*%
%ADD14C,0.504000*%
G04 APERTURE END LIST*
D10*
X121918095Y-49263866D02*
X121965714Y-49216247D01*
X121965714Y-49216247D02*
X122060952Y-49168628D01*
X122060952Y-49168628D02*
X122251428Y-49263866D01*
X122251428Y-49263866D02*
X122346666Y-49216247D01*
X122346666Y-49216247D02*
X122394285Y-49168628D01*
X122634819Y-45079047D02*
X121634819Y-45079047D01*
X121634819Y-45079047D02*
X122349104Y-44745714D01*
X122349104Y-44745714D02*
X121634819Y-44412381D01*
X121634819Y-44412381D02*
X122634819Y-44412381D01*
X121634819Y-44031428D02*
X122634819Y-43364762D01*
X121634819Y-43364762D02*
X122634819Y-44031428D01*
X122253866Y-42983809D02*
X122253866Y-42221905D01*
X121634819Y-41269524D02*
X121634819Y-41745714D01*
X121634819Y-41745714D02*
X122111009Y-41793333D01*
X122111009Y-41793333D02*
X122063390Y-41745714D01*
X122063390Y-41745714D02*
X122015771Y-41650476D01*
X122015771Y-41650476D02*
X122015771Y-41412381D01*
X122015771Y-41412381D02*
X122063390Y-41317143D01*
X122063390Y-41317143D02*
X122111009Y-41269524D01*
X122111009Y-41269524D02*
X122206247Y-41221905D01*
X122206247Y-41221905D02*
X122444342Y-41221905D01*
X122444342Y-41221905D02*
X122539580Y-41269524D01*
X122539580Y-41269524D02*
X122587200Y-41317143D01*
X122587200Y-41317143D02*
X122634819Y-41412381D01*
X122634819Y-41412381D02*
X122634819Y-41650476D01*
X122634819Y-41650476D02*
X122587200Y-41745714D01*
X122587200Y-41745714D02*
X122539580Y-41793333D01*
X122349104Y-40840952D02*
X122349104Y-40364762D01*
X122634819Y-40936190D02*
X121634819Y-40602857D01*
X121634819Y-40602857D02*
X122634819Y-40269524D01*
X122730057Y-40174286D02*
X122730057Y-39412381D01*
X122111009Y-39174285D02*
X122111009Y-38840952D01*
X122634819Y-38698095D02*
X122634819Y-39174285D01*
X122634819Y-39174285D02*
X121634819Y-39174285D01*
X121634819Y-39174285D02*
X121634819Y-38698095D01*
X122587200Y-38317142D02*
X122634819Y-38174285D01*
X122634819Y-38174285D02*
X122634819Y-37936190D01*
X122634819Y-37936190D02*
X122587200Y-37840952D01*
X122587200Y-37840952D02*
X122539580Y-37793333D01*
X122539580Y-37793333D02*
X122444342Y-37745714D01*
X122444342Y-37745714D02*
X122349104Y-37745714D01*
X122349104Y-37745714D02*
X122253866Y-37793333D01*
X122253866Y-37793333D02*
X122206247Y-37840952D01*
X122206247Y-37840952D02*
X122158628Y-37936190D01*
X122158628Y-37936190D02*
X122111009Y-38126666D01*
X122111009Y-38126666D02*
X122063390Y-38221904D01*
X122063390Y-38221904D02*
X122015771Y-38269523D01*
X122015771Y-38269523D02*
X121920533Y-38317142D01*
X121920533Y-38317142D02*
X121825295Y-38317142D01*
X121825295Y-38317142D02*
X121730057Y-38269523D01*
X121730057Y-38269523D02*
X121682438Y-38221904D01*
X121682438Y-38221904D02*
X121634819Y-38126666D01*
X121634819Y-38126666D02*
X121634819Y-37888571D01*
X121634819Y-37888571D02*
X121682438Y-37745714D01*
X122539580Y-36745714D02*
X122587200Y-36793333D01*
X122587200Y-36793333D02*
X122634819Y-36936190D01*
X122634819Y-36936190D02*
X122634819Y-37031428D01*
X122634819Y-37031428D02*
X122587200Y-37174285D01*
X122587200Y-37174285D02*
X122491961Y-37269523D01*
X122491961Y-37269523D02*
X122396723Y-37317142D01*
X122396723Y-37317142D02*
X122206247Y-37364761D01*
X122206247Y-37364761D02*
X122063390Y-37364761D01*
X122063390Y-37364761D02*
X121872914Y-37317142D01*
X121872914Y-37317142D02*
X121777676Y-37269523D01*
X121777676Y-37269523D02*
X121682438Y-37174285D01*
X121682438Y-37174285D02*
X121634819Y-37031428D01*
X121634819Y-37031428D02*
X121634819Y-36936190D01*
X121634819Y-36936190D02*
X121682438Y-36793333D01*
X121682438Y-36793333D02*
X121730057Y-36745714D01*
X122634819Y-35793333D02*
X122634819Y-36364761D01*
X122634819Y-36079047D02*
X121634819Y-36079047D01*
X121634819Y-36079047D02*
X121777676Y-36174285D01*
X121777676Y-36174285D02*
X121872914Y-36269523D01*
X121872914Y-36269523D02*
X121920533Y-36364761D01*
X125563809Y-51864819D02*
X125563809Y-50864819D01*
X125563809Y-50864819D02*
X125944761Y-50864819D01*
X125944761Y-50864819D02*
X126039999Y-50912438D01*
X126039999Y-50912438D02*
X126087618Y-50960057D01*
X126087618Y-50960057D02*
X126135237Y-51055295D01*
X126135237Y-51055295D02*
X126135237Y-51198152D01*
X126135237Y-51198152D02*
X126087618Y-51293390D01*
X126087618Y-51293390D02*
X126039999Y-51341009D01*
X126039999Y-51341009D02*
X125944761Y-51388628D01*
X125944761Y-51388628D02*
X125563809Y-51388628D01*
X126706666Y-51864819D02*
X126611428Y-51817200D01*
X126611428Y-51817200D02*
X126563809Y-51769580D01*
X126563809Y-51769580D02*
X126516190Y-51674342D01*
X126516190Y-51674342D02*
X126516190Y-51388628D01*
X126516190Y-51388628D02*
X126563809Y-51293390D01*
X126563809Y-51293390D02*
X126611428Y-51245771D01*
X126611428Y-51245771D02*
X126706666Y-51198152D01*
X126706666Y-51198152D02*
X126849523Y-51198152D01*
X126849523Y-51198152D02*
X126944761Y-51245771D01*
X126944761Y-51245771D02*
X126992380Y-51293390D01*
X126992380Y-51293390D02*
X127039999Y-51388628D01*
X127039999Y-51388628D02*
X127039999Y-51674342D01*
X127039999Y-51674342D02*
X126992380Y-51769580D01*
X126992380Y-51769580D02*
X126944761Y-51817200D01*
X126944761Y-51817200D02*
X126849523Y-51864819D01*
X126849523Y-51864819D02*
X126706666Y-51864819D01*
X127373333Y-51198152D02*
X127563809Y-51864819D01*
X127563809Y-51864819D02*
X127754285Y-51388628D01*
X127754285Y-51388628D02*
X127944761Y-51864819D01*
X127944761Y-51864819D02*
X128135237Y-51198152D01*
X128897142Y-51817200D02*
X128801904Y-51864819D01*
X128801904Y-51864819D02*
X128611428Y-51864819D01*
X128611428Y-51864819D02*
X128516190Y-51817200D01*
X128516190Y-51817200D02*
X128468571Y-51721961D01*
X128468571Y-51721961D02*
X128468571Y-51341009D01*
X128468571Y-51341009D02*
X128516190Y-51245771D01*
X128516190Y-51245771D02*
X128611428Y-51198152D01*
X128611428Y-51198152D02*
X128801904Y-51198152D01*
X128801904Y-51198152D02*
X128897142Y-51245771D01*
X128897142Y-51245771D02*
X128944761Y-51341009D01*
X128944761Y-51341009D02*
X128944761Y-51436247D01*
X128944761Y-51436247D02*
X128468571Y-51531485D01*
X129373333Y-51864819D02*
X129373333Y-51198152D01*
X129373333Y-51388628D02*
X129420952Y-51293390D01*
X129420952Y-51293390D02*
X129468571Y-51245771D01*
X129468571Y-51245771D02*
X129563809Y-51198152D01*
X129563809Y-51198152D02*
X129659047Y-51198152D01*
D11*
X127284524Y-53543574D02*
X127427381Y-53543574D01*
X127355953Y-53793574D02*
X127355953Y-53543574D01*
X127510714Y-53793574D02*
X127510714Y-53543574D01*
X127510714Y-53543574D02*
X127605952Y-53543574D01*
X127605952Y-53543574D02*
X127629762Y-53555479D01*
X127629762Y-53555479D02*
X127641667Y-53567384D01*
X127641667Y-53567384D02*
X127653571Y-53591193D01*
X127653571Y-53591193D02*
X127653571Y-53626908D01*
X127653571Y-53626908D02*
X127641667Y-53650717D01*
X127641667Y-53650717D02*
X127629762Y-53662622D01*
X127629762Y-53662622D02*
X127605952Y-53674527D01*
X127605952Y-53674527D02*
X127510714Y-53674527D01*
X127867857Y-53626908D02*
X127867857Y-53793574D01*
X127808333Y-53531670D02*
X127748810Y-53710241D01*
X127748810Y-53710241D02*
X127903571Y-53710241D01*
D12*
X105610476Y-39878479D02*
X106033809Y-40513479D01*
X106033809Y-39878479D02*
X105610476Y-40513479D01*
X106275714Y-40513479D02*
X106275714Y-39878479D01*
X106547857Y-40332050D02*
X106850238Y-40332050D01*
X106487381Y-40513479D02*
X106699047Y-39878479D01*
X106699047Y-39878479D02*
X106910714Y-40513479D01*
X107243333Y-39878479D02*
X107364286Y-39878479D01*
X107364286Y-39878479D02*
X107424762Y-39908717D01*
X107424762Y-39908717D02*
X107485238Y-39969193D01*
X107485238Y-39969193D02*
X107515476Y-40090145D01*
X107515476Y-40090145D02*
X107515476Y-40301812D01*
X107515476Y-40301812D02*
X107485238Y-40422764D01*
X107485238Y-40422764D02*
X107424762Y-40483241D01*
X107424762Y-40483241D02*
X107364286Y-40513479D01*
X107364286Y-40513479D02*
X107243333Y-40513479D01*
X107243333Y-40513479D02*
X107182857Y-40483241D01*
X107182857Y-40483241D02*
X107122381Y-40422764D01*
X107122381Y-40422764D02*
X107092143Y-40301812D01*
X107092143Y-40301812D02*
X107092143Y-40090145D01*
X107092143Y-40090145D02*
X107122381Y-39969193D01*
X107122381Y-39969193D02*
X107182857Y-39908717D01*
X107182857Y-39908717D02*
X107243333Y-39878479D01*
X107787619Y-40271574D02*
X108271429Y-40271574D01*
X108936666Y-40513479D02*
X108724999Y-40211098D01*
X108573809Y-40513479D02*
X108573809Y-39878479D01*
X108573809Y-39878479D02*
X108815714Y-39878479D01*
X108815714Y-39878479D02*
X108876190Y-39908717D01*
X108876190Y-39908717D02*
X108906428Y-39938955D01*
X108906428Y-39938955D02*
X108936666Y-39999431D01*
X108936666Y-39999431D02*
X108936666Y-40090145D01*
X108936666Y-40090145D02*
X108906428Y-40150621D01*
X108906428Y-40150621D02*
X108876190Y-40180860D01*
X108876190Y-40180860D02*
X108815714Y-40211098D01*
X108815714Y-40211098D02*
X108573809Y-40211098D01*
X109208809Y-40513479D02*
X109208809Y-39878479D01*
X109208809Y-39878479D02*
X109450714Y-39878479D01*
X109450714Y-39878479D02*
X109511190Y-39908717D01*
X109511190Y-39908717D02*
X109541428Y-39938955D01*
X109541428Y-39938955D02*
X109571666Y-39999431D01*
X109571666Y-39999431D02*
X109571666Y-40090145D01*
X109571666Y-40090145D02*
X109541428Y-40150621D01*
X109541428Y-40150621D02*
X109511190Y-40180860D01*
X109511190Y-40180860D02*
X109450714Y-40211098D01*
X109450714Y-40211098D02*
X109208809Y-40211098D01*
X109813571Y-39938955D02*
X109843809Y-39908717D01*
X109843809Y-39908717D02*
X109904285Y-39878479D01*
X109904285Y-39878479D02*
X110055476Y-39878479D01*
X110055476Y-39878479D02*
X110115952Y-39908717D01*
X110115952Y-39908717D02*
X110146190Y-39938955D01*
X110146190Y-39938955D02*
X110176428Y-39999431D01*
X110176428Y-39999431D02*
X110176428Y-40059907D01*
X110176428Y-40059907D02*
X110146190Y-40150621D01*
X110146190Y-40150621D02*
X109783333Y-40513479D01*
X109783333Y-40513479D02*
X110176428Y-40513479D01*
X110569523Y-39878479D02*
X110630000Y-39878479D01*
X110630000Y-39878479D02*
X110690476Y-39908717D01*
X110690476Y-39908717D02*
X110720714Y-39938955D01*
X110720714Y-39938955D02*
X110750952Y-39999431D01*
X110750952Y-39999431D02*
X110781190Y-40120383D01*
X110781190Y-40120383D02*
X110781190Y-40271574D01*
X110781190Y-40271574D02*
X110750952Y-40392526D01*
X110750952Y-40392526D02*
X110720714Y-40453002D01*
X110720714Y-40453002D02*
X110690476Y-40483241D01*
X110690476Y-40483241D02*
X110630000Y-40513479D01*
X110630000Y-40513479D02*
X110569523Y-40513479D01*
X110569523Y-40513479D02*
X110509047Y-40483241D01*
X110509047Y-40483241D02*
X110478809Y-40453002D01*
X110478809Y-40453002D02*
X110448571Y-40392526D01*
X110448571Y-40392526D02*
X110418333Y-40271574D01*
X110418333Y-40271574D02*
X110418333Y-40120383D01*
X110418333Y-40120383D02*
X110448571Y-39999431D01*
X110448571Y-39999431D02*
X110478809Y-39938955D01*
X110478809Y-39938955D02*
X110509047Y-39908717D01*
X110509047Y-39908717D02*
X110569523Y-39878479D01*
X111325476Y-40090145D02*
X111325476Y-40513479D01*
X111174285Y-39848241D02*
X111023095Y-40301812D01*
X111023095Y-40301812D02*
X111416190Y-40301812D01*
X111779047Y-39878479D02*
X111839524Y-39878479D01*
X111839524Y-39878479D02*
X111900000Y-39908717D01*
X111900000Y-39908717D02*
X111930238Y-39938955D01*
X111930238Y-39938955D02*
X111960476Y-39999431D01*
X111960476Y-39999431D02*
X111990714Y-40120383D01*
X111990714Y-40120383D02*
X111990714Y-40271574D01*
X111990714Y-40271574D02*
X111960476Y-40392526D01*
X111960476Y-40392526D02*
X111930238Y-40453002D01*
X111930238Y-40453002D02*
X111900000Y-40483241D01*
X111900000Y-40483241D02*
X111839524Y-40513479D01*
X111839524Y-40513479D02*
X111779047Y-40513479D01*
X111779047Y-40513479D02*
X111718571Y-40483241D01*
X111718571Y-40483241D02*
X111688333Y-40453002D01*
X111688333Y-40453002D02*
X111658095Y-40392526D01*
X111658095Y-40392526D02*
X111627857Y-40271574D01*
X111627857Y-40271574D02*
X111627857Y-40120383D01*
X111627857Y-40120383D02*
X111658095Y-39999431D01*
X111658095Y-39999431D02*
X111688333Y-39938955D01*
X111688333Y-39938955D02*
X111718571Y-39908717D01*
X111718571Y-39908717D02*
X111779047Y-39878479D01*
X112262857Y-40271574D02*
X112746667Y-40271574D01*
X113049047Y-40513479D02*
X113049047Y-39878479D01*
X113049047Y-39878479D02*
X113200237Y-39878479D01*
X113200237Y-39878479D02*
X113290952Y-39908717D01*
X113290952Y-39908717D02*
X113351428Y-39969193D01*
X113351428Y-39969193D02*
X113381666Y-40029669D01*
X113381666Y-40029669D02*
X113411904Y-40150621D01*
X113411904Y-40150621D02*
X113411904Y-40241336D01*
X113411904Y-40241336D02*
X113381666Y-40362288D01*
X113381666Y-40362288D02*
X113351428Y-40422764D01*
X113351428Y-40422764D02*
X113290952Y-40483241D01*
X113290952Y-40483241D02*
X113200237Y-40513479D01*
X113200237Y-40513479D02*
X113049047Y-40513479D01*
X113684047Y-40513479D02*
X113684047Y-39878479D01*
X113986428Y-40513479D02*
X113986428Y-39878479D01*
X113986428Y-39878479D02*
X114228333Y-39878479D01*
X114228333Y-39878479D02*
X114288809Y-39908717D01*
X114288809Y-39908717D02*
X114319047Y-39938955D01*
X114319047Y-39938955D02*
X114349285Y-39999431D01*
X114349285Y-39999431D02*
X114349285Y-40090145D01*
X114349285Y-40090145D02*
X114319047Y-40150621D01*
X114319047Y-40150621D02*
X114288809Y-40180860D01*
X114288809Y-40180860D02*
X114228333Y-40211098D01*
X114228333Y-40211098D02*
X113986428Y-40211098D01*
D10*
X130729524Y-32814819D02*
X131396190Y-33814819D01*
X131396190Y-32814819D02*
X130729524Y-33814819D01*
X131634286Y-32814819D02*
X132205714Y-32814819D01*
X131920000Y-33814819D02*
X131920000Y-32814819D01*
X133062857Y-33814819D02*
X132491429Y-33814819D01*
X132777143Y-33814819D02*
X132777143Y-32814819D01*
X132777143Y-32814819D02*
X132681905Y-32957676D01*
X132681905Y-32957676D02*
X132586667Y-33052914D01*
X132586667Y-33052914D02*
X132491429Y-33100533D01*
X142748333Y-52624819D02*
X142748333Y-51624819D01*
X142748333Y-51624819D02*
X142986428Y-51624819D01*
X142986428Y-51624819D02*
X143129285Y-51672438D01*
X143129285Y-51672438D02*
X143224523Y-51767676D01*
X143224523Y-51767676D02*
X143272142Y-51862914D01*
X143272142Y-51862914D02*
X143319761Y-52053390D01*
X143319761Y-52053390D02*
X143319761Y-52196247D01*
X143319761Y-52196247D02*
X143272142Y-52386723D01*
X143272142Y-52386723D02*
X143224523Y-52481961D01*
X143224523Y-52481961D02*
X143129285Y-52577200D01*
X143129285Y-52577200D02*
X142986428Y-52624819D01*
X142986428Y-52624819D02*
X142748333Y-52624819D01*
X144319761Y-52624819D02*
X143986428Y-52148628D01*
X143748333Y-52624819D02*
X143748333Y-51624819D01*
X143748333Y-51624819D02*
X144129285Y-51624819D01*
X144129285Y-51624819D02*
X144224523Y-51672438D01*
X144224523Y-51672438D02*
X144272142Y-51720057D01*
X144272142Y-51720057D02*
X144319761Y-51815295D01*
X144319761Y-51815295D02*
X144319761Y-51958152D01*
X144319761Y-51958152D02*
X144272142Y-52053390D01*
X144272142Y-52053390D02*
X144224523Y-52101009D01*
X144224523Y-52101009D02*
X144129285Y-52148628D01*
X144129285Y-52148628D02*
X143748333Y-52148628D01*
X144605476Y-51624819D02*
X144938809Y-52624819D01*
X144938809Y-52624819D02*
X145272142Y-51624819D01*
X145748333Y-52053390D02*
X145653095Y-52005771D01*
X145653095Y-52005771D02*
X145605476Y-51958152D01*
X145605476Y-51958152D02*
X145557857Y-51862914D01*
X145557857Y-51862914D02*
X145557857Y-51815295D01*
X145557857Y-51815295D02*
X145605476Y-51720057D01*
X145605476Y-51720057D02*
X145653095Y-51672438D01*
X145653095Y-51672438D02*
X145748333Y-51624819D01*
X145748333Y-51624819D02*
X145938809Y-51624819D01*
X145938809Y-51624819D02*
X146034047Y-51672438D01*
X146034047Y-51672438D02*
X146081666Y-51720057D01*
X146081666Y-51720057D02*
X146129285Y-51815295D01*
X146129285Y-51815295D02*
X146129285Y-51862914D01*
X146129285Y-51862914D02*
X146081666Y-51958152D01*
X146081666Y-51958152D02*
X146034047Y-52005771D01*
X146034047Y-52005771D02*
X145938809Y-52053390D01*
X145938809Y-52053390D02*
X145748333Y-52053390D01*
X145748333Y-52053390D02*
X145653095Y-52101009D01*
X145653095Y-52101009D02*
X145605476Y-52148628D01*
X145605476Y-52148628D02*
X145557857Y-52243866D01*
X145557857Y-52243866D02*
X145557857Y-52434342D01*
X145557857Y-52434342D02*
X145605476Y-52529580D01*
X145605476Y-52529580D02*
X145653095Y-52577200D01*
X145653095Y-52577200D02*
X145748333Y-52624819D01*
X145748333Y-52624819D02*
X145938809Y-52624819D01*
X145938809Y-52624819D02*
X146034047Y-52577200D01*
X146034047Y-52577200D02*
X146081666Y-52529580D01*
X146081666Y-52529580D02*
X146129285Y-52434342D01*
X146129285Y-52434342D02*
X146129285Y-52243866D01*
X146129285Y-52243866D02*
X146081666Y-52148628D01*
X146081666Y-52148628D02*
X146034047Y-52101009D01*
X146034047Y-52101009D02*
X145938809Y-52053390D01*
X146700714Y-52053390D02*
X146605476Y-52005771D01*
X146605476Y-52005771D02*
X146557857Y-51958152D01*
X146557857Y-51958152D02*
X146510238Y-51862914D01*
X146510238Y-51862914D02*
X146510238Y-51815295D01*
X146510238Y-51815295D02*
X146557857Y-51720057D01*
X146557857Y-51720057D02*
X146605476Y-51672438D01*
X146605476Y-51672438D02*
X146700714Y-51624819D01*
X146700714Y-51624819D02*
X146891190Y-51624819D01*
X146891190Y-51624819D02*
X146986428Y-51672438D01*
X146986428Y-51672438D02*
X147034047Y-51720057D01*
X147034047Y-51720057D02*
X147081666Y-51815295D01*
X147081666Y-51815295D02*
X147081666Y-51862914D01*
X147081666Y-51862914D02*
X147034047Y-51958152D01*
X147034047Y-51958152D02*
X146986428Y-52005771D01*
X146986428Y-52005771D02*
X146891190Y-52053390D01*
X146891190Y-52053390D02*
X146700714Y-52053390D01*
X146700714Y-52053390D02*
X146605476Y-52101009D01*
X146605476Y-52101009D02*
X146557857Y-52148628D01*
X146557857Y-52148628D02*
X146510238Y-52243866D01*
X146510238Y-52243866D02*
X146510238Y-52434342D01*
X146510238Y-52434342D02*
X146557857Y-52529580D01*
X146557857Y-52529580D02*
X146605476Y-52577200D01*
X146605476Y-52577200D02*
X146700714Y-52624819D01*
X146700714Y-52624819D02*
X146891190Y-52624819D01*
X146891190Y-52624819D02*
X146986428Y-52577200D01*
X146986428Y-52577200D02*
X147034047Y-52529580D01*
X147034047Y-52529580D02*
X147081666Y-52434342D01*
X147081666Y-52434342D02*
X147081666Y-52243866D01*
X147081666Y-52243866D02*
X147034047Y-52148628D01*
X147034047Y-52148628D02*
X146986428Y-52101009D01*
X146986428Y-52101009D02*
X146891190Y-52053390D01*
X147415000Y-51624819D02*
X148034047Y-51624819D01*
X148034047Y-51624819D02*
X147700714Y-52005771D01*
X147700714Y-52005771D02*
X147843571Y-52005771D01*
X147843571Y-52005771D02*
X147938809Y-52053390D01*
X147938809Y-52053390D02*
X147986428Y-52101009D01*
X147986428Y-52101009D02*
X148034047Y-52196247D01*
X148034047Y-52196247D02*
X148034047Y-52434342D01*
X148034047Y-52434342D02*
X147986428Y-52529580D01*
X147986428Y-52529580D02*
X147938809Y-52577200D01*
X147938809Y-52577200D02*
X147843571Y-52624819D01*
X147843571Y-52624819D02*
X147557857Y-52624819D01*
X147557857Y-52624819D02*
X147462619Y-52577200D01*
X147462619Y-52577200D02*
X147415000Y-52529580D01*
X148367381Y-51624819D02*
X148986428Y-51624819D01*
X148986428Y-51624819D02*
X148653095Y-52005771D01*
X148653095Y-52005771D02*
X148795952Y-52005771D01*
X148795952Y-52005771D02*
X148891190Y-52053390D01*
X148891190Y-52053390D02*
X148938809Y-52101009D01*
X148938809Y-52101009D02*
X148986428Y-52196247D01*
X148986428Y-52196247D02*
X148986428Y-52434342D01*
X148986428Y-52434342D02*
X148938809Y-52529580D01*
X148938809Y-52529580D02*
X148891190Y-52577200D01*
X148891190Y-52577200D02*
X148795952Y-52624819D01*
X148795952Y-52624819D02*
X148510238Y-52624819D01*
X148510238Y-52624819D02*
X148415000Y-52577200D01*
X148415000Y-52577200D02*
X148367381Y-52529580D01*
X149415000Y-52624819D02*
X149415000Y-51624819D01*
X149415000Y-51624819D02*
X149795952Y-51624819D01*
X149795952Y-51624819D02*
X149891190Y-51672438D01*
X149891190Y-51672438D02*
X149938809Y-51720057D01*
X149938809Y-51720057D02*
X149986428Y-51815295D01*
X149986428Y-51815295D02*
X149986428Y-51958152D01*
X149986428Y-51958152D02*
X149938809Y-52053390D01*
X149938809Y-52053390D02*
X149891190Y-52101009D01*
X149891190Y-52101009D02*
X149795952Y-52148628D01*
X149795952Y-52148628D02*
X149415000Y-52148628D01*
X150319762Y-51624819D02*
X150557857Y-52624819D01*
X150557857Y-52624819D02*
X150748333Y-51910533D01*
X150748333Y-51910533D02*
X150938809Y-52624819D01*
X150938809Y-52624819D02*
X151176905Y-51624819D01*
X146369819Y-41711904D02*
X147179342Y-41711904D01*
X147179342Y-41711904D02*
X147274580Y-41664285D01*
X147274580Y-41664285D02*
X147322200Y-41616666D01*
X147322200Y-41616666D02*
X147369819Y-41521428D01*
X147369819Y-41521428D02*
X147369819Y-41330952D01*
X147369819Y-41330952D02*
X147322200Y-41235714D01*
X147322200Y-41235714D02*
X147274580Y-41188095D01*
X147274580Y-41188095D02*
X147179342Y-41140476D01*
X147179342Y-41140476D02*
X146369819Y-41140476D01*
X146465057Y-40711904D02*
X146417438Y-40664285D01*
X146417438Y-40664285D02*
X146369819Y-40569047D01*
X146369819Y-40569047D02*
X146369819Y-40330952D01*
X146369819Y-40330952D02*
X146417438Y-40235714D01*
X146417438Y-40235714D02*
X146465057Y-40188095D01*
X146465057Y-40188095D02*
X146560295Y-40140476D01*
X146560295Y-40140476D02*
X146655533Y-40140476D01*
X146655533Y-40140476D02*
X146798390Y-40188095D01*
X146798390Y-40188095D02*
X147369819Y-40759523D01*
X147369819Y-40759523D02*
X147369819Y-40140476D01*
X131821904Y-45834819D02*
X132059999Y-46834819D01*
X132059999Y-46834819D02*
X132250475Y-46120533D01*
X132250475Y-46120533D02*
X132440951Y-46834819D01*
X132440951Y-46834819D02*
X132679047Y-45834819D01*
X133440951Y-46787200D02*
X133345713Y-46834819D01*
X133345713Y-46834819D02*
X133155237Y-46834819D01*
X133155237Y-46834819D02*
X133059999Y-46787200D01*
X133059999Y-46787200D02*
X133012380Y-46691961D01*
X133012380Y-46691961D02*
X133012380Y-46311009D01*
X133012380Y-46311009D02*
X133059999Y-46215771D01*
X133059999Y-46215771D02*
X133155237Y-46168152D01*
X133155237Y-46168152D02*
X133345713Y-46168152D01*
X133345713Y-46168152D02*
X133440951Y-46215771D01*
X133440951Y-46215771D02*
X133488570Y-46311009D01*
X133488570Y-46311009D02*
X133488570Y-46406247D01*
X133488570Y-46406247D02*
X133012380Y-46501485D01*
X134345713Y-46834819D02*
X134345713Y-46311009D01*
X134345713Y-46311009D02*
X134298094Y-46215771D01*
X134298094Y-46215771D02*
X134202856Y-46168152D01*
X134202856Y-46168152D02*
X134012380Y-46168152D01*
X134012380Y-46168152D02*
X133917142Y-46215771D01*
X134345713Y-46787200D02*
X134250475Y-46834819D01*
X134250475Y-46834819D02*
X134012380Y-46834819D01*
X134012380Y-46834819D02*
X133917142Y-46787200D01*
X133917142Y-46787200D02*
X133869523Y-46691961D01*
X133869523Y-46691961D02*
X133869523Y-46596723D01*
X133869523Y-46596723D02*
X133917142Y-46501485D01*
X133917142Y-46501485D02*
X134012380Y-46453866D01*
X134012380Y-46453866D02*
X134250475Y-46453866D01*
X134250475Y-46453866D02*
X134345713Y-46406247D01*
X134821904Y-46168152D02*
X134821904Y-47168152D01*
X134821904Y-46215771D02*
X134917142Y-46168152D01*
X134917142Y-46168152D02*
X135107618Y-46168152D01*
X135107618Y-46168152D02*
X135202856Y-46215771D01*
X135202856Y-46215771D02*
X135250475Y-46263390D01*
X135250475Y-46263390D02*
X135298094Y-46358628D01*
X135298094Y-46358628D02*
X135298094Y-46644342D01*
X135298094Y-46644342D02*
X135250475Y-46739580D01*
X135250475Y-46739580D02*
X135202856Y-46787200D01*
X135202856Y-46787200D02*
X135107618Y-46834819D01*
X135107618Y-46834819D02*
X134917142Y-46834819D01*
X134917142Y-46834819D02*
X134821904Y-46787200D01*
X135869523Y-46834819D02*
X135774285Y-46787200D01*
X135774285Y-46787200D02*
X135726666Y-46739580D01*
X135726666Y-46739580D02*
X135679047Y-46644342D01*
X135679047Y-46644342D02*
X135679047Y-46358628D01*
X135679047Y-46358628D02*
X135726666Y-46263390D01*
X135726666Y-46263390D02*
X135774285Y-46215771D01*
X135774285Y-46215771D02*
X135869523Y-46168152D01*
X135869523Y-46168152D02*
X136012380Y-46168152D01*
X136012380Y-46168152D02*
X136107618Y-46215771D01*
X136107618Y-46215771D02*
X136155237Y-46263390D01*
X136155237Y-46263390D02*
X136202856Y-46358628D01*
X136202856Y-46358628D02*
X136202856Y-46644342D01*
X136202856Y-46644342D02*
X136155237Y-46739580D01*
X136155237Y-46739580D02*
X136107618Y-46787200D01*
X136107618Y-46787200D02*
X136012380Y-46834819D01*
X136012380Y-46834819D02*
X135869523Y-46834819D01*
X136631428Y-46168152D02*
X136631428Y-46834819D01*
X136631428Y-46263390D02*
X136679047Y-46215771D01*
X136679047Y-46215771D02*
X136774285Y-46168152D01*
X136774285Y-46168152D02*
X136917142Y-46168152D01*
X136917142Y-46168152D02*
X137012380Y-46215771D01*
X137012380Y-46215771D02*
X137059999Y-46311009D01*
X137059999Y-46311009D02*
X137059999Y-46834819D01*
X137536190Y-46834819D02*
X137536190Y-45834819D01*
X137536190Y-45834819D02*
X137869523Y-46549104D01*
X137869523Y-46549104D02*
X138202856Y-45834819D01*
X138202856Y-45834819D02*
X138202856Y-46834819D01*
X138821904Y-46834819D02*
X138726666Y-46787200D01*
X138726666Y-46787200D02*
X138679047Y-46739580D01*
X138679047Y-46739580D02*
X138631428Y-46644342D01*
X138631428Y-46644342D02*
X138631428Y-46358628D01*
X138631428Y-46358628D02*
X138679047Y-46263390D01*
X138679047Y-46263390D02*
X138726666Y-46215771D01*
X138726666Y-46215771D02*
X138821904Y-46168152D01*
X138821904Y-46168152D02*
X138964761Y-46168152D01*
X138964761Y-46168152D02*
X139059999Y-46215771D01*
X139059999Y-46215771D02*
X139107618Y-46263390D01*
X139107618Y-46263390D02*
X139155237Y-46358628D01*
X139155237Y-46358628D02*
X139155237Y-46644342D01*
X139155237Y-46644342D02*
X139107618Y-46739580D01*
X139107618Y-46739580D02*
X139059999Y-46787200D01*
X139059999Y-46787200D02*
X138964761Y-46834819D01*
X138964761Y-46834819D02*
X138821904Y-46834819D01*
X139440952Y-46168152D02*
X139821904Y-46168152D01*
X139583809Y-45834819D02*
X139583809Y-46691961D01*
X139583809Y-46691961D02*
X139631428Y-46787200D01*
X139631428Y-46787200D02*
X139726666Y-46834819D01*
X139726666Y-46834819D02*
X139821904Y-46834819D01*
X140298095Y-46834819D02*
X140202857Y-46787200D01*
X140202857Y-46787200D02*
X140155238Y-46739580D01*
X140155238Y-46739580D02*
X140107619Y-46644342D01*
X140107619Y-46644342D02*
X140107619Y-46358628D01*
X140107619Y-46358628D02*
X140155238Y-46263390D01*
X140155238Y-46263390D02*
X140202857Y-46215771D01*
X140202857Y-46215771D02*
X140298095Y-46168152D01*
X140298095Y-46168152D02*
X140440952Y-46168152D01*
X140440952Y-46168152D02*
X140536190Y-46215771D01*
X140536190Y-46215771D02*
X140583809Y-46263390D01*
X140583809Y-46263390D02*
X140631428Y-46358628D01*
X140631428Y-46358628D02*
X140631428Y-46644342D01*
X140631428Y-46644342D02*
X140583809Y-46739580D01*
X140583809Y-46739580D02*
X140536190Y-46787200D01*
X140536190Y-46787200D02*
X140440952Y-46834819D01*
X140440952Y-46834819D02*
X140298095Y-46834819D01*
X141060000Y-46834819D02*
X141060000Y-46168152D01*
X141060000Y-46358628D02*
X141107619Y-46263390D01*
X141107619Y-46263390D02*
X141155238Y-46215771D01*
X141155238Y-46215771D02*
X141250476Y-46168152D01*
X141250476Y-46168152D02*
X141345714Y-46168152D01*
X135204819Y-41931904D02*
X136014342Y-41931904D01*
X136014342Y-41931904D02*
X136109580Y-41884285D01*
X136109580Y-41884285D02*
X136157200Y-41836666D01*
X136157200Y-41836666D02*
X136204819Y-41741428D01*
X136204819Y-41741428D02*
X136204819Y-41550952D01*
X136204819Y-41550952D02*
X136157200Y-41455714D01*
X136157200Y-41455714D02*
X136109580Y-41408095D01*
X136109580Y-41408095D02*
X136014342Y-41360476D01*
X136014342Y-41360476D02*
X135204819Y-41360476D01*
X135204819Y-40979523D02*
X135204819Y-40360476D01*
X135204819Y-40360476D02*
X135585771Y-40693809D01*
X135585771Y-40693809D02*
X135585771Y-40550952D01*
X135585771Y-40550952D02*
X135633390Y-40455714D01*
X135633390Y-40455714D02*
X135681009Y-40408095D01*
X135681009Y-40408095D02*
X135776247Y-40360476D01*
X135776247Y-40360476D02*
X136014342Y-40360476D01*
X136014342Y-40360476D02*
X136109580Y-40408095D01*
X136109580Y-40408095D02*
X136157200Y-40455714D01*
X136157200Y-40455714D02*
X136204819Y-40550952D01*
X136204819Y-40550952D02*
X136204819Y-40836666D01*
X136204819Y-40836666D02*
X136157200Y-40931904D01*
X136157200Y-40931904D02*
X136109580Y-40979523D01*
X122488095Y-50982438D02*
X122392857Y-50934819D01*
X122392857Y-50934819D02*
X122250000Y-50934819D01*
X122250000Y-50934819D02*
X122107143Y-50982438D01*
X122107143Y-50982438D02*
X122011905Y-51077676D01*
X122011905Y-51077676D02*
X121964286Y-51172914D01*
X121964286Y-51172914D02*
X121916667Y-51363390D01*
X121916667Y-51363390D02*
X121916667Y-51506247D01*
X121916667Y-51506247D02*
X121964286Y-51696723D01*
X121964286Y-51696723D02*
X122011905Y-51791961D01*
X122011905Y-51791961D02*
X122107143Y-51887200D01*
X122107143Y-51887200D02*
X122250000Y-51934819D01*
X122250000Y-51934819D02*
X122345238Y-51934819D01*
X122345238Y-51934819D02*
X122488095Y-51887200D01*
X122488095Y-51887200D02*
X122535714Y-51839580D01*
X122535714Y-51839580D02*
X122535714Y-51506247D01*
X122535714Y-51506247D02*
X122345238Y-51506247D01*
X122964286Y-51934819D02*
X122964286Y-50934819D01*
X122964286Y-50934819D02*
X123535714Y-51934819D01*
X123535714Y-51934819D02*
X123535714Y-50934819D01*
X124011905Y-51934819D02*
X124011905Y-50934819D01*
X124011905Y-50934819D02*
X124250000Y-50934819D01*
X124250000Y-50934819D02*
X124392857Y-50982438D01*
X124392857Y-50982438D02*
X124488095Y-51077676D01*
X124488095Y-51077676D02*
X124535714Y-51172914D01*
X124535714Y-51172914D02*
X124583333Y-51363390D01*
X124583333Y-51363390D02*
X124583333Y-51506247D01*
X124583333Y-51506247D02*
X124535714Y-51696723D01*
X124535714Y-51696723D02*
X124488095Y-51791961D01*
X124488095Y-51791961D02*
X124392857Y-51887200D01*
X124392857Y-51887200D02*
X124250000Y-51934819D01*
X124250000Y-51934819D02*
X124011905Y-51934819D01*
D11*
X123014524Y-53523574D02*
X123157381Y-53523574D01*
X123085953Y-53773574D02*
X123085953Y-53523574D01*
X123240714Y-53773574D02*
X123240714Y-53523574D01*
X123240714Y-53523574D02*
X123335952Y-53523574D01*
X123335952Y-53523574D02*
X123359762Y-53535479D01*
X123359762Y-53535479D02*
X123371667Y-53547384D01*
X123371667Y-53547384D02*
X123383571Y-53571193D01*
X123383571Y-53571193D02*
X123383571Y-53606908D01*
X123383571Y-53606908D02*
X123371667Y-53630717D01*
X123371667Y-53630717D02*
X123359762Y-53642622D01*
X123359762Y-53642622D02*
X123335952Y-53654527D01*
X123335952Y-53654527D02*
X123240714Y-53654527D01*
X123609762Y-53523574D02*
X123490714Y-53523574D01*
X123490714Y-53523574D02*
X123478810Y-53642622D01*
X123478810Y-53642622D02*
X123490714Y-53630717D01*
X123490714Y-53630717D02*
X123514524Y-53618812D01*
X123514524Y-53618812D02*
X123574048Y-53618812D01*
X123574048Y-53618812D02*
X123597857Y-53630717D01*
X123597857Y-53630717D02*
X123609762Y-53642622D01*
X123609762Y-53642622D02*
X123621667Y-53666431D01*
X123621667Y-53666431D02*
X123621667Y-53725955D01*
X123621667Y-53725955D02*
X123609762Y-53749765D01*
X123609762Y-53749765D02*
X123597857Y-53761670D01*
X123597857Y-53761670D02*
X123574048Y-53773574D01*
X123574048Y-53773574D02*
X123514524Y-53773574D01*
X123514524Y-53773574D02*
X123490714Y-53761670D01*
X123490714Y-53761670D02*
X123478810Y-53749765D01*
D10*
X130822380Y-51804819D02*
X130346190Y-51804819D01*
X130346190Y-51804819D02*
X130346190Y-50804819D01*
X131298571Y-51804819D02*
X131203333Y-51757200D01*
X131203333Y-51757200D02*
X131155714Y-51709580D01*
X131155714Y-51709580D02*
X131108095Y-51614342D01*
X131108095Y-51614342D02*
X131108095Y-51328628D01*
X131108095Y-51328628D02*
X131155714Y-51233390D01*
X131155714Y-51233390D02*
X131203333Y-51185771D01*
X131203333Y-51185771D02*
X131298571Y-51138152D01*
X131298571Y-51138152D02*
X131441428Y-51138152D01*
X131441428Y-51138152D02*
X131536666Y-51185771D01*
X131536666Y-51185771D02*
X131584285Y-51233390D01*
X131584285Y-51233390D02*
X131631904Y-51328628D01*
X131631904Y-51328628D02*
X131631904Y-51614342D01*
X131631904Y-51614342D02*
X131584285Y-51709580D01*
X131584285Y-51709580D02*
X131536666Y-51757200D01*
X131536666Y-51757200D02*
X131441428Y-51804819D01*
X131441428Y-51804819D02*
X131298571Y-51804819D01*
X132489047Y-51804819D02*
X132489047Y-51281009D01*
X132489047Y-51281009D02*
X132441428Y-51185771D01*
X132441428Y-51185771D02*
X132346190Y-51138152D01*
X132346190Y-51138152D02*
X132155714Y-51138152D01*
X132155714Y-51138152D02*
X132060476Y-51185771D01*
X132489047Y-51757200D02*
X132393809Y-51804819D01*
X132393809Y-51804819D02*
X132155714Y-51804819D01*
X132155714Y-51804819D02*
X132060476Y-51757200D01*
X132060476Y-51757200D02*
X132012857Y-51661961D01*
X132012857Y-51661961D02*
X132012857Y-51566723D01*
X132012857Y-51566723D02*
X132060476Y-51471485D01*
X132060476Y-51471485D02*
X132155714Y-51423866D01*
X132155714Y-51423866D02*
X132393809Y-51423866D01*
X132393809Y-51423866D02*
X132489047Y-51376247D01*
X133393809Y-51804819D02*
X133393809Y-50804819D01*
X133393809Y-51757200D02*
X133298571Y-51804819D01*
X133298571Y-51804819D02*
X133108095Y-51804819D01*
X133108095Y-51804819D02*
X133012857Y-51757200D01*
X133012857Y-51757200D02*
X132965238Y-51709580D01*
X132965238Y-51709580D02*
X132917619Y-51614342D01*
X132917619Y-51614342D02*
X132917619Y-51328628D01*
X132917619Y-51328628D02*
X132965238Y-51233390D01*
X132965238Y-51233390D02*
X133012857Y-51185771D01*
X133012857Y-51185771D02*
X133108095Y-51138152D01*
X133108095Y-51138152D02*
X133298571Y-51138152D01*
X133298571Y-51138152D02*
X133393809Y-51185771D01*
D11*
X131604524Y-53413574D02*
X131747381Y-53413574D01*
X131675953Y-53663574D02*
X131675953Y-53413574D01*
X131830714Y-53663574D02*
X131830714Y-53413574D01*
X131830714Y-53413574D02*
X131925952Y-53413574D01*
X131925952Y-53413574D02*
X131949762Y-53425479D01*
X131949762Y-53425479D02*
X131961667Y-53437384D01*
X131961667Y-53437384D02*
X131973571Y-53461193D01*
X131973571Y-53461193D02*
X131973571Y-53496908D01*
X131973571Y-53496908D02*
X131961667Y-53520717D01*
X131961667Y-53520717D02*
X131949762Y-53532622D01*
X131949762Y-53532622D02*
X131925952Y-53544527D01*
X131925952Y-53544527D02*
X131830714Y-53544527D01*
X132056905Y-53413574D02*
X132211667Y-53413574D01*
X132211667Y-53413574D02*
X132128333Y-53508812D01*
X132128333Y-53508812D02*
X132164048Y-53508812D01*
X132164048Y-53508812D02*
X132187857Y-53520717D01*
X132187857Y-53520717D02*
X132199762Y-53532622D01*
X132199762Y-53532622D02*
X132211667Y-53556431D01*
X132211667Y-53556431D02*
X132211667Y-53615955D01*
X132211667Y-53615955D02*
X132199762Y-53639765D01*
X132199762Y-53639765D02*
X132187857Y-53651670D01*
X132187857Y-53651670D02*
X132164048Y-53663574D01*
X132164048Y-53663574D02*
X132092619Y-53663574D01*
X132092619Y-53663574D02*
X132068810Y-53651670D01*
X132068810Y-53651670D02*
X132056905Y-53639765D01*
D10*
X137634761Y-42734819D02*
X137301428Y-42258628D01*
X137063333Y-42734819D02*
X137063333Y-41734819D01*
X137063333Y-41734819D02*
X137444285Y-41734819D01*
X137444285Y-41734819D02*
X137539523Y-41782438D01*
X137539523Y-41782438D02*
X137587142Y-41830057D01*
X137587142Y-41830057D02*
X137634761Y-41925295D01*
X137634761Y-41925295D02*
X137634761Y-42068152D01*
X137634761Y-42068152D02*
X137587142Y-42163390D01*
X137587142Y-42163390D02*
X137539523Y-42211009D01*
X137539523Y-42211009D02*
X137444285Y-42258628D01*
X137444285Y-42258628D02*
X137063333Y-42258628D01*
X138444285Y-42687200D02*
X138349047Y-42734819D01*
X138349047Y-42734819D02*
X138158571Y-42734819D01*
X138158571Y-42734819D02*
X138063333Y-42687200D01*
X138063333Y-42687200D02*
X138015714Y-42591961D01*
X138015714Y-42591961D02*
X138015714Y-42211009D01*
X138015714Y-42211009D02*
X138063333Y-42115771D01*
X138063333Y-42115771D02*
X138158571Y-42068152D01*
X138158571Y-42068152D02*
X138349047Y-42068152D01*
X138349047Y-42068152D02*
X138444285Y-42115771D01*
X138444285Y-42115771D02*
X138491904Y-42211009D01*
X138491904Y-42211009D02*
X138491904Y-42306247D01*
X138491904Y-42306247D02*
X138015714Y-42401485D01*
X139349047Y-42687200D02*
X139253809Y-42734819D01*
X139253809Y-42734819D02*
X139063333Y-42734819D01*
X139063333Y-42734819D02*
X138968095Y-42687200D01*
X138968095Y-42687200D02*
X138920476Y-42639580D01*
X138920476Y-42639580D02*
X138872857Y-42544342D01*
X138872857Y-42544342D02*
X138872857Y-42258628D01*
X138872857Y-42258628D02*
X138920476Y-42163390D01*
X138920476Y-42163390D02*
X138968095Y-42115771D01*
X138968095Y-42115771D02*
X139063333Y-42068152D01*
X139063333Y-42068152D02*
X139253809Y-42068152D01*
X139253809Y-42068152D02*
X139349047Y-42115771D01*
X140158571Y-42687200D02*
X140063333Y-42734819D01*
X140063333Y-42734819D02*
X139872857Y-42734819D01*
X139872857Y-42734819D02*
X139777619Y-42687200D01*
X139777619Y-42687200D02*
X139730000Y-42591961D01*
X139730000Y-42591961D02*
X139730000Y-42211009D01*
X139730000Y-42211009D02*
X139777619Y-42115771D01*
X139777619Y-42115771D02*
X139872857Y-42068152D01*
X139872857Y-42068152D02*
X140063333Y-42068152D01*
X140063333Y-42068152D02*
X140158571Y-42115771D01*
X140158571Y-42115771D02*
X140206190Y-42211009D01*
X140206190Y-42211009D02*
X140206190Y-42306247D01*
X140206190Y-42306247D02*
X139730000Y-42401485D01*
X140539524Y-42068152D02*
X140777619Y-42734819D01*
X140777619Y-42734819D02*
X141015714Y-42068152D01*
X141777619Y-42687200D02*
X141682381Y-42734819D01*
X141682381Y-42734819D02*
X141491905Y-42734819D01*
X141491905Y-42734819D02*
X141396667Y-42687200D01*
X141396667Y-42687200D02*
X141349048Y-42591961D01*
X141349048Y-42591961D02*
X141349048Y-42211009D01*
X141349048Y-42211009D02*
X141396667Y-42115771D01*
X141396667Y-42115771D02*
X141491905Y-42068152D01*
X141491905Y-42068152D02*
X141682381Y-42068152D01*
X141682381Y-42068152D02*
X141777619Y-42115771D01*
X141777619Y-42115771D02*
X141825238Y-42211009D01*
X141825238Y-42211009D02*
X141825238Y-42306247D01*
X141825238Y-42306247D02*
X141349048Y-42401485D01*
X142253810Y-42734819D02*
X142253810Y-42068152D01*
X142253810Y-42258628D02*
X142301429Y-42163390D01*
X142301429Y-42163390D02*
X142349048Y-42115771D01*
X142349048Y-42115771D02*
X142444286Y-42068152D01*
X142444286Y-42068152D02*
X142539524Y-42068152D01*
X139184819Y-36851904D02*
X139994342Y-36851904D01*
X139994342Y-36851904D02*
X140089580Y-36804285D01*
X140089580Y-36804285D02*
X140137200Y-36756666D01*
X140137200Y-36756666D02*
X140184819Y-36661428D01*
X140184819Y-36661428D02*
X140184819Y-36470952D01*
X140184819Y-36470952D02*
X140137200Y-36375714D01*
X140137200Y-36375714D02*
X140089580Y-36328095D01*
X140089580Y-36328095D02*
X139994342Y-36280476D01*
X139994342Y-36280476D02*
X139184819Y-36280476D01*
X139518152Y-35375714D02*
X140184819Y-35375714D01*
X139137200Y-35613809D02*
X139851485Y-35851904D01*
X139851485Y-35851904D02*
X139851485Y-35232857D01*
X126994819Y-43229523D02*
X125994819Y-43229523D01*
X125994819Y-43229523D02*
X126709104Y-42896190D01*
X126709104Y-42896190D02*
X125994819Y-42562857D01*
X125994819Y-42562857D02*
X126994819Y-42562857D01*
X126090057Y-42134285D02*
X126042438Y-42086666D01*
X126042438Y-42086666D02*
X125994819Y-41991428D01*
X125994819Y-41991428D02*
X125994819Y-41753333D01*
X125994819Y-41753333D02*
X126042438Y-41658095D01*
X126042438Y-41658095D02*
X126090057Y-41610476D01*
X126090057Y-41610476D02*
X126185295Y-41562857D01*
X126185295Y-41562857D02*
X126280533Y-41562857D01*
X126280533Y-41562857D02*
X126423390Y-41610476D01*
X126423390Y-41610476D02*
X126994819Y-42181904D01*
X126994819Y-42181904D02*
X126994819Y-41562857D01*
X125295714Y-38934819D02*
X125295714Y-37934819D01*
X125295714Y-37934819D02*
X125629047Y-38649104D01*
X125629047Y-38649104D02*
X125962380Y-37934819D01*
X125962380Y-37934819D02*
X125962380Y-38934819D01*
X126581428Y-38934819D02*
X126486190Y-38887200D01*
X126486190Y-38887200D02*
X126438571Y-38839580D01*
X126438571Y-38839580D02*
X126390952Y-38744342D01*
X126390952Y-38744342D02*
X126390952Y-38458628D01*
X126390952Y-38458628D02*
X126438571Y-38363390D01*
X126438571Y-38363390D02*
X126486190Y-38315771D01*
X126486190Y-38315771D02*
X126581428Y-38268152D01*
X126581428Y-38268152D02*
X126724285Y-38268152D01*
X126724285Y-38268152D02*
X126819523Y-38315771D01*
X126819523Y-38315771D02*
X126867142Y-38363390D01*
X126867142Y-38363390D02*
X126914761Y-38458628D01*
X126914761Y-38458628D02*
X126914761Y-38744342D01*
X126914761Y-38744342D02*
X126867142Y-38839580D01*
X126867142Y-38839580D02*
X126819523Y-38887200D01*
X126819523Y-38887200D02*
X126724285Y-38934819D01*
X126724285Y-38934819D02*
X126581428Y-38934819D01*
X127200476Y-38268152D02*
X127581428Y-38268152D01*
X127343333Y-37934819D02*
X127343333Y-38791961D01*
X127343333Y-38791961D02*
X127390952Y-38887200D01*
X127390952Y-38887200D02*
X127486190Y-38934819D01*
X127486190Y-38934819D02*
X127581428Y-38934819D01*
X128057619Y-38934819D02*
X127962381Y-38887200D01*
X127962381Y-38887200D02*
X127914762Y-38839580D01*
X127914762Y-38839580D02*
X127867143Y-38744342D01*
X127867143Y-38744342D02*
X127867143Y-38458628D01*
X127867143Y-38458628D02*
X127914762Y-38363390D01*
X127914762Y-38363390D02*
X127962381Y-38315771D01*
X127962381Y-38315771D02*
X128057619Y-38268152D01*
X128057619Y-38268152D02*
X128200476Y-38268152D01*
X128200476Y-38268152D02*
X128295714Y-38315771D01*
X128295714Y-38315771D02*
X128343333Y-38363390D01*
X128343333Y-38363390D02*
X128390952Y-38458628D01*
X128390952Y-38458628D02*
X128390952Y-38744342D01*
X128390952Y-38744342D02*
X128343333Y-38839580D01*
X128343333Y-38839580D02*
X128295714Y-38887200D01*
X128295714Y-38887200D02*
X128200476Y-38934819D01*
X128200476Y-38934819D02*
X128057619Y-38934819D01*
X128819524Y-38934819D02*
X128819524Y-38268152D01*
X128819524Y-38458628D02*
X128867143Y-38363390D01*
X128867143Y-38363390D02*
X128914762Y-38315771D01*
X128914762Y-38315771D02*
X129010000Y-38268152D01*
X129010000Y-38268152D02*
X129105238Y-38268152D01*
X129200477Y-39030057D02*
X129962381Y-39030057D01*
X130200477Y-38934819D02*
X130200477Y-37934819D01*
X130200477Y-37934819D02*
X130438572Y-37934819D01*
X130438572Y-37934819D02*
X130581429Y-37982438D01*
X130581429Y-37982438D02*
X130676667Y-38077676D01*
X130676667Y-38077676D02*
X130724286Y-38172914D01*
X130724286Y-38172914D02*
X130771905Y-38363390D01*
X130771905Y-38363390D02*
X130771905Y-38506247D01*
X130771905Y-38506247D02*
X130724286Y-38696723D01*
X130724286Y-38696723D02*
X130676667Y-38791961D01*
X130676667Y-38791961D02*
X130581429Y-38887200D01*
X130581429Y-38887200D02*
X130438572Y-38934819D01*
X130438572Y-38934819D02*
X130200477Y-38934819D01*
X131771905Y-38839580D02*
X131724286Y-38887200D01*
X131724286Y-38887200D02*
X131581429Y-38934819D01*
X131581429Y-38934819D02*
X131486191Y-38934819D01*
X131486191Y-38934819D02*
X131343334Y-38887200D01*
X131343334Y-38887200D02*
X131248096Y-38791961D01*
X131248096Y-38791961D02*
X131200477Y-38696723D01*
X131200477Y-38696723D02*
X131152858Y-38506247D01*
X131152858Y-38506247D02*
X131152858Y-38363390D01*
X131152858Y-38363390D02*
X131200477Y-38172914D01*
X131200477Y-38172914D02*
X131248096Y-38077676D01*
X131248096Y-38077676D02*
X131343334Y-37982438D01*
X131343334Y-37982438D02*
X131486191Y-37934819D01*
X131486191Y-37934819D02*
X131581429Y-37934819D01*
X131581429Y-37934819D02*
X131724286Y-37982438D01*
X131724286Y-37982438D02*
X131771905Y-38030057D01*
X131224819Y-43169523D02*
X130224819Y-43169523D01*
X130224819Y-43169523D02*
X130939104Y-42836190D01*
X130939104Y-42836190D02*
X130224819Y-42502857D01*
X130224819Y-42502857D02*
X131224819Y-42502857D01*
X131224819Y-41502857D02*
X131224819Y-42074285D01*
X131224819Y-41788571D02*
X130224819Y-41788571D01*
X130224819Y-41788571D02*
X130367676Y-41883809D01*
X130367676Y-41883809D02*
X130462914Y-41979047D01*
X130462914Y-41979047D02*
X130510533Y-42074285D01*
%TO.C,MX-5A_ESC1*%
D13*
X120910000Y-33475000D02*
X121545000Y-32840000D01*
X120910000Y-48080000D02*
X120910000Y-33475000D01*
X121545000Y-32840000D02*
X123450000Y-32840000D01*
X123450000Y-32840000D02*
X123450000Y-48080000D01*
X123450000Y-48080000D02*
X120910000Y-48080000D01*
%TO.C,TP4*%
X128100000Y-53680000D02*
G75*
G02*
X127100000Y-53680000I-500000J0D01*
G01*
X127100000Y-53680000D02*
G75*
G02*
X128100000Y-53680000I500000J0D01*
G01*
%TO.C,U1*%
X101105000Y-30020000D02*
X118905000Y-30020000D01*
X118905000Y-51020000D01*
X101105000Y-51020000D01*
X101105000Y-30020000D01*
D14*
X102441000Y-31120000D02*
G75*
G02*
X101937000Y-31120000I-252000J0D01*
G01*
X101937000Y-31120000D02*
G75*
G02*
X102441000Y-31120000I252000J0D01*
G01*
%TO.C,XT1*%
D13*
X126820000Y-32060000D02*
X126820000Y-34660000D01*
X126820000Y-32060000D02*
X128520000Y-30760000D01*
X126820000Y-34660000D02*
X128520000Y-35960000D01*
X128520000Y-30760000D02*
X137020000Y-30760000D01*
X128520000Y-35960000D02*
X137020000Y-35960000D01*
X137020000Y-30760000D02*
X137020000Y-35960000D01*
%TO.C,U2*%
X143740000Y-31790000D02*
X144740000Y-30790000D01*
X143740000Y-51110000D02*
X143740000Y-31790000D01*
X144740000Y-30790000D02*
X150090000Y-30790000D01*
X150090000Y-30790000D02*
X150090000Y-51110000D01*
X150090000Y-51110000D02*
X143740000Y-51110000D01*
%TO.C,U3*%
X134480000Y-37995000D02*
X135115000Y-37360000D01*
X134480000Y-44980000D02*
X134480000Y-37995000D01*
X135115000Y-37360000D02*
X137020000Y-37360000D01*
X137020000Y-37360000D02*
X137020000Y-44980000D01*
X137020000Y-44980000D02*
X134480000Y-44980000D01*
%TO.C,TP5*%
X123830000Y-53660000D02*
G75*
G02*
X122830000Y-53660000I-500000J0D01*
G01*
X122830000Y-53660000D02*
G75*
G02*
X123830000Y-53660000I500000J0D01*
G01*
%TO.C,TP3*%
X132420000Y-53550000D02*
G75*
G02*
X131420000Y-53550000I-500000J0D01*
G01*
X131420000Y-53550000D02*
G75*
G02*
X132420000Y-53550000I500000J0D01*
G01*
%TO.C,U4*%
X138460000Y-31645000D02*
X139095000Y-31010000D01*
X138460000Y-41170000D02*
X138460000Y-31645000D01*
X139095000Y-31010000D02*
X141000000Y-31010000D01*
X141000000Y-31010000D02*
X141000000Y-41170000D01*
X141000000Y-41170000D02*
X138460000Y-41170000D01*
%TO.C,M2*%
X125270000Y-40515000D02*
X125905000Y-39880000D01*
X125270000Y-44960000D02*
X125270000Y-40515000D01*
X125905000Y-39880000D02*
X127810000Y-39880000D01*
X127810000Y-39880000D02*
X127810000Y-44960000D01*
X127810000Y-44960000D02*
X125270000Y-44960000D01*
%TO.C,M1*%
X129500000Y-40455000D02*
X130135000Y-39820000D01*
X129500000Y-44900000D02*
X129500000Y-40455000D01*
X130135000Y-39820000D02*
X132040000Y-39820000D01*
X132040000Y-39820000D02*
X132040000Y-44900000D01*
X132040000Y-44900000D02*
X129500000Y-44900000D01*
%TD*%
M02*
