M48
; DRILL file KiCad 10.0.1 date 2026-06-06T17:41:14
; FORMAT={-:-/ absolute / metric / decimal}
; #@! TF.CreationDate,2026-06-06T17:41:14-05:00
; #@! TF.GenerationSoftware,Kicad,Pcbnew,10.0.1
; #@! TF.FileFunction,Plated,1,2,PTH
FMAT,2
METRIC
; #@! TA.AperFunction,Plated,PTH,ViaDrill
T1C0.300
; #@! TA.AperFunction,Plated,PTH,ComponentDrill
T2C0.600
; #@! TA.AperFunction,Plated,PTH,ComponentDrill
T3C0.800
; #@! TA.AperFunction,Plated,PTH,ComponentDrill
T4C1.000
; #@! TA.AperFunction,Plated,PTH,ComponentDrill
T5C1.800
%
G90
G05
T1
X103.75Y-38.02
X120.52Y-50.27
X124.35Y-49.57
X124.49Y-51.11
X124.69Y-48.084
X125.3Y-53.48
X129.02Y-45.1
X131.51Y-37.15
X132.2Y-35.18
X134.73Y-50.01
X139.63Y-44.77
X144.76Y-41.03
X145.42Y-44.38
T2
X123.33Y-53.66
X127.6Y-53.68
X131.92Y-53.55
T3
X143.105Y-32.06
X143.105Y-34.6
X143.105Y-37.14
X143.105Y-39.68
X143.105Y-42.22
X143.105Y-44.76
X143.105Y-47.3
X143.105Y-49.84
X150.725Y-32.06
X150.725Y-34.6
X150.725Y-37.14
X150.725Y-39.68
X150.725Y-42.22
X150.725Y-44.76
X150.725Y-47.3
X150.725Y-49.84
T4
X122.18Y-34.11
X122.18Y-36.65
X122.18Y-39.19
X122.18Y-41.73
X122.18Y-44.27
X122.18Y-46.81
X126.54Y-41.15
X126.54Y-43.69
X130.77Y-41.09
X130.77Y-43.63
X135.75Y-38.63
X135.75Y-41.17
X135.75Y-43.71
X139.73Y-32.28
X139.73Y-34.82
X139.73Y-37.36
X139.73Y-39.9
T5
X129.42Y-33.36
X134.42Y-33.36
M30
