%TF.GenerationSoftware,KiCad,Pcbnew,10.0.1*%
%TF.CreationDate,2026-06-06T17:41:07-05:00*%
%TF.ProjectId,barrel-roll,62617272-656c-42d7-926f-6c6c2e6b6963,rev?*%
%TF.SameCoordinates,Original*%
%TF.FileFunction,Copper,L1,Top*%
%TF.FilePolarity,Positive*%
%FSLAX46Y46*%
G04 Gerber Fmt 4.6, Leading zero omitted, Abs format (unit mm)*
G04 Created by KiCad (PCBNEW 10.0.1) date 2026-06-06 17:41:07*
%MOMM*%
%LPD*%
G01*
G04 APERTURE LIST*
G04 Aperture macros list*
%AMRoundRect*
0 Rectangle with rounded corners*
0 $1 Rounding radius*
0 $2 $3 $4 $5 $6 $7 $8 $9 X,Y pos of 4 corners*
0 Add a 4 corners polygon primitive as box body*
4,1,4,$2,$3,$4,$5,$6,$7,$8,$9,$2,$3,0*
0 Add four circle primitives for the rounded corners*
1,1,$1+$1,$2,$3*
1,1,$1+$1,$4,$5*
1,1,$1+$1,$6,$7*
1,1,$1+$1,$8,$9*
0 Add four rect primitives between the rounded corners*
20,1,$1+$1,$2,$3,$4,$5,0*
20,1,$1+$1,$4,$5,$6,$7,0*
20,1,$1+$1,$6,$7,$8,$9,0*
20,1,$1+$1,$8,$9,$2,$3,0*%
G04 Aperture macros list end*
%TA.AperFunction,ComponentPad*%
%ADD10R,1.700000X1.700000*%
%TD*%
%TA.AperFunction,ComponentPad*%
%ADD11C,1.700000*%
%TD*%
%TA.AperFunction,ComponentPad*%
%ADD12RoundRect,0.250000X-0.550000X-0.550000X0.550000X-0.550000X0.550000X0.550000X-0.550000X0.550000X0*%
%TD*%
%TA.AperFunction,SMDPad,CuDef*%
%ADD13RoundRect,0.500000X-0.875000X-0.500000X0.875000X-0.500000X0.875000X0.500000X-0.875000X0.500000X0*%
%TD*%
%TA.AperFunction,SMDPad,CuDef*%
%ADD14RoundRect,0.275000X-0.275000X0.975000X-0.275000X-0.975000X0.275000X-0.975000X0.275000X0.975000X0*%
%TD*%
%TA.AperFunction,SMDPad,CuDef*%
%ADD15C,1.700000*%
%TD*%
%TA.AperFunction,ComponentPad*%
%ADD16RoundRect,0.750000X-0.750000X-0.750000X0.750000X-0.750000X0.750000X0.750000X-0.750000X0.750000X0*%
%TD*%
%TA.AperFunction,ComponentPad*%
%ADD17C,3.000000*%
%TD*%
%TA.AperFunction,ComponentPad*%
%ADD18C,1.600000*%
%TD*%
%TA.AperFunction,ViaPad*%
%ADD19C,0.600000*%
%TD*%
%TA.AperFunction,Conductor*%
%ADD20C,0.200000*%
%TD*%
G04 APERTURE END LIST*
D10*
%TO.P,MX-5A_ESC1,1,VCC_1*%
%TO.N,BT1P*%
X122180000Y-34110000D03*
D11*
%TO.P,MX-5A_ESC1,2,GND_2*%
%TO.N,GND*%
X122180000Y-36650000D03*
%TO.P,MX-5A_ESC1,3,SIG_3*%
%TO.N,Net-(MX-5A_ESC1-SIG)*%
X122180000Y-39190000D03*
%TO.P,MX-5A_ESC1,4,M1_4*%
%TO.N,Net-(MX-5A_ESC1-M1)*%
X122180000Y-41730000D03*
%TO.P,MX-5A_ESC1,5,M2_5*%
%TO.N,Net-(MX-5A_ESC1-M2)*%
X122180000Y-44270000D03*
%TO.P,MX-5A_ESC1,6,M3_6*%
%TO.N,Net-(MX-5A_ESC1-M3)*%
X122180000Y-46810000D03*
%TD*%
D12*
%TO.P,TP4,1,1_1*%
%TO.N,Net-(XT1-Power)*%
X127600000Y-53680000D03*
%TD*%
D13*
%TO.P,U1,1,GPIO26/ADC0/A0_1*%
%TO.N,AIN1*%
X101940000Y-32900000D03*
%TO.P,U1,2,GPIO27/ADC1/A1_2*%
%TO.N,AIN2*%
X101940000Y-35440000D03*
%TO.P,U1,3,GPIO28/ADC2/A2_3*%
%TO.N,BIN1*%
X101940000Y-37980000D03*
%TO.P,U1,4,GPIO29/ADC3/A3_4*%
%TO.N,BIN2*%
X101940000Y-40520000D03*
%TO.P,U1,5,GPIO6/SDA_5*%
%TO.N,Net-(MX-5A_ESC1-SIG)*%
X101940000Y-43060000D03*
%TO.P,U1,6,GPIO7/SCL_6*%
%TO.N,unconnected-(U1-GPIO7{slash}SCL-Pad6)*%
X101940000Y-45600000D03*
%TO.P,U1,7,GPIO0/TX_7*%
%TO.N,Net-(U1-GPIO0{slash}TX)*%
X101940000Y-48140000D03*
%TO.P,U1,8,GPIO1/RX_8*%
%TO.N,Net-(U1-GPIO1{slash}RX)*%
X118105000Y-48140000D03*
%TO.P,U1,9,GPIO2/SCK_9*%
%TO.N,unconnected-(U1-GPIO2{slash}SCK-Pad9)*%
X118105000Y-45600000D03*
%TO.P,U1,10,GPIO4/MISO_10*%
%TO.N,unconnected-(U1-GPIO4{slash}MISO-Pad10)*%
X118105000Y-43060000D03*
%TO.P,U1,11,GPIO3/MOSI_11*%
%TO.N,unconnected-(U1-GPIO3{slash}MOSI-Pad11)*%
X118105000Y-40520000D03*
%TO.P,U1,12,3V3_12*%
%TO.N,unconnected-(U1-3V3-Pad12)*%
X118105000Y-37980000D03*
%TO.P,U1,13,GND_13*%
%TO.N,GND*%
X118105000Y-35440000D03*
%TO.P,U1,14,VBUS_14*%
%TO.N,BT1P*%
X118105000Y-32900000D03*
D14*
%TO.P,U1,15*%
%TO.N,N/C*%
X108852000Y-49160000D03*
%TO.P,U1,16*%
X111392000Y-49160000D03*
D15*
%TO.P,U1,17*%
X108852000Y-32142000D03*
%TO.P,U1,18*%
X111392000Y-32142000D03*
%TO.P,U1,19*%
X108852000Y-34682000D03*
%TO.P,U1,20*%
X111392000Y-34682000D03*
%TD*%
D16*
%TO.P,XT1,1,Power_1*%
%TO.N,Net-(XT1-Power)*%
X129420000Y-33360000D03*
D17*
%TO.P,XT1,2,GND_2*%
%TO.N,GND*%
X134420000Y-33360000D03*
%TD*%
D12*
%TO.P,U2,1,~{SLEEP}_1*%
%TO.N,BT1P*%
X143105000Y-32060000D03*
D18*
%TO.P,U2,2,AOUT1_2*%
%TO.N,AOUT1*%
X143105000Y-34600000D03*
%TO.P,U2,3,AISEN_3*%
%TO.N,GND*%
X143105000Y-37140000D03*
%TO.P,U2,4,AOUT2_4*%
%TO.N,AOUT2*%
X143105000Y-39680000D03*
%TO.P,U2,5,BOUT2_5*%
%TO.N,BOUT2*%
X143105000Y-42220000D03*
%TO.P,U2,6,BISEN_6*%
%TO.N,GND*%
X143105000Y-44760000D03*
%TO.P,U2,7,BOUT1_7*%
%TO.N,BOUT1*%
X143105000Y-47300000D03*
%TO.P,U2,8,~{FAULT}_8*%
%TO.N,unconnected-(U2-~{FAULT}-Pad8)*%
X143105000Y-49840000D03*
%TO.P,U2,9,BIN1_9*%
%TO.N,BIN1*%
X150725000Y-49840000D03*
%TO.P,U2,10,BIN2_10*%
%TO.N,BIN2*%
X150725000Y-47300000D03*
%TO.P,U2,11,VCP_11*%
%TO.N,unconnected-(U2-VCP-Pad11)*%
X150725000Y-44760000D03*
%TO.P,U2,12,VM_12*%
%TO.N,unconnected-(U2-VM-Pad12)*%
X150725000Y-42220000D03*
%TO.P,U2,13,GND_13*%
%TO.N,GND*%
X150725000Y-39680000D03*
%TO.P,U2,14,VINT_14*%
%TO.N,BT1P*%
X150725000Y-37140000D03*
%TO.P,U2,15,AIN2_15*%
%TO.N,AIN2*%
X150725000Y-34600000D03*
%TO.P,U2,16,AIN1_16*%
%TO.N,AIN1*%
X150725000Y-32060000D03*
%TD*%
D10*
%TO.P,U3,1,M1_1*%
%TO.N,Net-(MX-5A_ESC1-M1)*%
X135750000Y-38630000D03*
D11*
%TO.P,U3,2,M2_2*%
%TO.N,Net-(MX-5A_ESC1-M2)*%
X135750000Y-41170000D03*
%TO.P,U3,3,M3_3*%
%TO.N,Net-(MX-5A_ESC1-M3)*%
X135750000Y-43710000D03*
%TD*%
D12*
%TO.P,TP5,1,1_1*%
%TO.N,GND*%
X123330000Y-53660000D03*
%TD*%
%TO.P,TP3,1,1_1*%
%TO.N,BT1P*%
X131920000Y-53550000D03*
%TD*%
D10*
%TO.P,U4,1,VCC_1*%
%TO.N,BT1P*%
X139730000Y-32280000D03*
D11*
%TO.P,U4,2,GND_2*%
%TO.N,GND*%
X139730000Y-34820000D03*
%TO.P,U4,3,TX_3*%
%TO.N,Net-(U1-GPIO0{slash}TX)*%
X139730000Y-37360000D03*
%TO.P,U4,4,RX_4*%
%TO.N,Net-(U1-GPIO1{slash}RX)*%
X139730000Y-39900000D03*
%TD*%
D10*
%TO.P,M2,1,+_1*%
%TO.N,AOUT1*%
X126540000Y-41150000D03*
D11*
%TO.P,M2,2,-_2*%
%TO.N,AOUT2*%
X126540000Y-43690000D03*
%TD*%
D10*
%TO.P,M1,1,+_1*%
%TO.N,BOUT1*%
X130770000Y-41090000D03*
D11*
%TO.P,M1,2,-_2*%
%TO.N,BOUT2*%
X130770000Y-43630000D03*
%TD*%
D19*
%TO.N,GND*%
X132200000Y-35180000D03*
%TO.N,Net-(MX-5A_ESC1-M1)*%
X124690000Y-48083654D03*
%TO.N,Net-(MX-5A_ESC1-M2)*%
X124350000Y-49570000D03*
X129020000Y-45100000D03*
%TO.N,Net-(MX-5A_ESC1-M3)*%
X139630000Y-44770000D03*
X145420000Y-44380000D03*
X125300000Y-53480000D03*
X120520000Y-50270000D03*
%TO.N,BIN1*%
X134730000Y-50010000D03*
X103750000Y-38020000D03*
X124490000Y-51110000D03*
%TO.N,BIN2*%
X144760000Y-41030000D03*
%TO.N,Net-(U1-GPIO1{slash}RX)*%
X131510000Y-37150000D03*
%TD*%
%TO.N,BT1P*%
D20*
X139950000Y-32060000D02*
X139730000Y-32280000D01*
X118105000Y-32900000D02*
X120970000Y-32900000D01*
X143105000Y-32060000D02*
X139950000Y-32060000D01*
X120970000Y-32900000D02*
X122180000Y-34110000D01*
X145645000Y-32060000D02*
X150725000Y-37140000D01*
X143105000Y-32060000D02*
X145645000Y-32060000D01*
%TO.N,GND*%
X118105000Y-35440000D02*
X120970000Y-35440000D01*
X145770000Y-42095000D02*
X145770000Y-39680000D01*
X145770000Y-39680000D02*
X145645000Y-39680000D01*
X145645000Y-39680000D02*
X143105000Y-37140000D01*
X140785000Y-34820000D02*
X139730000Y-34820000D01*
X143105000Y-44760000D02*
X145770000Y-42095000D01*
X126050000Y-50940000D02*
X143560635Y-50940000D01*
X132200000Y-35180000D02*
X132230000Y-35150000D01*
X143105000Y-37140000D02*
X140785000Y-34820000D01*
X143560635Y-50940000D02*
X144670635Y-49830000D01*
X150725000Y-39680000D02*
X145770000Y-39680000D01*
X123200000Y-35630000D02*
X131750000Y-35630000D01*
X144670635Y-49830000D02*
X144670635Y-46325635D01*
X139730000Y-34820000D02*
X138270000Y-33360000D01*
X120970000Y-35440000D02*
X122180000Y-36650000D01*
X138270000Y-33360000D02*
X134420000Y-33360000D01*
X123330000Y-53660000D02*
X126050000Y-50940000D01*
X131750000Y-35630000D02*
X132200000Y-35180000D01*
X122180000Y-36650000D02*
X123200000Y-35630000D01*
X144670635Y-46325635D02*
X143105000Y-44760000D01*
%TO.N,Net-(MX-5A_ESC1-SIG)*%
X121030000Y-40340000D02*
X122180000Y-39190000D01*
X101940000Y-43060000D02*
X110511358Y-43060000D01*
X119318642Y-49440000D02*
X121030000Y-47728642D01*
X116891358Y-49440000D02*
X119318642Y-49440000D01*
X121030000Y-47728642D02*
X121030000Y-40340000D01*
X110511358Y-43060000D02*
X116891358Y-49440000D01*
%TO.N,Net-(MX-5A_ESC1-M1)*%
X130293654Y-42480000D02*
X131900000Y-42480000D01*
X124690000Y-48083654D02*
X130293654Y-42480000D01*
X131900000Y-42480000D02*
X135750000Y-38630000D01*
%TO.N,Net-(MX-5A_ESC1-M2)*%
X129020000Y-45100000D02*
X129020000Y-45040000D01*
X126770000Y-49570000D02*
X129020000Y-47320000D01*
X124350000Y-49570000D02*
X126770000Y-49570000D01*
X129020000Y-47320000D02*
X129020000Y-45100000D01*
%TO.N,Net-(MX-5A_ESC1-M3)*%
X122180000Y-46810000D02*
X122180000Y-48610000D01*
X126780000Y-52000000D02*
X143066321Y-52000000D01*
X136810000Y-44770000D02*
X135750000Y-43710000D01*
X139630000Y-44770000D02*
X136810000Y-44770000D01*
X143066321Y-52000000D02*
X145420000Y-49646321D01*
X145420000Y-49646321D02*
X145420000Y-44380000D01*
X122180000Y-48610000D02*
X120520000Y-50270000D01*
X125300000Y-53480000D02*
X126780000Y-52000000D01*
%TO.N,AIN1*%
X101940000Y-32900000D02*
X104370000Y-30470000D01*
X104370000Y-30470000D02*
X149135000Y-30470000D01*
X149135000Y-30470000D02*
X150725000Y-32060000D01*
%TO.N,AIN2*%
X147085000Y-30960000D02*
X150725000Y-34600000D01*
X101940000Y-35440000D02*
X106420000Y-30960000D01*
X106420000Y-30960000D02*
X147085000Y-30960000D01*
%TO.N,BIN1*%
X125314314Y-51110000D02*
X124490000Y-51110000D01*
X134730000Y-50010000D02*
X126414314Y-50010000D01*
X101980000Y-38020000D02*
X101940000Y-37980000D01*
X126414314Y-50010000D02*
X125314314Y-51110000D01*
X103750000Y-38020000D02*
X101980000Y-38020000D01*
%TO.N,BIN2*%
X143560635Y-38580000D02*
X144760000Y-39779365D01*
X140379365Y-35970000D02*
X142989365Y-38580000D01*
X132620000Y-32614415D02*
X132620000Y-34105585D01*
X144760000Y-39779365D02*
X144760000Y-41030000D01*
X132620000Y-34105585D02*
X134484415Y-35970000D01*
X134484415Y-35970000D02*
X140379365Y-35970000D01*
X142989365Y-38580000D02*
X143560635Y-38580000D01*
X116931358Y-31560000D02*
X131565585Y-31560000D01*
X101940000Y-40520000D02*
X107971358Y-40520000D01*
X131565585Y-31560000D02*
X132620000Y-32614415D01*
X107971358Y-40520000D02*
X116931358Y-31560000D01*
%TO.N,Net-(U1-GPIO0{slash}TX)*%
X104670000Y-50870000D02*
X120990000Y-50870000D01*
X120990000Y-50870000D02*
X129620000Y-42240000D01*
X133124315Y-36460000D02*
X138830000Y-36460000D01*
X129620000Y-42240000D02*
X129620000Y-39964315D01*
X101940000Y-48140000D02*
X104670000Y-50870000D01*
X138830000Y-36460000D02*
X139730000Y-37360000D01*
X129620000Y-39964315D02*
X133124315Y-36460000D01*
%TO.N,Net-(U1-GPIO1{slash}RX)*%
X120630000Y-39113654D02*
X120630000Y-45615000D01*
X131510000Y-37150000D02*
X131220000Y-37440000D01*
X122656346Y-37800000D02*
X121943654Y-37800000D01*
X120630000Y-45615000D02*
X118105000Y-48140000D01*
X123016346Y-37440000D02*
X122656346Y-37800000D01*
X121943654Y-37800000D02*
X120630000Y-39113654D01*
X131220000Y-37440000D02*
X123016346Y-37440000D01*
%TO.N,BOUT2*%
X143220635Y-45860000D02*
X142649365Y-45860000D01*
X142005000Y-43320000D02*
X143105000Y-42220000D01*
X144270635Y-47690000D02*
X144270635Y-46910000D01*
X144270635Y-46910000D02*
X143220635Y-45860000D01*
X135540000Y-48400000D02*
X143560635Y-48400000D01*
X130770000Y-43630000D02*
X135540000Y-48400000D01*
X142649365Y-45860000D02*
X142005000Y-45215635D01*
X142005000Y-45215635D02*
X142005000Y-43320000D01*
X143560635Y-48400000D02*
X144270635Y-47690000D01*
%TO.N,BOUT1*%
X136280000Y-36860000D02*
X133290000Y-36860000D01*
X133290000Y-36860000D02*
X130770000Y-39380000D01*
X130770000Y-39380000D02*
X130770000Y-41090000D01*
X137200000Y-41395000D02*
X137200000Y-37780000D01*
X137200000Y-37780000D02*
X136280000Y-36860000D01*
X143105000Y-47300000D02*
X137200000Y-41395000D01*
%TD*%
M02*
