ISO-10303-21;
HEADER;
/* Generated by software containing ST-Developer
 * from STEP Tools, Inc. (www.steptools.com) 
 */
/* OPTION: using custom renumber hook */

FILE_DESCRIPTION(
/* description */ ('STEP AP242 Edition 2',
'CAx-IF Rec.Pracs.---Representation and Presentation of Product Manufa
cturing Information (PMI)---4.0---2014-10-13',
'CAx-IF Rec.Pracs.---3D Tessellated Geometry---0.4---2014-09-14','2;1',
'CAx-IF Rec.Pracs.---User Defined Attributes---1.5---2016-08-15'),
/* implementation_level */ '2;1');

FILE_NAME(
/* name */ 'BodyFinalPart2',
/* time_stamp */ '2026-05-02T18:41:26Z',
/* author */ (''),
/* organization */ (''),
/* preprocessor_version */ 'ST-DEVELOPER v20',
/* originating_system */ 'ONSHAPE BY PTC INC, 1.214',
/* authorisation */ '  ');

FILE_SCHEMA (('AP242_MANAGED_MODEL_BASED_3D_ENGINEERING_MIM_LF { 1 0 10303 442 3 1 4 }'));
ENDSEC;

DATA;
#10=SHAPE_REPRESENTATION_RELATIONSHIP('','',#1119,#12);
#11=SHAPE_REPRESENTATION_RELATIONSHIP('','',#1120,#13);
#12=ADVANCED_BREP_SHAPE_REPRESENTATION('',(#1115),#1853);
#13=ADVANCED_BREP_SHAPE_REPRESENTATION('',(#1116),#1854);
#14=TOROIDAL_SURFACE('',#1142,0.004454652,0.001165098);
#15=TOROIDAL_SURFACE('',#1167,0.00577215,0.0001524);
#16=TOROIDAL_SURFACE('',#1193,0.00445783188479874,0.00116509946520126);
#17=TOROIDAL_SURFACE('',#1218,0.00577533135,0.0001524);
#18=CYLINDRICAL_SURFACE('',#1135,0.0015);
#19=CYLINDRICAL_SURFACE('',#1137,0.00561975);
#20=CYLINDRICAL_SURFACE('',#1143,0.00382721491717452);
#21=CYLINDRICAL_SURFACE('',#1147,0.00183864552945008);
#22=CYLINDRICAL_SURFACE('',#1159,0.0001524);
#23=CYLINDRICAL_SURFACE('',#1162,0.0001524);
#24=CYLINDRICAL_SURFACE('',#1164,0.0001524);
#25=CYLINDRICAL_SURFACE('',#1166,0.0001524);
#26=CYLINDRICAL_SURFACE('',#1186,0.0015);
#27=CYLINDRICAL_SURFACE('',#1188,0.00562293135);
#28=CYLINDRICAL_SURFACE('',#1194,0.00382721491717452);
#29=CYLINDRICAL_SURFACE('',#1198,0.00183864552945008);
#30=CYLINDRICAL_SURFACE('',#1210,0.0001524);
#31=CYLINDRICAL_SURFACE('',#1213,0.0001524);
#32=CYLINDRICAL_SURFACE('',#1215,0.0001524);
#33=CYLINDRICAL_SURFACE('',#1217,0.0001524);
#34=CIRCLE('',#1126,0.00382721491717452);
#35=CIRCLE('',#1127,0.00183864552945008);
#36=CIRCLE('',#1129,0.00577215);
#37=CIRCLE('',#1132,0.00183864552945008);
#38=CIRCLE('',#1134,0.0015);
#39=CIRCLE('',#1138,0.00561975);
#40=CIRCLE('',#1139,0.00561975);
#41=CIRCLE('',#1141,0.004454652);
#42=CIRCLE('',#1144,0.00382721491717452);
#43=CIRCLE('',#1146,0.00183864552945008);
#44=CIRCLE('',#1177,0.0015);
#45=CIRCLE('',#1180,0.00577533135);
#46=CIRCLE('',#1182,0.00183864552945008);
#47=CIRCLE('',#1184,0.00382721491717452);
#48=CIRCLE('',#1185,0.00183864552945008);
#49=CIRCLE('',#1189,0.00562293135);
#50=CIRCLE('',#1190,0.00562293135);
#51=CIRCLE('',#1192,0.00445783188479874);
#52=CIRCLE('',#1195,0.00382721491717452);
#53=CIRCLE('',#1197,0.00183864552945008);
#54=ELLIPSE('',#1124,0.00152313991782862,0.0015);
#55=ELLIPSE('',#1136,0.00212132034355965,0.0015);
#56=ELLIPSE('',#1153,0.000233227780858215,0.0001524);
#57=ELLIPSE('',#1155,0.000269677477238577,0.0001524);
#58=ELLIPSE('',#1156,0.000265701291652655,0.0001524);
#59=ELLIPSE('',#1158,0.000218751467917031,0.0001524);
#60=ELLIPSE('',#1160,0.000199161424348111,0.0001524);
#61=ELLIPSE('',#1161,0.000215526146905659,0.0001524);
#62=ELLIPSE('',#1163,0.000215526146905659,0.0001524);
#63=ELLIPSE('',#1165,0.000236725867795098,0.0001524);
#64=ELLIPSE('',#1174,0.00152313991782862,0.0015);
#65=ELLIPSE('',#1187,0.00212132034355965,0.0015);
#66=ELLIPSE('',#1204,0.000233227780858215,0.0001524);
#67=ELLIPSE('',#1206,0.000269677477238577,0.0001524);
#68=ELLIPSE('',#1207,0.000265701291652655,0.0001524);
#69=ELLIPSE('',#1209,0.000218751467917031,0.0001524);
#70=ELLIPSE('',#1211,0.000215526146905659,0.0001524);
#71=ELLIPSE('',#1212,0.000199161424348111,0.0001524);
#72=ELLIPSE('',#1214,0.000236725867795098,0.0001524);
#73=ELLIPSE('',#1216,0.000215526146905659,0.0001524);
#74=ORIENTED_EDGE('',*,*,#374,.F.);
#75=ORIENTED_EDGE('',*,*,#375,.T.);
#76=ORIENTED_EDGE('',*,*,#376,.F.);
#77=ORIENTED_EDGE('',*,*,#377,.T.);
#78=ORIENTED_EDGE('',*,*,#378,.F.);
#79=ORIENTED_EDGE('',*,*,#379,.F.);
#80=ORIENTED_EDGE('',*,*,#380,.F.);
#81=ORIENTED_EDGE('',*,*,#381,.F.);
#82=ORIENTED_EDGE('',*,*,#382,.F.);
#83=ORIENTED_EDGE('',*,*,#383,.T.);
#84=ORIENTED_EDGE('',*,*,#384,.T.);
#85=ORIENTED_EDGE('',*,*,#385,.T.);
#86=ORIENTED_EDGE('',*,*,#386,.T.);
#87=ORIENTED_EDGE('',*,*,#387,.T.);
#88=ORIENTED_EDGE('',*,*,#388,.F.);
#89=ORIENTED_EDGE('',*,*,#389,.F.);
#90=ORIENTED_EDGE('',*,*,#390,.F.);
#91=ORIENTED_EDGE('',*,*,#391,.T.);
#92=ORIENTED_EDGE('',*,*,#392,.T.);
#93=ORIENTED_EDGE('',*,*,#388,.T.);
#94=ORIENTED_EDGE('',*,*,#393,.T.);
#95=ORIENTED_EDGE('',*,*,#394,.T.);
#96=ORIENTED_EDGE('',*,*,#395,.T.);
#97=ORIENTED_EDGE('',*,*,#396,.F.);
#98=ORIENTED_EDGE('',*,*,#397,.T.);
#99=ORIENTED_EDGE('',*,*,#377,.F.);
#100=ORIENTED_EDGE('',*,*,#398,.T.);
#101=ORIENTED_EDGE('',*,*,#399,.T.);
#102=ORIENTED_EDGE('',*,*,#382,.T.);
#103=ORIENTED_EDGE('',*,*,#400,.F.);
#104=ORIENTED_EDGE('',*,*,#401,.F.);
#105=ORIENTED_EDGE('',*,*,#402,.T.);
#106=ORIENTED_EDGE('',*,*,#403,.T.);
#107=ORIENTED_EDGE('',*,*,#404,.T.);
#108=ORIENTED_EDGE('',*,*,#405,.T.);
#109=ORIENTED_EDGE('',*,*,#406,.T.);
#110=ORIENTED_EDGE('',*,*,#376,.T.);
#111=ORIENTED_EDGE('',*,*,#407,.T.);
#112=ORIENTED_EDGE('',*,*,#408,.T.);
#113=ORIENTED_EDGE('',*,*,#398,.F.);
#114=ORIENTED_EDGE('',*,*,#409,.T.);
#115=ORIENTED_EDGE('',*,*,#410,.T.);
#116=ORIENTED_EDGE('',*,*,#411,.T.);
#117=ORIENTED_EDGE('',*,*,#412,.T.);
#118=ORIENTED_EDGE('',*,*,#374,.T.);
#119=ORIENTED_EDGE('',*,*,#413,.F.);
#120=ORIENTED_EDGE('',*,*,#414,.T.);
#121=ORIENTED_EDGE('',*,*,#396,.T.);
#122=ORIENTED_EDGE('',*,*,#415,.T.);
#123=ORIENTED_EDGE('',*,*,#414,.F.);
#124=ORIENTED_EDGE('',*,*,#416,.F.);
#125=ORIENTED_EDGE('',*,*,#417,.F.);
#126=ORIENTED_EDGE('',*,*,#418,.F.);
#127=ORIENTED_EDGE('',*,*,#419,.T.);
#128=ORIENTED_EDGE('',*,*,#385,.F.);
#129=ORIENTED_EDGE('',*,*,#420,.T.);
#130=ORIENTED_EDGE('',*,*,#419,.F.);
#131=ORIENTED_EDGE('',*,*,#421,.T.);
#132=ORIENTED_EDGE('',*,*,#422,.T.);
#133=ORIENTED_EDGE('',*,*,#423,.T.);
#134=ORIENTED_EDGE('',*,*,#422,.F.);
#135=ORIENTED_EDGE('',*,*,#423,.F.);
#136=ORIENTED_EDGE('',*,*,#424,.T.);
#137=ORIENTED_EDGE('',*,*,#378,.T.);
#138=ORIENTED_EDGE('',*,*,#397,.F.);
#139=ORIENTED_EDGE('',*,*,#418,.T.);
#140=ORIENTED_EDGE('',*,*,#425,.F.);
#141=ORIENTED_EDGE('',*,*,#379,.T.);
#142=ORIENTED_EDGE('',*,*,#424,.F.);
#143=ORIENTED_EDGE('',*,*,#417,.T.);
#144=ORIENTED_EDGE('',*,*,#413,.T.);
#145=ORIENTED_EDGE('',*,*,#380,.T.);
#146=ORIENTED_EDGE('',*,*,#425,.T.);
#147=ORIENTED_EDGE('',*,*,#416,.T.);
#148=ORIENTED_EDGE('',*,*,#401,.T.);
#149=ORIENTED_EDGE('',*,*,#399,.F.);
#150=ORIENTED_EDGE('',*,*,#408,.F.);
#151=ORIENTED_EDGE('',*,*,#426,.F.);
#152=ORIENTED_EDGE('',*,*,#383,.F.);
#153=ORIENTED_EDGE('',*,*,#427,.T.);
#154=ORIENTED_EDGE('',*,*,#428,.T.);
#155=ORIENTED_EDGE('',*,*,#386,.F.);
#156=ORIENTED_EDGE('',*,*,#420,.F.);
#157=ORIENTED_EDGE('',*,*,#384,.F.);
#158=ORIENTED_EDGE('',*,*,#429,.F.);
#159=ORIENTED_EDGE('',*,*,#411,.F.);
#160=ORIENTED_EDGE('',*,*,#429,.T.);
#161=ORIENTED_EDGE('',*,*,#426,.T.);
#162=ORIENTED_EDGE('',*,*,#430,.F.);
#163=ORIENTED_EDGE('',*,*,#375,.F.);
#164=ORIENTED_EDGE('',*,*,#412,.F.);
#165=ORIENTED_EDGE('',*,*,#430,.T.);
#166=ORIENTED_EDGE('',*,*,#407,.F.);
#167=ORIENTED_EDGE('',*,*,#395,.F.);
#168=ORIENTED_EDGE('',*,*,#431,.T.);
#169=ORIENTED_EDGE('',*,*,#432,.T.);
#170=ORIENTED_EDGE('',*,*,#433,.F.);
#171=ORIENTED_EDGE('',*,*,#409,.F.);
#172=ORIENTED_EDGE('',*,*,#415,.F.);
#173=ORIENTED_EDGE('',*,*,#434,.T.);
#174=ORIENTED_EDGE('',*,*,#435,.T.);
#175=ORIENTED_EDGE('',*,*,#436,.F.);
#176=ORIENTED_EDGE('',*,*,#427,.F.);
#177=ORIENTED_EDGE('',*,*,#410,.F.);
#178=ORIENTED_EDGE('',*,*,#433,.T.);
#179=ORIENTED_EDGE('',*,*,#437,.T.);
#180=ORIENTED_EDGE('',*,*,#438,.T.);
#181=ORIENTED_EDGE('',*,*,#439,.T.);
#182=ORIENTED_EDGE('',*,*,#393,.F.);
#183=ORIENTED_EDGE('',*,*,#387,.F.);
#184=ORIENTED_EDGE('',*,*,#428,.F.);
#185=ORIENTED_EDGE('',*,*,#436,.T.);
#186=ORIENTED_EDGE('',*,*,#440,.F.);
#187=ORIENTED_EDGE('',*,*,#434,.F.);
#188=ORIENTED_EDGE('',*,*,#441,.F.);
#189=ORIENTED_EDGE('',*,*,#404,.F.);
#190=ORIENTED_EDGE('',*,*,#437,.F.);
#191=ORIENTED_EDGE('',*,*,#432,.F.);
#192=ORIENTED_EDGE('',*,*,#442,.F.);
#193=ORIENTED_EDGE('',*,*,#405,.F.);
#194=ORIENTED_EDGE('',*,*,#441,.T.);
#195=ORIENTED_EDGE('',*,*,#440,.T.);
#196=ORIENTED_EDGE('',*,*,#403,.F.);
#197=ORIENTED_EDGE('',*,*,#443,.F.);
#198=ORIENTED_EDGE('',*,*,#438,.F.);
#199=ORIENTED_EDGE('',*,*,#435,.F.);
#200=ORIENTED_EDGE('',*,*,#431,.F.);
#201=ORIENTED_EDGE('',*,*,#394,.F.);
#202=ORIENTED_EDGE('',*,*,#439,.F.);
#203=ORIENTED_EDGE('',*,*,#443,.T.);
#204=ORIENTED_EDGE('',*,*,#402,.F.);
#205=ORIENTED_EDGE('',*,*,#442,.T.);
#206=ORIENTED_EDGE('',*,*,#406,.F.);
#207=ORIENTED_EDGE('',*,*,#421,.F.);
#208=ORIENTED_EDGE('',*,*,#381,.T.);
#209=ORIENTED_EDGE('',*,*,#444,.F.);
#210=ORIENTED_EDGE('',*,*,#445,.F.);
#211=ORIENTED_EDGE('',*,*,#400,.T.);
#212=ORIENTED_EDGE('',*,*,#390,.T.);
#213=ORIENTED_EDGE('',*,*,#446,.F.);
#214=ORIENTED_EDGE('',*,*,#447,.F.);
#215=ORIENTED_EDGE('',*,*,#444,.T.);
#216=ORIENTED_EDGE('',*,*,#389,.T.);
#217=ORIENTED_EDGE('',*,*,#392,.F.);
#218=ORIENTED_EDGE('',*,*,#448,.F.);
#219=ORIENTED_EDGE('',*,*,#446,.T.);
#220=ORIENTED_EDGE('',*,*,#391,.F.);
#221=ORIENTED_EDGE('',*,*,#445,.T.);
#222=ORIENTED_EDGE('',*,*,#447,.T.);
#223=ORIENTED_EDGE('',*,*,#448,.T.);
#224=ORIENTED_EDGE('',*,*,#449,.F.);
#225=ORIENTED_EDGE('',*,*,#450,.F.);
#226=ORIENTED_EDGE('',*,*,#451,.F.);
#227=ORIENTED_EDGE('',*,*,#452,.T.);
#228=ORIENTED_EDGE('',*,*,#453,.T.);
#229=ORIENTED_EDGE('',*,*,#454,.T.);
#230=ORIENTED_EDGE('',*,*,#455,.F.);
#231=ORIENTED_EDGE('',*,*,#456,.T.);
#232=ORIENTED_EDGE('',*,*,#457,.T.);
#233=ORIENTED_EDGE('',*,*,#458,.T.);
#234=ORIENTED_EDGE('',*,*,#459,.T.);
#235=ORIENTED_EDGE('',*,*,#460,.T.);
#236=ORIENTED_EDGE('',*,*,#461,.T.);
#237=ORIENTED_EDGE('',*,*,#462,.F.);
#238=ORIENTED_EDGE('',*,*,#463,.T.);
#239=ORIENTED_EDGE('',*,*,#464,.F.);
#240=ORIENTED_EDGE('',*,*,#465,.F.);
#241=ORIENTED_EDGE('',*,*,#466,.F.);
#242=ORIENTED_EDGE('',*,*,#467,.T.);
#243=ORIENTED_EDGE('',*,*,#468,.T.);
#244=ORIENTED_EDGE('',*,*,#469,.F.);
#245=ORIENTED_EDGE('',*,*,#470,.F.);
#246=ORIENTED_EDGE('',*,*,#471,.T.);
#247=ORIENTED_EDGE('',*,*,#472,.F.);
#248=ORIENTED_EDGE('',*,*,#473,.T.);
#249=ORIENTED_EDGE('',*,*,#474,.T.);
#250=ORIENTED_EDGE('',*,*,#459,.F.);
#251=ORIENTED_EDGE('',*,*,#475,.F.);
#252=ORIENTED_EDGE('',*,*,#476,.T.);
#253=ORIENTED_EDGE('',*,*,#477,.T.);
#254=ORIENTED_EDGE('',*,*,#478,.T.);
#255=ORIENTED_EDGE('',*,*,#479,.T.);
#256=ORIENTED_EDGE('',*,*,#480,.T.);
#257=ORIENTED_EDGE('',*,*,#481,.T.);
#258=ORIENTED_EDGE('',*,*,#482,.T.);
#259=ORIENTED_EDGE('',*,*,#483,.T.);
#260=ORIENTED_EDGE('',*,*,#467,.F.);
#261=ORIENTED_EDGE('',*,*,#484,.T.);
#262=ORIENTED_EDGE('',*,*,#461,.F.);
#263=ORIENTED_EDGE('',*,*,#485,.T.);
#264=ORIENTED_EDGE('',*,*,#486,.F.);
#265=ORIENTED_EDGE('',*,*,#487,.T.);
#266=ORIENTED_EDGE('',*,*,#458,.F.);
#267=ORIENTED_EDGE('',*,*,#488,.T.);
#268=ORIENTED_EDGE('',*,*,#475,.T.);
#269=ORIENTED_EDGE('',*,*,#465,.T.);
#270=ORIENTED_EDGE('',*,*,#489,.F.);
#271=ORIENTED_EDGE('',*,*,#469,.T.);
#272=ORIENTED_EDGE('',*,*,#490,.T.);
#273=ORIENTED_EDGE('',*,*,#491,.T.);
#274=ORIENTED_EDGE('',*,*,#492,.T.);
#275=ORIENTED_EDGE('',*,*,#452,.F.);
#276=ORIENTED_EDGE('',*,*,#493,.F.);
#277=ORIENTED_EDGE('',*,*,#494,.T.);
#278=ORIENTED_EDGE('',*,*,#466,.T.);
#279=ORIENTED_EDGE('',*,*,#455,.T.);
#280=ORIENTED_EDGE('',*,*,#495,.T.);
#281=ORIENTED_EDGE('',*,*,#496,.T.);
#282=ORIENTED_EDGE('',*,*,#497,.T.);
#283=ORIENTED_EDGE('',*,*,#498,.T.);
#284=ORIENTED_EDGE('',*,*,#497,.F.);
#285=ORIENTED_EDGE('',*,*,#498,.F.);
#286=ORIENTED_EDGE('',*,*,#489,.T.);
#287=ORIENTED_EDGE('',*,*,#464,.T.);
#288=ORIENTED_EDGE('',*,*,#499,.F.);
#289=ORIENTED_EDGE('',*,*,#470,.T.);
#290=ORIENTED_EDGE('',*,*,#463,.F.);
#291=ORIENTED_EDGE('',*,*,#500,.T.);
#292=ORIENTED_EDGE('',*,*,#471,.F.);
#293=ORIENTED_EDGE('',*,*,#499,.T.);
#294=ORIENTED_EDGE('',*,*,#472,.T.);
#295=ORIENTED_EDGE('',*,*,#500,.F.);
#296=ORIENTED_EDGE('',*,*,#462,.T.);
#297=ORIENTED_EDGE('',*,*,#484,.F.);
#298=ORIENTED_EDGE('',*,*,#494,.F.);
#299=ORIENTED_EDGE('',*,*,#454,.F.);
#300=ORIENTED_EDGE('',*,*,#501,.T.);
#301=ORIENTED_EDGE('',*,*,#502,.T.);
#302=ORIENTED_EDGE('',*,*,#481,.F.);
#303=ORIENTED_EDGE('',*,*,#503,.F.);
#304=ORIENTED_EDGE('',*,*,#456,.F.);
#305=ORIENTED_EDGE('',*,*,#495,.F.);
#306=ORIENTED_EDGE('',*,*,#488,.F.);
#307=ORIENTED_EDGE('',*,*,#457,.F.);
#308=ORIENTED_EDGE('',*,*,#504,.F.);
#309=ORIENTED_EDGE('',*,*,#473,.F.);
#310=ORIENTED_EDGE('',*,*,#504,.T.);
#311=ORIENTED_EDGE('',*,*,#503,.T.);
#312=ORIENTED_EDGE('',*,*,#505,.F.);
#313=ORIENTED_EDGE('',*,*,#505,.T.);
#314=ORIENTED_EDGE('',*,*,#485,.F.);
#315=ORIENTED_EDGE('',*,*,#460,.F.);
#316=ORIENTED_EDGE('',*,*,#474,.F.);
#317=ORIENTED_EDGE('',*,*,#506,.T.);
#318=ORIENTED_EDGE('',*,*,#507,.T.);
#319=ORIENTED_EDGE('',*,*,#490,.F.);
#320=ORIENTED_EDGE('',*,*,#468,.F.);
#321=ORIENTED_EDGE('',*,*,#483,.F.);
#322=ORIENTED_EDGE('',*,*,#508,.F.);
#323=ORIENTED_EDGE('',*,*,#509,.F.);
#324=ORIENTED_EDGE('',*,*,#510,.T.);
#325=ORIENTED_EDGE('',*,*,#511,.T.);
#326=ORIENTED_EDGE('',*,*,#512,.T.);
#327=ORIENTED_EDGE('',*,*,#508,.T.);
#328=ORIENTED_EDGE('',*,*,#482,.F.);
#329=ORIENTED_EDGE('',*,*,#502,.F.);
#330=ORIENTED_EDGE('',*,*,#492,.F.);
#331=ORIENTED_EDGE('',*,*,#513,.T.);
#332=ORIENTED_EDGE('',*,*,#514,.T.);
#333=ORIENTED_EDGE('',*,*,#509,.T.);
#334=ORIENTED_EDGE('',*,*,#501,.F.);
#335=ORIENTED_EDGE('',*,*,#453,.F.);
#336=ORIENTED_EDGE('',*,*,#515,.F.);
#337=ORIENTED_EDGE('',*,*,#511,.F.);
#338=ORIENTED_EDGE('',*,*,#516,.F.);
#339=ORIENTED_EDGE('',*,*,#476,.F.);
#340=ORIENTED_EDGE('',*,*,#510,.F.);
#341=ORIENTED_EDGE('',*,*,#514,.F.);
#342=ORIENTED_EDGE('',*,*,#517,.F.);
#343=ORIENTED_EDGE('',*,*,#477,.F.);
#344=ORIENTED_EDGE('',*,*,#516,.T.);
#345=ORIENTED_EDGE('',*,*,#515,.T.);
#346=ORIENTED_EDGE('',*,*,#479,.F.);
#347=ORIENTED_EDGE('',*,*,#518,.F.);
#348=ORIENTED_EDGE('',*,*,#506,.F.);
#349=ORIENTED_EDGE('',*,*,#512,.F.);
#350=ORIENTED_EDGE('',*,*,#513,.F.);
#351=ORIENTED_EDGE('',*,*,#491,.F.);
#352=ORIENTED_EDGE('',*,*,#507,.F.);
#353=ORIENTED_EDGE('',*,*,#518,.T.);
#354=ORIENTED_EDGE('',*,*,#478,.F.);
#355=ORIENTED_EDGE('',*,*,#517,.T.);
#356=ORIENTED_EDGE('',*,*,#480,.F.);
#357=ORIENTED_EDGE('',*,*,#496,.F.);
#358=ORIENTED_EDGE('',*,*,#449,.T.);
#359=ORIENTED_EDGE('',*,*,#487,.F.);
#360=ORIENTED_EDGE('',*,*,#519,.T.);
#361=ORIENTED_EDGE('',*,*,#520,.T.);
#362=ORIENTED_EDGE('',*,*,#450,.T.);
#363=ORIENTED_EDGE('',*,*,#520,.F.);
#364=ORIENTED_EDGE('',*,*,#521,.T.);
#365=ORIENTED_EDGE('',*,*,#522,.T.);
#366=ORIENTED_EDGE('',*,*,#451,.T.);
#367=ORIENTED_EDGE('',*,*,#522,.F.);
#368=ORIENTED_EDGE('',*,*,#523,.T.);
#369=ORIENTED_EDGE('',*,*,#493,.T.);
#370=ORIENTED_EDGE('',*,*,#486,.T.);
#371=ORIENTED_EDGE('',*,*,#523,.F.);
#372=ORIENTED_EDGE('',*,*,#521,.F.);
#373=ORIENTED_EDGE('',*,*,#519,.F.);
#374=EDGE_CURVE('',#524,#525,#626,.T.);
#375=EDGE_CURVE('',#524,#526,#627,.F.);
#376=EDGE_CURVE('',#527,#526,#628,.T.);
#377=EDGE_CURVE('',#527,#528,#629,.T.);
#378=EDGE_CURVE('',#529,#528,#630,.T.);
#379=EDGE_CURVE('',#530,#529,#631,.T.);
#380=EDGE_CURVE('',#525,#530,#632,.T.);
#381=EDGE_CURVE('',#531,#532,#633,.T.);
#382=EDGE_CURVE('',#533,#531,#634,.T.);
#383=EDGE_CURVE('',#533,#534,#635,.T.);
#384=EDGE_CURVE('',#534,#535,#636,.T.);
#385=EDGE_CURVE('',#535,#536,#54,.F.);
#386=EDGE_CURVE('',#536,#537,#637,.T.);
#387=EDGE_CURVE('',#537,#538,#638,.T.);
#388=EDGE_CURVE('',#539,#538,#639,.T.);
#389=EDGE_CURVE('',#540,#539,#640,.T.);
#390=EDGE_CURVE('',#532,#540,#641,.T.);
#391=EDGE_CURVE('',#541,#542,#642,.T.);
#392=EDGE_CURVE('',#542,#539,#643,.T.);
#393=EDGE_CURVE('',#538,#543,#644,.F.);
#394=EDGE_CURVE('',#543,#544,#645,.T.);
#395=EDGE_CURVE('',#544,#545,#646,.F.);
#396=EDGE_CURVE('',#546,#545,#647,.T.);
#397=EDGE_CURVE('',#546,#528,#34,.T.);
#398=EDGE_CURVE('',#527,#547,#648,.T.);
#399=EDGE_CURVE('',#547,#533,#649,.F.);
#400=EDGE_CURVE('',#541,#531,#650,.T.);
#401=EDGE_CURVE('',#548,#548,#35,.T.);
#402=EDGE_CURVE('',#549,#550,#651,.T.);
#403=EDGE_CURVE('',#550,#551,#652,.F.);
#404=EDGE_CURVE('',#551,#552,#653,.F.);
#405=EDGE_CURVE('',#552,#549,#654,.F.);
#406=EDGE_CURVE('',#553,#553,#36,.F.);
#407=EDGE_CURVE('',#526,#554,#655,.T.);
#408=EDGE_CURVE('',#554,#547,#656,.T.);
#409=EDGE_CURVE('',#555,#556,#657,.F.);
#410=EDGE_CURVE('',#556,#557,#658,.T.);
#411=EDGE_CURVE('',#557,#558,#659,.T.);
#412=EDGE_CURVE('',#558,#524,#660,.T.);
#413=EDGE_CURVE('',#559,#525,#37,.T.);
#414=EDGE_CURVE('',#559,#555,#661,.T.);
#415=EDGE_CURVE('',#545,#555,#662,.T.);
#416=EDGE_CURVE('',#560,#559,#663,.F.);
#417=EDGE_CURVE('',#561,#560,#664,.T.);
#418=EDGE_CURVE('',#546,#561,#665,.F.);
#419=EDGE_CURVE('',#562,#562,#38,.F.);
#420=EDGE_CURVE('',#535,#536,#55,.F.);
#421=EDGE_CURVE('',#563,#563,#39,.T.);
#422=EDGE_CURVE('',#564,#564,#40,.F.);
#423=EDGE_CURVE('',#565,#565,#41,.T.);
#424=EDGE_CURVE('',#561,#529,#42,.T.);
#425=EDGE_CURVE('',#530,#560,#43,.T.);
#426=EDGE_CURVE('',#534,#554,#666,.F.);
#427=EDGE_CURVE('',#557,#566,#667,.T.);
#428=EDGE_CURVE('',#566,#537,#668,.T.);
#429=EDGE_CURVE('',#558,#534,#669,.F.);
#430=EDGE_CURVE('',#558,#554,#670,.T.);
#431=EDGE_CURVE('',#544,#567,#56,.F.);
#432=EDGE_CURVE('',#567,#568,#671,.T.);
#433=EDGE_CURVE('',#556,#568,#672,.F.);
#434=EDGE_CURVE('',#569,#570,#673,.T.);
#435=EDGE_CURVE('',#570,#571,#57,.F.);
#436=EDGE_CURVE('',#566,#571,#674,.F.);
#437=EDGE_CURVE('',#568,#569,#58,.F.);
#438=EDGE_CURVE('',#571,#572,#675,.T.);
#439=EDGE_CURVE('',#572,#543,#59,.F.);
#440=EDGE_CURVE('',#570,#551,#60,.T.);
#441=EDGE_CURVE('',#552,#569,#61,.F.);
#442=EDGE_CURVE('',#549,#567,#62,.F.);
#443=EDGE_CURVE('',#572,#550,#63,.T.);
#444=EDGE_CURVE('',#573,#532,#676,.T.);
#445=EDGE_CURVE('',#541,#573,#677,.T.);
#446=EDGE_CURVE('',#574,#540,#678,.T.);
#447=EDGE_CURVE('',#573,#574,#679,.T.);
#448=EDGE_CURVE('',#574,#542,#680,.T.);
#449=EDGE_CURVE('',#575,#576,#681,.F.);
#450=EDGE_CURVE('',#577,#575,#682,.F.);
#451=EDGE_CURVE('',#578,#577,#683,.F.);
#452=EDGE_CURVE('',#578,#579,#684,.F.);
#453=EDGE_CURVE('',#579,#580,#685,.F.);
#454=EDGE_CURVE('',#580,#581,#686,.F.);
#455=EDGE_CURVE('',#582,#581,#64,.T.);
#456=EDGE_CURVE('',#582,#583,#687,.F.);
#457=EDGE_CURVE('',#583,#584,#688,.F.);
#458=EDGE_CURVE('',#584,#576,#689,.F.);
#459=EDGE_CURVE('',#585,#586,#690,.T.);
#460=EDGE_CURVE('',#586,#587,#691,.F.);
#461=EDGE_CURVE('',#587,#588,#692,.T.);
#462=EDGE_CURVE('',#589,#588,#693,.F.);
#463=EDGE_CURVE('',#589,#590,#694,.T.);
#464=EDGE_CURVE('',#591,#590,#695,.F.);
#465=EDGE_CURVE('',#585,#591,#696,.T.);
#466=EDGE_CURVE('',#592,#592,#44,.F.);
#467=EDGE_CURVE('',#593,#594,#697,.T.);
#468=EDGE_CURVE('',#594,#595,#698,.T.);
#469=EDGE_CURVE('',#596,#595,#699,.T.);
#470=EDGE_CURVE('',#597,#596,#700,.T.);
#471=EDGE_CURVE('',#597,#598,#701,.T.);
#472=EDGE_CURVE('',#593,#598,#702,.T.);
#473=EDGE_CURVE('',#599,#600,#703,.T.);
#474=EDGE_CURVE('',#600,#586,#704,.T.);
#475=EDGE_CURVE('',#599,#585,#705,.T.);
#476=EDGE_CURVE('',#601,#602,#706,.F.);
#477=EDGE_CURVE('',#602,#603,#707,.F.);
#478=EDGE_CURVE('',#603,#604,#708,.T.);
#479=EDGE_CURVE('',#604,#601,#709,.T.);
#480=EDGE_CURVE('',#605,#605,#45,.F.);
#481=EDGE_CURVE('',#606,#607,#710,.T.);
#482=EDGE_CURVE('',#607,#608,#711,.T.);
#483=EDGE_CURVE('',#608,#594,#712,.T.);
#484=EDGE_CURVE('',#593,#588,#46,.F.);
#485=EDGE_CURVE('',#587,#606,#713,.T.);
#486=EDGE_CURVE('',#609,#610,#714,.T.);
#487=EDGE_CURVE('',#609,#576,#715,.T.);
#488=EDGE_CURVE('',#584,#599,#716,.F.);
#489=EDGE_CURVE('',#596,#591,#47,.T.);
#490=EDGE_CURVE('',#595,#611,#717,.T.);
#491=EDGE_CURVE('',#611,#612,#718,.T.);
#492=EDGE_CURVE('',#612,#579,#719,.F.);
#493=EDGE_CURVE('',#610,#578,#720,.T.);
#494=EDGE_CURVE('',#613,#613,#48,.T.);
#495=EDGE_CURVE('',#581,#582,#65,.F.);
#496=EDGE_CURVE('',#614,#614,#49,.T.);
#497=EDGE_CURVE('',#615,#615,#50,.F.);
#498=EDGE_CURVE('',#616,#616,#51,.T.);
#499=EDGE_CURVE('',#597,#590,#52,.T.);
#500=EDGE_CURVE('',#589,#598,#53,.F.);
#501=EDGE_CURVE('',#580,#617,#721,.T.);
#502=EDGE_CURVE('',#617,#607,#722,.T.);
#503=EDGE_CURVE('',#583,#606,#723,.F.);
#504=EDGE_CURVE('',#600,#583,#724,.F.);
#505=EDGE_CURVE('',#600,#606,#725,.T.);
#506=EDGE_CURVE('',#618,#619,#726,.T.);
#507=EDGE_CURVE('',#619,#611,#66,.T.);
#508=EDGE_CURVE('',#618,#608,#727,.T.);
#509=EDGE_CURVE('',#620,#617,#728,.T.);
#510=EDGE_CURVE('',#620,#621,#67,.F.);
#511=EDGE_CURVE('',#621,#622,#729,.T.);
#512=EDGE_CURVE('',#622,#618,#68,.F.);
#513=EDGE_CURVE('',#612,#623,#69,.F.);
#514=EDGE_CURVE('',#623,#620,#730,.T.);
#515=EDGE_CURVE('',#622,#601,#70,.F.);
#516=EDGE_CURVE('',#602,#621,#71,.F.);
#517=EDGE_CURVE('',#603,#623,#72,.F.);
#518=EDGE_CURVE('',#619,#604,#73,.F.);
#519=EDGE_CURVE('',#609,#624,#731,.T.);
#520=EDGE_CURVE('',#624,#575,#732,.T.);
#521=EDGE_CURVE('',#624,#625,#733,.T.);
#522=EDGE_CURVE('',#625,#577,#734,.T.);
#523=EDGE_CURVE('',#625,#610,#735,.T.);
#524=VERTEX_POINT('',#1540);
#525=VERTEX_POINT('',#1541);
#526=VERTEX_POINT('',#1543);
#527=VERTEX_POINT('',#1545);
#528=VERTEX_POINT('',#1547);
#529=VERTEX_POINT('',#1549);
#530=VERTEX_POINT('',#1551);
#531=VERTEX_POINT('',#1555);
#532=VERTEX_POINT('',#1556);
#533=VERTEX_POINT('',#1558);
#534=VERTEX_POINT('',#1560);
#535=VERTEX_POINT('',#1562);
#536=VERTEX_POINT('',#1564);
#537=VERTEX_POINT('',#1566);
#538=VERTEX_POINT('',#1568);
#539=VERTEX_POINT('',#1570);
#540=VERTEX_POINT('',#1572);
#541=VERTEX_POINT('',#1576);
#542=VERTEX_POINT('',#1577);
#543=VERTEX_POINT('',#1580);
#544=VERTEX_POINT('',#1582);
#545=VERTEX_POINT('',#1584);
#546=VERTEX_POINT('',#1586);
#547=VERTEX_POINT('',#1589);
#548=VERTEX_POINT('',#1593);
#549=VERTEX_POINT('',#1596);
#550=VERTEX_POINT('',#1597);
#551=VERTEX_POINT('',#1599);
#552=VERTEX_POINT('',#1601);
#553=VERTEX_POINT('',#1604);
#554=VERTEX_POINT('',#1607);
#555=VERTEX_POINT('',#1611);
#556=VERTEX_POINT('',#1612);
#557=VERTEX_POINT('',#1614);
#558=VERTEX_POINT('',#1616);
#559=VERTEX_POINT('',#1619);
#560=VERTEX_POINT('',#1624);
#561=VERTEX_POINT('',#1626);
#562=VERTEX_POINT('',#1629);
#563=VERTEX_POINT('',#1634);
#564=VERTEX_POINT('',#1636);
#565=VERTEX_POINT('',#1639);
#566=VERTEX_POINT('',#1650);
#567=VERTEX_POINT('',#1658);
#568=VERTEX_POINT('',#1660);
#569=VERTEX_POINT('',#1664);
#570=VERTEX_POINT('',#1665);
#571=VERTEX_POINT('',#1667);
#572=VERTEX_POINT('',#1672);
#573=VERTEX_POINT('',#1685);
#574=VERTEX_POINT('',#1689);
#575=VERTEX_POINT('',#1697);
#576=VERTEX_POINT('',#1698);
#577=VERTEX_POINT('',#1700);
#578=VERTEX_POINT('',#1702);
#579=VERTEX_POINT('',#1704);
#580=VERTEX_POINT('',#1706);
#581=VERTEX_POINT('',#1708);
#582=VERTEX_POINT('',#1710);
#583=VERTEX_POINT('',#1712);
#584=VERTEX_POINT('',#1714);
#585=VERTEX_POINT('',#1718);
#586=VERTEX_POINT('',#1719);
#587=VERTEX_POINT('',#1721);
#588=VERTEX_POINT('',#1723);
#589=VERTEX_POINT('',#1725);
#590=VERTEX_POINT('',#1727);
#591=VERTEX_POINT('',#1729);
#592=VERTEX_POINT('',#1733);
#593=VERTEX_POINT('',#1735);
#594=VERTEX_POINT('',#1736);
#595=VERTEX_POINT('',#1738);
#596=VERTEX_POINT('',#1740);
#597=VERTEX_POINT('',#1742);
#598=VERTEX_POINT('',#1744);
#599=VERTEX_POINT('',#1748);
#600=VERTEX_POINT('',#1749);
#601=VERTEX_POINT('',#1754);
#602=VERTEX_POINT('',#1755);
#603=VERTEX_POINT('',#1757);
#604=VERTEX_POINT('',#1759);
#605=VERTEX_POINT('',#1762);
#606=VERTEX_POINT('',#1765);
#607=VERTEX_POINT('',#1766);
#608=VERTEX_POINT('',#1768);
#609=VERTEX_POINT('',#1774);
#610=VERTEX_POINT('',#1775);
#611=VERTEX_POINT('',#1780);
#612=VERTEX_POINT('',#1782);
#613=VERTEX_POINT('',#1786);
#614=VERTEX_POINT('',#1791);
#615=VERTEX_POINT('',#1793);
#616=VERTEX_POINT('',#1796);
#617=VERTEX_POINT('',#1805);
#618=VERTEX_POINT('',#1815);
#619=VERTEX_POINT('',#1816);
#620=VERTEX_POINT('',#1821);
#621=VERTEX_POINT('',#1823);
#622=VERTEX_POINT('',#1825);
#623=VERTEX_POINT('',#1829);
#624=VERTEX_POINT('',#1842);
#625=VERTEX_POINT('',#1846);
#626=LINE('',#1539,#736);
#627=LINE('',#1542,#737);
#628=LINE('',#1544,#738);
#629=LINE('',#1546,#739);
#630=LINE('',#1548,#740);
#631=LINE('',#1550,#741);
#632=LINE('',#1552,#742);
#633=LINE('',#1554,#743);
#634=LINE('',#1557,#744);
#635=LINE('',#1559,#745);
#636=LINE('',#1561,#746);
#637=LINE('',#1565,#747);
#638=LINE('',#1567,#748);
#639=LINE('',#1569,#749);
#640=LINE('',#1571,#750);
#641=LINE('',#1573,#751);
#642=LINE('',#1575,#752);
#643=LINE('',#1578,#753);
#644=LINE('',#1579,#754);
#645=LINE('',#1581,#755);
#646=LINE('',#1583,#756);
#647=LINE('',#1585,#757);
#648=LINE('',#1588,#758);
#649=LINE('',#1590,#759);
#650=LINE('',#1591,#760);
#651=LINE('',#1595,#761);
#652=LINE('',#1598,#762);
#653=LINE('',#1600,#763);
#654=LINE('',#1602,#764);
#655=LINE('',#1606,#765);
#656=LINE('',#1608,#766);
#657=LINE('',#1610,#767);
#658=LINE('',#1613,#768);
#659=LINE('',#1615,#769);
#660=LINE('',#1617,#770);
#661=LINE('',#1620,#771);
#662=LINE('',#1622,#772);
#663=LINE('',#1623,#773);
#664=LINE('',#1625,#774);
#665=LINE('',#1627,#775);
#666=LINE('',#1647,#776);
#667=LINE('',#1649,#777);
#668=LINE('',#1651,#778);
#669=LINE('',#1652,#779);
#670=LINE('',#1654,#780);
#671=LINE('',#1659,#781);
#672=LINE('',#1661,#782);
#673=LINE('',#1663,#783);
#674=LINE('',#1668,#784);
#675=LINE('',#1671,#785);
#676=LINE('',#1684,#786);
#677=LINE('',#1686,#787);
#678=LINE('',#1688,#788);
#679=LINE('',#1690,#789);
#680=LINE('',#1692,#790);
#681=LINE('',#1696,#791);
#682=LINE('',#1699,#792);
#683=LINE('',#1701,#793);
#684=LINE('',#1703,#794);
#685=LINE('',#1705,#795);
#686=LINE('',#1707,#796);
#687=LINE('',#1711,#797);
#688=LINE('',#1713,#798);
#689=LINE('',#1715,#799);
#690=LINE('',#1717,#800);
#691=LINE('',#1720,#801);
#692=LINE('',#1722,#802);
#693=LINE('',#1724,#803);
#694=LINE('',#1726,#804);
#695=LINE('',#1728,#805);
#696=LINE('',#1730,#806);
#697=LINE('',#1734,#807);
#698=LINE('',#1737,#808);
#699=LINE('',#1739,#809);
#700=LINE('',#1741,#810);
#701=LINE('',#1743,#811);
#702=LINE('',#1745,#812);
#703=LINE('',#1747,#813);
#704=LINE('',#1750,#814);
#705=LINE('',#1751,#815);
#706=LINE('',#1753,#816);
#707=LINE('',#1756,#817);
#708=LINE('',#1758,#818);
#709=LINE('',#1760,#819);
#710=LINE('',#1764,#820);
#711=LINE('',#1767,#821);
#712=LINE('',#1769,#822);
#713=LINE('',#1771,#823);
#714=LINE('',#1773,#824);
#715=LINE('',#1776,#825);
#716=LINE('',#1777,#826);
#717=LINE('',#1779,#827);
#718=LINE('',#1781,#828);
#719=LINE('',#1783,#829);
#720=LINE('',#1784,#830);
#721=LINE('',#1804,#831);
#722=LINE('',#1806,#832);
#723=LINE('',#1807,#833);
#724=LINE('',#1809,#834);
#725=LINE('',#1811,#835);
#726=LINE('',#1814,#836);
#727=LINE('',#1818,#837);
#728=LINE('',#1820,#838);
#729=LINE('',#1824,#839);
#730=LINE('',#1830,#840);
#731=LINE('',#1841,#841);
#732=LINE('',#1843,#842);
#733=LINE('',#1845,#843);
#734=LINE('',#1847,#844);
#735=LINE('',#1849,#845);
#736=VECTOR('',#1227,1.);
#737=VECTOR('',#1228,1.);
#738=VECTOR('',#1229,1.);
#739=VECTOR('',#1230,1.);
#740=VECTOR('',#1231,1.);
#741=VECTOR('',#1232,1.);
#742=VECTOR('',#1233,1.);
#743=VECTOR('',#1236,1.);
#744=VECTOR('',#1237,1.);
#745=VECTOR('',#1238,1.);
#746=VECTOR('',#1239,1.);
#747=VECTOR('',#1242,1.);
#748=VECTOR('',#1243,1.);
#749=VECTOR('',#1244,1.);
#750=VECTOR('',#1245,1.);
#751=VECTOR('',#1246,1.);
#752=VECTOR('',#1249,1.);
#753=VECTOR('',#1250,1.);
#754=VECTOR('',#1251,1.);
#755=VECTOR('',#1252,1.);
#756=VECTOR('',#1253,1.);
#757=VECTOR('',#1254,1.);
#758=VECTOR('',#1257,1.);
#759=VECTOR('',#1258,1.);
#760=VECTOR('',#1259,1.);
#761=VECTOR('',#1264,1.);
#762=VECTOR('',#1265,1.);
#763=VECTOR('',#1266,1.);
#764=VECTOR('',#1267,1.);
#765=VECTOR('',#1272,1.);
#766=VECTOR('',#1273,1.);
#767=VECTOR('',#1276,1.);
#768=VECTOR('',#1277,1.);
#769=VECTOR('',#1278,1.);
#770=VECTOR('',#1279,1.);
#771=VECTOR('',#1282,1.);
#772=VECTOR('',#1285,1.);
#773=VECTOR('',#1286,1.);
#774=VECTOR('',#1287,1.);
#775=VECTOR('',#1288,1.);
#776=VECTOR('',#1319,1.);
#777=VECTOR('',#1322,1.);
#778=VECTOR('',#1323,1.);
#779=VECTOR('',#1324,1.);
#780=VECTOR('',#1327,1.);
#781=VECTOR('',#1334,1.);
#782=VECTOR('',#1335,1.);
#783=VECTOR('',#1338,1.);
#784=VECTOR('',#1341,1.);
#785=VECTOR('',#1346,1.);
#786=VECTOR('',#1369,1.);
#787=VECTOR('',#1370,1.);
#788=VECTOR('',#1373,1.);
#789=VECTOR('',#1374,1.);
#790=VECTOR('',#1377,1.);
#791=VECTOR('',#1384,1.);
#792=VECTOR('',#1385,1.);
#793=VECTOR('',#1386,1.);
#794=VECTOR('',#1387,1.);
#795=VECTOR('',#1388,1.);
#796=VECTOR('',#1389,1.);
#797=VECTOR('',#1392,1.);
#798=VECTOR('',#1393,1.);
#799=VECTOR('',#1394,1.);
#800=VECTOR('',#1397,1.);
#801=VECTOR('',#1398,1.);
#802=VECTOR('',#1399,1.);
#803=VECTOR('',#1400,1.);
#804=VECTOR('',#1401,1.);
#805=VECTOR('',#1402,1.);
#806=VECTOR('',#1403,1.);
#807=VECTOR('',#1408,1.);
#808=VECTOR('',#1409,1.);
#809=VECTOR('',#1410,1.);
#810=VECTOR('',#1411,1.);
#811=VECTOR('',#1412,1.);
#812=VECTOR('',#1413,1.);
#813=VECTOR('',#1416,1.);
#814=VECTOR('',#1417,1.);
#815=VECTOR('',#1418,1.);
#816=VECTOR('',#1421,1.);
#817=VECTOR('',#1422,1.);
#818=VECTOR('',#1423,1.);
#819=VECTOR('',#1424,1.);
#820=VECTOR('',#1429,1.);
#821=VECTOR('',#1430,1.);
#822=VECTOR('',#1431,1.);
#823=VECTOR('',#1434,1.);
#824=VECTOR('',#1437,1.);
#825=VECTOR('',#1438,1.);
#826=VECTOR('',#1439,1.);
#827=VECTOR('',#1442,1.);
#828=VECTOR('',#1443,1.);
#829=VECTOR('',#1444,1.);
#830=VECTOR('',#1445,1.);
#831=VECTOR('',#1476,1.);
#832=VECTOR('',#1477,1.);
#833=VECTOR('',#1478,1.);
#834=VECTOR('',#1481,1.);
#835=VECTOR('',#1484,1.);
#836=VECTOR('',#1489,1.);
#837=VECTOR('',#1492,1.);
#838=VECTOR('',#1495,1.);
#839=VECTOR('',#1498,1.);
#840=VECTOR('',#1505,1.);
#841=VECTOR('',#1526,1.);
#842=VECTOR('',#1527,1.);
#843=VECTOR('',#1530,1.);
#844=VECTOR('',#1531,1.);
#845=VECTOR('',#1534,1.);
#846=EDGE_LOOP('',(#74,#75,#76,#77,#78,#79,#80));
#847=EDGE_LOOP('',(#81,#82,#83,#84,#85,#86,#87,#88,#89,#90));
#848=EDGE_LOOP('',(#91,#92,#93,#94,#95,#96,#97,#98,#99,#100,#101,#102,#103));
#849=EDGE_LOOP('',(#104));
#850=EDGE_LOOP('',(#105,#106,#107,#108));
#851=EDGE_LOOP('',(#109));
#852=EDGE_LOOP('',(#110,#111,#112,#113));
#853=EDGE_LOOP('',(#114,#115,#116,#117,#118,#119,#120));
#854=EDGE_LOOP('',(#121,#122,#123,#124,#125,#126));
#855=EDGE_LOOP('',(#127));
#856=EDGE_LOOP('',(#128,#129));
#857=EDGE_LOOP('',(#130));
#858=EDGE_LOOP('',(#131));
#859=EDGE_LOOP('',(#132));
#860=EDGE_LOOP('',(#133));
#861=EDGE_LOOP('',(#134));
#862=EDGE_LOOP('',(#135));
#863=EDGE_LOOP('',(#136,#137,#138,#139));
#864=EDGE_LOOP('',(#140,#141,#142,#143));
#865=EDGE_LOOP('',(#144,#145,#146,#147));
#866=EDGE_LOOP('',(#148));
#867=EDGE_LOOP('',(#149,#150,#151,#152));
#868=EDGE_LOOP('',(#153,#154,#155,#156,#157,#158,#159));
#869=EDGE_LOOP('',(#160,#161,#162));
#870=EDGE_LOOP('',(#163,#164,#165,#166));
#871=EDGE_LOOP('',(#167,#168,#169,#170,#171,#172));
#872=EDGE_LOOP('',(#173,#174,#175,#176,#177,#178,#179));
#873=EDGE_LOOP('',(#180,#181,#182,#183,#184,#185));
#874=EDGE_LOOP('',(#186,#187,#188,#189));
#875=EDGE_LOOP('',(#190,#191,#192,#193,#194));
#876=EDGE_LOOP('',(#195,#196,#197,#198,#199));
#877=EDGE_LOOP('',(#200,#201,#202,#203,#204,#205));
#878=EDGE_LOOP('',(#206));
#879=EDGE_LOOP('',(#207));
#880=EDGE_LOOP('',(#208,#209,#210,#211));
#881=EDGE_LOOP('',(#212,#213,#214,#215));
#882=EDGE_LOOP('',(#216,#217,#218,#219));
#883=EDGE_LOOP('',(#220,#221,#222,#223));
#884=EDGE_LOOP('',(#224,#225,#226,#227,#228,#229,#230,#231,#232,#233));
#885=EDGE_LOOP('',(#234,#235,#236,#237,#238,#239,#240));
#886=EDGE_LOOP('',(#241));
#887=EDGE_LOOP('',(#242,#243,#244,#245,#246,#247));
#888=EDGE_LOOP('',(#248,#249,#250,#251));
#889=EDGE_LOOP('',(#252,#253,#254,#255));
#890=EDGE_LOOP('',(#256));
#891=EDGE_LOOP('',(#257,#258,#259,#260,#261,#262,#263));
#892=EDGE_LOOP('',(#264,#265,#266,#267,#268,#269,#270,#271,#272,#273,#274,
#275,#276));
#893=EDGE_LOOP('',(#277));
#894=EDGE_LOOP('',(#278));
#895=EDGE_LOOP('',(#279,#280));
#896=EDGE_LOOP('',(#281));
#897=EDGE_LOOP('',(#282));
#898=EDGE_LOOP('',(#283));
#899=EDGE_LOOP('',(#284));
#900=EDGE_LOOP('',(#285));
#901=EDGE_LOOP('',(#286,#287,#288,#289));
#902=EDGE_LOOP('',(#290,#291,#292,#293));
#903=EDGE_LOOP('',(#294,#295,#296,#297));
#904=EDGE_LOOP('',(#298));
#905=EDGE_LOOP('',(#299,#300,#301,#302,#303,#304,#305));
#906=EDGE_LOOP('',(#306,#307,#308,#309));
#907=EDGE_LOOP('',(#310,#311,#312));
#908=EDGE_LOOP('',(#313,#314,#315,#316));
#909=EDGE_LOOP('',(#317,#318,#319,#320,#321,#322));
#910=EDGE_LOOP('',(#323,#324,#325,#326,#327,#328,#329));
#911=EDGE_LOOP('',(#330,#331,#332,#333,#334,#335));
#912=EDGE_LOOP('',(#336,#337,#338,#339));
#913=EDGE_LOOP('',(#340,#341,#342,#343,#344));
#914=EDGE_LOOP('',(#345,#346,#347,#348,#349));
#915=EDGE_LOOP('',(#350,#351,#352,#353,#354,#355));
#916=EDGE_LOOP('',(#356));
#917=EDGE_LOOP('',(#357));
#918=EDGE_LOOP('',(#358,#359,#360,#361));
#919=EDGE_LOOP('',(#362,#363,#364,#365));
#920=EDGE_LOOP('',(#366,#367,#368,#369));
#921=EDGE_LOOP('',(#370,#371,#372,#373));
#922=FACE_BOUND('',#846,.T.);
#923=FACE_BOUND('',#847,.T.);
#924=FACE_BOUND('',#848,.T.);
#925=FACE_BOUND('',#849,.T.);
#926=FACE_BOUND('',#850,.T.);
#927=FACE_BOUND('',#851,.T.);
#928=FACE_BOUND('',#852,.T.);
#929=FACE_BOUND('',#853,.T.);
#930=FACE_BOUND('',#854,.T.);
#931=FACE_BOUND('',#855,.T.);
#932=FACE_BOUND('',#856,.T.);
#933=FACE_BOUND('',#857,.T.);
#934=FACE_BOUND('',#858,.T.);
#935=FACE_BOUND('',#859,.T.);
#936=FACE_BOUND('',#860,.T.);
#937=FACE_BOUND('',#861,.T.);
#938=FACE_BOUND('',#862,.T.);
#939=FACE_BOUND('',#863,.T.);
#940=FACE_BOUND('',#864,.T.);
#941=FACE_BOUND('',#865,.T.);
#942=FACE_BOUND('',#866,.T.);
#943=FACE_BOUND('',#867,.T.);
#944=FACE_BOUND('',#868,.T.);
#945=FACE_BOUND('',#869,.T.);
#946=FACE_BOUND('',#870,.T.);
#947=FACE_BOUND('',#871,.T.);
#948=FACE_BOUND('',#872,.T.);
#949=FACE_BOUND('',#873,.T.);
#950=FACE_BOUND('',#874,.T.);
#951=FACE_BOUND('',#875,.T.);
#952=FACE_BOUND('',#876,.T.);
#953=FACE_BOUND('',#877,.T.);
#954=FACE_BOUND('',#878,.T.);
#955=FACE_BOUND('',#879,.T.);
#956=FACE_BOUND('',#880,.T.);
#957=FACE_BOUND('',#881,.T.);
#958=FACE_BOUND('',#882,.T.);
#959=FACE_BOUND('',#883,.T.);
#960=FACE_BOUND('',#884,.T.);
#961=FACE_BOUND('',#885,.T.);
#962=FACE_BOUND('',#886,.T.);
#963=FACE_BOUND('',#887,.T.);
#964=FACE_BOUND('',#888,.T.);
#965=FACE_BOUND('',#889,.T.);
#966=FACE_BOUND('',#890,.T.);
#967=FACE_BOUND('',#891,.T.);
#968=FACE_BOUND('',#892,.T.);
#969=FACE_BOUND('',#893,.T.);
#970=FACE_BOUND('',#894,.T.);
#971=FACE_BOUND('',#895,.T.);
#972=FACE_BOUND('',#896,.T.);
#973=FACE_BOUND('',#897,.T.);
#974=FACE_BOUND('',#898,.T.);
#975=FACE_BOUND('',#899,.T.);
#976=FACE_BOUND('',#900,.T.);
#977=FACE_BOUND('',#901,.T.);
#978=FACE_BOUND('',#902,.T.);
#979=FACE_BOUND('',#903,.T.);
#980=FACE_BOUND('',#904,.T.);
#981=FACE_BOUND('',#905,.T.);
#982=FACE_BOUND('',#906,.T.);
#983=FACE_BOUND('',#907,.T.);
#984=FACE_BOUND('',#908,.T.);
#985=FACE_BOUND('',#909,.T.);
#986=FACE_BOUND('',#910,.T.);
#987=FACE_BOUND('',#911,.T.);
#988=FACE_BOUND('',#912,.T.);
#989=FACE_BOUND('',#913,.T.);
#990=FACE_BOUND('',#914,.T.);
#991=FACE_BOUND('',#915,.T.);
#992=FACE_BOUND('',#916,.T.);
#993=FACE_BOUND('',#917,.T.);
#994=FACE_BOUND('',#918,.T.);
#995=FACE_BOUND('',#919,.T.);
#996=FACE_BOUND('',#920,.T.);
#997=FACE_BOUND('',#921,.T.);
#998=PLANE('',#1122);
#999=PLANE('',#1123);
#1000=PLANE('',#1125);
#1001=PLANE('',#1128);
#1002=PLANE('',#1130);
#1003=PLANE('',#1131);
#1004=PLANE('',#1133);
#1005=PLANE('',#1140);
#1006=PLANE('',#1145);
#1007=PLANE('',#1148);
#1008=PLANE('',#1149);
#1009=PLANE('',#1150);
#1010=PLANE('',#1151);
#1011=PLANE('',#1152);
#1012=PLANE('',#1154);
#1013=PLANE('',#1157);
#1014=PLANE('',#1168);
#1015=PLANE('',#1169);
#1016=PLANE('',#1170);
#1017=PLANE('',#1171);
#1018=PLANE('',#1173);
#1019=PLANE('',#1175);
#1020=PLANE('',#1176);
#1021=PLANE('',#1178);
#1022=PLANE('',#1179);
#1023=PLANE('',#1181);
#1024=PLANE('',#1183);
#1025=PLANE('',#1191);
#1026=PLANE('',#1196);
#1027=PLANE('',#1199);
#1028=PLANE('',#1200);
#1029=PLANE('',#1201);
#1030=PLANE('',#1202);
#1031=PLANE('',#1203);
#1032=PLANE('',#1205);
#1033=PLANE('',#1208);
#1034=PLANE('',#1219);
#1035=PLANE('',#1220);
#1036=PLANE('',#1221);
#1037=PLANE('',#1222);
#1038=ADVANCED_FACE('',(#922),#998,.T.);
#1039=ADVANCED_FACE('',(#923),#999,.T.);
#1040=ADVANCED_FACE('',(#924,#925),#1000,.F.);
#1041=ADVANCED_FACE('',(#926,#927),#1001,.T.);
#1042=ADVANCED_FACE('',(#928),#1002,.T.);
#1043=ADVANCED_FACE('',(#929),#1003,.T.);
#1044=ADVANCED_FACE('',(#930,#931),#1004,.T.);
#1045=ADVANCED_FACE('',(#932,#933),#18,.F.);
#1046=ADVANCED_FACE('',(#934,#935),#19,.T.);
#1047=ADVANCED_FACE('',(#936),#1005,.T.);
#1048=ADVANCED_FACE('',(#937,#938),#14,.T.);
#1049=ADVANCED_FACE('',(#939),#20,.T.);
#1050=ADVANCED_FACE('',(#940),#1006,.T.);
#1051=ADVANCED_FACE('',(#941,#942),#21,.F.);
#1052=ADVANCED_FACE('',(#943),#1007,.F.);
#1053=ADVANCED_FACE('',(#944),#1008,.F.);
#1054=ADVANCED_FACE('',(#945),#1009,.T.);
#1055=ADVANCED_FACE('',(#946),#1010,.F.);
#1056=ADVANCED_FACE('',(#947),#1011,.F.);
#1057=ADVANCED_FACE('',(#948),#1012,.F.);
#1058=ADVANCED_FACE('',(#949),#1013,.F.);
#1059=ADVANCED_FACE('',(#950),#22,.T.);
#1060=ADVANCED_FACE('',(#951),#23,.T.);
#1061=ADVANCED_FACE('',(#952),#24,.T.);
#1062=ADVANCED_FACE('',(#953),#25,.T.);
#1063=ADVANCED_FACE('',(#954,#955),#15,.F.);
#1064=ADVANCED_FACE('',(#956),#1014,.F.);
#1065=ADVANCED_FACE('',(#957),#1015,.F.);
#1066=ADVANCED_FACE('',(#958),#1016,.F.);
#1067=ADVANCED_FACE('',(#959),#1017,.T.);
#1068=ADVANCED_FACE('',(#960),#1018,.T.);
#1069=ADVANCED_FACE('',(#961),#1019,.F.);
#1070=ADVANCED_FACE('',(#962,#963),#1020,.F.);
#1071=ADVANCED_FACE('',(#964),#1021,.T.);
#1072=ADVANCED_FACE('',(#965,#966),#1022,.T.);
#1073=ADVANCED_FACE('',(#967),#1023,.T.);
#1074=ADVANCED_FACE('',(#968,#969),#1024,.F.);
#1075=ADVANCED_FACE('',(#970,#971),#26,.F.);
#1076=ADVANCED_FACE('',(#972,#973),#27,.T.);
#1077=ADVANCED_FACE('',(#974),#1025,.T.);
#1078=ADVANCED_FACE('',(#975,#976),#16,.T.);
#1079=ADVANCED_FACE('',(#977),#28,.T.);
#1080=ADVANCED_FACE('',(#978),#1026,.T.);
#1081=ADVANCED_FACE('',(#979,#980),#29,.F.);
#1082=ADVANCED_FACE('',(#981),#1027,.F.);
#1083=ADVANCED_FACE('',(#982),#1028,.F.);
#1084=ADVANCED_FACE('',(#983),#1029,.T.);
#1085=ADVANCED_FACE('',(#984),#1030,.F.);
#1086=ADVANCED_FACE('',(#985),#1031,.T.);
#1087=ADVANCED_FACE('',(#986),#1032,.F.);
#1088=ADVANCED_FACE('',(#987),#1033,.F.);
#1089=ADVANCED_FACE('',(#988),#30,.T.);
#1090=ADVANCED_FACE('',(#989),#31,.T.);
#1091=ADVANCED_FACE('',(#990),#32,.T.);
#1092=ADVANCED_FACE('',(#991),#33,.T.);
#1093=ADVANCED_FACE('',(#992,#993),#17,.F.);
#1094=ADVANCED_FACE('',(#994),#1034,.T.);
#1095=ADVANCED_FACE('',(#995),#1035,.T.);
#1096=ADVANCED_FACE('',(#996),#1036,.T.);
#1097=ADVANCED_FACE('',(#997),#1037,.F.);
#1098=CLOSED_SHELL('',(#1038,#1039,#1040,#1041,#1042,#1043,#1044,#1045,
#1046,#1047,#1048,#1049,#1050,#1051,#1052,#1053,#1054,#1055,#1056,#1057,
#1058,#1059,#1060,#1061,#1062,#1063,#1064,#1065,#1066,#1067));
#1099=CLOSED_SHELL('',(#1068,#1069,#1070,#1071,#1072,#1073,#1074,#1075,
#1076,#1077,#1078,#1079,#1080,#1081,#1082,#1083,#1084,#1085,#1086,#1087,
#1088,#1089,#1090,#1091,#1092,#1093,#1094,#1095,#1096,#1097));
#1100=STYLED_ITEM('',(#1102),#1115);
#1101=STYLED_ITEM('',(#1103),#1116);
#1102=PRESENTATION_STYLE_ASSIGNMENT((#1104));
#1103=PRESENTATION_STYLE_ASSIGNMENT((#1105));
#1104=SURFACE_STYLE_USAGE(.BOTH.,#1106);
#1105=SURFACE_STYLE_USAGE(.BOTH.,#1107);
#1106=SURFACE_SIDE_STYLE('',(#1108));
#1107=SURFACE_SIDE_STYLE('',(#1109));
#1108=SURFACE_STYLE_FILL_AREA(#1110);
#1109=SURFACE_STYLE_FILL_AREA(#1111);
#1110=FILL_AREA_STYLE('',(#1112));
#1111=FILL_AREA_STYLE('',(#1113));
#1112=FILL_AREA_STYLE_COLOUR('',#1114);
#1113=FILL_AREA_STYLE_COLOUR('',#1114);
#1114=COLOUR_RGB('',0.729411764705882,0.250980392156863,0.105882352941176);
#1115=MANIFOLD_SOLID_BREP('WeaponSystem',#1098);
#1116=MANIFOLD_SOLID_BREP('WeaponSystem',#1099);
#1117=SHAPE_DEFINITION_REPRESENTATION(#1863,#1119);
#1118=SHAPE_DEFINITION_REPRESENTATION(#1864,#1120);
#1119=SHAPE_REPRESENTATION('WeaponSystem',(#1121),#1853);
#1120=SHAPE_REPRESENTATION('WeaponSystem',(#1172),#1854);
#1121=AXIS2_PLACEMENT_3D('',#1537,#1223,#1224);
#1122=AXIS2_PLACEMENT_3D('',#1538,#1225,#1226);
#1123=AXIS2_PLACEMENT_3D('',#1553,#1234,#1235);
#1124=AXIS2_PLACEMENT_3D('',#1563,#1240,#1241);
#1125=AXIS2_PLACEMENT_3D('',#1574,#1247,#1248);
#1126=AXIS2_PLACEMENT_3D('',#1587,#1255,#1256);
#1127=AXIS2_PLACEMENT_3D('',#1592,#1260,#1261);
#1128=AXIS2_PLACEMENT_3D('',#1594,#1262,#1263);
#1129=AXIS2_PLACEMENT_3D('',#1603,#1268,#1269);
#1130=AXIS2_PLACEMENT_3D('',#1605,#1270,#1271);
#1131=AXIS2_PLACEMENT_3D('',#1609,#1274,#1275);
#1132=AXIS2_PLACEMENT_3D('',#1618,#1280,#1281);
#1133=AXIS2_PLACEMENT_3D('',#1621,#1283,#1284);
#1134=AXIS2_PLACEMENT_3D('',#1628,#1289,#1290);
#1135=AXIS2_PLACEMENT_3D('',#1630,#1291,#1292);
#1136=AXIS2_PLACEMENT_3D('',#1631,#1293,#1294);
#1137=AXIS2_PLACEMENT_3D('',#1632,#1295,#1296);
#1138=AXIS2_PLACEMENT_3D('',#1633,#1297,#1298);
#1139=AXIS2_PLACEMENT_3D('',#1635,#1299,#1300);
#1140=AXIS2_PLACEMENT_3D('',#1637,#1301,#1302);
#1141=AXIS2_PLACEMENT_3D('',#1638,#1303,#1304);
#1142=AXIS2_PLACEMENT_3D('',#1640,#1305,#1306);
#1143=AXIS2_PLACEMENT_3D('',#1641,#1307,#1308);
#1144=AXIS2_PLACEMENT_3D('',#1642,#1309,#1310);
#1145=AXIS2_PLACEMENT_3D('',#1643,#1311,#1312);
#1146=AXIS2_PLACEMENT_3D('',#1644,#1313,#1314);
#1147=AXIS2_PLACEMENT_3D('',#1645,#1315,#1316);
#1148=AXIS2_PLACEMENT_3D('',#1646,#1317,#1318);
#1149=AXIS2_PLACEMENT_3D('',#1648,#1320,#1321);
#1150=AXIS2_PLACEMENT_3D('',#1653,#1325,#1326);
#1151=AXIS2_PLACEMENT_3D('',#1655,#1328,#1329);
#1152=AXIS2_PLACEMENT_3D('',#1656,#1330,#1331);
#1153=AXIS2_PLACEMENT_3D('',#1657,#1332,#1333);
#1154=AXIS2_PLACEMENT_3D('',#1662,#1336,#1337);
#1155=AXIS2_PLACEMENT_3D('',#1666,#1339,#1340);
#1156=AXIS2_PLACEMENT_3D('',#1669,#1342,#1343);
#1157=AXIS2_PLACEMENT_3D('',#1670,#1344,#1345);
#1158=AXIS2_PLACEMENT_3D('',#1673,#1347,#1348);
#1159=AXIS2_PLACEMENT_3D('',#1674,#1349,#1350);
#1160=AXIS2_PLACEMENT_3D('',#1675,#1351,#1352);
#1161=AXIS2_PLACEMENT_3D('',#1676,#1353,#1354);
#1162=AXIS2_PLACEMENT_3D('',#1677,#1355,#1356);
#1163=AXIS2_PLACEMENT_3D('',#1678,#1357,#1358);
#1164=AXIS2_PLACEMENT_3D('',#1679,#1359,#1360);
#1165=AXIS2_PLACEMENT_3D('',#1680,#1361,#1362);
#1166=AXIS2_PLACEMENT_3D('',#1681,#1363,#1364);
#1167=AXIS2_PLACEMENT_3D('',#1682,#1365,#1366);
#1168=AXIS2_PLACEMENT_3D('',#1683,#1367,#1368);
#1169=AXIS2_PLACEMENT_3D('',#1687,#1371,#1372);
#1170=AXIS2_PLACEMENT_3D('',#1691,#1375,#1376);
#1171=AXIS2_PLACEMENT_3D('',#1693,#1378,#1379);
#1172=AXIS2_PLACEMENT_3D('',#1694,#1380,#1381);
#1173=AXIS2_PLACEMENT_3D('',#1695,#1382,#1383);
#1174=AXIS2_PLACEMENT_3D('',#1709,#1390,#1391);
#1175=AXIS2_PLACEMENT_3D('',#1716,#1395,#1396);
#1176=AXIS2_PLACEMENT_3D('',#1731,#1404,#1405);
#1177=AXIS2_PLACEMENT_3D('',#1732,#1406,#1407);
#1178=AXIS2_PLACEMENT_3D('',#1746,#1414,#1415);
#1179=AXIS2_PLACEMENT_3D('',#1752,#1419,#1420);
#1180=AXIS2_PLACEMENT_3D('',#1761,#1425,#1426);
#1181=AXIS2_PLACEMENT_3D('',#1763,#1427,#1428);
#1182=AXIS2_PLACEMENT_3D('',#1770,#1432,#1433);
#1183=AXIS2_PLACEMENT_3D('',#1772,#1435,#1436);
#1184=AXIS2_PLACEMENT_3D('',#1778,#1440,#1441);
#1185=AXIS2_PLACEMENT_3D('',#1785,#1446,#1447);
#1186=AXIS2_PLACEMENT_3D('',#1787,#1448,#1449);
#1187=AXIS2_PLACEMENT_3D('',#1788,#1450,#1451);
#1188=AXIS2_PLACEMENT_3D('',#1789,#1452,#1453);
#1189=AXIS2_PLACEMENT_3D('',#1790,#1454,#1455);
#1190=AXIS2_PLACEMENT_3D('',#1792,#1456,#1457);
#1191=AXIS2_PLACEMENT_3D('',#1794,#1458,#1459);
#1192=AXIS2_PLACEMENT_3D('',#1795,#1460,#1461);
#1193=AXIS2_PLACEMENT_3D('',#1797,#1462,#1463);
#1194=AXIS2_PLACEMENT_3D('',#1798,#1464,#1465);
#1195=AXIS2_PLACEMENT_3D('',#1799,#1466,#1467);
#1196=AXIS2_PLACEMENT_3D('',#1800,#1468,#1469);
#1197=AXIS2_PLACEMENT_3D('',#1801,#1470,#1471);
#1198=AXIS2_PLACEMENT_3D('',#1802,#1472,#1473);
#1199=AXIS2_PLACEMENT_3D('',#1803,#1474,#1475);
#1200=AXIS2_PLACEMENT_3D('',#1808,#1479,#1480);
#1201=AXIS2_PLACEMENT_3D('',#1810,#1482,#1483);
#1202=AXIS2_PLACEMENT_3D('',#1812,#1485,#1486);
#1203=AXIS2_PLACEMENT_3D('',#1813,#1487,#1488);
#1204=AXIS2_PLACEMENT_3D('',#1817,#1490,#1491);
#1205=AXIS2_PLACEMENT_3D('',#1819,#1493,#1494);
#1206=AXIS2_PLACEMENT_3D('',#1822,#1496,#1497);
#1207=AXIS2_PLACEMENT_3D('',#1826,#1499,#1500);
#1208=AXIS2_PLACEMENT_3D('',#1827,#1501,#1502);
#1209=AXIS2_PLACEMENT_3D('',#1828,#1503,#1504);
#1210=AXIS2_PLACEMENT_3D('',#1831,#1506,#1507);
#1211=AXIS2_PLACEMENT_3D('',#1832,#1508,#1509);
#1212=AXIS2_PLACEMENT_3D('',#1833,#1510,#1511);
#1213=AXIS2_PLACEMENT_3D('',#1834,#1512,#1513);
#1214=AXIS2_PLACEMENT_3D('',#1835,#1514,#1515);
#1215=AXIS2_PLACEMENT_3D('',#1836,#1516,#1517);
#1216=AXIS2_PLACEMENT_3D('',#1837,#1518,#1519);
#1217=AXIS2_PLACEMENT_3D('',#1838,#1520,#1521);
#1218=AXIS2_PLACEMENT_3D('',#1839,#1522,#1523);
#1219=AXIS2_PLACEMENT_3D('',#1840,#1524,#1525);
#1220=AXIS2_PLACEMENT_3D('',#1844,#1528,#1529);
#1221=AXIS2_PLACEMENT_3D('',#1848,#1532,#1533);
#1222=AXIS2_PLACEMENT_3D('',#1850,#1535,#1536);
#1223=DIRECTION('',(0.,0.,1.));
#1224=DIRECTION('',(1.,0.,0.));
#1225=DIRECTION('',(-1.,1.83095068199621E-16,0.));
#1226=DIRECTION('',(-1.83095068199621E-16,-1.,0.));
#1227=DIRECTION('',(-1.83095068199621E-16,-1.,0.));
#1228=DIRECTION('',(-1.49982699414952E-16,-0.819152044288992,0.573576436351046));
#1229=DIRECTION('',(-3.17941249326665E-17,-0.17364817766693,0.984807753012208));
#1230=DIRECTION('',(-1.83095068199621E-16,-1.,0.));
#1231=DIRECTION('',(0.,0.,-1.));
#1232=DIRECTION('',(1.83095068199621E-16,1.,0.));
#1233=DIRECTION('',(0.,0.,-1.));
#1234=DIRECTION('',(0.984807753012208,0.,0.17364817766693));
#1235=DIRECTION('',(-0.17364817766693,0.,0.984807753012208));
#1236=DIRECTION('',(-0.15689530945076,0.428537328905585,0.889797516071391));
#1237=DIRECTION('',(0.,-1.,0.));
#1238=DIRECTION('',(-0.171087869746036,-0.171087869746036,0.970287525247814));
#1239=DIRECTION('',(0.,-1.,0.));
#1240=DIRECTION('',(0.984807753012208,0.,0.17364817766693));
#1241=DIRECTION('',(-0.17364817766693,0.,0.984807753012208));
#1242=DIRECTION('',(0.,-1.,0.));
#1243=DIRECTION('',(0.171087869746036,-0.171087869746036,-0.970287525247814));
#1244=DIRECTION('',(0.,-1.,0.));
#1245=DIRECTION('',(0.156895268777382,0.428537822750721,-0.8897972854012));
#1246=DIRECTION('',(2.97838586243997E-17,-1.,-1.68912655934622E-16));
#1247=DIRECTION('',(0.,0.,1.));
#1248=DIRECTION('',(1.,0.,0.));
#1249=DIRECTION('',(0.,-1.,7.21713793997265E-16));
#1250=DIRECTION('',(1.,0.,0.));
#1251=DIRECTION('',(0.696032820063169,0.718009967476018,0.));
#1252=DIRECTION('',(-1.,0.,0.));
#1253=DIRECTION('',(0.752004534358258,-0.659157932748003,0.));
#1254=DIRECTION('',(-1.83095068199621E-16,-1.,0.));
#1255=DIRECTION('',(0.,0.,-1.));
#1256=DIRECTION('',(1.,0.,0.));
#1257=DIRECTION('',(1.,0.,0.));
#1258=DIRECTION('',(-0.696032820063168,0.718009967476019,0.));
#1259=DIRECTION('',(1.,0.,0.));
#1260=DIRECTION('',(0.,0.,-1.));
#1261=DIRECTION('',(1.,0.,0.));
#1262=DIRECTION('',(0.,-0.984807753012208,0.17364817766693));
#1263=DIRECTION('',(0.,0.17364817766693,0.984807753012208));
#1264=DIRECTION('',(1.,0.,0.));
#1265=DIRECTION('',(0.171087869746036,-0.171087869746036,-0.970287525247814));
#1266=DIRECTION('',(1.,0.,0.));
#1267=DIRECTION('',(1.38777878078145E-17,0.17364817766693,0.984807753012208));
#1268=DIRECTION('',(0.,-0.984807753012208,0.17364817766693));
#1269=DIRECTION('',(0.,-0.17364817766693,-0.984807753012208));
#1270=DIRECTION('',(0.,0.984807753012208,0.17364817766693));
#1271=DIRECTION('',(0.,-0.17364817766693,0.984807753012208));
#1272=DIRECTION('',(1.,0.,0.));
#1273=DIRECTION('',(0.171087869746036,0.171087869746036,-0.970287525247814));
#1274=DIRECTION('',(0.,0.,1.));
#1275=DIRECTION('',(1.,0.,0.));
#1276=DIRECTION('',(-0.752004534358258,0.659157932748003,0.));
#1277=DIRECTION('',(1.,0.,0.));
#1278=DIRECTION('',(0.,1.,0.));
#1279=DIRECTION('',(-1.,0.,0.));
#1280=DIRECTION('',(0.,0.,1.));
#1281=DIRECTION('',(1.,0.,0.));
#1282=DIRECTION('',(-1.83095068199621E-16,-1.,0.));
#1283=DIRECTION('',(-1.,1.83095068199621E-16,0.));
#1284=DIRECTION('',(-1.83095068199621E-16,-1.,0.));
#1285=DIRECTION('',(3.17941249326665E-17,0.17364817766693,0.984807753012208));
#1286=DIRECTION('',(0.,0.,-1.));
#1287=DIRECTION('',(1.83095068199621E-16,1.,0.));
#1288=DIRECTION('',(0.,0.,-1.));
#1289=DIRECTION('',(-1.,1.83095068199621E-16,0.));
#1290=DIRECTION('',(-1.83095068199621E-16,-1.,0.));
#1291=DIRECTION('',(-1.,0.,0.));
#1292=DIRECTION('',(0.,0.,1.));
#1293=DIRECTION('',(-0.707106781186548,0.,-0.707106781186548));
#1294=DIRECTION('',(-0.707106781186548,0.,0.707106781186548));
#1295=DIRECTION('',(0.,0.984807753012208,-0.17364817766693));
#1296=DIRECTION('',(0.,0.17364817766693,0.984807753012208));
#1297=DIRECTION('',(0.,-0.984807753012208,0.17364817766693));
#1298=DIRECTION('',(0.,-0.17364817766693,-0.984807753012208));
#1299=DIRECTION('',(0.,-0.984807753012208,0.17364817766693));
#1300=DIRECTION('',(0.,-0.17364817766693,-0.984807753012208));
#1301=DIRECTION('',(0.,-0.984807753012208,0.17364817766693));
#1302=DIRECTION('',(1.,0.,0.));
#1303=DIRECTION('',(0.,-0.984807753012208,0.17364817766693));
#1304=DIRECTION('',(0.,-0.17364817766693,-0.984807753012208));
#1305=DIRECTION('',(0.,-0.984807753012208,0.17364817766693));
#1306=DIRECTION('',(0.,-0.17364817766693,-0.984807753012208));
#1307=DIRECTION('',(0.,0.,-1.));
#1308=DIRECTION('',(-1.,0.,0.));
#1309=DIRECTION('',(0.,0.,-1.));
#1310=DIRECTION('',(1.,0.,0.));
#1311=DIRECTION('',(0.,0.,1.));
#1312=DIRECTION('',(1.,0.,0.));
#1313=DIRECTION('',(0.,0.,1.));
#1314=DIRECTION('',(1.,0.,0.));
#1315=DIRECTION('',(0.,0.,-1.));
#1316=DIRECTION('',(-1.,0.,0.));
#1317=DIRECTION('',(-0.69668103922303,-0.675356736508174,-0.241927278412641));
#1318=DIRECTION('',(0.171087869746036,0.171087869746036,-0.970287525247814));
#1319=DIRECTION('',(0.714861642491995,-0.681804408527942,-0.155291920606031));
#1320=DIRECTION('',(-0.707106781186548,0.,-0.707106781186548));
#1321=DIRECTION('',(0.,-1.,0.));
#1322=DIRECTION('',(0.577350269189626,-0.577350269189626,-0.577350269189625));
#1323=DIRECTION('',(0.638433097477061,0.429891102596567,-0.638433097477061));
#1324=DIRECTION('',(-0.688677046443035,-0.226821188174729,0.688677046443035));
#1325=DIRECTION('',(0.563528036694024,0.430224145645459,0.705225734331507));
#1326=DIRECTION('',(0.781221304580395,0.,-0.624254173610161));
#1327=DIRECTION('',(0.0920288856097144,0.815675839699789,-0.571142371693327));
#1328=DIRECTION('',(0.,-0.573576436351046,-0.819152044288992));
#1329=DIRECTION('',(1.,0.,0.));
#1330=DIRECTION('',(0.653438451625314,0.745479427817391,-0.131448136687315));
#1331=DIRECTION('',(3.17941249326665E-17,0.17364817766693,0.984807753012208));
#1332=DIRECTION('',(0.653438451625314,0.745479427817391,-0.131448136687315));
#1333=DIRECTION('',(-0.756979649619137,0.643511253276902,-0.113468396342236));
#1334=DIRECTION('',(1.72503726633808E-17,0.17364817766693,0.984807753012208));
#1335=DIRECTION('',(-0.553428883841396,0.588946716830168,0.588946716830167));
#1336=DIRECTION('',(0.,0.707106781186547,-0.707106781186548));
#1337=DIRECTION('',(1.,0.,0.));
#1338=DIRECTION('',(1.,0.,0.));
#1339=DIRECTION('',(0.,0.707106781186547,-0.707106781186548));
#1340=DIRECTION('',(0.207376957729019,-0.691735063952616,-0.691735063952614));
#1341=DIRECTION('',(0.402673945712636,0.647245584552038,0.647245584552037));
#1342=DIRECTION('',(0.,0.707106781186547,-0.707106781186548));
#1343=DIRECTION('',(1.69416507040034E-17,0.707106781186548,0.707106781186547));
#1344=DIRECTION('',(-0.696681039223029,0.675356736508175,-0.241927278412641));
#1345=DIRECTION('',(0.171087869746036,-0.171087869746036,-0.970287525247814));
#1346=DIRECTION('',(0.171087869746036,-0.171087869746036,-0.970287525247814));
#1347=DIRECTION('',(-0.696681039223029,0.675356736508175,-0.241927278412641));
#1348=DIRECTION('',(-0.717381021206388,-0.655869362484048,0.234946482773522));
#1349=DIRECTION('',(1.,0.,0.));
#1350=DIRECTION('',(0.,0.,-1.));
#1351=DIRECTION('',(0.765208425772363,-0.11179167922344,-0.634002117964432));
#1352=DIRECTION('',(-0.64378262257301,-0.132877048670751,-0.75358319037089));
#1353=DIRECTION('',(0.707106781186548,0.122787803968973,0.696364240320019));
#1354=DIRECTION('',(-0.707106781186548,0.122787803968973,0.696364240320019));
#1355=DIRECTION('',(1.38777878078145E-17,0.17364817766693,0.984807753012208));
#1356=DIRECTION('',(0.,-0.984807753012208,0.17364817766693));
#1357=DIRECTION('',(-0.707106781186548,0.122787803968973,0.696364240320019));
#1358=DIRECTION('',(0.707106781186548,0.122787803968973,0.696364240320019));
#1359=DIRECTION('',(0.171087869746036,-0.171087869746036,-0.970287525247814));
#1360=DIRECTION('',(-0.984807753012208,0.,-0.17364817766693));
#1361=DIRECTION('',(-0.64378262257301,-0.132877048670751,-0.75358319037089));
#1362=DIRECTION('',(0.765208425772363,-0.11179167922344,-0.634002117964432));
#1363=DIRECTION('',(-1.,0.,0.));
#1364=DIRECTION('',(0.,0.,1.));
#1365=DIRECTION('',(0.,-0.984807753012208,0.17364817766693));
#1366=DIRECTION('',(0.,-0.17364817766693,-0.984807753012208));
#1367=DIRECTION('',(0.,0.900955635574688,-0.433911215257465));
#1368=DIRECTION('',(0.,0.433911215257465,0.900955635574688));
#1369=DIRECTION('',(1.,0.,0.));
#1370=DIRECTION('',(0.,0.433911215257465,0.900955635574688));
#1371=DIRECTION('',(0.,-1.68912655934622E-16,1.));
#1372=DIRECTION('',(0.,-1.,-1.68912655934622E-16));
#1373=DIRECTION('',(1.,0.,0.));
#1374=DIRECTION('',(0.,-1.,-1.68912655934622E-16));
#1375=DIRECTION('',(0.,-0.900955396117366,-0.433911712456579));
#1376=DIRECTION('',(0.,0.433911712456579,-0.900955396117366));
#1377=DIRECTION('',(0.,0.433911712456579,-0.900955396117366));
#1378=DIRECTION('',(1.,0.,0.));
#1379=DIRECTION('',(0.,1.,0.));
#1380=DIRECTION('',(0.,0.,1.));
#1381=DIRECTION('',(1.,0.,0.));
#1382=DIRECTION('',(-0.984807753012208,0.,0.17364817766693));
#1383=DIRECTION('',(0.17364817766693,0.,0.984807753012208));
#1384=DIRECTION('',(0.15689530945076,0.428537328905585,0.889797516071391));
#1385=DIRECTION('',(-2.97838586243997E-17,-1.,-1.68912655934622E-16));
#1386=DIRECTION('',(-0.156895268777382,0.428537822750721,-0.8897972854012));
#1387=DIRECTION('',(0.,1.,0.));
#1388=DIRECTION('',(-0.171087869746036,-0.171087869746036,-0.970287525247814));
#1389=DIRECTION('',(0.,-1.,0.));
#1390=DIRECTION('',(-0.984807753012208,0.,0.17364817766693));
#1391=DIRECTION('',(-0.17364817766693,0.,-0.984807753012208));
#1392=DIRECTION('',(0.,-1.,0.));
#1393=DIRECTION('',(0.171087869746036,-0.171087869746036,0.970287525247814));
#1394=DIRECTION('',(0.,1.,0.));
#1395=DIRECTION('',(-1.,1.83095068199621E-16,0.));
#1396=DIRECTION('',(-1.83095068199621E-16,-1.,0.));
#1397=DIRECTION('',(-3.17941249326665E-17,-0.17364817766693,0.984807753012208));
#1398=DIRECTION('',(1.49982699414952E-16,0.819152044288992,-0.573576436351046));
#1399=DIRECTION('',(-1.83095068199621E-16,-1.,0.));
#1400=DIRECTION('',(0.,0.,-1.));
#1401=DIRECTION('',(1.83095068199621E-16,1.,0.));
#1402=DIRECTION('',(0.,0.,-1.));
#1403=DIRECTION('',(-1.83095068199621E-16,-1.,0.));
#1404=DIRECTION('',(-1.,1.83095068199621E-16,0.));
#1405=DIRECTION('',(-1.83095068199621E-16,-1.,0.));
#1406=DIRECTION('',(-1.,1.83095068199621E-16,0.));
#1407=DIRECTION('',(-1.83095068199621E-16,-1.,0.));
#1408=DIRECTION('',(-1.83095068199621E-16,-1.,0.));
#1409=DIRECTION('',(-3.17941249326665E-17,-0.17364817766693,-0.984807753012208));
#1410=DIRECTION('',(-1.83095068199621E-16,-1.,0.));
#1411=DIRECTION('',(0.,0.,-1.));
#1412=DIRECTION('',(1.83095068199621E-16,1.,0.));
#1413=DIRECTION('',(0.,0.,-1.));
#1414=DIRECTION('',(0.,0.984807753012208,0.17364817766693));
#1415=DIRECTION('',(0.,-0.17364817766693,0.984807753012208));
#1416=DIRECTION('',(0.171087869746036,-0.171087869746036,0.970287525247814));
#1417=DIRECTION('',(1.,0.,0.));
#1418=DIRECTION('',(1.,0.,0.));
#1419=DIRECTION('',(0.,-0.984807753012208,0.17364817766693));
#1420=DIRECTION('',(0.,0.17364817766693,0.984807753012208));
#1421=DIRECTION('',(1.,0.,0.));
#1422=DIRECTION('',(0.171087869746036,0.171087869746036,0.970287525247814));
#1423=DIRECTION('',(1.,0.,0.));
#1424=DIRECTION('',(4.24761896802855E-17,0.17364817766693,0.984807753012208));
#1425=DIRECTION('',(0.,-0.984807753012208,0.17364817766693));
#1426=DIRECTION('',(0.,-0.17364817766693,-0.984807753012208));
#1427=DIRECTION('',(0.,0.,1.));
#1428=DIRECTION('',(1.,0.,0.));
#1429=DIRECTION('',(0.,-1.,0.));
#1430=DIRECTION('',(1.,0.,0.));
#1431=DIRECTION('',(0.752004534358258,0.659157932748002,0.));
#1432=DIRECTION('',(0.,0.,1.));
#1433=DIRECTION('',(1.,0.,0.));
#1434=DIRECTION('',(-1.,0.,0.));
#1435=DIRECTION('',(0.,0.,1.));
#1436=DIRECTION('',(1.,0.,0.));
#1437=DIRECTION('',(0.,-1.,7.21713793997265E-16));
#1438=DIRECTION('',(-1.,0.,0.));
#1439=DIRECTION('',(-0.696032820063168,-0.718009967476019,0.));
#1440=DIRECTION('',(0.,0.,1.));
#1441=DIRECTION('',(1.,0.,0.));
#1442=DIRECTION('',(-0.752004534358258,-0.659157932748002,0.));
#1443=DIRECTION('',(-1.,0.,0.));
#1444=DIRECTION('',(0.696032820063169,-0.718009967476018,0.));
#1445=DIRECTION('',(-1.,0.,0.));
#1446=DIRECTION('',(0.,0.,1.));
#1447=DIRECTION('',(1.,0.,0.));
#1448=DIRECTION('',(-1.,0.,0.));
#1449=DIRECTION('',(0.,0.,1.));
#1450=DIRECTION('',(0.707106781186548,0.,-0.707106781186548));
#1451=DIRECTION('',(-0.707106781186548,0.,-0.707106781186548));
#1452=DIRECTION('',(0.,0.984807753012208,-0.17364817766693));
#1453=DIRECTION('',(0.,0.17364817766693,0.984807753012208));
#1454=DIRECTION('',(0.,-0.984807753012208,0.17364817766693));
#1455=DIRECTION('',(0.,-0.17364817766693,-0.984807753012208));
#1456=DIRECTION('',(0.,-0.984807753012208,0.17364817766693));
#1457=DIRECTION('',(0.,-0.17364817766693,-0.984807753012208));
#1458=DIRECTION('',(0.,-0.984807753012208,0.17364817766693));
#1459=DIRECTION('',(1.,0.,0.));
#1460=DIRECTION('',(0.,-0.984807753012208,0.17364817766693));
#1461=DIRECTION('',(0.,-0.17364817766693,-0.984807753012208));
#1462=DIRECTION('',(0.,-0.984807753012208,0.17364817766693));
#1463=DIRECTION('',(0.,-0.17364817766693,-0.984807753012208));
#1464=DIRECTION('',(0.,0.,-1.));
#1465=DIRECTION('',(-1.,0.,0.));
#1466=DIRECTION('',(0.,0.,1.));
#1467=DIRECTION('',(1.,0.,0.));
#1468=DIRECTION('',(0.,0.,1.));
#1469=DIRECTION('',(1.,0.,0.));
#1470=DIRECTION('',(0.,0.,1.));
#1471=DIRECTION('',(1.,0.,0.));
#1472=DIRECTION('',(0.,0.,-1.));
#1473=DIRECTION('',(-1.,0.,0.));
#1474=DIRECTION('',(0.707106781186548,0.,-0.707106781186548));
#1475=DIRECTION('',(0.,-1.,0.));
#1476=DIRECTION('',(0.638433097477061,-0.429891102596567,0.638433097477061));
#1477=DIRECTION('',(0.577350269189626,0.577350269189626,0.577350269189625));
#1478=DIRECTION('',(-0.688677046443035,0.226821188174729,-0.688677046443035));
#1479=DIRECTION('',(0.69668103922303,-0.675356736508174,-0.241927278412641));
#1480=DIRECTION('',(-0.171087869746036,0.171087869746036,-0.970287525247814));
#1481=DIRECTION('',(0.714861642491995,0.681804408527942,0.155291920606029));
#1482=DIRECTION('',(-0.563528036694023,0.43022414564546,0.705225734331507));
#1483=DIRECTION('',(0.781221304580395,0.,0.624254173610161));
#1484=DIRECTION('',(0.0920288856097132,-0.815675839699789,0.571142371693327));
#1485=DIRECTION('',(0.,-0.573576436351046,-0.819152044288992));
#1486=DIRECTION('',(1.,0.,0.));
#1487=DIRECTION('',(0.653438451625314,-0.745479427817391,0.131448136687315));
#1488=DIRECTION('',(-3.17941249326665E-17,-0.17364817766693,-0.984807753012208));
#1489=DIRECTION('',(-4.78797938292601E-17,-0.17364817766693,-0.984807753012208));
#1490=DIRECTION('',(0.653438451625314,-0.745479427817391,0.131448136687315));
#1491=DIRECTION('',(-0.756979649619138,-0.643511253276902,0.113468396342236));
#1492=DIRECTION('',(0.553428883841396,0.588946716830168,0.588946716830167));
#1493=DIRECTION('',(0.,0.707106781186547,-0.707106781186548));
#1494=DIRECTION('',(1.,0.,0.));
#1495=DIRECTION('',(-0.402673945712636,0.647245584552038,0.647245584552037));
#1496=DIRECTION('',(0.,0.707106781186547,-0.707106781186548));
#1497=DIRECTION('',(0.207376957729019,0.691735063952616,0.691735063952614));
#1498=DIRECTION('',(1.,0.,0.));
#1499=DIRECTION('',(0.,0.707106781186547,-0.707106781186548));
#1500=DIRECTION('',(5.18538529891042E-17,0.707106781186548,0.707106781186547));
#1501=DIRECTION('',(0.696681039223029,0.675356736508175,-0.241927278412641));
#1502=DIRECTION('',(-0.171087869746036,-0.171087869746036,-0.970287525247814));
#1503=DIRECTION('',(0.696681039223029,0.675356736508175,-0.241927278412641));
#1504=DIRECTION('',(-0.717381021206388,0.655869362484048,-0.234946482773522));
#1505=DIRECTION('',(0.171087869746036,0.171087869746036,0.970287525247814));
#1506=DIRECTION('',(1.,0.,0.));
#1507=DIRECTION('',(0.,0.,-1.));
#1508=DIRECTION('',(-0.707106781186548,0.122787803968973,0.696364240320019));
#1509=DIRECTION('',(0.707106781186548,0.122787803968973,0.696364240320019));
#1510=DIRECTION('',(0.765208425772363,0.11179167922344,0.634002117964432));
#1511=DIRECTION('',(-0.64378262257301,0.132877048670751,0.75358319037089));
#1512=DIRECTION('',(0.171087869746036,0.171087869746036,0.970287525247814));
#1513=DIRECTION('',(0.984807753012208,0.,-0.17364817766693));
#1514=DIRECTION('',(-0.64378262257301,0.132877048670751,0.75358319037089));
#1515=DIRECTION('',(0.765208425772363,0.11179167922344,0.634002117964432));
#1516=DIRECTION('',(4.24761896802855E-17,0.17364817766693,0.984807753012208));
#1517=DIRECTION('',(0.,-0.984807753012208,0.17364817766693));
#1518=DIRECTION('',(0.707106781186548,0.122787803968973,0.696364240320019));
#1519=DIRECTION('',(-0.707106781186548,0.122787803968973,0.696364240320019));
#1520=DIRECTION('',(-1.,0.,0.));
#1521=DIRECTION('',(0.,0.,1.));
#1522=DIRECTION('',(0.,-0.984807753012208,0.17364817766693));
#1523=DIRECTION('',(0.,-0.17364817766693,-0.984807753012208));
#1524=DIRECTION('',(0.,-0.900955635574688,0.433911215257465));
#1525=DIRECTION('',(0.,-0.433911215257465,-0.900955635574688));
#1526=DIRECTION('',(0.,0.433911215257465,0.900955635574688));
#1527=DIRECTION('',(-1.,0.,0.));
#1528=DIRECTION('',(0.,1.68912655934622E-16,-1.));
#1529=DIRECTION('',(0.,1.,1.68912655934622E-16));
#1530=DIRECTION('',(0.,-1.,-1.68912655934622E-16));
#1531=DIRECTION('',(-1.,0.,0.));
#1532=DIRECTION('',(0.,0.900955396117366,0.433911712456579));
#1533=DIRECTION('',(0.,-0.433911712456579,0.900955396117366));
#1534=DIRECTION('',(0.,0.433911712456579,-0.900955396117366));
#1535=DIRECTION('',(1.,0.,0.));
#1536=DIRECTION('',(0.,1.,0.));
#1537=CARTESIAN_POINT('',(0.,0.,0.));
#1538=CARTESIAN_POINT('',(0.0413100012,-3.46944695195361E-18,-0.023495));
#1539=CARTESIAN_POINT('',(0.0413100012,-3.46944695195361E-18,0.020955));
#1540=CARTESIAN_POINT('',(0.0413100012,0.00874435244213908,0.020955));
#1541=CARTESIAN_POINT('',(0.0413100012,0.00491996643519992,0.020955));
#1542=CARTESIAN_POINT('',(0.0413100012,0.0237614723802611,0.0104398994171276));
#1543=CARTESIAN_POINT('',(0.0413100012,0.0133884544019103,0.0177031647995537));
#1544=CARTESIAN_POINT('',(0.0413100012,0.01651,1.29346160889192E-18));
#1545=CARTESIAN_POINT('',(0.0413100012,0.01651,0.));
#1546=CARTESIAN_POINT('',(0.0413100012,-7.56365748704043E-18,0.));
#1547=CARTESIAN_POINT('',(0.0413100012,0.0072100138954157,0.));
#1548=CARTESIAN_POINT('',(0.0413100012,0.0072100138954157,0.00889));
#1549=CARTESIAN_POINT('',(0.0413100012,0.0072100138954157,0.00889));
#1550=CARTESIAN_POINT('',(0.0413100012,-3.46944695195361E-18,0.00889));
#1551=CARTESIAN_POINT('',(0.0413100012,0.00491996643519992,0.00889));
#1552=CARTESIAN_POINT('',(0.0413100012,0.00491996643519992,0.0254));
#1553=CARTESIAN_POINT('',(0.064135,0.,0.));
#1554=CARTESIAN_POINT('',(0.0642085369181456,0.000892865961652818,-0.000417048586949682));
#1555=CARTESIAN_POINT('',(0.064135,0.00109372164426289,4.33680868994202E-19));
#1556=CARTESIAN_POINT('',(0.0636350009891413,0.00245939816651783,0.00283563530010985));
#1557=CARTESIAN_POINT('',(0.064135,0.,0.));
#1558=CARTESIAN_POINT('',(0.064135,0.0130527655263349,0.));
#1559=CARTESIAN_POINT('',(0.0637529317278912,0.0126706972542262,0.0021668168454633));
#1560=CARTESIAN_POINT('',(0.0611469404783853,0.0100647060047203,0.0169461276408687));
#1561=CARTESIAN_POINT('',(0.0611469404783853,0.,0.0169461276408687));
#1562=CARTESIAN_POINT('',(0.0611469404783855,0.00130989526094951,0.0169461276408688));
#1563=CARTESIAN_POINT('',(0.0610180679620166,-2.38524477946811E-18,0.017677));
#1564=CARTESIAN_POINT('',(0.0611469404783853,-0.00130989526094951,0.0169461276408687));
#1565=CARTESIAN_POINT('',(0.0611469404783853,0.,0.0169461276408687));
#1566=CARTESIAN_POINT('',(0.0611469404783853,-0.0100647060047203,0.0169461276408687));
#1567=CARTESIAN_POINT('',(0.0642361969148579,-0.0131539624411928,-0.000573916223434779));
#1568=CARTESIAN_POINT('',(0.064135,-0.013052765526335,0.));
#1569=CARTESIAN_POINT('',(0.064135,0.,0.));
#1570=CARTESIAN_POINT('',(0.064135,-0.00130989526094951,1.89735380184964E-18));
#1571=CARTESIAN_POINT('',(0.0642230715373267,-0.00106933998387582,-0.000499478508466716));
#1572=CARTESIAN_POINT('',(0.0636350009891413,-0.00267557371104306,0.00283563530010985));
#1573=CARTESIAN_POINT('',(0.0636350009891413,-4.9386658965528E-19,0.00283563530010985));
#1574=CARTESIAN_POINT('',(0.,0.,0.));
#1575=CARTESIAN_POINT('',(0.0577342,-0.000108086808343309,8.67361737988404E-19));
#1576=CARTESIAN_POINT('',(0.0577342,0.00109372164426289,0.));
#1577=CARTESIAN_POINT('',(0.0577342,-0.00130989526094951,0.));
#1578=CARTESIAN_POINT('',(0.0577342,-0.00130989526094951,1.7347234759768E-18));
#1579=CARTESIAN_POINT('',(0.0641408444280161,-0.0130467365612505,0.));
#1580=CARTESIAN_POINT('',(0.060959650043251,-0.0163283767524887,0.));
#1581=CARTESIAN_POINT('',(0.,-0.0163283767524887,0.));
#1582=CARTESIAN_POINT('',(0.0458185398772094,-0.0163283767524887,0.));
#1583=CARTESIAN_POINT('',(0.0431166341561506,-0.013960063121118,0.));
#1584=CARTESIAN_POINT('',(0.0413100012,-0.0123764869720369,0.));
#1585=CARTESIAN_POINT('',(0.0413100012,-7.56365748704043E-18,0.));
#1586=CARTESIAN_POINT('',(0.0413100012,-6.93889390390723E-18,0.));
#1587=CARTESIAN_POINT('',(0.0400248946171746,0.00360500694770785,0.));
#1588=CARTESIAN_POINT('',(0.,0.01651,0.));
#1589=CARTESIAN_POINT('',(0.0607835859955627,0.01651,0.));
#1590=CARTESIAN_POINT('',(0.0608108020895159,0.0164819245613557,0.));
#1591=CARTESIAN_POINT('',(0.0577342,0.00109372164426289,0.));
#1592=CARTESIAN_POINT('',(0.0400248946171746,0.00360500694770785,0.));
#1593=CARTESIAN_POINT('',(0.0418635401466246,0.00360500694770785,0.));
#1594=CARTESIAN_POINT('',(0.,-0.01651,0.));
#1595=CARTESIAN_POINT('',(0.,-0.0164784614540477,0.00017886398227644));
#1596=CARTESIAN_POINT('',(0.0460824250152852,-0.0164784614540477,0.00017886398227644));
#1597=CARTESIAN_POINT('',(0.060687976628052,-0.0164784614540477,0.00017886398227644));
#1598=CARTESIAN_POINT('',(0.0577333310731989,-0.0135238158991945,0.0169354916009296));
#1599=CARTESIAN_POINT('',(0.0577397997139504,-0.013530284539946,0.016898806116238));
#1600=CARTESIAN_POINT('',(0.0460257459182625,-0.013530284539946,0.016898806116238));
#1601=CARTESIAN_POINT('',(0.0460824250152852,-0.013530284539946,0.016898806116238));
#1602=CARTESIAN_POINT('',(0.0460824250152852,-0.01651,-2.62877369176273E-20));
#1603=CARTESIAN_POINT('',(0.0518573512,-0.0146289535711185,0.0106679444139727));
#1604=CARTESIAN_POINT('',(0.0518573512,-0.0156312768998386,0.0049834863424233));
#1605=CARTESIAN_POINT('',(0.,0.01651,0.));
#1606=CARTESIAN_POINT('',(0.,0.0133884544019103,0.0177031647995537));
#1607=CARTESIAN_POINT('',(0.0576620403974731,0.0133884544019103,0.0177031647995537));
#1608=CARTESIAN_POINT('',(0.0590043860530643,0.0147308000575016,0.0100903442873561));
#1609=CARTESIAN_POINT('',(0.,0.,0.020955));
#1610=CARTESIAN_POINT('',(0.0136453906497596,0.0155674310084226,0.020955));
#1611=CARTESIAN_POINT('',(0.0413100012,-0.008681555091291,0.020955));
#1612=CARTESIAN_POINT('',(0.0422586381447143,-0.00951306811925411,0.020955));
#1613=CARTESIAN_POINT('',(0.0571380681192541,-0.00951306811925411,0.020955));
#1614=CARTESIAN_POINT('',(0.0571380681192541,-0.00951306811925411,0.020955));
#1615=CARTESIAN_POINT('',(0.0571380681192541,0.,0.020955));
#1616=CARTESIAN_POINT('',(0.0571380681192541,0.00874435244213908,0.020955));
#1617=CARTESIAN_POINT('',(0.,0.00874435244213908,0.020955));
#1618=CARTESIAN_POINT('',(0.0400248946171746,0.00360500694770785,0.020955));
#1619=CARTESIAN_POINT('',(0.0413100012,0.00229004746021576,0.020955));
#1620=CARTESIAN_POINT('',(0.0413100012,-3.46944695195361E-18,0.020955));
#1621=CARTESIAN_POINT('',(0.0413100012,-3.46944695195361E-18,-0.023495));
#1622=CARTESIAN_POINT('',(0.0413100012,-0.00880619576012288,0.0202481276408688));
#1623=CARTESIAN_POINT('',(0.0413100012,0.00229004746021576,0.0254));
#1624=CARTESIAN_POINT('',(0.0413100012,0.00229004746021576,0.00889));
#1625=CARTESIAN_POINT('',(0.0413100012,-3.46944695195361E-18,0.00889));
#1626=CARTESIAN_POINT('',(0.0413100012,-6.93889390390723E-18,0.00889));
#1627=CARTESIAN_POINT('',(0.0413100012,-6.93889390390723E-18,0.00889));
#1628=CARTESIAN_POINT('',(0.0413100012,-2.38524477946811E-18,0.017677));
#1629=CARTESIAN_POINT('',(0.0413100012,-0.0015,0.017677));
#1630=CARTESIAN_POINT('',(0.70993,-2.38524477946811E-18,0.017677));
#1631=CARTESIAN_POINT('',(0.0604160681192542,-2.38524477946811E-18,0.017677));
#1632=CARTESIAN_POINT('',(0.0518573512,-0.028386717880699,0.0130938094559797));
#1633=CARTESIAN_POINT('',(0.0518573512,-0.0147790382726775,0.0106944083962492));
#1634=CARTESIAN_POINT('',(0.0518573512,-0.0157548976191212,0.0051600350262588));
#1635=CARTESIAN_POINT('',(0.0518573512,-0.02723932033728,0.0128914923114764));
#1636=CARTESIAN_POINT('',(0.0518573512,-0.0282151796837237,0.00735711894148601));
#1637=CARTESIAN_POINT('',(-6.73735000000786E-6,-0.028386717880699,0.0130938094559797));
#1638=CARTESIAN_POINT('',(0.0518573512,-0.028386717880699,0.0130938094559797));
#1639=CARTESIAN_POINT('',(0.0518573512,-0.0291602600826393,0.0087068336294084));
#1640=CARTESIAN_POINT('',(0.0518573512,-0.02723932033728,0.0128914923114764));
#1641=CARTESIAN_POINT('',(0.0400248946171746,0.00360500694770785,0.00889));
#1642=CARTESIAN_POINT('',(0.0400248946171746,0.00360500694770785,0.00889));
#1643=CARTESIAN_POINT('',(0.,0.00360500694770785,0.00889));
#1644=CARTESIAN_POINT('',(0.0400248946171746,0.00360500694770785,0.00889));
#1645=CARTESIAN_POINT('',(0.0400248946171746,0.00360500694770785,0.0254));
#1646=CARTESIAN_POINT('',(0.0590043860530643,0.0147308000575016,0.0100903442873561));
#1647=CARTESIAN_POINT('',(0.0576620403974731,0.0133884544019103,0.0177031647995537));
#1648=CARTESIAN_POINT('',(0.0611469404783853,0.,0.0169461276408687));
#1649=CARTESIAN_POINT('',(0.0566396269855902,-0.00901462698559022,0.0214534411336639));
#1650=CARTESIAN_POINT('',(0.0590808888869543,-0.0114558888869543,0.0190121792322999));
#1651=CARTESIAN_POINT('',(0.0639092665575278,-0.00820468432259495,0.0141838015617264));
#1652=CARTESIAN_POINT('',(0.059654282393681,0.0095730873540626,0.0184387857255731));
#1653=CARTESIAN_POINT('',(0.0576620403974731,0.0133884544019103,0.0177031647995537));
#1654=CARTESIAN_POINT('',(0.0576620403974731,0.0133884544019103,0.0177031647995537));
#1655=CARTESIAN_POINT('',(0.,0.0133884544019103,0.0177031647995537));
#1656=CARTESIAN_POINT('',(0.0413100012,-0.0160211718591748,-0.0206700351386603));
#1657=CARTESIAN_POINT('',(0.0458491972344269,-0.0163283767524887,0.0001524));
#1658=CARTESIAN_POINT('',(0.0459828409952575,-0.0164592804008906,7.43615810317386E-5));
#1659=CARTESIAN_POINT('',(0.0459828409952575,-0.0134854668416257,0.0169396963546235));
#1660=CARTESIAN_POINT('',(0.0459828409952575,-0.0134762820129937,0.0169917861062605));
#1661=CARTESIAN_POINT('',(0.0576566075343077,-0.025899244884924,0.00456882323433014));
#1662=CARTESIAN_POINT('',(0.,-0.00951306811925411,0.020955));
#1663=CARTESIAN_POINT('',(0.0577955264739481,-0.0134879629118398,0.0169801052074144));
#1664=CARTESIAN_POINT('',(0.0459950119663853,-0.0134879629118398,0.0169801052074144));
#1665=CARTESIAN_POINT('',(0.0578133417712154,-0.0134879629118398,0.0169801052074144));
#1666=CARTESIAN_POINT('',(0.0576936611688511,-0.0133340612932877,0.0171340068259664));
#1667=CARTESIAN_POINT('',(0.0578297616384112,-0.0134669119391141,0.0170011561801401));
#1668=CARTESIAN_POINT('',(0.0505138515747574,-0.0252262783845879,0.00524178973466626));
#1669=CARTESIAN_POINT('',(0.0460824250152852,-0.0133340612932877,0.0171340068259664));
#1670=CARTESIAN_POINT('',(0.0637529317278912,-0.0126706972542262,0.0021668168454633));
#1671=CARTESIAN_POINT('',(0.0608275647851911,-0.0164647150858939,-2.30304985574183E-7));
#1672=CARTESIAN_POINT('',(0.0608160652233354,-0.0164532155240383,6.49869511001002E-5));
#1673=CARTESIAN_POINT('',(0.0609067280959691,-0.0163283767524887,0.0001524));
#1674=CARTESIAN_POINT('',(0.,-0.013380199838387,0.0168723421339615));
#1675=CARTESIAN_POINT('',(0.0577397997139504,-0.013380199838387,0.0168723421339615));
#1676=CARTESIAN_POINT('',(0.0460824250152852,-0.013380199838387,0.0168723421339615));
#1677=CARTESIAN_POINT('',(0.0460824250152852,-0.0163599152984409,-2.64639822764408E-5));
#1678=CARTESIAN_POINT('',(0.0460824250152852,-0.0163283767524887,0.0001524));
#1679=CARTESIAN_POINT('',(0.0589421906523151,-0.0145825907767517,0.0100532442651404));
#1680=CARTESIAN_POINT('',(0.060687976628052,-0.0163283767524887,0.0001524));
#1681=CARTESIAN_POINT('',(0.,-0.0163283767524887,0.0001524));
#1682=CARTESIAN_POINT('',(0.0518573512,-0.0147790382726775,0.0106944083962492));
#1683=CARTESIAN_POINT('',(0.0577342,0.00177655990539037,0.00141781765005493));
#1684=CARTESIAN_POINT('',(0.0577342,0.00245939816651783,0.00283563530010985));
#1685=CARTESIAN_POINT('',(0.0577342,0.00245939816651783,0.00283563530010985));
#1686=CARTESIAN_POINT('',(0.0577342,0.00177655990539037,0.00141781765005493));
#1687=CARTESIAN_POINT('',(0.0577342,-0.000108087772262616,0.00283563530010985));
#1688=CARTESIAN_POINT('',(0.0577342,-0.00267557371104306,0.00283563530010985));
#1689=CARTESIAN_POINT('',(0.0577342,-0.00267557371104306,0.00283563530010985));
#1690=CARTESIAN_POINT('',(0.0577342,-0.000108087772262616,0.00283563530010985));
#1691=CARTESIAN_POINT('',(0.0577342,-0.00199273448599629,0.00141781765005493));
#1692=CARTESIAN_POINT('',(0.0577342,-0.00199273448599629,0.00141781765005493));
#1693=CARTESIAN_POINT('',(0.0577342,-0.000108087772262616,0.00141781765005493));
#1694=CARTESIAN_POINT('',(0.,0.,0.));
#1695=CARTESIAN_POINT('',(-0.064135,0.,0.));
#1696=CARTESIAN_POINT('',(-0.0642085369181456,0.000892865961652818,-0.000417048586949682));
#1697=CARTESIAN_POINT('',(-0.0636350009891413,0.00245939816651783,0.00283563530010985));
#1698=CARTESIAN_POINT('',(-0.064135,0.00109372164426289,5.42101086242752E-19));
#1699=CARTESIAN_POINT('',(-0.0636350009891413,-4.9386658965528E-19,0.00283563530010985));
#1700=CARTESIAN_POINT('',(-0.0636350009891413,-0.00267557371104306,0.00283563530010985));
#1701=CARTESIAN_POINT('',(-0.0642230715373267,-0.00106933998387582,-0.000499478508466716));
#1702=CARTESIAN_POINT('',(-0.064135,-0.00130989526094951,1.89735380184964E-18));
#1703=CARTESIAN_POINT('',(-0.064135,0.,0.));
#1704=CARTESIAN_POINT('',(-0.064135,-0.013052765526335,0.));
#1705=CARTESIAN_POINT('',(-0.0637529317278912,-0.0126706972542262,0.0021668168454633));
#1706=CARTESIAN_POINT('',(-0.0611469404783853,-0.0100647060047203,0.0169461276408687));
#1707=CARTESIAN_POINT('',(-0.0611469404783853,0.0128150681192541,0.0169461276408687));
#1708=CARTESIAN_POINT('',(-0.0611469404783855,-0.00130989526094951,0.0169461276408688));
#1709=CARTESIAN_POINT('',(-0.0610180679620166,-2.38524477946811E-18,0.017677));
#1710=CARTESIAN_POINT('',(-0.0611469404783853,0.00130989526094951,0.0169461276408687));
#1711=CARTESIAN_POINT('',(-0.0611469404783853,0.0128150681192541,0.0169461276408687));
#1712=CARTESIAN_POINT('',(-0.0611469404783853,0.0100647060047203,0.0169461276408687));
#1713=CARTESIAN_POINT('',(-0.0642361969148579,0.0131539624411928,-0.000573916223434779));
#1714=CARTESIAN_POINT('',(-0.064135,0.013052765526335,0.));
#1715=CARTESIAN_POINT('',(-0.064135,0.,0.));
#1716=CARTESIAN_POINT('',(-0.0413100012,3.46944695195361E-18,-0.023495));
#1717=CARTESIAN_POINT('',(-0.0413100012,0.01651,-1.29346160889192E-18));
#1718=CARTESIAN_POINT('',(-0.0413100012,0.01651,0.));
#1719=CARTESIAN_POINT('',(-0.0413100012,0.0133884544019103,0.0177031647995537));
#1720=CARTESIAN_POINT('',(-0.0413100012,0.0133884544019103,0.0177031647995537));
#1721=CARTESIAN_POINT('',(-0.0413100012,0.00874435244213908,0.020955));
#1722=CARTESIAN_POINT('',(-0.0413100012,3.46944695195361E-18,0.020955));
#1723=CARTESIAN_POINT('',(-0.0413100012,0.00491996643519991,0.020955));
#1724=CARTESIAN_POINT('',(-0.0413100012,0.00491996643519991,0.0254));
#1725=CARTESIAN_POINT('',(-0.0413100012,0.00491996643519991,0.00889));
#1726=CARTESIAN_POINT('',(-0.0413100012,3.46944695195361E-18,0.00889));
#1727=CARTESIAN_POINT('',(-0.0413100012,0.00721001389541569,0.00889));
#1728=CARTESIAN_POINT('',(-0.0413100012,0.00721001389541569,0.00889));
#1729=CARTESIAN_POINT('',(-0.0413100012,0.00721001389541569,0.));
#1730=CARTESIAN_POINT('',(-0.0413100012,7.56365748704043E-18,0.));
#1731=CARTESIAN_POINT('',(-0.0413100012,3.46944695195361E-18,-0.023495));
#1732=CARTESIAN_POINT('',(-0.0413100012000001,-2.38524477946811E-18,0.017677));
#1733=CARTESIAN_POINT('',(-0.0413100012000001,-0.0015,0.017677));
#1734=CARTESIAN_POINT('',(-0.0413100012,3.46944695195361E-18,0.020955));
#1735=CARTESIAN_POINT('',(-0.0413100012,0.00229004746021578,0.020955));
#1736=CARTESIAN_POINT('',(-0.0413100012,-0.00868155509129101,0.020955));
#1737=CARTESIAN_POINT('',(-0.0413100012,-0.0160211718591748,-0.0206700351386603));
#1738=CARTESIAN_POINT('',(-0.0413100012,-0.0123764869720369,0.));
#1739=CARTESIAN_POINT('',(-0.0413100012,7.56365748704043E-18,0.));
#1740=CARTESIAN_POINT('',(-0.0413100012,-1.7347234759768E-18,0.));
#1741=CARTESIAN_POINT('',(-0.0413100012,-8.67361737988404E-19,0.00889));
#1742=CARTESIAN_POINT('',(-0.0413100012,-1.7347234759768E-18,0.00889));
#1743=CARTESIAN_POINT('',(-0.0413100012,3.46944695195361E-18,0.00889));
#1744=CARTESIAN_POINT('',(-0.0413100012,0.00229004746021578,0.00889));
#1745=CARTESIAN_POINT('',(-0.0413100012,0.00229004746021578,0.0254));
#1746=CARTESIAN_POINT('',(0.,0.01651,0.));
#1747=CARTESIAN_POINT('',(-0.0571867535524581,0.0129131675568954,0.0203986504427904));
#1748=CARTESIAN_POINT('',(-0.0607835859955627,0.01651,0.));
#1749=CARTESIAN_POINT('',(-0.057662040397473,0.0133884544019103,0.0177031647995537));
#1750=CARTESIAN_POINT('',(0.,0.0133884544019103,0.0177031647995537));
#1751=CARTESIAN_POINT('',(0.,0.01651,0.));
#1752=CARTESIAN_POINT('',(0.,-0.01651,0.));
#1753=CARTESIAN_POINT('',(-0.057795526473948,-0.013530284539946,0.016898806116238));
#1754=CARTESIAN_POINT('',(-0.0460824250152852,-0.013530284539946,0.016898806116238));
#1755=CARTESIAN_POINT('',(-0.0577397997139503,-0.013530284539946,0.016898806116238));
#1756=CARTESIAN_POINT('',(-0.0607213905948135,-0.0165118754208092,-1.06360399392216E-5));
#1757=CARTESIAN_POINT('',(-0.060687976628052,-0.0164784614540477,0.00017886398227644));
#1758=CARTESIAN_POINT('',(0.,-0.0164784614540477,0.00017886398227644));
#1759=CARTESIAN_POINT('',(-0.0460824250152852,-0.0164784614540477,0.00017886398227644));
#1760=CARTESIAN_POINT('',(-0.0460824250152852,-0.0135219404783853,0.0169461276408687));
#1761=CARTESIAN_POINT('',(-0.05186764455,-0.0146289535711185,0.0106679444139727));
#1762=CARTESIAN_POINT('',(-0.05186764455,-0.0156318293354687,0.00498035332427826));
#1763=CARTESIAN_POINT('',(0.,0.,0.020955));
#1764=CARTESIAN_POINT('',(-0.0571380681192541,-0.0128150681192541,0.020955));
#1765=CARTESIAN_POINT('',(-0.0571380681192541,0.00874435244213908,0.020955));
#1766=CARTESIAN_POINT('',(-0.0571380681192541,-0.00951306811925411,0.020955));
#1767=CARTESIAN_POINT('',(-0.0413100012,-0.00951306811925411,0.020955));
#1768=CARTESIAN_POINT('',(-0.0422586381447143,-0.00951306811925411,0.020955));
#1769=CARTESIAN_POINT('',(-0.0136453906497596,0.0155674310084226,0.020955));
#1770=CARTESIAN_POINT('',(-0.0400248946171746,0.00360500694770785,0.020955));
#1771=CARTESIAN_POINT('',(0.,0.00874435244213908,0.020955));
#1772=CARTESIAN_POINT('',(0.,0.,0.));
#1773=CARTESIAN_POINT('',(-0.05715,-0.000108086808343309,8.67361737988404E-19));
#1774=CARTESIAN_POINT('',(-0.05715,0.00109372164426289,0.));
#1775=CARTESIAN_POINT('',(-0.05715,-0.00130989526094951,1.7347234759768E-18));
#1776=CARTESIAN_POINT('',(-0.05715,0.00109372164426289,0.));
#1777=CARTESIAN_POINT('',(-0.0641408444280161,0.0130467365612505,0.));
#1778=CARTESIAN_POINT('',(-0.0400248946171746,0.00360500694770785,0.));
#1779=CARTESIAN_POINT('',(-0.0460257459182625,-0.01651,0.));
#1780=CARTESIAN_POINT('',(-0.0458185398772094,-0.0163283767524887,0.));
#1781=CARTESIAN_POINT('',(0.,-0.0163283767524887,0.));
#1782=CARTESIAN_POINT('',(-0.060959650043251,-0.0163283767524887,0.));
#1783=CARTESIAN_POINT('',(-0.0608108020895159,-0.0164819245613557,0.));
#1784=CARTESIAN_POINT('',(-0.05715,-0.00130989526094951,1.7347234759768E-18));
#1785=CARTESIAN_POINT('',(-0.0400248946171746,0.00360500694770785,0.));
#1786=CARTESIAN_POINT('',(-0.0381862490877245,0.00360500694770785,0.));
#1787=CARTESIAN_POINT('',(0.70993,-2.38524477946811E-18,0.017677));
#1788=CARTESIAN_POINT('',(-0.0604160681192543,-2.38524477946811E-18,0.017677));
#1789=CARTESIAN_POINT('',(-0.05186764455,-0.028386717880699,0.0130938094559797));
#1790=CARTESIAN_POINT('',(-0.05186764455,-0.0147790382726775,0.0106944083962492));
#1791=CARTESIAN_POINT('',(-0.05186764455,-0.0157554500547513,0.00515690200811376));
#1792=CARTESIAN_POINT('',(-0.05186764455,-0.0272393188943384,0.0128914920570468));
#1793=CARTESIAN_POINT('',(-0.05186764455,-0.0282157306764122,0.00735398566891142));
#1794=CARTESIAN_POINT('',(-6.73735000000786E-6,-0.028386717880699,0.0130938094559797));
#1795=CARTESIAN_POINT('',(-0.05186764455,-0.028386717880699,0.0130938094559797));
#1796=CARTESIAN_POINT('',(-0.05186764455,-0.0291608122638398,0.00870370205420491));
#1797=CARTESIAN_POINT('',(-0.05186764455,-0.0272393188943384,0.0128914920570468));
#1798=CARTESIAN_POINT('',(-0.0400248946171746,0.00360500694770785,0.00889));
#1799=CARTESIAN_POINT('',(-0.0400248946171746,0.00360500694770785,0.00889));
#1800=CARTESIAN_POINT('',(0.,0.00360500694770785,0.00889));
#1801=CARTESIAN_POINT('',(-0.0400248946171746,0.00360500694770785,0.00889));
#1802=CARTESIAN_POINT('',(-0.0400248946171746,0.00360500694770785,0.0254));
#1803=CARTESIAN_POINT('',(-0.0571380681192541,0.,0.020955));
#1804=CARTESIAN_POINT('',(-0.0606412593071598,-0.0104052081452258,0.0174518088120943));
#1805=CARTESIAN_POINT('',(-0.0590808888869543,-0.0114558888869543,0.0190121792322999));
#1806=CARTESIAN_POINT('',(-0.0539670454128361,-0.00634204541283607,0.024126022706418));
#1807=CARTESIAN_POINT('',(-0.0571380681192541,0.00874435244213908,0.020955));
#1808=CARTESIAN_POINT('',(-0.0637529317278912,0.0126706972542262,0.0021668168454633));
#1809=CARTESIAN_POINT('',(-0.0592967987064922,0.011829291963034,0.0173480404755666));
#1810=CARTESIAN_POINT('',(-0.0571380681192541,0.00874435244213908,0.020955));
#1811=CARTESIAN_POINT('',(-0.0571380681192541,0.00874435244213908,0.020955));
#1812=CARTESIAN_POINT('',(0.,0.0133884544019103,0.0177031647995537));
#1813=CARTESIAN_POINT('',(-0.0460257459182625,-0.01651,1.44111676680093E-18));
#1814=CARTESIAN_POINT('',(-0.0459828409952575,-0.0164735263632403,-6.43128624529327E-6));
#1815=CARTESIAN_POINT('',(-0.0459828409952575,-0.0134762820129937,0.0169917861062605));
#1816=CARTESIAN_POINT('',(-0.0459828409952575,-0.0164592804008906,7.4361581031743E-5));
#1817=CARTESIAN_POINT('',(-0.045849197234427,-0.0163283767524887,0.0001524));
#1818=CARTESIAN_POINT('',(-0.05252309735658,-0.0204362774590072,0.0100317906602469));
#1819=CARTESIAN_POINT('',(0.,-0.00951306811925411,0.020955));
#1820=CARTESIAN_POINT('',(-0.0558896593042517,-0.0165853721293841,0.01388269598987));
#1821=CARTESIAN_POINT('',(-0.0578297616384112,-0.0134669119391141,0.0170011561801401));
#1822=CARTESIAN_POINT('',(-0.0576936611688511,-0.0133340612932877,0.0171340068259664));
#1823=CARTESIAN_POINT('',(-0.0578133417712154,-0.0134879629118398,0.0169801052074144));
#1824=CARTESIAN_POINT('',(-0.0460257459182625,-0.0134879629118398,0.0169801052074144));
#1825=CARTESIAN_POINT('',(-0.0459950119663853,-0.0134879629118398,0.0169801052074144));
#1826=CARTESIAN_POINT('',(-0.0460824250152852,-0.0133340612932877,0.0171340068259664));
#1827=CARTESIAN_POINT('',(-0.0590043860530643,-0.0147308000575016,0.0100903442873561));
#1828=CARTESIAN_POINT('',(-0.0609067280959691,-0.0163283767524887,0.0001524));
#1829=CARTESIAN_POINT('',(-0.0608160652233354,-0.0164532155240383,6.49869511000975E-5));
#1830=CARTESIAN_POINT('',(-0.0578395052635764,-0.0134766555642793,0.0169458973358832));
#1831=CARTESIAN_POINT('',(0.,-0.013380199838387,0.0168723421339615));
#1832=CARTESIAN_POINT('',(-0.0460824250152852,-0.013380199838387,0.0168723421339615));
#1833=CARTESIAN_POINT('',(-0.0577397997139503,-0.013380199838387,0.0168723421339615));
#1834=CARTESIAN_POINT('',(-0.0589421906523151,-0.0145825907767517,0.0100532442651404));
#1835=CARTESIAN_POINT('',(-0.060687976628052,-0.0163283767524887,0.0001524));
#1836=CARTESIAN_POINT('',(-0.0460824250152852,-0.0163599152984409,-2.64639822764382E-5));
#1837=CARTESIAN_POINT('',(-0.0460824250152852,-0.0163283767524887,0.0001524));
#1838=CARTESIAN_POINT('',(0.,-0.0163283767524887,0.0001524));
#1839=CARTESIAN_POINT('',(-0.05186764455,-0.0147790382726775,0.0106944083962492));
#1840=CARTESIAN_POINT('',(-0.05715,0.00177655990539037,0.00141781765005493));
#1841=CARTESIAN_POINT('',(-0.05715,0.00177655990539037,0.00141781765005493));
#1842=CARTESIAN_POINT('',(-0.05715,0.00245939816651783,0.00283563530010985));
#1843=CARTESIAN_POINT('',(-0.05715,0.00245939816651783,0.00283563530010985));
#1844=CARTESIAN_POINT('',(-0.05715,-0.000108087772262616,0.00283563530010985));
#1845=CARTESIAN_POINT('',(-0.05715,-0.000108087772262616,0.00283563530010985));
#1846=CARTESIAN_POINT('',(-0.05715,-0.00267557371104306,0.00283563530010985));
#1847=CARTESIAN_POINT('',(-0.05715,-0.00267557371104306,0.00283563530010985));
#1848=CARTESIAN_POINT('',(-0.05715,-0.00199273448599629,0.00141781765005493));
#1849=CARTESIAN_POINT('',(-0.05715,-0.00199273448599629,0.00141781765005493));
#1850=CARTESIAN_POINT('',(-0.05715,-0.000108087772262616,0.00141781765005493));
#1851=MECHANICAL_DESIGN_GEOMETRIC_PRESENTATION_REPRESENTATION('',(#1100),
#1853);
#1852=MECHANICAL_DESIGN_GEOMETRIC_PRESENTATION_REPRESENTATION('',(#1101),
#1854);
#1853=(
GEOMETRIC_REPRESENTATION_CONTEXT(3)
GLOBAL_UNCERTAINTY_ASSIGNED_CONTEXT((#1855))
GLOBAL_UNIT_ASSIGNED_CONTEXT((#1861,#1859,#1857))
REPRESENTATION_CONTEXT('WeaponSystem','TOP_LEVEL_ASSEMBLY_PART')
);
#1854=(
GEOMETRIC_REPRESENTATION_CONTEXT(3)
GLOBAL_UNCERTAINTY_ASSIGNED_CONTEXT((#1856))
GLOBAL_UNIT_ASSIGNED_CONTEXT((#1862,#1860,#1858))
REPRESENTATION_CONTEXT('WeaponSystem','TOP_LEVEL_ASSEMBLY_PART')
);
#1855=UNCERTAINTY_MEASURE_WITH_UNIT(LENGTH_MEASURE(1.E-8),#1861,
'DISTANCE_ACCURACY_VALUE','Maximum Tolerance applied to model');
#1856=UNCERTAINTY_MEASURE_WITH_UNIT(LENGTH_MEASURE(1.E-8),#1862,
'DISTANCE_ACCURACY_VALUE','Maximum Tolerance applied to model');
#1857=(
NAMED_UNIT(*)
SI_UNIT($,.STERADIAN.)
SOLID_ANGLE_UNIT()
);
#1858=(
NAMED_UNIT(*)
SI_UNIT($,.STERADIAN.)
SOLID_ANGLE_UNIT()
);
#1859=(
NAMED_UNIT(*)
PLANE_ANGLE_UNIT()
SI_UNIT($,.RADIAN.)
);
#1860=(
NAMED_UNIT(*)
PLANE_ANGLE_UNIT()
SI_UNIT($,.RADIAN.)
);
#1861=(
LENGTH_UNIT()
NAMED_UNIT(*)
SI_UNIT($,.METRE.)
);
#1862=(
LENGTH_UNIT()
NAMED_UNIT(*)
SI_UNIT($,.METRE.)
);
#1863=PRODUCT_DEFINITION_SHAPE('','',#1865);
#1864=PRODUCT_DEFINITION_SHAPE('','',#1866);
#1865=PRODUCT_DEFINITION('','',#1869,#1867);
#1866=PRODUCT_DEFINITION('','',#1870,#1868);
#1867=PRODUCT_DEFINITION_CONTEXT('',#1881,'design');
#1868=PRODUCT_DEFINITION_CONTEXT('',#1882,'design');
#1869=PRODUCT_DEFINITION_FORMATION_WITH_SPECIFIED_SOURCE('','',#1873,
 .NOT_KNOWN.);
#1870=PRODUCT_DEFINITION_FORMATION_WITH_SPECIFIED_SOURCE('','',#1874,
 .NOT_KNOWN.);
#1871=PRODUCT_RELATED_PRODUCT_CATEGORY('','',(#1873));
#1872=PRODUCT_RELATED_PRODUCT_CATEGORY('','',(#1874));
#1873=PRODUCT('WeaponSystem','WeaponSystem','WeaponSystem',(#1877));
#1874=PRODUCT('WeaponSystem','WeaponSystem','WeaponSystem',(#1878));
#1875=PRODUCT_CATEGORY('','');
#1876=PRODUCT_CATEGORY('','');
#1877=PRODUCT_CONTEXT('',#1881,'mechanical');
#1878=PRODUCT_CONTEXT('',#1882,'mechanical');
#1879=APPLICATION_PROTOCOL_DEFINITION('international standard',
'ap242_managed_model_based_3d_engineering',2020,#1881);
#1880=APPLICATION_PROTOCOL_DEFINITION('international standard',
'ap242_managed_model_based_3d_engineering',2020,#1882);
#1881=APPLICATION_CONTEXT('managed model based 3d engineering');
#1882=APPLICATION_CONTEXT('managed model based 3d engineering');
ENDSEC;
END-ISO-10303-21;
