%TF.GenerationSoftware,KiCad,Pcbnew,10.0.1*%
%TF.CreationDate,2026-05-01T20:27:44-05:00*%
%TF.ProjectId,barrel-roll-DIPPCB_pro,62617272-656c-42d7-926f-6c6c2d444950,rev?*%
%TF.SameCoordinates,Original*%
%TF.FileFunction,Legend,Top*%
%TF.FilePolarity,Positive*%
%FSLAX46Y46*%
G04 Gerber Fmt 4.6, Leading zero omitted, Abs format (unit mm)*
G04 Created by KiCad (PCBNEW 10.0.1) date 2026-05-01 20:27:44*
%MOMM*%
%LPD*%
G01*
G04 APERTURE LIST*
%ADD10C,0.150000*%
%ADD11C,0.101600*%
%ADD12C,0.120000*%
%ADD13C,0.127000*%
%ADD14C,0.100000*%
%ADD15C,0.504000*%
G04 APERTURE END LIST*
D10*
X115798095Y-88284819D02*
X115798095Y-89094342D01*
X115798095Y-89094342D02*
X115845714Y-89189580D01*
X115845714Y-89189580D02*
X115893333Y-89237200D01*
X115893333Y-89237200D02*
X115988571Y-89284819D01*
X115988571Y-89284819D02*
X116179047Y-89284819D01*
X116179047Y-89284819D02*
X116274285Y-89237200D01*
X116274285Y-89237200D02*
X116321904Y-89189580D01*
X116321904Y-89189580D02*
X116369523Y-89094342D01*
X116369523Y-89094342D02*
X116369523Y-88284819D01*
X117274285Y-88618152D02*
X117274285Y-89284819D01*
X117036190Y-88237200D02*
X116798095Y-88951485D01*
X116798095Y-88951485D02*
X117417142Y-88951485D01*
X129098095Y-93454819D02*
X129098095Y-94264342D01*
X129098095Y-94264342D02*
X129145714Y-94359580D01*
X129145714Y-94359580D02*
X129193333Y-94407200D01*
X129193333Y-94407200D02*
X129288571Y-94454819D01*
X129288571Y-94454819D02*
X129479047Y-94454819D01*
X129479047Y-94454819D02*
X129574285Y-94407200D01*
X129574285Y-94407200D02*
X129621904Y-94359580D01*
X129621904Y-94359580D02*
X129669523Y-94264342D01*
X129669523Y-94264342D02*
X129669523Y-93454819D01*
X130050476Y-93454819D02*
X130669523Y-93454819D01*
X130669523Y-93454819D02*
X130336190Y-93835771D01*
X130336190Y-93835771D02*
X130479047Y-93835771D01*
X130479047Y-93835771D02*
X130574285Y-93883390D01*
X130574285Y-93883390D02*
X130621904Y-93931009D01*
X130621904Y-93931009D02*
X130669523Y-94026247D01*
X130669523Y-94026247D02*
X130669523Y-94264342D01*
X130669523Y-94264342D02*
X130621904Y-94359580D01*
X130621904Y-94359580D02*
X130574285Y-94407200D01*
X130574285Y-94407200D02*
X130479047Y-94454819D01*
X130479047Y-94454819D02*
X130193333Y-94454819D01*
X130193333Y-94454819D02*
X130098095Y-94407200D01*
X130098095Y-94407200D02*
X130050476Y-94359580D01*
X136313095Y-85784819D02*
X136313095Y-86594342D01*
X136313095Y-86594342D02*
X136360714Y-86689580D01*
X136360714Y-86689580D02*
X136408333Y-86737200D01*
X136408333Y-86737200D02*
X136503571Y-86784819D01*
X136503571Y-86784819D02*
X136694047Y-86784819D01*
X136694047Y-86784819D02*
X136789285Y-86737200D01*
X136789285Y-86737200D02*
X136836904Y-86689580D01*
X136836904Y-86689580D02*
X136884523Y-86594342D01*
X136884523Y-86594342D02*
X136884523Y-85784819D01*
X137313095Y-85880057D02*
X137360714Y-85832438D01*
X137360714Y-85832438D02*
X137455952Y-85784819D01*
X137455952Y-85784819D02*
X137694047Y-85784819D01*
X137694047Y-85784819D02*
X137789285Y-85832438D01*
X137789285Y-85832438D02*
X137836904Y-85880057D01*
X137836904Y-85880057D02*
X137884523Y-85975295D01*
X137884523Y-85975295D02*
X137884523Y-86070533D01*
X137884523Y-86070533D02*
X137836904Y-86213390D01*
X137836904Y-86213390D02*
X137265476Y-86784819D01*
X137265476Y-86784819D02*
X137884523Y-86784819D01*
D11*
X91496190Y-85953479D02*
X91496190Y-86467526D01*
X91496190Y-86467526D02*
X91526428Y-86528002D01*
X91526428Y-86528002D02*
X91556666Y-86558241D01*
X91556666Y-86558241D02*
X91617142Y-86588479D01*
X91617142Y-86588479D02*
X91738095Y-86588479D01*
X91738095Y-86588479D02*
X91798571Y-86558241D01*
X91798571Y-86558241D02*
X91828809Y-86528002D01*
X91828809Y-86528002D02*
X91859047Y-86467526D01*
X91859047Y-86467526D02*
X91859047Y-85953479D01*
X92494047Y-86588479D02*
X92131190Y-86588479D01*
X92312618Y-86588479D02*
X92312618Y-85953479D01*
X92312618Y-85953479D02*
X92252142Y-86044193D01*
X92252142Y-86044193D02*
X92191666Y-86104669D01*
X92191666Y-86104669D02*
X92131190Y-86134907D01*
D10*
X118658095Y-96664819D02*
X119229523Y-96664819D01*
X118943809Y-97664819D02*
X118943809Y-96664819D01*
X119562857Y-97664819D02*
X119562857Y-96664819D01*
X119562857Y-96664819D02*
X119943809Y-96664819D01*
X119943809Y-96664819D02*
X120039047Y-96712438D01*
X120039047Y-96712438D02*
X120086666Y-96760057D01*
X120086666Y-96760057D02*
X120134285Y-96855295D01*
X120134285Y-96855295D02*
X120134285Y-96998152D01*
X120134285Y-96998152D02*
X120086666Y-97093390D01*
X120086666Y-97093390D02*
X120039047Y-97141009D01*
X120039047Y-97141009D02*
X119943809Y-97188628D01*
X119943809Y-97188628D02*
X119562857Y-97188628D01*
X121039047Y-96664819D02*
X120562857Y-96664819D01*
X120562857Y-96664819D02*
X120515238Y-97141009D01*
X120515238Y-97141009D02*
X120562857Y-97093390D01*
X120562857Y-97093390D02*
X120658095Y-97045771D01*
X120658095Y-97045771D02*
X120896190Y-97045771D01*
X120896190Y-97045771D02*
X120991428Y-97093390D01*
X120991428Y-97093390D02*
X121039047Y-97141009D01*
X121039047Y-97141009D02*
X121086666Y-97236247D01*
X121086666Y-97236247D02*
X121086666Y-97474342D01*
X121086666Y-97474342D02*
X121039047Y-97569580D01*
X121039047Y-97569580D02*
X120991428Y-97617200D01*
X120991428Y-97617200D02*
X120896190Y-97664819D01*
X120896190Y-97664819D02*
X120658095Y-97664819D01*
X120658095Y-97664819D02*
X120562857Y-97617200D01*
X120562857Y-97617200D02*
X120515238Y-97569580D01*
X121948095Y-95134819D02*
X122519523Y-95134819D01*
X122233809Y-96134819D02*
X122233809Y-95134819D01*
X122852857Y-96134819D02*
X122852857Y-95134819D01*
X122852857Y-95134819D02*
X123233809Y-95134819D01*
X123233809Y-95134819D02*
X123329047Y-95182438D01*
X123329047Y-95182438D02*
X123376666Y-95230057D01*
X123376666Y-95230057D02*
X123424285Y-95325295D01*
X123424285Y-95325295D02*
X123424285Y-95468152D01*
X123424285Y-95468152D02*
X123376666Y-95563390D01*
X123376666Y-95563390D02*
X123329047Y-95611009D01*
X123329047Y-95611009D02*
X123233809Y-95658628D01*
X123233809Y-95658628D02*
X122852857Y-95658628D01*
X124281428Y-95468152D02*
X124281428Y-96134819D01*
X124043333Y-95087200D02*
X123805238Y-95801485D01*
X123805238Y-95801485D02*
X124424285Y-95801485D01*
X125228095Y-95294819D02*
X125799523Y-95294819D01*
X125513809Y-96294819D02*
X125513809Y-95294819D01*
X126132857Y-96294819D02*
X126132857Y-95294819D01*
X126132857Y-95294819D02*
X126513809Y-95294819D01*
X126513809Y-95294819D02*
X126609047Y-95342438D01*
X126609047Y-95342438D02*
X126656666Y-95390057D01*
X126656666Y-95390057D02*
X126704285Y-95485295D01*
X126704285Y-95485295D02*
X126704285Y-95628152D01*
X126704285Y-95628152D02*
X126656666Y-95723390D01*
X126656666Y-95723390D02*
X126609047Y-95771009D01*
X126609047Y-95771009D02*
X126513809Y-95818628D01*
X126513809Y-95818628D02*
X126132857Y-95818628D01*
X127037619Y-95294819D02*
X127656666Y-95294819D01*
X127656666Y-95294819D02*
X127323333Y-95675771D01*
X127323333Y-95675771D02*
X127466190Y-95675771D01*
X127466190Y-95675771D02*
X127561428Y-95723390D01*
X127561428Y-95723390D02*
X127609047Y-95771009D01*
X127609047Y-95771009D02*
X127656666Y-95866247D01*
X127656666Y-95866247D02*
X127656666Y-96104342D01*
X127656666Y-96104342D02*
X127609047Y-96199580D01*
X127609047Y-96199580D02*
X127561428Y-96247200D01*
X127561428Y-96247200D02*
X127466190Y-96294819D01*
X127466190Y-96294819D02*
X127180476Y-96294819D01*
X127180476Y-96294819D02*
X127085238Y-96247200D01*
X127085238Y-96247200D02*
X127037619Y-96199580D01*
X113074819Y-102169047D02*
X112074819Y-102169047D01*
X112074819Y-102169047D02*
X112789104Y-101835714D01*
X112789104Y-101835714D02*
X112074819Y-101502381D01*
X112074819Y-101502381D02*
X113074819Y-101502381D01*
X112074819Y-101121428D02*
X113074819Y-100454762D01*
X112074819Y-100454762D02*
X113074819Y-101121428D01*
X112693866Y-100073809D02*
X112693866Y-99311905D01*
X112074819Y-98359524D02*
X112074819Y-98835714D01*
X112074819Y-98835714D02*
X112551009Y-98883333D01*
X112551009Y-98883333D02*
X112503390Y-98835714D01*
X112503390Y-98835714D02*
X112455771Y-98740476D01*
X112455771Y-98740476D02*
X112455771Y-98502381D01*
X112455771Y-98502381D02*
X112503390Y-98407143D01*
X112503390Y-98407143D02*
X112551009Y-98359524D01*
X112551009Y-98359524D02*
X112646247Y-98311905D01*
X112646247Y-98311905D02*
X112884342Y-98311905D01*
X112884342Y-98311905D02*
X112979580Y-98359524D01*
X112979580Y-98359524D02*
X113027200Y-98407143D01*
X113027200Y-98407143D02*
X113074819Y-98502381D01*
X113074819Y-98502381D02*
X113074819Y-98740476D01*
X113074819Y-98740476D02*
X113027200Y-98835714D01*
X113027200Y-98835714D02*
X112979580Y-98883333D01*
X112789104Y-97930952D02*
X112789104Y-97454762D01*
X113074819Y-98026190D02*
X112074819Y-97692857D01*
X112074819Y-97692857D02*
X113074819Y-97359524D01*
X113170057Y-97264286D02*
X113170057Y-96502381D01*
X112551009Y-96264285D02*
X112551009Y-95930952D01*
X113074819Y-95788095D02*
X113074819Y-96264285D01*
X113074819Y-96264285D02*
X112074819Y-96264285D01*
X112074819Y-96264285D02*
X112074819Y-95788095D01*
X113027200Y-95407142D02*
X113074819Y-95264285D01*
X113074819Y-95264285D02*
X113074819Y-95026190D01*
X113074819Y-95026190D02*
X113027200Y-94930952D01*
X113027200Y-94930952D02*
X112979580Y-94883333D01*
X112979580Y-94883333D02*
X112884342Y-94835714D01*
X112884342Y-94835714D02*
X112789104Y-94835714D01*
X112789104Y-94835714D02*
X112693866Y-94883333D01*
X112693866Y-94883333D02*
X112646247Y-94930952D01*
X112646247Y-94930952D02*
X112598628Y-95026190D01*
X112598628Y-95026190D02*
X112551009Y-95216666D01*
X112551009Y-95216666D02*
X112503390Y-95311904D01*
X112503390Y-95311904D02*
X112455771Y-95359523D01*
X112455771Y-95359523D02*
X112360533Y-95407142D01*
X112360533Y-95407142D02*
X112265295Y-95407142D01*
X112265295Y-95407142D02*
X112170057Y-95359523D01*
X112170057Y-95359523D02*
X112122438Y-95311904D01*
X112122438Y-95311904D02*
X112074819Y-95216666D01*
X112074819Y-95216666D02*
X112074819Y-94978571D01*
X112074819Y-94978571D02*
X112122438Y-94835714D01*
X112979580Y-93835714D02*
X113027200Y-93883333D01*
X113027200Y-93883333D02*
X113074819Y-94026190D01*
X113074819Y-94026190D02*
X113074819Y-94121428D01*
X113074819Y-94121428D02*
X113027200Y-94264285D01*
X113027200Y-94264285D02*
X112931961Y-94359523D01*
X112931961Y-94359523D02*
X112836723Y-94407142D01*
X112836723Y-94407142D02*
X112646247Y-94454761D01*
X112646247Y-94454761D02*
X112503390Y-94454761D01*
X112503390Y-94454761D02*
X112312914Y-94407142D01*
X112312914Y-94407142D02*
X112217676Y-94359523D01*
X112217676Y-94359523D02*
X112122438Y-94264285D01*
X112122438Y-94264285D02*
X112074819Y-94121428D01*
X112074819Y-94121428D02*
X112074819Y-94026190D01*
X112074819Y-94026190D02*
X112122438Y-93883333D01*
X112122438Y-93883333D02*
X112170057Y-93835714D01*
X113074819Y-92883333D02*
X113074819Y-93454761D01*
X113074819Y-93169047D02*
X112074819Y-93169047D01*
X112074819Y-93169047D02*
X112217676Y-93264285D01*
X112217676Y-93264285D02*
X112312914Y-93359523D01*
X112312914Y-93359523D02*
X112360533Y-93454761D01*
X117065476Y-104084819D02*
X117065476Y-103084819D01*
X117065476Y-103084819D02*
X117398809Y-103799104D01*
X117398809Y-103799104D02*
X117732142Y-103084819D01*
X117732142Y-103084819D02*
X117732142Y-104084819D01*
X118160714Y-103180057D02*
X118208333Y-103132438D01*
X118208333Y-103132438D02*
X118303571Y-103084819D01*
X118303571Y-103084819D02*
X118541666Y-103084819D01*
X118541666Y-103084819D02*
X118636904Y-103132438D01*
X118636904Y-103132438D02*
X118684523Y-103180057D01*
X118684523Y-103180057D02*
X118732142Y-103275295D01*
X118732142Y-103275295D02*
X118732142Y-103370533D01*
X118732142Y-103370533D02*
X118684523Y-103513390D01*
X118684523Y-103513390D02*
X118113095Y-104084819D01*
X118113095Y-104084819D02*
X118732142Y-104084819D01*
X122380476Y-99449819D02*
X122380476Y-98449819D01*
X122380476Y-98449819D02*
X122713809Y-99164104D01*
X122713809Y-99164104D02*
X123047142Y-98449819D01*
X123047142Y-98449819D02*
X123047142Y-99449819D01*
X124047142Y-99449819D02*
X123475714Y-99449819D01*
X123761428Y-99449819D02*
X123761428Y-98449819D01*
X123761428Y-98449819D02*
X123666190Y-98592676D01*
X123666190Y-98592676D02*
X123570952Y-98687914D01*
X123570952Y-98687914D02*
X123475714Y-98735533D01*
X124249524Y-86524819D02*
X124916190Y-87524819D01*
X124916190Y-86524819D02*
X124249524Y-87524819D01*
X125154286Y-86524819D02*
X125725714Y-86524819D01*
X125440000Y-87524819D02*
X125440000Y-86524819D01*
X126582857Y-87524819D02*
X126011429Y-87524819D01*
X126297143Y-87524819D02*
X126297143Y-86524819D01*
X126297143Y-86524819D02*
X126201905Y-86667676D01*
X126201905Y-86667676D02*
X126106667Y-86762914D01*
X126106667Y-86762914D02*
X126011429Y-86810533D01*
X120268571Y-87434700D02*
X121411429Y-87434700D01*
X131368571Y-91184700D02*
X132511429Y-91184700D01*
X131940000Y-91756128D02*
X131940000Y-90613271D01*
%TO.C,U4*%
D12*
X115180000Y-89830000D02*
X116560000Y-89830000D01*
X115180000Y-91210000D02*
X115180000Y-89830000D01*
X115180000Y-92480000D02*
X115180000Y-100210000D01*
X115180000Y-92480000D02*
X117940000Y-92480000D01*
X115180000Y-100210000D02*
X117940000Y-100210000D01*
X117940000Y-92480000D02*
X117940000Y-100210000D01*
%TO.C,U3*%
X128480000Y-95000000D02*
X129860000Y-95000000D01*
X128480000Y-96380000D02*
X128480000Y-95000000D01*
X128480000Y-97650000D02*
X128480000Y-102840000D01*
X128480000Y-97650000D02*
X131240000Y-97650000D01*
X128480000Y-102840000D02*
X131240000Y-102840000D01*
X131240000Y-97650000D02*
X131240000Y-102840000D01*
%TO.C,U2*%
X134425000Y-87330000D02*
X134425000Y-107770000D01*
X134425000Y-107770000D02*
X139725000Y-107770000D01*
X136075000Y-87330000D02*
X134425000Y-87330000D01*
X139725000Y-87330000D02*
X138075000Y-87330000D01*
X139725000Y-107770000D02*
X139725000Y-87330000D01*
X138075000Y-87330000D02*
G75*
G02*
X136075000Y-87330000I-1000000J0D01*
G01*
%TO.C,U1*%
D13*
X91590000Y-106809000D02*
X91590000Y-89664000D01*
X93495000Y-108714000D02*
X107465000Y-108714000D01*
X95985000Y-87759000D02*
X95988728Y-86848728D01*
X96488728Y-86349000D02*
X104484000Y-86349000D01*
X104984000Y-86849000D02*
X104984000Y-87759000D01*
D14*
X107465000Y-87759000D02*
X93495000Y-87759000D01*
D13*
X107465000Y-87759000D02*
X93495000Y-87759000D01*
X109370000Y-106809000D02*
X109370000Y-89664000D01*
X91590000Y-89664000D02*
G75*
G02*
X93495000Y-87759000I1905001J-1D01*
G01*
X93495000Y-108714000D02*
G75*
G02*
X91590000Y-106809000I1J1905001D01*
G01*
X95988728Y-86848728D02*
G75*
G02*
X96488728Y-86349001I500018J-291D01*
G01*
X104484000Y-86349000D02*
G75*
G02*
X104984000Y-86849000I0J-500000D01*
G01*
X107465000Y-87759000D02*
G75*
G02*
X109370000Y-89664000I0J-1905000D01*
G01*
X109370000Y-106809000D02*
G75*
G02*
X107465000Y-108714000I-1905000J0D01*
G01*
D15*
X91782000Y-88000000D02*
G75*
G02*
X91278000Y-88000000I-252000J0D01*
G01*
X91278000Y-88000000D02*
G75*
G02*
X91782000Y-88000000I252000J0D01*
G01*
X92925000Y-88880000D02*
G75*
G02*
X92421000Y-88880000I-252000J0D01*
G01*
X92421000Y-88880000D02*
G75*
G02*
X92925000Y-88880000I252000J0D01*
G01*
%TO.C,MX-5A_ESC1*%
D12*
X111240000Y-89820000D02*
X112620000Y-89820000D01*
X111240000Y-91200000D02*
X111240000Y-89820000D01*
X111240000Y-92470000D02*
X111240000Y-105280000D01*
X111240000Y-92470000D02*
X114000000Y-92470000D01*
X111240000Y-105280000D02*
X114000000Y-105280000D01*
X114000000Y-92470000D02*
X114000000Y-105280000D01*
%TO.C,M2*%
X115220000Y-105010000D02*
X115220000Y-103630000D01*
X116600000Y-105010000D02*
X115220000Y-105010000D01*
X117870000Y-105010000D02*
X120520000Y-105010000D01*
X117870000Y-105010000D02*
X117870000Y-102250000D01*
X120520000Y-105010000D02*
X120520000Y-102250000D01*
X117870000Y-102250000D02*
X120520000Y-102250000D01*
%TO.C,M1*%
X121810000Y-99995000D02*
X123190000Y-99995000D01*
X121810000Y-101375000D02*
X121810000Y-99995000D01*
X121810000Y-102645000D02*
X121810000Y-105295000D01*
X121810000Y-102645000D02*
X124570000Y-102645000D01*
X121810000Y-105295000D02*
X124570000Y-105295000D01*
X124570000Y-102645000D02*
X124570000Y-105295000D01*
%TO.C,XT1*%
X120230000Y-89660000D02*
X120230000Y-92480000D01*
X120230000Y-89660000D02*
X121930000Y-88360000D01*
X120230000Y-92480000D02*
X121930000Y-93780000D01*
X121930000Y-88360000D02*
X130650000Y-88360000D01*
X121930000Y-93780000D02*
X130650000Y-93780000D01*
X130650000Y-88360000D02*
X130650000Y-93780000D01*
%TD*%
M02*
