M48
; DRILL file KiCad 10.0.1 date 2026-05-01T20:27:48
; FORMAT={-:-/ absolute / metric / decimal}
; #@! TF.CreationDate,2026-05-01T20:27:48-05:00
; #@! TF.GenerationSoftware,Kicad,Pcbnew,10.0.1
; #@! TF.FileFunction,Plated,1,2,PTH
FMAT,2
METRIC
; #@! TA.AperFunction,Plated,PTH,ViaDrill
T1C0.300
; #@! TA.AperFunction,Plated,PTH,ComponentDrill
T2C0.600
; #@! TA.AperFunction,Plated,PTH,ComponentDrill
T3C0.800
; #@! TA.AperFunction,Plated,PTH,ComponentDrill
T4C0.889
; #@! TA.AperFunction,Plated,PTH,ComponentDrill
T5C1.000
; #@! TA.AperFunction,Plated,PTH,ComponentDrill
T6C1.800
%
G90
G05
T1
X114.46Y-99.13
X118.48Y-96.71
X119.86Y-105.57
X120.07Y-93.97
X120.99Y-105.78
X121.2Y-101.54
X123.36Y-99.58
X124.93Y-93.06
X127.01Y-100.5
X127.28Y-102.95
T2
X119.92Y-99.21
X123.21Y-97.68
X126.49Y-97.84
T3
X133.265Y-88.66
X133.265Y-91.2
X133.265Y-93.74
X133.265Y-96.28
X133.265Y-98.82
X133.265Y-101.36
X133.265Y-103.9
X133.265Y-106.44
X140.885Y-88.66
X140.885Y-91.2
X140.885Y-93.74
X140.885Y-96.28
X140.885Y-98.82
X140.885Y-101.36
X140.885Y-103.9
X140.885Y-106.44
T4
X92.86Y-90.68
X92.86Y-93.22
X92.86Y-95.76
X92.86Y-98.3
X92.86Y-100.84
X92.86Y-103.38
X92.86Y-105.92
X108.1Y-90.68
X108.1Y-93.22
X108.1Y-95.76
X108.1Y-98.3
X108.1Y-100.84
X108.1Y-103.38
X108.1Y-105.92
T5
X112.62Y-91.2
X112.62Y-93.74
X112.62Y-96.28
X112.62Y-98.82
X112.62Y-101.36
X112.62Y-103.9
X116.56Y-91.21
X116.56Y-93.75
X116.56Y-96.29
X116.56Y-98.83
X116.6Y-103.63
X119.14Y-103.63
X123.19Y-101.375
X123.19Y-103.915
X129.86Y-96.38
X129.86Y-98.92
X129.86Y-101.46
T6
X122.94Y-91.07
X127.94Y-91.07
M30
