%TF.GenerationSoftware,KiCad,Pcbnew,10.0.1*%
%TF.CreationDate,2026-05-01T20:27:44-05:00*%
%TF.ProjectId,barrel-roll-DIPPCB_pro,62617272-656c-42d7-926f-6c6c2d444950,rev?*%
%TF.SameCoordinates,Original*%
%TF.FileFunction,Copper,L1,Top*%
%TF.FilePolarity,Positive*%
%FSLAX46Y46*%
G04 Gerber Fmt 4.6, Leading zero omitted, Abs format (unit mm)*
G04 Created by KiCad (PCBNEW 10.0.1) date 2026-05-01 20:27:44*
%MOMM*%
%LPD*%
G01*
G04 APERTURE LIST*
G04 Aperture macros list*
%AMRoundRect*
0 Rectangle with rounded corners*
0 $1 Rounding radius*
0 $2 $3 $4 $5 $6 $7 $8 $9 X,Y pos of 4 corners*
0 Add a 4 corners polygon primitive as box body*
4,1,4,$2,$3,$4,$5,$6,$7,$8,$9,$2,$3,0*
0 Add four circle primitives for the rounded corners*
1,1,$1+$1,$2,$3*
1,1,$1+$1,$4,$5*
1,1,$1+$1,$6,$7*
1,1,$1+$1,$8,$9*
0 Add four rect primitives between the rounded corners*
20,1,$1+$1,$2,$3,$4,$5,0*
20,1,$1+$1,$4,$5,$6,$7,0*
20,1,$1+$1,$6,$7,$8,$9,0*
20,1,$1+$1,$8,$9,$2,$3,0*%
G04 Aperture macros list end*
%TA.AperFunction,ComponentPad*%
%ADD10R,1.700000X1.700000*%
%TD*%
%TA.AperFunction,ComponentPad*%
%ADD11C,1.700000*%
%TD*%
%TA.AperFunction,ComponentPad*%
%ADD12RoundRect,0.250000X-0.550000X-0.550000X0.550000X-0.550000X0.550000X0.550000X-0.550000X0.550000X0*%
%TD*%
%TA.AperFunction,ComponentPad*%
%ADD13C,1.600000*%
%TD*%
%TA.AperFunction,SMDPad,CuDef*%
%ADD14RoundRect,0.152400X1.063600X0.609600X-1.063600X0.609600X-1.063600X-0.609600X1.063600X-0.609600X0*%
%TD*%
%TA.AperFunction,ComponentPad*%
%ADD15C,1.524000*%
%TD*%
%TA.AperFunction,SMDPad,CuDef*%
%ADD16RoundRect,0.152400X-1.063600X-0.609600X1.063600X-0.609600X1.063600X0.609600X-1.063600X0.609600X0*%
%TD*%
%TA.AperFunction,ComponentPad*%
%ADD17RoundRect,0.750000X-0.750000X-0.750000X0.750000X-0.750000X0.750000X0.750000X-0.750000X0.750000X0*%
%TD*%
%TA.AperFunction,ComponentPad*%
%ADD18C,3.000000*%
%TD*%
%TA.AperFunction,ViaPad*%
%ADD19C,0.600000*%
%TD*%
%TA.AperFunction,Conductor*%
%ADD20C,0.200000*%
%TD*%
G04 APERTURE END LIST*
D10*
%TO.P,U4,1,VCC_1*%
%TO.N,BT1P*%
X116560000Y-91210000D03*
D11*
%TO.P,U4,2,GND_2*%
%TO.N,GND*%
X116560000Y-93750000D03*
%TO.P,U4,3,TX_3*%
%TO.N,Net-(U1-GPIO0{slash}TX)*%
X116560000Y-96290000D03*
%TO.P,U4,4,RX_4*%
%TO.N,Net-(U1-GPIO1{slash}RX)*%
X116560000Y-98830000D03*
%TD*%
D10*
%TO.P,U3,1,M1_1*%
%TO.N,Net-(MX-5A_ESC1-M1)*%
X129860000Y-96380000D03*
D11*
%TO.P,U3,2,M2_2*%
%TO.N,Net-(MX-5A_ESC1-M2)*%
X129860000Y-98920000D03*
%TO.P,U3,3,M3_3*%
%TO.N,Net-(MX-5A_ESC1-M3)*%
X129860000Y-101460000D03*
%TD*%
D12*
%TO.P,U2,1,~{SLEEP}_1*%
%TO.N,BT1P*%
X133265000Y-88660000D03*
D13*
%TO.P,U2,2,AOUT1_2*%
%TO.N,AOUT1*%
X133265000Y-91200000D03*
%TO.P,U2,3,AISEN_3*%
%TO.N,GND*%
X133265000Y-93740000D03*
%TO.P,U2,4,AOUT2_4*%
%TO.N,AOUT2*%
X133265000Y-96280000D03*
%TO.P,U2,5,BOUT2_5*%
%TO.N,BOUT2*%
X133265000Y-98820000D03*
%TO.P,U2,6,BISEN_6*%
%TO.N,GND*%
X133265000Y-101360000D03*
%TO.P,U2,7,BOUT1_7*%
%TO.N,BOUT1*%
X133265000Y-103900000D03*
%TO.P,U2,8,~{FAULT}_8*%
%TO.N,unconnected-(U2-~{FAULT}-Pad8)*%
X133265000Y-106440000D03*
%TO.P,U2,9,BIN1_9*%
%TO.N,BIN1*%
X140885000Y-106440000D03*
%TO.P,U2,10,BIN2_10*%
%TO.N,BIN2*%
X140885000Y-103900000D03*
%TO.P,U2,11,VCP_11*%
%TO.N,unconnected-(U2-VCP-Pad11)*%
X140885000Y-101360000D03*
%TO.P,U2,12,VM_12*%
%TO.N,unconnected-(U2-VM-Pad12)*%
X140885000Y-98820000D03*
%TO.P,U2,13,GND_13*%
%TO.N,GND*%
X140885000Y-96280000D03*
%TO.P,U2,14,VINT_14*%
%TO.N,BT1P*%
X140885000Y-93740000D03*
%TO.P,U2,15,AIN2_15*%
%TO.N,AIN2*%
X140885000Y-91200000D03*
%TO.P,U2,16,AIN1_16*%
%TO.N,AIN1*%
X140885000Y-88660000D03*
%TD*%
D14*
%TO.P,U1,1,GPIO26/ADC0/A0_1*%
%TO.N,AIN1*%
X92025000Y-90680000D03*
D15*
X92860000Y-90680000D03*
D14*
%TO.P,U1,2,GPIO27/ADC1/A1_2*%
%TO.N,AIN2*%
X92025000Y-93220000D03*
D15*
X92860000Y-93220000D03*
D14*
%TO.P,U1,3,GPIO28/ADC2/A2_3*%
%TO.N,BIN1*%
X92025000Y-95760000D03*
D15*
X92860000Y-95760000D03*
D14*
%TO.P,U1,4,GPIO29/ADC3/A3_4*%
%TO.N,BIN2*%
X92025000Y-98300000D03*
D15*
X92860000Y-98300000D03*
D14*
%TO.P,U1,5,GPIO6/SDA_5*%
%TO.N,Net-(MX-5A_ESC1-SIG)*%
X92025000Y-100840000D03*
D15*
X92860000Y-100840000D03*
D14*
%TO.P,U1,6,GPIO7/SCL_6*%
%TO.N,unconnected-(U1-GPIO7{slash}SCL-Pad6)*%
X92025000Y-103380000D03*
D15*
X92860000Y-103380000D03*
D14*
%TO.P,U1,7,GPIO0/TX_7*%
%TO.N,Net-(U1-GPIO0{slash}TX)*%
X92025000Y-105920000D03*
D15*
X92860000Y-105920000D03*
%TO.P,U1,8,GPIO1/RX_8*%
%TO.N,Net-(U1-GPIO1{slash}RX)*%
X108100000Y-105920000D03*
D16*
X108935000Y-105920000D03*
D15*
%TO.P,U1,9,GPIO2/SCK_9*%
%TO.N,unconnected-(U1-GPIO2{slash}SCK-Pad9)*%
X108100000Y-103380000D03*
D16*
X108935000Y-103380000D03*
D15*
%TO.P,U1,10,GPIO4/MISO_10*%
%TO.N,unconnected-(U1-GPIO4{slash}MISO-Pad10)*%
X108100000Y-100840000D03*
D16*
X108935000Y-100840000D03*
D15*
%TO.P,U1,11,GPIO3/MOSI_11*%
%TO.N,unconnected-(U1-GPIO3{slash}MOSI-Pad11)*%
X108100000Y-98300000D03*
D16*
X108935000Y-98300000D03*
D15*
%TO.P,U1,12,3V3_12*%
%TO.N,unconnected-(U1-3V3-Pad12)*%
X108100000Y-95760000D03*
D16*
X108935000Y-95760000D03*
D15*
%TO.P,U1,13,GND_13*%
%TO.N,GND*%
X108100000Y-93220000D03*
D16*
X108935000Y-93220000D03*
D15*
%TO.P,U1,14,VBUS_14*%
%TO.N,BT1P*%
X108100000Y-90680000D03*
D16*
X108935000Y-90680000D03*
%TD*%
D12*
%TO.P,TP5,1,1_1*%
%TO.N,GND*%
X119920000Y-99210000D03*
%TD*%
%TO.P,TP4,1,1_1*%
%TO.N,Net-(XT1-Power)*%
X123210000Y-97680000D03*
%TD*%
%TO.P,TP3,1,1_1*%
%TO.N,BT1P*%
X126490000Y-97840000D03*
%TD*%
D10*
%TO.P,MX-5A_ESC1,1,VCC_1*%
%TO.N,BT1P*%
X112620000Y-91200000D03*
D11*
%TO.P,MX-5A_ESC1,2,GND_2*%
%TO.N,GND*%
X112620000Y-93740000D03*
%TO.P,MX-5A_ESC1,3,SIG_3*%
%TO.N,Net-(MX-5A_ESC1-SIG)*%
X112620000Y-96280000D03*
%TO.P,MX-5A_ESC1,4,M1_4*%
%TO.N,Net-(MX-5A_ESC1-M1)*%
X112620000Y-98820000D03*
%TO.P,MX-5A_ESC1,5,M2_5*%
%TO.N,Net-(MX-5A_ESC1-M2)*%
X112620000Y-101360000D03*
%TO.P,MX-5A_ESC1,6,M3_6*%
%TO.N,Net-(MX-5A_ESC1-M3)*%
X112620000Y-103900000D03*
%TD*%
D10*
%TO.P,M2,1,+_1*%
%TO.N,AOUT1*%
X116600000Y-103630000D03*
D11*
%TO.P,M2,2,-_2*%
%TO.N,AOUT2*%
X119140000Y-103630000D03*
%TD*%
D10*
%TO.P,M1,1,+_1*%
%TO.N,BOUT1*%
X123190000Y-101375000D03*
D11*
%TO.P,M1,2,-_2*%
%TO.N,BOUT2*%
X123190000Y-103915000D03*
%TD*%
D17*
%TO.P,XT1,1,Power_1*%
%TO.N,Net-(XT1-Power)*%
X122940000Y-91070000D03*
D18*
%TO.P,XT1,2,GND_2*%
%TO.N,GND*%
X127940000Y-91070000D03*
%TD*%
D19*
%TO.N,Net-(MX-5A_ESC1-M2)*%
X114460000Y-99130000D03*
X118480000Y-96710000D03*
X120070000Y-93970000D03*
X123360000Y-99580000D03*
%TO.N,Net-(MX-5A_ESC1-M1)*%
X124930000Y-93060000D03*
%TO.N,BOUT2*%
X127280000Y-102950000D03*
%TO.N,Net-(MX-5A_ESC1-M3)*%
X127010000Y-100500000D03*
X121200000Y-101540000D03*
X119860000Y-105570000D03*
%TO.N,BIN2*%
X120990000Y-105780000D03*
%TD*%
%TO.N,Net-(XT1-Power)*%
D20*
X122940000Y-91070000D02*
X122940000Y-92405256D01*
X122940000Y-92405256D02*
X127590000Y-97055256D01*
X127590000Y-98624744D02*
X126034744Y-100180000D01*
X127590000Y-97055256D02*
X127590000Y-98624744D01*
X122760000Y-98130000D02*
X123210000Y-97680000D01*
X126034744Y-100180000D02*
X123111471Y-100180000D01*
X123111471Y-100180000D02*
X122760000Y-99828529D01*
X122760000Y-99828529D02*
X122760000Y-98130000D01*
%TO.N,Net-(MX-5A_ESC1-M2)*%
X116150000Y-97440000D02*
X114460000Y-99130000D01*
X117750000Y-97440000D02*
X116150000Y-97440000D01*
X118480000Y-96710000D02*
X117750000Y-97440000D01*
X121384744Y-93970000D02*
X120070000Y-93970000D01*
X124310000Y-98630000D02*
X124310000Y-96895256D01*
X124310000Y-96895256D02*
X121384744Y-93970000D01*
X123360000Y-99580000D02*
X124310000Y-98630000D01*
%TO.N,Net-(MX-5A_ESC1-M1)*%
X124930000Y-93060000D02*
X128250000Y-96380000D01*
X128250000Y-96380000D02*
X129860000Y-96380000D01*
%TO.N,BOUT2*%
X127280000Y-102950000D02*
X130119365Y-102950000D01*
X130119365Y-102950000D02*
X133265000Y-99804365D01*
X133265000Y-99804365D02*
X133265000Y-98820000D01*
%TO.N,BOUT1*%
X123190000Y-101375000D02*
X125637445Y-103822445D01*
X133187445Y-103822445D02*
X133265000Y-103900000D01*
X125637445Y-103822445D02*
X133187445Y-103822445D01*
%TO.N,Net-(MX-5A_ESC1-M3)*%
X127010000Y-100500000D02*
X128900000Y-100500000D01*
X128900000Y-100500000D02*
X129860000Y-101460000D01*
X121631217Y-101971217D02*
X121200000Y-101540000D01*
X121631217Y-105987312D02*
X121631217Y-101971217D01*
X121238529Y-106380000D02*
X121631217Y-105987312D01*
X120670000Y-106380000D02*
X121238529Y-106380000D01*
X119860000Y-105570000D02*
X120670000Y-106380000D01*
%TO.N,BIN2*%
X120990000Y-103853654D02*
X120990000Y-105780000D01*
X92860000Y-98300000D02*
X93922000Y-99362000D01*
X110190214Y-99362000D02*
X110808214Y-99980000D01*
X93922000Y-99362000D02*
X110190214Y-99362000D01*
X117116346Y-99980000D02*
X120990000Y-103853654D01*
X110808214Y-99980000D02*
X117116346Y-99980000D01*
%TO.N,GND*%
X133265000Y-93740000D02*
X130610000Y-93740000D01*
X130610000Y-93740000D02*
X127940000Y-91070000D01*
X133265000Y-93740000D02*
X134365000Y-94840000D01*
X134365000Y-94840000D02*
X134365000Y-100260000D01*
X134365000Y-100260000D02*
X133265000Y-101360000D01*
%TO.N,AIN2*%
X136115560Y-108180000D02*
X138516301Y-108164334D01*
X138516301Y-108164334D02*
X139785000Y-106895635D01*
X92860000Y-93220000D02*
X93922000Y-92158000D01*
X110190214Y-92158000D02*
X110451000Y-92418786D01*
X93922000Y-92158000D02*
X110190214Y-92158000D01*
X110451000Y-92418786D02*
X116855132Y-92418786D01*
X116855132Y-92418786D02*
X122031217Y-97594871D01*
X122031217Y-97594871D02*
X122031217Y-106311217D01*
X122031217Y-106311217D02*
X122179654Y-106459654D01*
X122179654Y-106459654D02*
X122548271Y-106455774D01*
X122548271Y-106455774D02*
X124781600Y-104222445D01*
X124781600Y-104222445D02*
X131745509Y-104222445D01*
X131745509Y-104222445D02*
X132153207Y-104630143D01*
X132153207Y-104630143D02*
X132153207Y-107048290D01*
X132153207Y-107048290D02*
X133284917Y-108180000D01*
X133284917Y-108180000D02*
X136115560Y-108180000D01*
X139785000Y-106895635D02*
X139785000Y-92300000D01*
X139785000Y-92300000D02*
X140885000Y-91200000D01*
%TO.N,GND*%
X116560000Y-93750000D02*
X119920000Y-97110000D01*
X119920000Y-97110000D02*
X119920000Y-99210000D01*
X112620000Y-93740000D02*
X116550000Y-93740000D01*
X116550000Y-93740000D02*
X116560000Y-93750000D01*
X108100000Y-93220000D02*
X112100000Y-93220000D01*
X112100000Y-93220000D02*
X112620000Y-93740000D01*
%TO.N,BT1P*%
X116560000Y-91210000D02*
X119860000Y-91210000D01*
X119860000Y-91210000D02*
X126490000Y-97840000D01*
X112620000Y-91200000D02*
X112730000Y-91200000D01*
X112730000Y-91200000D02*
X112740000Y-91210000D01*
X112740000Y-91210000D02*
X116560000Y-91210000D01*
X108100000Y-90680000D02*
X112100000Y-90680000D01*
X112100000Y-90680000D02*
X112620000Y-91200000D01*
%TO.N,AIN1*%
X130450000Y-89020000D02*
X131190000Y-89760000D01*
X139785000Y-89760000D02*
X140885000Y-88660000D01*
X131190000Y-89760000D02*
X139785000Y-89760000D01*
X94520000Y-89020000D02*
X130450000Y-89020000D01*
X92860000Y-90680000D02*
X94520000Y-89020000D01*
%TD*%
M02*
